<?xml version="1.0" encoding="UTF-8" standalone="no"?>
<svg
   xmlns:dc="http://purl.org/dc/elements/1.1/"
   xmlns:cc="http://creativecommons.org/ns#"
   xmlns:rdf="http://www.w3.org/1999/02/22-rdf-syntax-ns#"
   xmlns:svg="http://www.w3.org/2000/svg"
   xmlns="http://www.w3.org/2000/svg"
   xmlns:sodipodi="http://sodipodi.sourceforge.net/DTD/sodipodi-0.dtd"
   xmlns:inkscape="http://www.inkscape.org/namespaces/inkscape"
   version="1.1"
   id="Livello_1"
   x="0px"
   y="0px"
   viewBox="0 0 527.20031 103.4"
   xml:space="preserve"
   sodipodi:docname="LOGIN.svg"
   width="527.20032"
   height="103.4"
   inkscape:version="1.0beta2 (unknown)"><metadata
   id="metadata1278"><rdf:RDF><cc:Work
       rdf:about=""><dc:format>image/svg+xml</dc:format><dc:type
         rdf:resource="http://purl.org/dc/dcmitype/StillImage" /><dc:title></dc:title></cc:Work></rdf:RDF></metadata><defs
   id="defs1276" /><sodipodi:namedview
   fit-margin-bottom="0"
   fit-margin-right="0"
   fit-margin-left="0"
   fit-margin-top="0"
   pagecolor="#ffffff"
   bordercolor="#666666"
   inkscape:document-rotation="0"
   borderopacity="1"
   objecttolerance="10"
   gridtolerance="10"
   guidetolerance="10"
   inkscape:pageopacity="0"
   inkscape:pageshadow="2"
   inkscape:window-width="1920"
   inkscape:window-height="995"
   id="namedview1274"
   showgrid="false"
   inkscape:zoom="0.55981979"
   inkscape:cx="243.95932"
   inkscape:cy="-253.27751"
   inkscape:window-x="0"
   inkscape:window-y="0"
   inkscape:window-maximized="1"
   inkscape:current-layer="Livello_1" />
<style
   type="text/css"
   id="style671">
	.st0{fill:#94C7C1;}
	.st1{fill:#FFFFFF;}
	.st2{fill:#E30613;}
	.st3{opacity:0.19;}
</style>
<g
   transform="translate(-696.4,-650.9)"
   id="g675">
	<rect
   class="st0"
   width="1920"
   height="1080"
   id="rect673"
   x="0"
   y="0" />
</g>
<g
   transform="translate(-696.4,-650.9)"
   id="g679">
	<path
   class="st1"
   d="M 1171.9,611.7 H 748.1 c -28.6,0 -51.7,-23.2 -51.7,-51.7 v 0 c 0,-28.6 23.2,-51.7 51.7,-51.7 h 423.8 c 28.6,0 51.7,23.2 51.7,51.7 v 0 c 0.1,28.6 -23.1,51.7 -51.7,51.7 z"
   id="path677"
   inkscape:connector-curvature="0" />
</g>
<g
   transform="translate(-696.4,-650.9)"
   onclick="alert(&quot;HELL"
   id="g683">
	<path
   class="st1"
   d="M 1171.9,754.3 H 748.1 c -28.6,0 -51.7,-23.2 -51.7,-51.7 v 0 c 0,-28.6 23.2,-51.7 51.7,-51.7 h 423.8 c 28.6,0 51.7,23.2 51.7,51.7 v 0 c 0.1,28.6 -23.1,51.7 -51.7,51.7 z"
   id="path681"
   inkscape:connector-curvature="0" />
</g>
<g
   transform="translate(-696.4,-650.9)"
   id="g687">
	<path
   class="st0"
   d="M 1168.6,745.5 H 751.4 c -23.1,0 -41.9,-18.8 -41.9,-41.9 0,-23.1 18.8,-41.9 41.9,-41.9 h 417.2 c 23.1,0 41.9,18.8 41.9,41.9 0,23.1 -18.8,41.9 -41.9,41.9 z M 751.4,667.8 c -19.8,0 -35.9,16.1 -35.9,35.9 0,19.8 16.1,35.9 35.9,35.9 h 417.2 c 19.8,0 35.9,-16.1 35.9,-35.9 0,-19.8 -16.1,-35.9 -35.9,-35.9 z"
   id="path685"
   inkscape:connector-curvature="0" />
</g>
<g
   transform="translate(-696.4,-650.9)"
   id="g691">
	<path
   class="st0"
   d="M 1168.6,601.9 H 751.4 c -23.1,0 -41.9,-18.8 -41.9,-41.9 0,-23.1 18.8,-41.9 41.9,-41.9 h 417.2 c 23.1,0 41.9,18.8 41.9,41.9 0,23.1 -18.8,41.9 -41.9,41.9 z M 751.4,524.1 c -19.8,0 -35.9,16.1 -35.9,35.9 0,19.8 16.1,35.9 35.9,35.9 h 417.2 c 19.8,0 35.9,-16.1 35.9,-35.9 0,-19.8 -16.1,-35.9 -35.9,-35.9 z"
   id="path689"
   inkscape:connector-curvature="0" />
</g>
<g
   transform="translate(-696.4,-650.9)"
   id="g695">
	<path
   class="st1"
   d="M 1171.9,485.8 H 748.1 c -28.6,0 -51.7,-23.2 -51.7,-51.7 v 0 c 0,-28.6 23.2,-51.7 51.7,-51.7 h 423.8 c 28.6,0 51.7,23.2 51.7,51.7 v 0 c 0.1,28.5 -23.1,51.7 -51.7,51.7 z"
   id="path693"
   inkscape:connector-curvature="0" />
</g>
<g
   transform="translate(-696.4,-650.9)"
   id="g707">
	<path
   class="st0"
   d="m 878.1,719.7 v -35.4 h 8.6 v 27.9 h 13.7 v 7.5 z"
   id="path697"
   inkscape:connector-curvature="0" />
	<path
   class="st0"
   d="m 939.7,701.9 c 0,2.8 -0.5,5.4 -1.4,7.7 -1,2.3 -2.3,4.3 -4,6 -1.7,1.6 -3.8,2.9 -6.1,3.8 -2.4,0.9 -4.9,1.3 -7.7,1.3 -2.8,0 -5.3,-0.5 -7.7,-1.3 -2.4,-0.9 -4.4,-2.2 -6.1,-3.8 -1.7,-1.7 -3.1,-3.6 -4,-6 -1,-2.3 -1.5,-4.9 -1.5,-7.7 0,-2.8 0.5,-5.4 1.5,-7.7 1,-2.3 2.3,-4.2 4,-5.8 1.7,-1.6 3.8,-2.8 6.1,-3.7 2.3,-0.9 4.9,-1.3 7.7,-1.3 2.8,0 5.3,0.4 7.7,1.3 2.4,0.9 4.4,2.1 6.1,3.7 1.7,1.6 3.1,3.5 4,5.8 1,2.3 1.4,4.9 1.4,7.7 z m -9.1,0 c 0,-1.5 -0.2,-3 -0.8,-4.3 -0.6,-1.3 -1.2,-2.5 -2.1,-3.4 -0.9,-0.9 -2,-1.7 -3.2,-2.2 -1.2,-0.5 -2.6,-0.8 -4.1,-0.8 -1.5,0 -2.9,0.3 -4.1,0.8 -1.2,0.6 -2.3,1.3 -3.2,2.2 -0.9,1 -1.6,2.1 -2.1,3.4 -0.5,1.3 -0.7,2.8 -0.7,4.3 0,1.6 0.2,3.1 0.8,4.4 0.6,1.3 1.2,2.5 2.1,3.5 0.9,1 1.9,1.7 3.2,2.3 1.2,0.5 2.6,0.8 4.1,0.8 1.5,0 2.9,-0.3 4.1,-0.8 1.2,-0.5 2.3,-1.3 3.2,-2.3 0.9,-1 1.6,-2.1 2.1,-3.5 0.5,-1.4 0.7,-2.8 0.7,-4.4 z"
   id="path699"
   inkscape:connector-curvature="0" />
	<path
   class="st0"
   d="m 970.8,719.8 c -2.3,0.6 -4.8,0.9 -7.6,0.9 -2.8,0 -5.4,-0.5 -7.8,-1.4 -2.4,-0.9 -4.4,-2.2 -6.1,-3.8 -1.7,-1.6 -3.1,-3.6 -4,-5.9 -1,-2.3 -1.5,-4.8 -1.5,-7.6 0,-2.8 0.5,-5.4 1.5,-7.7 1,-2.3 2.3,-4.3 4.1,-5.9 1.7,-1.6 3.8,-2.9 6.1,-3.7 2.3,-0.9 4.9,-1.3 7.6,-1.3 2.8,0 5.4,0.4 7.8,1.3 2.4,0.9 4.3,2 5.8,3.4 l -5.4,6.1 c -0.8,-1 -1.9,-1.8 -3.3,-2.4 -1.4,-0.6 -2.9,-0.9 -4.6,-0.9 -1.5,0 -2.9,0.3 -4.2,0.8 -1.3,0.5 -2.4,1.3 -3.3,2.3 -0.9,1 -1.7,2.2 -2.2,3.5 -0.5,1.3 -0.8,2.8 -0.8,4.4 0,1.6 0.2,3.1 0.7,4.5 0.5,1.4 1.2,2.5 2.1,3.5 0.9,1 2,1.8 3.4,2.3 1.4,0.5 2.9,0.8 4.6,0.8 1,0 2,-0.1 2.9,-0.2 0.9,-0.1 1.7,-0.4 2.5,-0.7 v -6.5 h -6.8 v -6.9 h 14.6 v 18.8 c -1.8,1 -3.8,1.7 -6.1,2.3 z"
   id="path701"
   inkscape:connector-curvature="0" />
	<path
   class="st0"
   d="m 983.8,719.7 v -35.4 h 8.6 v 35.4 z"
   id="path703"
   inkscape:connector-curvature="0" />
	<path
   class="st0"
   d="M 1022.2,719.7 1008,696.6 h -0.2 l 0.2,23.1 h -8.3 v -35.4 h 9.8 l 14.2,23.1 h 0.1 l -0.2,-23.1 h 8.3 v 35.4 z"
   id="path705"
   inkscape:connector-curvature="0" />
</g>
<g
   transform="translate(-696.4,-650.9)"
   id="g725">
	<path
   class="st0"
   d="m 885.6,561.1 c 0,1.4 -0.2,2.7 -0.6,4 -0.4,1.3 -1,2.4 -1.9,3.4 -0.8,1 -1.8,1.8 -3,2.3 -1.2,0.6 -2.5,0.9 -4,0.9 -1.2,0 -2.4,-0.2 -3.5,-0.7 -1.1,-0.5 -1.9,-1.2 -2.6,-2 v 0 11.8 h -6.6 v -29.5 h 6.2 v 2.4 h 0.1 c 0.6,-0.8 1.5,-1.5 2.5,-2.1 1.1,-0.6 2.4,-0.9 3.8,-0.9 1.4,0 2.7,0.3 3.9,0.8 1.2,0.6 2.2,1.3 3,2.3 0.8,1 1.4,2.1 1.9,3.3 0.6,1.3 0.8,2.7 0.8,4 z m -6.4,0 c 0,-0.6 -0.1,-1.3 -0.3,-1.9 -0.2,-0.6 -0.5,-1.2 -0.9,-1.6 -0.4,-0.5 -0.9,-0.8 -1.5,-1.1 -0.6,-0.3 -1.3,-0.4 -2,-0.4 -0.7,0 -1.4,0.1 -2,0.4 -0.6,0.3 -1.1,0.7 -1.5,1.2 -0.4,0.5 -0.7,1 -1,1.6 -0.2,0.6 -0.3,1.2 -0.3,1.9 0,0.6 0.1,1.3 0.3,1.9 0.2,0.6 0.5,1.2 1,1.6 0.4,0.5 0.9,0.9 1.5,1.2 0.6,0.3 1.3,0.4 2,0.4 0.8,0 1.5,-0.1 2,-0.4 0.6,-0.3 1.1,-0.7 1.5,-1.2 0.4,-0.5 0.7,-1 0.9,-1.7 0.2,-0.6 0.3,-1.2 0.3,-1.9 z"
   id="path709"
   inkscape:connector-curvature="0" />
	<path
   class="st0"
   d="m 889.4,554 c 1.2,-1.1 2.5,-2 4.1,-2.5 1.6,-0.6 3.2,-0.8 4.8,-0.8 1.7,0 3.1,0.2 4.3,0.6 1.2,0.4 2.1,1.1 2.8,1.9 0.7,0.9 1.2,2 1.6,3.3 0.4,1.3 0.5,2.9 0.5,4.7 v 10 h -6 v -2.1 h -0.1 c -0.5,0.8 -1.3,1.5 -2.3,1.9 -1,0.5 -2.1,0.7 -3.3,0.7 -0.8,0 -1.6,-0.1 -2.5,-0.3 -0.9,-0.2 -1.6,-0.6 -2.3,-1 -0.7,-0.5 -1.3,-1.1 -1.7,-1.9 -0.5,-0.8 -0.7,-1.8 -0.7,-3 0,-1.4 0.4,-2.6 1.2,-3.5 0.8,-0.9 1.8,-1.6 3,-2 1.2,-0.5 2.6,-0.8 4.1,-1 1.5,-0.2 3,-0.2 4.4,-0.2 v -0.3 c 0,-1 -0.3,-1.7 -1,-2.2 -0.7,-0.5 -1.5,-0.7 -2.6,-0.7 -0.9,0 -1.8,0.2 -2.7,0.6 -0.9,0.4 -1.6,0.9 -2.2,1.4 z m 12.1,8.5 h -0.8 c -0.7,0 -1.4,0 -2.2,0.1 -0.8,0.1 -1.4,0.2 -2,0.4 -0.6,0.2 -1,0.5 -1.4,0.8 -0.4,0.4 -0.6,0.8 -0.6,1.4 0,0.4 0.1,0.7 0.3,1 0.2,0.3 0.4,0.5 0.7,0.6 0.3,0.1 0.6,0.3 0.9,0.3 0.3,0.1 0.7,0.1 1,0.1 1.3,0 2.4,-0.4 3.1,-1.1 0.7,-0.7 1.1,-1.7 1.1,-3 v -0.6 z"
   id="path711"
   inkscape:connector-curvature="0" />
	<path
   class="st0"
   d="m 924.1,557.1 c -0.5,-0.5 -1.2,-0.9 -1.9,-1.3 -0.7,-0.3 -1.5,-0.5 -2.3,-0.5 -0.6,0 -1.2,0.1 -1.7,0.4 -0.5,0.3 -0.8,0.7 -0.8,1.2 0,0.6 0.3,1 0.9,1.2 0.6,0.2 1.5,0.5 2.8,0.8 0.7,0.2 1.5,0.4 2.3,0.7 0.8,0.3 1.4,0.7 2.1,1.2 0.6,0.5 1.1,1.1 1.5,1.8 0.4,0.7 0.6,1.5 0.6,2.5 0,1.3 -0.3,2.3 -0.8,3.2 -0.5,0.9 -1.2,1.6 -2,2.1 -0.8,0.5 -1.7,0.9 -2.7,1.2 -1,0.2 -2,0.4 -3,0.4 -1.6,0 -3.2,-0.3 -4.8,-0.8 -1.6,-0.5 -2.9,-1.3 -3.9,-2.3 l 3.7,-3.9 c 0.6,0.6 1.3,1.2 2.2,1.6 0.9,0.4 1.8,0.6 2.7,0.6 0.5,0 1.1,-0.1 1.6,-0.4 0.5,-0.3 0.8,-0.7 0.8,-1.3 0,-0.6 -0.3,-1.1 -1,-1.4 -0.6,-0.3 -1.6,-0.6 -3,-0.9 -0.7,-0.2 -1.4,-0.4 -2.1,-0.6 -0.7,-0.3 -1.3,-0.6 -1.9,-1.1 -0.5,-0.5 -1,-1 -1.3,-1.7 -0.3,-0.7 -0.5,-1.5 -0.5,-2.4 0,-1.2 0.3,-2.2 0.8,-3.1 0.5,-0.8 1.2,-1.5 2,-2.1 0.8,-0.5 1.7,-0.9 2.7,-1.2 1,-0.3 1.9,-0.4 2.9,-0.4 1.5,0 3,0.2 4.4,0.7 1.4,0.5 2.6,1.2 3.6,2.1 z"
   id="path713"
   inkscape:connector-curvature="0" />
	<path
   class="st0"
   d="m 943,557.1 c -0.5,-0.5 -1.2,-0.9 -1.9,-1.3 -0.7,-0.3 -1.5,-0.5 -2.3,-0.5 -0.6,0 -1.2,0.1 -1.7,0.4 -0.5,0.3 -0.8,0.7 -0.8,1.2 0,0.6 0.3,1 0.9,1.2 0.6,0.2 1.5,0.5 2.8,0.8 0.7,0.2 1.5,0.4 2.3,0.7 0.8,0.3 1.4,0.7 2.1,1.2 0.6,0.5 1.1,1.1 1.5,1.8 0.4,0.7 0.6,1.5 0.6,2.5 0,1.3 -0.3,2.3 -0.8,3.2 -0.5,0.9 -1.2,1.6 -2,2.1 -0.8,0.5 -1.7,0.9 -2.7,1.2 -1,0.2 -2,0.4 -3,0.4 -1.6,0 -3.2,-0.3 -4.8,-0.8 -1.6,-0.5 -2.9,-1.3 -3.9,-2.3 L 933,565 c 0.6,0.6 1.3,1.2 2.2,1.6 0.9,0.4 1.8,0.6 2.7,0.6 0.5,0 1.1,-0.1 1.6,-0.4 0.5,-0.3 0.8,-0.7 0.8,-1.3 0,-0.6 -0.3,-1.1 -1,-1.4 -0.6,-0.3 -1.6,-0.6 -3,-0.9 -0.7,-0.2 -1.4,-0.4 -2.1,-0.6 -0.7,-0.3 -1.3,-0.6 -1.9,-1.1 -0.5,-0.5 -1,-1 -1.3,-1.7 -0.3,-0.7 -0.5,-1.5 -0.5,-2.4 0,-1.2 0.3,-2.2 0.8,-3.1 0.5,-0.8 1.2,-1.5 2,-2.1 0.8,-0.5 1.7,-0.9 2.7,-1.2 1,-0.3 1.9,-0.4 2.9,-0.4 1.5,0 3,0.2 4.4,0.7 1.4,0.5 2.6,1.2 3.6,2.1 z"
   id="path715"
   inkscape:connector-curvature="0" />
	<path
   class="st0"
   d="m 975.5,571.2 h -6.6 L 965,558.8 h -0.1 l -3.8,12.4 h -6.6 l -6.9,-19.9 h 7.1 l 3.4,12.6 h 0.1 l 3.6,-12.6 h 6.6 l 3.7,12.6 h 0.1 l 3.5,-12.6 h 6.8 z"
   id="path717"
   inkscape:connector-curvature="0" />
	<path
   class="st0"
   d="m 1006.1,561.1 c 0,1.6 -0.3,3.1 -0.9,4.4 -0.6,1.3 -1.4,2.4 -2.4,3.4 -1,0.9 -2.2,1.6 -3.5,2.1 -1.3,0.5 -2.8,0.8 -4.3,0.8 -1.5,0 -2.9,-0.3 -4.3,-0.8 -1.3,-0.5 -2.5,-1.2 -3.5,-2.1 -1,-0.9 -1.8,-2 -2.4,-3.4 -0.6,-1.3 -0.9,-2.8 -0.9,-4.4 0,-1.6 0.3,-3.1 0.9,-4.4 0.6,-1.3 1.4,-2.4 2.4,-3.3 1,-0.9 2.2,-1.6 3.5,-2.1 1.3,-0.5 2.8,-0.7 4.3,-0.7 1.5,0 2.9,0.2 4.3,0.7 1.3,0.5 2.5,1.2 3.5,2.1 1,0.9 1.8,2 2.4,3.3 0.6,1.4 0.9,2.8 0.9,4.4 z m -6.3,0 c 0,-0.6 -0.1,-1.3 -0.3,-1.9 -0.2,-0.6 -0.5,-1.2 -0.9,-1.6 -0.4,-0.5 -0.9,-0.8 -1.5,-1.1 -0.6,-0.3 -1.3,-0.4 -2,-0.4 -0.8,0 -1.5,0.1 -2,0.4 -0.6,0.3 -1.1,0.7 -1.5,1.1 -0.4,0.5 -0.7,1 -0.9,1.6 -0.2,0.6 -0.3,1.2 -0.3,1.9 0,0.6 0.1,1.3 0.3,1.9 0.2,0.6 0.5,1.2 0.9,1.7 0.4,0.5 0.9,0.9 1.5,1.2 0.6,0.3 1.3,0.4 2,0.4 0.8,0 1.5,-0.1 2,-0.4 0.6,-0.3 1.1,-0.7 1.5,-1.2 0.4,-0.5 0.7,-1 0.9,-1.7 0.2,-0.6 0.3,-1.2 0.3,-1.9 z"
   id="path719"
   inkscape:connector-curvature="0" />
	<path
   class="st0"
   d="m 1023.2,556.7 c -0.3,-0.1 -0.6,-0.1 -0.9,-0.2 -0.3,0 -0.6,0 -0.8,0 -0.9,0 -1.6,0.2 -2.2,0.5 -0.6,0.3 -1.1,0.7 -1.4,1.2 -0.4,0.5 -0.6,0.9 -0.8,1.5 -0.2,0.6 -0.2,1 -0.2,1.4 v 10.2 h -6.6 v -19.9 h 6.3 v 2.9 h 0.1 c 0.5,-1 1.2,-1.9 2.2,-2.5 1,-0.6 2,-1 3.2,-1 0.3,0 0.5,0 0.8,0 0.3,0 0.5,0.1 0.6,0.1 z"
   id="path721"
   inkscape:connector-curvature="0" />
	<path
   class="st0"
   d="m 1040.4,571.2 v -2.6 h -0.1 c -0.6,1 -1.6,1.8 -2.7,2.3 -1.2,0.5 -2.4,0.8 -3.8,0.8 -1.5,0 -2.8,-0.3 -4,-0.9 -1.2,-0.6 -2.2,-1.4 -3,-2.3 -0.8,-1 -1.4,-2.1 -1.9,-3.4 -0.5,-1.3 -0.6,-2.6 -0.6,-4 0,-1.4 0.2,-2.7 0.7,-4 0.4,-1.3 1.1,-2.4 1.9,-3.3 0.8,-1 1.8,-1.7 3,-2.3 1.2,-0.6 2.5,-0.8 3.9,-0.8 1.5,0 2.7,0.3 3.7,0.8 1,0.6 1.8,1.2 2.4,1.8 h 0.1 v -12.4 h 6.6 v 30.2 h -6.2 z m -0.2,-10 c 0,-0.6 -0.1,-1.3 -0.3,-1.9 -0.2,-0.6 -0.5,-1.2 -1,-1.6 -0.4,-0.5 -0.9,-0.9 -1.5,-1.2 -0.6,-0.3 -1.3,-0.4 -2,-0.4 -0.8,0 -1.5,0.1 -2,0.4 -0.6,0.3 -1.1,0.7 -1.5,1.1 -0.4,0.5 -0.7,1 -0.9,1.6 -0.2,0.6 -0.3,1.2 -0.3,1.9 0,0.6 0.1,1.3 0.3,1.9 0.2,0.6 0.5,1.2 0.9,1.7 0.4,0.5 0.9,0.9 1.5,1.2 0.6,0.3 1.3,0.4 2,0.4 0.7,0 1.4,-0.1 2,-0.4 0.6,-0.3 1.1,-0.7 1.5,-1.2 0.4,-0.5 0.7,-1 1,-1.6 0.3,-0.6 0.3,-1.3 0.3,-1.9 z"
   id="path723"
   inkscape:connector-curvature="0" />
</g>
<g
   transform="translate(-696.4,-650.9)"
   id="g743">
	<path
   class="st0"
   d="m 875.1,447.2 v -2.8 H 875 c -0.2,0.5 -0.6,0.9 -0.9,1.3 -0.4,0.4 -0.8,0.7 -1.4,1 -0.5,0.3 -1.1,0.5 -1.7,0.7 -0.6,0.2 -1.3,0.3 -2,0.3 -1.3,0 -2.5,-0.2 -3.4,-0.7 -0.9,-0.5 -1.7,-1.1 -2.2,-1.9 -0.6,-0.8 -1,-1.6 -1.2,-2.6 -0.3,-1 -0.4,-2 -0.4,-3 v -12.3 h 6.6 V 438 c 0,0.6 0,1.1 0.1,1.6 0.1,0.5 0.2,1 0.5,1.4 0.2,0.4 0.5,0.7 0.9,0.9 0.4,0.2 0.9,0.3 1.5,0.3 1.1,0 2,-0.4 2.6,-1.3 0.6,-0.9 0.9,-1.9 0.9,-3 v -10.8 h 6.6 V 447 h -6.4 z"
   id="path727"
   inkscape:connector-curvature="0" />
	<path
   class="st0"
   d="m 898.2,433.1 c -0.5,-0.5 -1.2,-0.9 -1.9,-1.3 -0.7,-0.3 -1.5,-0.5 -2.3,-0.5 -0.6,0 -1.2,0.1 -1.7,0.4 -0.5,0.2 -0.8,0.7 -0.8,1.2 0,0.6 0.3,1 0.9,1.2 0.6,0.2 1.5,0.5 2.8,0.8 0.7,0.2 1.5,0.4 2.3,0.7 0.8,0.3 1.4,0.7 2.1,1.2 0.6,0.5 1.1,1.1 1.5,1.8 0.4,0.7 0.6,1.5 0.6,2.5 0,1.3 -0.3,2.3 -0.8,3.2 -0.5,0.9 -1.2,1.6 -2,2.1 -0.8,0.5 -1.7,0.9 -2.7,1.2 -1,0.2 -2,0.4 -3,0.4 -1.6,0 -3.2,-0.3 -4.8,-0.8 -1.6,-0.5 -2.9,-1.3 -3.9,-2.3 l 3.7,-3.9 c 0.6,0.6 1.3,1.2 2.2,1.6 0.9,0.4 1.8,0.6 2.7,0.6 0.5,0 1.1,-0.1 1.6,-0.4 0.5,-0.3 0.8,-0.7 0.8,-1.3 0,-0.6 -0.3,-1.1 -1,-1.4 -0.6,-0.3 -1.6,-0.6 -3,-0.9 -0.7,-0.2 -1.4,-0.4 -2.1,-0.6 -0.7,-0.3 -1.3,-0.6 -1.9,-1.1 -0.5,-0.5 -1,-1 -1.3,-1.7 -0.3,-0.7 -0.5,-1.5 -0.5,-2.4 0,-1.2 0.3,-2.2 0.8,-3.1 0.5,-0.8 1.2,-1.5 2,-2.1 0.8,-0.5 1.7,-0.9 2.7,-1.2 1,-0.3 1.9,-0.4 2.9,-0.4 1.5,0 3,0.2 4.4,0.7 1.4,0.5 2.6,1.2 3.6,2.1 z"
   id="path729"
   inkscape:connector-curvature="0" />
	<path
   class="st0"
   d="m 925.2,437.5 c 0,0.3 0,0.5 0,0.8 0,0.3 0,0.5 0,0.8 h -14.4 c 0.1,0.6 0.2,1.1 0.5,1.5 0.3,0.5 0.6,0.8 1.1,1.2 0.4,0.3 0.9,0.6 1.5,0.8 0.5,0.2 1.1,0.3 1.7,0.3 1,0 1.9,-0.2 2.6,-0.6 0.7,-0.4 1.3,-0.9 1.8,-1.5 l 4.6,2.9 c -0.9,1.4 -2.2,2.4 -3.7,3.1 -1.5,0.7 -3.3,1.1 -5.3,1.1 -1.5,0 -2.9,-0.2 -4.2,-0.7 -1.3,-0.5 -2.5,-1.1 -3.5,-2 -1,-0.9 -1.8,-2 -2.4,-3.3 -0.6,-1.3 -0.9,-2.8 -0.9,-4.5 0,-1.6 0.3,-3.1 0.8,-4.4 0.6,-1.3 1.3,-2.4 2.3,-3.4 1,-1 2.1,-1.6 3.4,-2.1 1.3,-0.5 2.7,-0.8 4.2,-0.8 1.5,0 2.8,0.2 4,0.7 1.2,0.5 2.3,1.2 3.2,2.1 0.9,0.9 1.6,2.1 2.1,3.4 0.3,1.3 0.6,2.9 0.6,4.6 z m -6.1,-2.6 c 0,-1 -0.3,-1.9 -1,-2.7 -0.7,-0.7 -1.6,-1.1 -2.9,-1.1 -0.6,0 -1.2,0.1 -1.8,0.3 -0.5,0.2 -1,0.5 -1.4,0.8 -0.4,0.3 -0.7,0.8 -1,1.2 -0.2,0.5 -0.4,1 -0.4,1.5 z"
   id="path731"
   inkscape:connector-curvature="0" />
	<path
   class="st0"
   d="m 942.2,432.7 c -0.3,-0.1 -0.6,-0.1 -0.9,-0.2 -0.3,0 -0.6,0 -0.8,0 -0.9,0 -1.6,0.2 -2.2,0.5 -0.6,0.3 -1.1,0.7 -1.4,1.2 -0.4,0.5 -0.6,0.9 -0.8,1.5 -0.2,0.5 -0.2,1 -0.2,1.4 v 10.2 h -6.6 v -19.9 h 6.3 v 2.9 h 0.1 c 0.5,-1 1.2,-1.9 2.2,-2.5 0.9,-0.6 2,-1 3.2,-1 0.3,0 0.5,0 0.8,0 0.3,0 0.5,0.1 0.6,0.1 z"
   id="path733"
   inkscape:connector-curvature="0" />
	<path
   class="st0"
   d="m 958.2,447.2 v -10.9 c 0,-0.6 0,-1.1 -0.1,-1.6 -0.1,-0.5 -0.2,-1 -0.5,-1.3 -0.2,-0.4 -0.5,-0.7 -0.9,-0.9 -0.4,-0.2 -0.9,-0.3 -1.5,-0.3 -0.6,0 -1.1,0.1 -1.5,0.3 -0.4,0.2 -0.8,0.5 -1.1,0.9 -0.3,0.4 -0.5,0.9 -0.7,1.4 -0.1,0.5 -0.2,1.1 -0.2,1.6 v 10.8 h -6.6 v -19.9 h 6.4 v 2.8 h 0.1 c 0.2,-0.4 0.6,-0.8 0.9,-1.3 0.4,-0.4 0.8,-0.8 1.4,-1.1 0.5,-0.3 1.1,-0.5 1.7,-0.7 0.6,-0.2 1.3,-0.3 2,-0.3 1.3,0 2.5,0.2 3.4,0.7 0.9,0.5 1.7,1.1 2.3,1.9 0.6,0.8 1,1.6 1.2,2.6 0.3,1 0.4,2 0.4,3 v 12.3 z"
   id="path735"
   inkscape:connector-curvature="0" />
	<path
   class="st0"
   d="m 969.4,430 c 1.2,-1.1 2.5,-2 4.1,-2.5 1.6,-0.6 3.2,-0.8 4.8,-0.8 1.7,0 3.1,0.2 4.3,0.6 1.2,0.4 2.1,1.1 2.8,1.9 0.7,0.9 1.2,2 1.6,3.3 0.3,1.3 0.5,2.9 0.5,4.7 v 10 h -6 v -2.1 h -0.1 c -0.5,0.8 -1.3,1.5 -2.3,1.9 -1,0.5 -2.1,0.7 -3.3,0.7 -0.8,0 -1.6,-0.1 -2.5,-0.3 -0.9,-0.2 -1.6,-0.6 -2.3,-1 -0.7,-0.5 -1.3,-1.1 -1.7,-1.9 -0.5,-0.8 -0.7,-1.8 -0.7,-3 0,-1.4 0.4,-2.6 1.2,-3.5 0.8,-0.9 1.8,-1.6 3,-2 1.2,-0.4 2.6,-0.8 4.1,-1 1.5,-0.2 3,-0.2 4.4,-0.2 v -0.3 c 0,-1 -0.3,-1.7 -1,-2.2 -0.7,-0.5 -1.5,-0.7 -2.6,-0.7 -0.9,0 -1.8,0.2 -2.7,0.6 -0.9,0.4 -1.6,0.9 -2.2,1.4 z m 12.1,8.5 h -0.8 c -0.7,0 -1.4,0 -2.2,0.1 -0.7,0.1 -1.4,0.2 -2,0.4 -0.6,0.2 -1,0.5 -1.4,0.8 -0.4,0.4 -0.6,0.8 -0.6,1.4 0,0.4 0.1,0.7 0.3,1 0.2,0.3 0.4,0.5 0.7,0.6 0.3,0.2 0.6,0.3 0.9,0.3 0.3,0.1 0.7,0.1 1,0.1 1.3,0 2.4,-0.4 3.1,-1.1 0.7,-0.7 1.1,-1.7 1.1,-3 v -0.6 z"
   id="path737"
   inkscape:connector-curvature="0" />
	<path
   class="st0"
   d="m 1017.8,447.2 v -10.9 c 0,-0.6 0,-1.1 -0.1,-1.6 -0.1,-0.5 -0.2,-1 -0.4,-1.3 -0.2,-0.4 -0.5,-0.7 -0.9,-0.9 -0.4,-0.2 -0.8,-0.3 -1.4,-0.3 -0.6,0 -1,0.1 -1.5,0.4 -0.4,0.2 -0.8,0.6 -1,1 -0.3,0.4 -0.5,0.9 -0.6,1.4 -0.1,0.5 -0.2,1.1 -0.2,1.6 v 10.8 h -6.6 V 436 c 0,-1.1 -0.2,-2.1 -0.7,-2.7 -0.5,-0.7 -1.2,-1 -2.2,-1 -1,0 -1.8,0.4 -2.4,1.2 -0.6,0.8 -0.9,1.8 -0.9,3 v 10.8 h -6.6 v -19.9 h 6.4 v 2.8 h 0.1 c 0.2,-0.4 0.5,-0.8 0.9,-1.2 0.4,-0.4 0.8,-0.8 1.3,-1.1 0.5,-0.3 1.1,-0.6 1.7,-0.7 0.6,-0.2 1.3,-0.3 2.1,-0.3 1.4,0 2.7,0.3 3.7,0.9 1,0.6 1.8,1.4 2.3,2.5 0.7,-1 1.5,-1.9 2.6,-2.5 1,-0.6 2.3,-0.9 3.8,-0.9 1.4,0 2.5,0.2 3.4,0.7 0.9,0.5 1.7,1.1 2.2,1.9 0.6,0.8 1,1.7 1.2,2.6 0.3,1 0.4,1.9 0.4,2.9 v 12.3 h -6.6 z"
   id="path739"
   inkscape:connector-curvature="0" />
	<path
   class="st0"
   d="m 1049.1,437.5 c 0,0.3 0,0.5 0,0.8 0,0.3 0,0.5 0,0.8 h -14.4 c 0.1,0.6 0.2,1.1 0.5,1.5 0.3,0.5 0.6,0.8 1.1,1.2 0.4,0.3 0.9,0.6 1.5,0.8 0.5,0.2 1.1,0.3 1.7,0.3 1,0 1.9,-0.2 2.6,-0.6 0.7,-0.4 1.3,-0.9 1.8,-1.5 l 4.6,2.9 c -0.9,1.4 -2.2,2.4 -3.7,3.1 -1.5,0.7 -3.3,1.1 -5.3,1.1 -1.5,0 -2.9,-0.2 -4.2,-0.7 -1.3,-0.5 -2.5,-1.1 -3.5,-2 -1,-0.9 -1.8,-2 -2.4,-3.3 -0.6,-1.3 -0.9,-2.8 -0.9,-4.5 0,-1.6 0.3,-3.1 0.8,-4.4 0.6,-1.3 1.3,-2.4 2.3,-3.4 1,-1 2.1,-1.6 3.4,-2.1 1.3,-0.5 2.7,-0.8 4.2,-0.8 1.5,0 2.8,0.2 4,0.7 1.2,0.5 2.3,1.2 3.2,2.1 0.9,0.9 1.6,2.1 2.1,3.4 0.3,1.3 0.6,2.9 0.6,4.6 z m -6.1,-2.6 c 0,-1 -0.3,-1.9 -1,-2.7 -0.7,-0.7 -1.6,-1.1 -2.9,-1.1 -0.6,0 -1.2,0.1 -1.8,0.3 -0.5,0.2 -1,0.5 -1.4,0.8 -0.4,0.3 -0.7,0.8 -1,1.2 -0.2,0.5 -0.4,1 -0.4,1.5 z"
   id="path741"
   inkscape:connector-curvature="0" />
</g>
<g
   transform="translate(-696.4,-650.9)"
   id="g747">
	<path
   class="st0"
   d="M 1168.6,475.9 H 751.4 c -23.1,0 -41.9,-18.8 -41.9,-41.9 0,-23.1 18.8,-41.9 41.9,-41.9 h 417.2 c 23.1,0 41.9,18.8 41.9,41.9 0,23.1 -18.8,41.9 -41.9,41.9 z M 751.4,398.1 c -19.8,0 -35.9,16.1 -35.9,35.9 0,19.8 16.1,35.9 35.9,35.9 h 417.2 c 19.8,0 35.9,-16.1 35.9,-35.9 0,-19.8 -16.1,-35.9 -35.9,-35.9 z"
   id="path745"
   inkscape:connector-curvature="0" />
</g>
<g
   transform="translate(-696.4,-650.9)"
   id="g797">
	<path
   class="st1"
   d="m 753.5,774.9 v 6.3 h -3.6 v -6.3 l -5.6,-8.6 h 4.3 l 3.2,5.5 3.2,-5.5 h 4.2 z"
   id="path749"
   inkscape:connector-curvature="0" />
	<path
   class="st1"
   d="m 778,773.7 c 0,1.2 -0.2,2.3 -0.6,3.2 -0.4,1 -1,1.8 -1.7,2.5 -0.7,0.7 -1.6,1.2 -2.6,1.6 -1,0.4 -2.1,0.6 -3.2,0.6 -1.1,0 -2.2,-0.2 -3.2,-0.6 -1,-0.4 -1.8,-0.9 -2.6,-1.6 -0.7,-0.7 -1.3,-1.5 -1.7,-2.5 -0.4,-1 -0.6,-2 -0.6,-3.2 0,-1.2 0.2,-2.3 0.6,-3.2 0.4,-1 1,-1.8 1.7,-2.4 0.7,-0.7 1.6,-1.2 2.6,-1.6 1,-0.4 2.1,-0.5 3.2,-0.5 1.1,0 2.2,0.2 3.2,0.5 1,0.4 1.9,0.9 2.6,1.6 0.7,0.7 1.3,1.5 1.7,2.4 0.4,0.9 0.6,2 0.6,3.2 z m -3.8,0 c 0,-0.6 -0.1,-1.2 -0.3,-1.8 -0.2,-0.6 -0.5,-1 -0.9,-1.4 -0.4,-0.4 -0.8,-0.7 -1.3,-0.9 -0.5,-0.2 -1.1,-0.3 -1.7,-0.3 -0.6,0 -1.2,0.1 -1.7,0.3 -0.5,0.2 -1,0.5 -1.3,0.9 -0.4,0.4 -0.7,0.9 -0.9,1.4 -0.2,0.5 -0.3,1.2 -0.3,1.8 0,0.7 0.1,1.3 0.3,1.9 0.2,0.6 0.5,1.1 0.9,1.5 0.4,0.4 0.8,0.7 1.3,1 0.5,0.2 1.1,0.3 1.7,0.3 0.6,0 1.2,-0.1 1.7,-0.3 0.5,-0.2 1,-0.5 1.3,-1 0.4,-0.4 0.7,-0.9 0.9,-1.5 0.2,-0.6 0.3,-1.2 0.3,-1.9 z"
   id="path751"
   inkscape:connector-curvature="0" />
	<path
   class="st1"
   d="m 795.5,778.1 c -0.3,0.7 -0.7,1.4 -1.3,1.9 -0.6,0.5 -1.2,0.9 -2,1.2 -0.8,0.3 -1.7,0.4 -2.6,0.4 -1,0 -1.9,-0.1 -2.6,-0.4 -0.8,-0.3 -1.4,-0.7 -2,-1.2 -0.6,-0.5 -1,-1.2 -1.3,-1.9 -0.3,-0.7 -0.4,-1.6 -0.4,-2.4 v -9.3 h 3.6 v 9 c 0,0.4 0.1,0.8 0.2,1.2 0.1,0.4 0.3,0.7 0.5,1 0.2,0.3 0.5,0.5 0.9,0.7 0.4,0.2 0.8,0.3 1.3,0.3 0.5,0 0.9,-0.1 1.3,-0.3 0.4,-0.2 0.6,-0.4 0.9,-0.7 0.2,-0.3 0.4,-0.6 0.5,-1 0.1,-0.4 0.1,-0.7 0.1,-1.2 v -9 h 3.6 v 9.3 c -0.2,0.8 -0.4,1.6 -0.7,2.4 z"
   id="path753"
   inkscape:connector-curvature="0" />
	<path
   class="st1"
   d="m 819.7,781.2 -1.2,-2.9 h -5.8 l -1.1,2.9 h -3.9 l 6.2,-14.9 h 3.5 l 6.2,14.9 z m -4,-10.9 -1.9,5.1 h 3.7 z"
   id="path755"
   inkscape:connector-curvature="0" />
	<path
   class="st1"
   d="m 835.8,781.2 -3.2,-5.9 h -1.2 v 5.9 h -3.5 v -14.9 h 5.7 c 0.7,0 1.4,0.1 2.1,0.2 0.7,0.1 1.3,0.4 1.8,0.7 0.5,0.4 1,0.8 1.3,1.4 0.3,0.6 0.5,1.3 0.5,2.1 0,1 -0.3,1.9 -0.8,2.5 -0.5,0.7 -1.3,1.2 -2.3,1.5 l 3.9,6.4 h -4.3 z m -0.1,-10.3 c 0,-0.4 -0.1,-0.6 -0.2,-0.9 -0.1,-0.2 -0.3,-0.4 -0.6,-0.5 -0.2,-0.1 -0.5,-0.2 -0.8,-0.2 -0.3,0 -0.6,-0.1 -0.8,-0.1 h -1.9 v 3.5 h 1.7 c 0.3,0 0.6,0 0.9,-0.1 0.3,-0.1 0.6,-0.1 0.8,-0.3 0.3,-0.1 0.5,-0.3 0.6,-0.5 0.2,-0.2 0.3,-0.5 0.3,-0.9 z"
   id="path757"
   inkscape:connector-curvature="0" />
	<path
   class="st1"
   d="m 844.7,781.2 v -14.9 h 10 v 3 h -6.5 v 2.8 h 6.2 v 2.9 h -6.2 v 3.1 h 6.9 v 3.1 z"
   id="path759"
   inkscape:connector-curvature="0" />
	<path
   class="st1"
   d="m 878,781.2 -6,-9.7 v 0 l 0.1,9.7 h -3.5 v -14.9 h 4.1 l 6,9.7 h 0.1 l -0.1,-9.7 h 3.5 v 14.9 z"
   id="path761"
   inkscape:connector-curvature="0" />
	<path
   class="st1"
   d="m 903.6,773.7 c 0,1.2 -0.2,2.3 -0.6,3.2 -0.4,1 -1,1.8 -1.7,2.5 -0.7,0.7 -1.6,1.2 -2.6,1.6 -1,0.4 -2.1,0.6 -3.2,0.6 -1.1,0 -2.2,-0.2 -3.2,-0.6 -1,-0.4 -1.8,-0.9 -2.6,-1.6 -0.7,-0.7 -1.3,-1.5 -1.7,-2.5 -0.4,-1 -0.6,-2 -0.6,-3.2 0,-1.2 0.2,-2.3 0.6,-3.2 0.4,-1 1,-1.8 1.7,-2.4 0.7,-0.7 1.6,-1.2 2.6,-1.6 1,-0.4 2.1,-0.5 3.2,-0.5 1.1,0 2.2,0.2 3.2,0.5 1,0.4 1.9,0.9 2.6,1.6 0.7,0.7 1.3,1.5 1.7,2.4 0.4,0.9 0.6,2 0.6,3.2 z m -3.8,0 c 0,-0.6 -0.1,-1.2 -0.3,-1.8 -0.2,-0.6 -0.5,-1 -0.9,-1.4 -0.4,-0.4 -0.8,-0.7 -1.3,-0.9 -0.5,-0.2 -1.1,-0.3 -1.7,-0.3 -0.6,0 -1.2,0.1 -1.7,0.3 -0.5,0.2 -1,0.5 -1.3,0.9 -0.4,0.4 -0.7,0.9 -0.9,1.4 -0.2,0.5 -0.3,1.2 -0.3,1.8 0,0.7 0.1,1.3 0.3,1.9 0.2,0.6 0.5,1.1 0.9,1.5 0.4,0.4 0.8,0.7 1.3,1 0.5,0.2 1.1,0.3 1.7,0.3 0.6,0 1.2,-0.1 1.7,-0.3 0.5,-0.2 1,-0.5 1.3,-1 0.4,-0.4 0.7,-0.9 0.9,-1.5 0.2,-0.6 0.3,-1.2 0.3,-1.9 z"
   id="path763"
   inkscape:connector-curvature="0" />
	<path
   class="st1"
   d="m 914.7,769.4 v 11.8 h -3.6 v -11.8 h -4.2 v -3.1 h 12 v 3.1 z"
   id="path765"
   inkscape:connector-curvature="0" />
	<path
   class="st1"
   d="m 939.1,781.2 -3.2,-5.9 h -1.2 v 5.9 h -3.5 v -14.9 h 5.7 c 0.7,0 1.4,0.1 2.1,0.2 0.7,0.1 1.3,0.4 1.8,0.7 0.5,0.4 1,0.8 1.3,1.4 0.3,0.6 0.5,1.3 0.5,2.1 0,1 -0.3,1.9 -0.8,2.5 -0.5,0.7 -1.3,1.2 -2.3,1.5 l 3.9,6.4 h -4.3 z m -0.2,-10.3 c 0,-0.4 -0.1,-0.6 -0.2,-0.9 -0.1,-0.2 -0.3,-0.4 -0.6,-0.5 -0.2,-0.1 -0.5,-0.2 -0.8,-0.2 -0.3,0 -0.6,-0.1 -0.8,-0.1 h -1.9 v 3.5 h 1.7 c 0.3,0 0.6,0 0.9,-0.1 0.3,-0.1 0.6,-0.1 0.8,-0.3 0.3,-0.1 0.5,-0.3 0.6,-0.5 0.3,-0.2 0.3,-0.5 0.3,-0.9 z"
   id="path767"
   inkscape:connector-curvature="0" />
	<path
   class="st1"
   d="m 948,781.2 v -14.9 h 10 v 3 h -6.5 v 2.8 h 6.2 v 2.9 h -6.2 v 3.1 h 6.9 v 3.1 z"
   id="path769"
   inkscape:connector-curvature="0" />
	<path
   class="st1"
   d="m 974.3,781.2 c -1,0.2 -2,0.4 -3.2,0.4 -1.2,0 -2.3,-0.2 -3.3,-0.6 -1,-0.4 -1.9,-0.9 -2.6,-1.6 -0.7,-0.7 -1.3,-1.5 -1.7,-2.5 -0.4,-1 -0.6,-2 -0.6,-3.2 0,-1.2 0.2,-2.3 0.6,-3.2 0.4,-1 1,-1.8 1.7,-2.5 0.7,-0.7 1.6,-1.2 2.6,-1.6 1,-0.4 2,-0.5 3.2,-0.5 1.2,0 2.3,0.2 3.3,0.5 1,0.3 1.8,0.8 2.5,1.4 l -2.3,2.6 c -0.4,-0.4 -0.8,-0.7 -1.4,-1 -0.6,-0.3 -1.2,-0.4 -2,-0.4 -0.6,0 -1.2,0.1 -1.7,0.3 -0.5,0.2 -1,0.6 -1.4,1 -0.4,0.4 -0.7,0.9 -0.9,1.5 -0.2,0.6 -0.3,1.2 -0.3,1.9 0,0.7 0.1,1.3 0.3,1.9 0.2,0.6 0.5,1.1 0.9,1.5 0.4,0.4 0.9,0.7 1.4,1 0.6,0.2 1.2,0.3 1.9,0.3 0.4,0 0.8,0 1.2,-0.1 0.4,-0.1 0.7,-0.2 1,-0.3 v -2.7 h -2.8 v -2.9 h 6.1 v 7.9 c -0.6,0.4 -1.5,0.7 -2.5,0.9 z"
   id="path771"
   inkscape:connector-curvature="0" />
	<path
   class="st1"
   d="m 982.8,781.2 v -14.9 h 3.6 v 14.9 z"
   id="path773"
   inkscape:connector-curvature="0" />
	<path
   class="st1"
   d="m 1000.2,770.2 c -0.3,-0.4 -0.7,-0.7 -1.2,-0.9 -0.5,-0.2 -1,-0.3 -1.4,-0.3 -0.2,0 -0.5,0 -0.7,0.1 -0.2,0.1 -0.5,0.1 -0.7,0.2 -0.2,0.1 -0.4,0.3 -0.5,0.5 -0.1,0.2 -0.2,0.4 -0.2,0.7 0,0.3 0.1,0.5 0.2,0.6 0.1,0.2 0.3,0.3 0.5,0.4 0.2,0.1 0.4,0.2 0.7,0.3 0.3,0.1 0.6,0.2 0.9,0.3 0.5,0.2 1,0.4 1.6,0.6 0.6,0.2 1,0.5 1.5,0.8 0.4,0.3 0.8,0.8 1.1,1.2 0.3,0.4 0.4,1.1 0.4,1.9 0,0.9 -0.2,1.6 -0.5,2.2 -0.3,0.6 -0.7,1.1 -1.3,1.5 -0.5,0.4 -1.1,0.7 -1.8,0.9 -0.7,0.2 -1.4,0.3 -2.1,0.3 -1.1,0 -2.1,-0.2 -3.1,-0.6 -1,-0.4 -1.8,-0.9 -2.5,-1.6 l 2.4,-2.4 c 0.4,0.4 0.8,0.8 1.4,1.1 0.6,0.3 1.2,0.5 1.8,0.5 0.3,0 0.5,0 0.8,-0.1 0.3,-0.1 0.5,-0.1 0.7,-0.3 0.2,-0.1 0.3,-0.3 0.5,-0.5 0.1,-0.2 0.2,-0.5 0.2,-0.8 0,-0.3 -0.1,-0.5 -0.2,-0.7 -0.1,-0.2 -0.3,-0.4 -0.6,-0.5 -0.3,-0.2 -0.6,-0.3 -1,-0.4 -0.4,-0.1 -0.8,-0.3 -1.3,-0.4 -0.5,-0.2 -0.9,-0.3 -1.4,-0.5 -0.5,-0.2 -0.9,-0.5 -1.2,-0.8 -0.4,-0.3 -0.6,-0.7 -0.9,-1.2 -0.2,-0.5 -0.3,-1 -0.3,-1.7 0,-0.8 0.2,-1.5 0.5,-2.1 0.3,-0.6 0.8,-1.1 1.3,-1.4 0.5,-0.3 1.2,-0.7 1.8,-0.8 0.7,-0.2 1.4,-0.3 2.1,-0.3 0.8,0 1.7,0.2 2.6,0.5 0.9,0.3 1.6,0.8 2.3,1.4 z"
   id="path775"
   inkscape:connector-curvature="0" />
	<path
   class="st1"
   d="m 1013.8,769.4 v 11.8 h -3.6 v -11.8 h -4.2 v -3.1 h 12 v 3.1 z"
   id="path777"
   inkscape:connector-curvature="0" />
	<path
   class="st1"
   d="m 1022.6,781.2 v -14.9 h 10 v 3 h -6.5 v 2.8 h 6.2 v 2.9 h -6.2 v 3.1 h 6.9 v 3.1 z"
   id="path779"
   inkscape:connector-curvature="0" />
	<path
   class="st1"
   d="m 1046.3,781.2 -3.2,-5.9 h -1.2 v 5.9 h -3.5 v -14.9 h 5.7 c 0.7,0 1.4,0.1 2.1,0.2 0.7,0.1 1.3,0.4 1.8,0.7 0.5,0.4 1,0.8 1.3,1.4 0.3,0.6 0.5,1.3 0.5,2.1 0,1 -0.3,1.9 -0.8,2.5 -0.5,0.7 -1.3,1.2 -2.3,1.5 l 3.9,6.4 h -4.3 z m -0.2,-10.3 c 0,-0.4 -0.1,-0.6 -0.2,-0.9 -0.1,-0.3 -0.3,-0.4 -0.6,-0.5 -0.2,-0.1 -0.5,-0.2 -0.8,-0.2 -0.3,0 -0.6,-0.1 -0.8,-0.1 h -1.9 v 3.5 h 1.7 c 0.3,0 0.6,0 0.9,-0.1 0.3,-0.1 0.6,-0.1 0.8,-0.3 0.2,-0.2 0.5,-0.3 0.6,-0.5 0.2,-0.2 0.3,-0.5 0.3,-0.9 z"
   id="path781"
   inkscape:connector-curvature="0" />
	<path
   class="st1"
   d="m 1064.7,770.1 c 0,0.5 -0.1,0.9 -0.2,1.2 -0.1,0.3 -0.3,0.7 -0.5,1 -0.2,0.3 -0.5,0.6 -0.7,0.8 -0.3,0.3 -0.6,0.5 -1,0.8 -0.2,0.2 -0.4,0.3 -0.6,0.5 -0.2,0.2 -0.3,0.3 -0.3,0.4 -0.1,0.1 -0.1,0.3 -0.2,0.5 -0.1,0.2 -0.1,0.4 -0.1,0.6 v 0.5 h -3.3 v -0.8 c 0,-0.4 0,-0.7 0.1,-1 0.1,-0.3 0.2,-0.5 0.3,-0.8 0.1,-0.2 0.3,-0.5 0.5,-0.7 0.2,-0.2 0.4,-0.5 0.7,-0.7 l 0.7,-0.7 c 0.2,-0.2 0.4,-0.4 0.6,-0.7 0.2,-0.2 0.3,-0.5 0.3,-0.8 0,-0.4 -0.1,-0.8 -0.4,-1.1 -0.3,-0.3 -0.6,-0.4 -1.1,-0.4 -0.6,0 -1,0.2 -1.3,0.6 -0.3,0.4 -0.5,0.8 -0.5,1.4 l -3.3,-0.4 c 0.1,-0.8 0.3,-1.4 0.6,-2 0.3,-0.6 0.7,-1 1.2,-1.4 0.5,-0.4 1,-0.7 1.6,-0.9 0.6,-0.2 1.2,-0.3 1.9,-0.3 0.6,0 1.2,0.1 1.8,0.2 0.6,0.1 1.1,0.4 1.6,0.8 0.5,0.3 0.8,0.8 1.1,1.3 0.3,0.5 0.5,1.4 0.5,2.1 z m -3.1,9.3 c 0,0.6 -0.2,1 -0.6,1.4 -0.4,0.4 -0.9,0.6 -1.4,0.6 -0.3,0 -0.5,0 -0.8,-0.1 -0.2,-0.1 -0.5,-0.2 -0.7,-0.4 -0.2,-0.2 -0.3,-0.4 -0.5,-0.6 -0.1,-0.2 -0.2,-0.5 -0.2,-0.8 0,-0.3 0.1,-0.5 0.2,-0.8 0.1,-0.2 0.3,-0.5 0.4,-0.6 0.2,-0.2 0.4,-0.3 0.7,-0.4 0.3,-0.1 0.5,-0.2 0.8,-0.2 0.3,0 0.5,0.1 0.8,0.2 0.2,0.1 0.5,0.2 0.7,0.4 0.2,0.2 0.3,0.4 0.4,0.6 0.2,0.2 0.2,0.5 0.2,0.7 z"
   id="path783"
   inkscape:connector-curvature="0" />
	<path
   class="st1"
   d="m 1085.6,770.2 c -0.3,-0.4 -0.7,-0.7 -1.2,-0.9 -0.5,-0.2 -1,-0.3 -1.4,-0.3 -0.2,0 -0.5,0 -0.7,0.1 -0.2,0 -0.5,0.1 -0.7,0.2 -0.2,0.1 -0.4,0.3 -0.5,0.5 -0.1,0.2 -0.2,0.4 -0.2,0.7 0,0.3 0.1,0.5 0.2,0.6 0.1,0.2 0.3,0.3 0.5,0.4 0.2,0.1 0.4,0.2 0.7,0.3 0.3,0.1 0.6,0.2 0.9,0.3 0.5,0.2 1,0.4 1.6,0.6 0.6,0.2 1,0.5 1.5,0.8 0.4,0.3 0.8,0.8 1.1,1.2 0.3,0.4 0.4,1.1 0.4,1.9 0,0.9 -0.2,1.6 -0.5,2.2 -0.3,0.6 -0.7,1.1 -1.3,1.5 -0.5,0.4 -1.1,0.7 -1.8,0.9 -0.7,0.2 -1.4,0.3 -2.1,0.3 -1.1,0 -2.1,-0.2 -3.1,-0.6 -1,-0.4 -1.8,-0.9 -2.5,-1.6 l 2.4,-2.4 c 0.4,0.4 0.8,0.8 1.4,1.1 0.6,0.3 1.2,0.5 1.8,0.5 0.3,0 0.5,0 0.8,-0.1 0.3,-0.1 0.5,-0.1 0.7,-0.3 0.2,-0.1 0.3,-0.3 0.5,-0.5 0.2,-0.2 0.2,-0.5 0.2,-0.8 0,-0.3 -0.1,-0.5 -0.2,-0.7 -0.1,-0.2 -0.3,-0.4 -0.6,-0.5 -0.3,-0.1 -0.6,-0.3 -1,-0.4 -0.4,-0.1 -0.8,-0.3 -1.3,-0.4 -0.5,-0.2 -0.9,-0.3 -1.4,-0.5 -0.5,-0.2 -0.9,-0.5 -1.2,-0.8 -0.4,-0.3 -0.6,-0.7 -0.9,-1.2 -0.2,-0.5 -0.3,-1 -0.3,-1.7 0,-0.8 0.2,-1.5 0.5,-2.1 0.3,-0.6 0.8,-1.1 1.3,-1.4 0.5,-0.3 1.2,-0.7 1.8,-0.8 0.6,-0.1 1.4,-0.3 2.1,-0.3 0.8,0 1.7,0.2 2.6,0.5 0.9,0.3 1.6,0.8 2.3,1.4 z"
   id="path785"
   inkscape:connector-curvature="0" />
	<path
   class="st1"
   d="m 1093.1,781.2 v -14.9 h 3.6 v 14.9 z"
   id="path787"
   inkscape:connector-curvature="0" />
	<path
   class="st1"
   d="m 1113.4,781.2 c -1,0.2 -2,0.4 -3.2,0.4 -1.2,0 -2.3,-0.2 -3.3,-0.6 -1,-0.4 -1.9,-0.9 -2.6,-1.6 -0.7,-0.7 -1.3,-1.5 -1.7,-2.5 -0.4,-1 -0.6,-2 -0.6,-3.2 0,-1.2 0.2,-2.3 0.6,-3.2 0.4,-1 1,-1.8 1.7,-2.5 0.7,-0.7 1.6,-1.2 2.6,-1.6 1,-0.4 2,-0.5 3.2,-0.5 1.2,0 2.3,0.2 3.3,0.5 1,0.3 1.8,0.8 2.5,1.4 l -2.3,2.6 c -0.4,-0.4 -0.8,-0.7 -1.4,-1 -0.6,-0.3 -1.2,-0.4 -2,-0.4 -0.6,0 -1.2,0.1 -1.7,0.3 -0.5,0.2 -1,0.6 -1.4,1 -0.4,0.4 -0.7,0.9 -0.9,1.5 -0.2,0.6 -0.3,1.2 -0.3,1.9 0,0.7 0.1,1.3 0.3,1.9 0.2,0.6 0.5,1.1 0.9,1.5 0.4,0.4 0.9,0.7 1.4,1 0.6,0.2 1.2,0.3 1.9,0.3 0.4,0 0.8,0 1.2,-0.1 0.4,-0.1 0.7,-0.2 1.1,-0.3 v -2.7 h -2.8 v -2.9 h 6.1 v 7.9 c -0.8,0.4 -1.6,0.7 -2.6,0.9 z"
   id="path789"
   inkscape:connector-curvature="0" />
	<path
   class="st1"
   d="m 1131.3,781.2 -6,-9.7 h -0.1 l 0.1,9.7 h -3.5 v -14.9 h 4.1 l 6,9.7 h 0.1 l -0.1,-9.7 h 3.5 v 14.9 z"
   id="path791"
   inkscape:connector-curvature="0" />
	<path
   class="st1"
   d="m 1161.7,778.1 c -0.3,0.7 -0.7,1.4 -1.3,1.9 -0.6,0.5 -1.2,0.9 -2,1.2 -0.8,0.3 -1.7,0.4 -2.6,0.4 -1,0 -1.9,-0.1 -2.6,-0.4 -0.7,-0.3 -1.4,-0.7 -2,-1.2 -0.6,-0.5 -1,-1.2 -1.3,-1.9 -0.3,-0.7 -0.4,-1.6 -0.4,-2.4 v -9.3 h 3.6 v 9 c 0,0.4 0.1,0.8 0.2,1.2 0.1,0.4 0.3,0.7 0.5,1 0.2,0.3 0.5,0.5 0.9,0.7 0.4,0.2 0.8,0.3 1.3,0.3 0.5,0 0.9,-0.1 1.3,-0.3 0.4,-0.2 0.6,-0.4 0.9,-0.7 0.2,-0.3 0.4,-0.6 0.5,-1 0.1,-0.4 0.1,-0.7 0.1,-1.2 v -9 h 3.6 v 9.3 c -0.3,0.8 -0.4,1.6 -0.7,2.4 z"
   id="path793"
   inkscape:connector-curvature="0" />
	<path
   class="st1"
   d="m 1179.2,770.9 c 0,0.9 -0.2,1.6 -0.5,2.2 -0.3,0.6 -0.8,1.1 -1.3,1.4 -0.5,0.4 -1.2,0.6 -1.9,0.8 -0.7,0.2 -1.5,0.3 -2.2,0.3 h -1.8 v 5.6 h -3.6 v -14.9 h 5.5 c 0.8,0 1.6,0.1 2.3,0.2 0.7,0.2 1.3,0.4 1.8,0.8 0.5,0.4 0.9,0.8 1.2,1.4 0.3,0.6 0.5,1.4 0.5,2.2 z m -3.5,0 c 0,-0.4 -0.1,-0.6 -0.2,-0.9 -0.1,-0.3 -0.3,-0.4 -0.6,-0.5 -0.2,-0.1 -0.5,-0.2 -0.8,-0.3 -0.3,0 -0.6,-0.1 -0.9,-0.1 h -1.6 v 3.5 h 1.5 c 0.3,0 0.7,0 1,-0.1 0.3,-0.1 0.6,-0.2 0.8,-0.3 0.2,-0.1 0.4,-0.3 0.6,-0.6 0.2,-0.3 0.2,-0.3 0.2,-0.7 z"
   id="path795"
   inkscape:connector-curvature="0" />
</g>
<g
   transform="translate(-696.4,-650.9)"
   id="g801">
	
		<rect
   x="1126.7"
   y="736.90002"
   transform="matrix(0.00238423,-1,1,0.00238423,337.069,1913.6989)"
   class="st1"
   width="2"
   height="102"
   id="rect799" />
</g>
<g
   transform="translate(-696.4,-650.9)"
   id="g823">
	<path
   class="st1"
   d="m 675.1,211.8 h 23.5 c 4.4,0 8.8,0.7 13.2,2.2 4.4,1.5 8.4,3.7 12,6.6 3.6,3 6.5,6.7 8.6,11.1 2.2,4.4 3.3,9.6 3.3,15.5 0,5.9 -1.1,11.1 -3.3,15.5 -2.2,4.4 -5.1,8.1 -8.6,11 -3.6,3 -7.6,5.2 -12,6.6 -4.4,1.5 -8.9,2.2 -13.2,2.2 h -23.5 z m 7.2,64.4 h 14.3 c 5.3,0 10,-0.8 14,-2.5 4,-1.7 7.2,-3.9 9.9,-6.6 2.6,-2.7 4.5,-5.8 5.8,-9.2 1.3,-3.5 2,-7 2,-10.7 0,-3.7 -0.6,-7.2 -2,-10.7 -1.3,-3.5 -3.2,-6.5 -5.8,-9.2 -2.6,-2.7 -5.9,-4.9 -9.9,-6.5 -4,-1.7 -8.6,-2.5 -14,-2.5 h -14.3 z"
   id="path803"
   inkscape:connector-curvature="0" />
	<path
   class="st1"
   d="M 747.9,282.6 H 740 l 30.6,-70.8 h 7 l 30.4,70.8 h -8 L 792.2,264 h -36.6 z m 10.4,-25.2 h 31.2 l -15.6,-37.6 z"
   id="path805"
   inkscape:connector-curvature="0" />
	<path
   class="st1"
   d="m 825.6,282.6 h -7.2 v -70.8 h 7.2 z"
   id="path807"
   inkscape:connector-curvature="0" />
	<path
   class="st1"
   d="m 851.6,276.2 h 33 v 6.4 h -40.2 v -70.8 h 7.2 z"
   id="path809"
   inkscape:connector-curvature="0" />
	<path
   class="st1"
   d="m 910.7,282.6 h -7.2 V 252.1 L 877,211.8 h 9 l 21.3,34.3 21.5,-34.3 h 8.4 l -26.5,40.3 z"
   id="path811"
   inkscape:connector-curvature="0" />
	<path
   class="st1"
   d="m 1010.6,247 c 0,6.2 -1.1,11.6 -3.4,16.1 -2.3,4.5 -5.3,8.2 -9.1,11.1 -3.8,2.9 -8,5 -12.8,6.4 -4.7,1.4 -9.5,2 -14.4,2 h -26.4 v -70.8 h 25.6 c 5,0 9.9,0.6 14.8,1.8 4.9,1.2 9.2,3.1 13,5.8 3.8,2.7 6.9,6.3 9.2,10.9 2.3,4.5 3.5,10.1 3.5,16.7 z m -17.8,0 c 0,-4 -0.6,-7.3 -2,-9.9 -1.3,-2.6 -3,-4.7 -5.2,-6.3 -2.2,-1.6 -4.6,-2.7 -7.4,-3.4 -2.8,-0.7 -5.6,-1 -8.5,-1 h -8.5 v 41.4 h 8.1 c 3.1,0 6,-0.4 8.9,-1.1 2.8,-0.7 5.3,-1.9 7.5,-3.4 2.2,-1.6 3.9,-3.7 5.2,-6.4 1.3,-2.6 1.9,-5.9 1.9,-9.9 z"
   id="path813"
   inkscape:connector-curvature="0" />
	<path
   class="st1"
   d="m 1021.9,282.6 v -70.8 h 17.2 v 70.8 z"
   id="path815"
   inkscape:connector-curvature="0" />
	<path
   class="st1"
   d="m 1101.7,282.6 -5.5,-13.9 h -27.4 l -5.2,13.9 H 1045 l 29.7,-70.8 h 16.6 l 29.4,70.8 z m -19,-51.9 -9,24.3 h 17.8 z"
   id="path817"
   inkscape:connector-curvature="0" />
	<path
   class="st1"
   d="m 1164.5,282.6 -15.4,-28.1 h -5.8 v 28.1 h -16.7 v -70.8 h 27 c 3.4,0 6.7,0.3 10,1 3.2,0.7 6.1,1.9 8.7,3.5 2.6,1.7 4.6,3.9 6.1,6.6 1.5,2.7 2.3,6.1 2.3,10.2 0,4.8 -1.3,8.8 -3.9,12.1 -2.6,3.3 -6.2,5.6 -10.8,7 l 18.5,30.3 h -20 z m -0.7,-49.1 c 0,-1.7 -0.4,-3 -1.1,-4 -0.7,-1 -1.6,-1.8 -2.7,-2.4 -1.1,-0.6 -2.3,-1 -3.7,-1.2 -1.4,-0.2 -2.7,-0.3 -4,-0.3 h -9.1 v 16.5 h 8.1 c 1.4,0 2.8,-0.1 4.3,-0.4 1.5,-0.2 2.8,-0.6 4,-1.2 1.2,-0.6 2.2,-1.5 3,-2.6 0.8,-1.1 1.2,-2.6 1.2,-4.4 z"
   id="path819"
   inkscape:connector-curvature="0" />
	<path
   class="st1"
   d="m 1226.3,252.6 v 30 h -17.1 v -30 l -26.6,-40.8 h 20.7 l 15.1,26.2 15.1,-26.2 h 20 z"
   id="path821"
   inkscape:connector-curvature="0" />
</g>


































































</svg>
