<?xml version="1.0" encoding="UTF-8" standalone="no"?>
<svg
   xmlns:dc="http://purl.org/dc/elements/1.1/"
   xmlns:cc="http://creativecommons.org/ns#"
   xmlns:rdf="http://www.w3.org/1999/02/22-rdf-syntax-ns#"
   xmlns:svg="http://www.w3.org/2000/svg"
   xmlns="http://www.w3.org/2000/svg"
   xmlns:sodipodi="http://sodipodi.sourceforge.net/DTD/sodipodi-0.dtd"
   xmlns:inkscape="http://www.inkscape.org/namespaces/inkscape"
   inkscape:version="1.0beta2 (unknown)"
   height="103.4"
   width="527.20032"
   sodipodi:docname="DIARIOMERDA.svg"
   xml:space="preserve"
   viewBox="0 0 527.2003 103.4"
   y="0px"
   x="0px"
   id="Livello_1"
   version="1.1"><metadata
   id="metadata609"><rdf:RDF><cc:Work
       rdf:about=""><dc:format>image/svg+xml</dc:format><dc:type
         rdf:resource="http://purl.org/dc/dcmitype/StillImage" /><dc:title></dc:title></cc:Work></rdf:RDF></metadata><defs
   id="defs607" /><sodipodi:namedview
   inkscape:pagecheckerboard="true"
   inkscape:current-layer="Livello_1"
   inkscape:window-maximized="1"
   inkscape:window-y="0"
   inkscape:window-x="0"
   inkscape:cy="-186.40684"
   inkscape:cx="60.872799"
   inkscape:zoom="0.45014485"
   fit-margin-bottom="0"
   fit-margin-right="0"
   fit-margin-left="0"
   fit-margin-top="0"
   showgrid="false"
   id="namedview605"
   inkscape:window-height="995"
   inkscape:window-width="1920"
   inkscape:pageshadow="2"
   inkscape:pageopacity="0"
   guidetolerance="10"
   gridtolerance="10"
   objecttolerance="10"
   borderopacity="1"
   inkscape:document-rotation="0"
   bordercolor="#666666"
   pagecolor="#ffffff" />
<style
   id="style2"
   type="text/css">
	.st0{fill:#94C7C1;}
	.st1{fill:#FFFFFF;}
	.st2{fill:#E30613;}
	.st3{opacity:0.19;}
</style>


<g
   transform="translate(-696.4,-650.9)"
   id="g14">
	<path
   inkscape:connector-curvature="0"
   id="path12"
   d="M 1171.9,754.3 H 748.1 c -28.6,0 -51.7,-23.2 -51.7,-51.7 v 0 c 0,-28.6 23.2,-51.7 51.7,-51.7 h 423.8 c 28.6,0 51.7,23.2 51.7,51.7 v 0 c 0.1,28.6 -23.1,51.7 -51.7,51.7 z"
   class="st1" />
</g>
<g
   transform="translate(-696.4,-650.9)"
   id="g18">
	<path
   inkscape:connector-curvature="0"
   id="path16"
   d="M 1168.6,745.5 H 751.4 c -23.1,0 -41.9,-18.8 -41.9,-41.9 0,-23.1 18.8,-41.9 41.9,-41.9 h 417.2 c 23.1,0 41.9,18.8 41.9,41.9 0,23.1 -18.8,41.9 -41.9,41.9 z M 751.4,667.8 c -19.8,0 -35.9,16.1 -35.9,35.9 0,19.8 16.1,35.9 35.9,35.9 h 417.2 c 19.8,0 35.9,-16.1 35.9,-35.9 0,-19.8 -16.1,-35.9 -35.9,-35.9 z"
   class="st0" />
</g>


<g
   transform="translate(-696.4,-650.9)"
   id="g38">
	<path
   inkscape:connector-curvature="0"
   id="path28"
   d="m 878.1,719.7 v -35.4 h 8.6 v 27.9 h 13.7 v 7.5 z"
   class="st0" />
	<path
   inkscape:connector-curvature="0"
   id="path30"
   d="m 939.7,701.9 c 0,2.8 -0.5,5.4 -1.4,7.7 -1,2.3 -2.3,4.3 -4,6 -1.7,1.6 -3.8,2.9 -6.1,3.8 -2.4,0.9 -4.9,1.3 -7.7,1.3 -2.8,0 -5.3,-0.5 -7.7,-1.3 -2.4,-0.9 -4.4,-2.2 -6.1,-3.8 -1.7,-1.7 -3.1,-3.6 -4,-6 -1,-2.3 -1.5,-4.9 -1.5,-7.7 0,-2.8 0.5,-5.4 1.5,-7.7 1,-2.3 2.3,-4.2 4,-5.8 1.7,-1.6 3.8,-2.8 6.1,-3.7 2.3,-0.9 4.9,-1.3 7.7,-1.3 2.8,0 5.3,0.4 7.7,1.3 2.4,0.9 4.4,2.1 6.1,3.7 1.7,1.6 3.1,3.5 4,5.8 1,2.3 1.4,4.9 1.4,7.7 z m -9.1,0 c 0,-1.5 -0.2,-3 -0.8,-4.3 -0.6,-1.3 -1.2,-2.5 -2.1,-3.4 -0.9,-0.9 -2,-1.7 -3.2,-2.2 -1.2,-0.5 -2.6,-0.8 -4.1,-0.8 -1.5,0 -2.9,0.3 -4.1,0.8 -1.2,0.6 -2.3,1.3 -3.2,2.2 -0.9,1 -1.6,2.1 -2.1,3.4 -0.5,1.3 -0.7,2.8 -0.7,4.3 0,1.6 0.2,3.1 0.8,4.4 0.6,1.3 1.2,2.5 2.1,3.5 0.9,1 1.9,1.7 3.2,2.3 1.2,0.5 2.6,0.8 4.1,0.8 1.5,0 2.9,-0.3 4.1,-0.8 1.2,-0.5 2.3,-1.3 3.2,-2.3 0.9,-1 1.6,-2.1 2.1,-3.5 0.5,-1.4 0.7,-2.8 0.7,-4.4 z"
   class="st0" />
	<path
   inkscape:connector-curvature="0"
   id="path32"
   d="m 970.8,719.8 c -2.3,0.6 -4.8,0.9 -7.6,0.9 -2.8,0 -5.4,-0.5 -7.8,-1.4 -2.4,-0.9 -4.4,-2.2 -6.1,-3.8 -1.7,-1.6 -3.1,-3.6 -4,-5.9 -1,-2.3 -1.5,-4.8 -1.5,-7.6 0,-2.8 0.5,-5.4 1.5,-7.7 1,-2.3 2.3,-4.3 4.1,-5.9 1.7,-1.6 3.8,-2.9 6.1,-3.7 2.3,-0.9 4.9,-1.3 7.6,-1.3 2.8,0 5.4,0.4 7.8,1.3 2.4,0.9 4.3,2 5.8,3.4 l -5.4,6.1 c -0.8,-1 -1.9,-1.8 -3.3,-2.4 -1.4,-0.6 -2.9,-0.9 -4.6,-0.9 -1.5,0 -2.9,0.3 -4.2,0.8 -1.3,0.5 -2.4,1.3 -3.3,2.3 -0.9,1 -1.7,2.2 -2.2,3.5 -0.5,1.3 -0.8,2.8 -0.8,4.4 0,1.6 0.2,3.1 0.7,4.5 0.5,1.4 1.2,2.5 2.1,3.5 0.9,1 2,1.8 3.4,2.3 1.4,0.5 2.9,0.8 4.6,0.8 1,0 2,-0.1 2.9,-0.2 0.9,-0.1 1.7,-0.4 2.5,-0.7 v -6.5 h -6.8 v -6.9 h 14.6 v 18.8 c -1.8,1 -3.8,1.7 -6.1,2.3 z"
   class="st0" />
	<path
   inkscape:connector-curvature="0"
   id="path34"
   d="m 983.8,719.7 v -35.4 h 8.6 v 35.4 z"
   class="st0" />
	<path
   inkscape:connector-curvature="0"
   id="path36"
   d="M 1022.2,719.7 1008,696.6 h -0.2 l 0.2,23.1 h -8.3 v -35.4 h 9.8 l 14.2,23.1 h 0.1 l -0.2,-23.1 h 8.3 v 35.4 z"
   class="st0" />
</g>








































































</svg>
