<?xml version="1.0" encoding="UTF-8"?>
<svg version="1.1" viewBox="0 0 527.2 103.4" xml:space="preserve" xmlns="http://www.w3.org/2000/svg" xmlns:cc="http://creativecommons.org/ns#" xmlns:dc="http://purl.org/dc/elements/1.1/" xmlns:rdf="http://www.w3.org/1999/02/22-rdf-syntax-ns#"><metadata><rdf:RDF><cc:Work rdf:about=""><dc:format>image/svg+xml</dc:format><dc:type rdf:resource="http://purl.org/dc/dcmitype/StillImage"/><dc:title/></cc:Work></rdf:RDF></metadata>
<style type="text/css">
	.st0{fill:#94C7C1;}
	.st1{fill:#FFFFFF;}
	.st2{fill:#E30613;}
	.st3{opacity:0.19;}
</style>
<g transform="translate(-696.4,-650.9)">
	<rect class="st0" width="1920" height="1080"/>
</g>
<g transform="translate(-696.4,-650.9)">
	<path class="st1" d="m1171.9 611.7h-423.8c-28.6 0-51.7-23.2-51.7-51.7 0-28.6 23.2-51.7 51.7-51.7h423.8c28.6 0 51.7 23.2 51.7 51.7 0.1 28.6-23.1 51.7-51.7 51.7z"/>
</g>
<g transform="translate(-696.4,-650.9)" onclick='alert("HELL'>
	<path class="st1" d="m1171.9 754.3h-423.8c-28.6 0-51.7-23.2-51.7-51.7 0-28.6 23.2-51.7 51.7-51.7h423.8c28.6 0 51.7 23.2 51.7 51.7 0.1 28.6-23.1 51.7-51.7 51.7z"/>
</g>
<g transform="translate(-696.4,-650.9)">
	<path class="st0" d="m1168.6 745.5h-417.2c-23.1 0-41.9-18.8-41.9-41.9s18.8-41.9 41.9-41.9h417.2c23.1 0 41.9 18.8 41.9 41.9s-18.8 41.9-41.9 41.9zm-417.2-77.7c-19.8 0-35.9 16.1-35.9 35.9s16.1 35.9 35.9 35.9h417.2c19.8 0 35.9-16.1 35.9-35.9s-16.1-35.9-35.9-35.9z"/>
</g>
<g transform="translate(-696.4,-650.9)">
	<path class="st0" d="m1168.6 601.9h-417.2c-23.1 0-41.9-18.8-41.9-41.9s18.8-41.9 41.9-41.9h417.2c23.1 0 41.9 18.8 41.9 41.9s-18.8 41.9-41.9 41.9zm-417.2-77.8c-19.8 0-35.9 16.1-35.9 35.9s16.1 35.9 35.9 35.9h417.2c19.8 0 35.9-16.1 35.9-35.9s-16.1-35.9-35.9-35.9z"/>
</g>
<g transform="translate(-696.4,-650.9)">
	<path class="st1" d="m1171.9 485.8h-423.8c-28.6 0-51.7-23.2-51.7-51.7 0-28.6 23.2-51.7 51.7-51.7h423.8c28.6 0 51.7 23.2 51.7 51.7 0.1 28.5-23.1 51.7-51.7 51.7z"/>
</g>
<g transform="translate(-696.4,-650.9)">
	<path class="st0" d="m878.1 719.7v-35.4h8.6v27.9h13.7v7.5z"/>
	<path class="st0" d="m939.7 701.9c0 2.8-0.5 5.4-1.4 7.7-1 2.3-2.3 4.3-4 6-1.7 1.6-3.8 2.9-6.1 3.8-2.4 0.9-4.9 1.3-7.7 1.3s-5.3-0.5-7.7-1.3c-2.4-0.9-4.4-2.2-6.1-3.8-1.7-1.7-3.1-3.6-4-6-1-2.3-1.5-4.9-1.5-7.7s0.5-5.4 1.5-7.7 2.3-4.2 4-5.8 3.8-2.8 6.1-3.7 4.9-1.3 7.7-1.3 5.3 0.4 7.7 1.3 4.4 2.1 6.1 3.7 3.1 3.5 4 5.8c1 2.3 1.4 4.9 1.4 7.7zm-9.1 0c0-1.5-0.2-3-0.8-4.3s-1.2-2.5-2.1-3.4-2-1.7-3.2-2.2-2.6-0.8-4.1-0.8-2.9 0.3-4.1 0.8c-1.2 0.6-2.3 1.3-3.2 2.2-0.9 1-1.6 2.1-2.1 3.4s-0.7 2.8-0.7 4.3c0 1.6 0.2 3.1 0.8 4.4s1.2 2.5 2.1 3.5 1.9 1.7 3.2 2.3c1.2 0.5 2.6 0.8 4.1 0.8s2.9-0.3 4.1-0.8 2.3-1.3 3.2-2.3 1.6-2.1 2.1-3.5 0.7-2.8 0.7-4.4z"/>
	<path class="st0" d="m970.8 719.8c-2.3 0.6-4.8 0.9-7.6 0.9s-5.4-0.5-7.8-1.4-4.4-2.2-6.1-3.8-3.1-3.6-4-5.9c-1-2.3-1.5-4.8-1.5-7.6s0.5-5.4 1.5-7.7 2.3-4.3 4.1-5.9c1.7-1.6 3.8-2.9 6.1-3.7 2.3-0.9 4.9-1.3 7.6-1.3 2.8 0 5.4 0.4 7.8 1.3s4.3 2 5.8 3.4l-5.4 6.1c-0.8-1-1.9-1.8-3.3-2.4s-2.9-0.9-4.6-0.9c-1.5 0-2.9 0.3-4.2 0.8s-2.4 1.3-3.3 2.3-1.7 2.2-2.2 3.5-0.8 2.8-0.8 4.4 0.2 3.1 0.7 4.5 1.2 2.5 2.1 3.5 2 1.8 3.4 2.3 2.9 0.8 4.6 0.8c1 0 2-0.1 2.9-0.2s1.7-0.4 2.5-0.7v-6.5h-6.8v-6.9h14.6v18.8c-1.8 1-3.8 1.7-6.1 2.3z"/>
	<path class="st0" d="m983.8 719.7v-35.4h8.6v35.4z"/>
	<path class="st0" d="m1022.2 719.7-14.2-23.1h-0.2l0.2 23.1h-8.3v-35.4h9.8l14.2 23.1h0.1l-0.2-23.1h8.3v35.4z"/>
</g>
<g transform="translate(-696.4,-650.9)">
	<path class="st0" d="m885.6 561.1c0 1.4-0.2 2.7-0.6 4s-1 2.4-1.9 3.4c-0.8 1-1.8 1.8-3 2.3-1.2 0.6-2.5 0.9-4 0.9-1.2 0-2.4-0.2-3.5-0.7s-1.9-1.2-2.6-2v11.8h-6.6v-29.5h6.2v2.4h0.1c0.6-0.8 1.5-1.5 2.5-2.1 1.1-0.6 2.4-0.9 3.8-0.9s2.7 0.3 3.9 0.8c1.2 0.6 2.2 1.3 3 2.3s1.4 2.1 1.9 3.3c0.6 1.3 0.8 2.7 0.8 4zm-6.4 0c0-0.6-0.1-1.3-0.3-1.9s-0.5-1.2-0.9-1.6c-0.4-0.5-0.9-0.8-1.5-1.1s-1.3-0.4-2-0.4-1.4 0.1-2 0.4-1.1 0.7-1.5 1.2-0.7 1-1 1.6c-0.2 0.6-0.3 1.2-0.3 1.9 0 0.6 0.1 1.3 0.3 1.9s0.5 1.2 1 1.6c0.4 0.5 0.9 0.9 1.5 1.2s1.3 0.4 2 0.4c0.8 0 1.5-0.1 2-0.4 0.6-0.3 1.1-0.7 1.5-1.2s0.7-1 0.9-1.7c0.2-0.6 0.3-1.2 0.3-1.9z"/>
	<path class="st0" d="m889.4 554c1.2-1.1 2.5-2 4.1-2.5 1.6-0.6 3.2-0.8 4.8-0.8 1.7 0 3.1 0.2 4.3 0.6s2.1 1.1 2.8 1.9c0.7 0.9 1.2 2 1.6 3.3s0.5 2.9 0.5 4.7v10h-6v-2.1h-0.1c-0.5 0.8-1.3 1.5-2.3 1.9-1 0.5-2.1 0.7-3.3 0.7-0.8 0-1.6-0.1-2.5-0.3s-1.6-0.6-2.3-1c-0.7-0.5-1.3-1.1-1.7-1.9-0.5-0.8-0.7-1.8-0.7-3 0-1.4 0.4-2.6 1.2-3.5s1.8-1.6 3-2c1.2-0.5 2.6-0.8 4.1-1s3-0.2 4.4-0.2v-0.3c0-1-0.3-1.7-1-2.2s-1.5-0.7-2.6-0.7c-0.9 0-1.8 0.2-2.7 0.6s-1.6 0.9-2.2 1.4zm12.1 8.5h-0.8c-0.7 0-1.4 0-2.2 0.1s-1.4 0.2-2 0.4-1 0.5-1.4 0.8c-0.4 0.4-0.6 0.8-0.6 1.4 0 0.4 0.1 0.7 0.3 1s0.4 0.5 0.7 0.6 0.6 0.3 0.9 0.3c0.3 0.1 0.7 0.1 1 0.1 1.3 0 2.4-0.4 3.1-1.1s1.1-1.7 1.1-3v-0.6z"/>
	<path class="st0" d="m924.1 557.1c-0.5-0.5-1.2-0.9-1.9-1.3-0.7-0.3-1.5-0.5-2.3-0.5-0.6 0-1.2 0.1-1.7 0.4s-0.8 0.7-0.8 1.2c0 0.6 0.3 1 0.9 1.2s1.5 0.5 2.8 0.8c0.7 0.2 1.5 0.4 2.3 0.7s1.4 0.7 2.1 1.2c0.6 0.5 1.1 1.1 1.5 1.8s0.6 1.5 0.6 2.5c0 1.3-0.3 2.3-0.8 3.2s-1.2 1.6-2 2.1-1.7 0.9-2.7 1.2c-1 0.2-2 0.4-3 0.4-1.6 0-3.2-0.3-4.8-0.8s-2.9-1.3-3.9-2.3l3.7-3.9c0.6 0.6 1.3 1.2 2.2 1.6s1.8 0.6 2.7 0.6c0.5 0 1.1-0.1 1.6-0.4s0.8-0.7 0.8-1.3-0.3-1.1-1-1.4c-0.6-0.3-1.6-0.6-3-0.9l-2.1-0.6c-0.7-0.3-1.3-0.6-1.9-1.1-0.5-0.5-1-1-1.3-1.7s-0.5-1.5-0.5-2.4c0-1.2 0.3-2.2 0.8-3.1 0.5-0.8 1.2-1.5 2-2.1 0.8-0.5 1.7-0.9 2.7-1.2s1.9-0.4 2.9-0.4c1.5 0 3 0.2 4.4 0.7s2.6 1.2 3.6 2.1z"/>
	<path class="st0" d="m943 557.1c-0.5-0.5-1.2-0.9-1.9-1.3-0.7-0.3-1.5-0.5-2.3-0.5-0.6 0-1.2 0.1-1.7 0.4s-0.8 0.7-0.8 1.2c0 0.6 0.3 1 0.9 1.2s1.5 0.5 2.8 0.8c0.7 0.2 1.5 0.4 2.3 0.7s1.4 0.7 2.1 1.2c0.6 0.5 1.1 1.1 1.5 1.8s0.6 1.5 0.6 2.5c0 1.3-0.3 2.3-0.8 3.2s-1.2 1.6-2 2.1-1.7 0.9-2.7 1.2c-1 0.2-2 0.4-3 0.4-1.6 0-3.2-0.3-4.8-0.8s-2.9-1.3-3.9-2.3l3.7-3.9c0.6 0.6 1.3 1.2 2.2 1.6s1.8 0.6 2.7 0.6c0.5 0 1.1-0.1 1.6-0.4s0.8-0.7 0.8-1.3-0.3-1.1-1-1.4c-0.6-0.3-1.6-0.6-3-0.9l-2.1-0.6c-0.7-0.3-1.3-0.6-1.9-1.1-0.5-0.5-1-1-1.3-1.7s-0.5-1.5-0.5-2.4c0-1.2 0.3-2.2 0.8-3.1 0.5-0.8 1.2-1.5 2-2.1 0.8-0.5 1.7-0.9 2.7-1.2s1.9-0.4 2.9-0.4c1.5 0 3 0.2 4.4 0.7s2.6 1.2 3.6 2.1z"/>
	<path class="st0" d="m975.5 571.2h-6.6l-3.9-12.4h-0.1l-3.8 12.4h-6.6l-6.9-19.9h7.1l3.4 12.6h0.1l3.6-12.6h6.6l3.7 12.6h0.1l3.5-12.6h6.8z"/>
	<path class="st0" d="m1006.1 561.1c0 1.6-0.3 3.1-0.9 4.4s-1.4 2.4-2.4 3.4c-1 0.9-2.2 1.6-3.5 2.1s-2.8 0.8-4.3 0.8-2.9-0.3-4.3-0.8c-1.3-0.5-2.5-1.2-3.5-2.1s-1.8-2-2.4-3.4c-0.6-1.3-0.9-2.8-0.9-4.4s0.3-3.1 0.9-4.4 1.4-2.4 2.4-3.3 2.2-1.6 3.5-2.1 2.8-0.7 4.3-0.7 2.9 0.2 4.3 0.7c1.3 0.5 2.5 1.2 3.5 2.1s1.8 2 2.4 3.3c0.6 1.4 0.9 2.8 0.9 4.4zm-6.3 0c0-0.6-0.1-1.3-0.3-1.9s-0.5-1.2-0.9-1.6c-0.4-0.5-0.9-0.8-1.5-1.1s-1.3-0.4-2-0.4c-0.8 0-1.5 0.1-2 0.4-0.6 0.3-1.1 0.7-1.5 1.1-0.4 0.5-0.7 1-0.9 1.6s-0.3 1.2-0.3 1.9c0 0.6 0.1 1.3 0.3 1.9s0.5 1.2 0.9 1.7 0.9 0.9 1.5 1.2 1.3 0.4 2 0.4c0.8 0 1.5-0.1 2-0.4 0.6-0.3 1.1-0.7 1.5-1.2s0.7-1 0.9-1.7c0.2-0.6 0.3-1.2 0.3-1.9z"/>
	<path class="st0" d="m1023.2 556.7c-0.3-0.1-0.6-0.1-0.9-0.2h-0.8c-0.9 0-1.6 0.2-2.2 0.5s-1.1 0.7-1.4 1.2c-0.4 0.5-0.6 0.9-0.8 1.5s-0.2 1-0.2 1.4v10.2h-6.6v-19.9h6.3v2.9h0.1c0.5-1 1.2-1.9 2.2-2.5s2-1 3.2-1h0.8c0.3 0 0.5 0.1 0.6 0.1z"/>
	<path class="st0" d="m1040.4 571.2v-2.6h-0.1c-0.6 1-1.6 1.8-2.7 2.3-1.2 0.5-2.4 0.8-3.8 0.8-1.5 0-2.8-0.3-4-0.9s-2.2-1.4-3-2.3c-0.8-1-1.4-2.1-1.9-3.4s-0.6-2.6-0.6-4 0.2-2.7 0.7-4c0.4-1.3 1.1-2.4 1.9-3.3 0.8-1 1.8-1.7 3-2.3s2.5-0.8 3.9-0.8c1.5 0 2.7 0.3 3.7 0.8 1 0.6 1.8 1.2 2.4 1.8h0.1v-12.4h6.6v30.2h-6.2zm-0.2-10c0-0.6-0.1-1.3-0.3-1.9s-0.5-1.2-1-1.6c-0.4-0.5-0.9-0.9-1.5-1.2s-1.3-0.4-2-0.4c-0.8 0-1.5 0.1-2 0.4-0.6 0.3-1.1 0.7-1.5 1.1-0.4 0.5-0.7 1-0.9 1.6s-0.3 1.2-0.3 1.9c0 0.6 0.1 1.3 0.3 1.9s0.5 1.2 0.9 1.7 0.9 0.9 1.5 1.2 1.3 0.4 2 0.4 1.4-0.1 2-0.4 1.1-0.7 1.5-1.2 0.7-1 1-1.6 0.3-1.3 0.3-1.9z"/>
</g>
<g transform="translate(-696.4,-650.9)">
	<path class="st0" d="m875.1 447.2v-2.8h-0.1c-0.2 0.5-0.6 0.9-0.9 1.3-0.4 0.4-0.8 0.7-1.4 1-0.5 0.3-1.1 0.5-1.7 0.7s-1.3 0.3-2 0.3c-1.3 0-2.5-0.2-3.4-0.7s-1.7-1.1-2.2-1.9c-0.6-0.8-1-1.6-1.2-2.6-0.3-1-0.4-2-0.4-3v-12.3h6.6v10.8c0 0.6 0 1.1 0.1 1.6s0.2 1 0.5 1.4c0.2 0.4 0.5 0.7 0.9 0.9s0.9 0.3 1.5 0.3c1.1 0 2-0.4 2.6-1.3s0.9-1.9 0.9-3v-10.8h6.6v19.9h-6.4z"/>
	<path class="st0" d="m898.2 433.1c-0.5-0.5-1.2-0.9-1.9-1.3-0.7-0.3-1.5-0.5-2.3-0.5-0.6 0-1.2 0.1-1.7 0.4-0.5 0.2-0.8 0.7-0.8 1.2 0 0.6 0.3 1 0.9 1.2s1.5 0.5 2.8 0.8c0.7 0.2 1.5 0.4 2.3 0.7s1.4 0.7 2.1 1.2c0.6 0.5 1.1 1.1 1.5 1.8s0.6 1.5 0.6 2.5c0 1.3-0.3 2.3-0.8 3.2s-1.2 1.6-2 2.1-1.7 0.9-2.7 1.2c-1 0.2-2 0.4-3 0.4-1.6 0-3.2-0.3-4.8-0.8s-2.9-1.3-3.9-2.3l3.7-3.9c0.6 0.6 1.3 1.2 2.2 1.6s1.8 0.6 2.7 0.6c0.5 0 1.1-0.1 1.6-0.4s0.8-0.7 0.8-1.3-0.3-1.1-1-1.4c-0.6-0.3-1.6-0.6-3-0.9l-2.1-0.6c-0.7-0.3-1.3-0.6-1.9-1.1-0.5-0.5-1-1-1.3-1.7s-0.5-1.5-0.5-2.4c0-1.2 0.3-2.2 0.8-3.1 0.5-0.8 1.2-1.5 2-2.1 0.8-0.5 1.7-0.9 2.7-1.2s1.9-0.4 2.9-0.4c1.5 0 3 0.2 4.4 0.7s2.6 1.2 3.6 2.1z"/>
	<path class="st0" d="m925.2 437.5v0.8 0.8h-14.4c0.1 0.6 0.2 1.1 0.5 1.5 0.3 0.5 0.6 0.8 1.1 1.2 0.4 0.3 0.9 0.6 1.5 0.8 0.5 0.2 1.1 0.3 1.7 0.3 1 0 1.9-0.2 2.6-0.6s1.3-0.9 1.8-1.5l4.6 2.9c-0.9 1.4-2.2 2.4-3.7 3.1s-3.3 1.1-5.3 1.1c-1.5 0-2.9-0.2-4.2-0.7s-2.5-1.1-3.5-2-1.8-2-2.4-3.3-0.9-2.8-0.9-4.5c0-1.6 0.3-3.1 0.8-4.4 0.6-1.3 1.3-2.4 2.3-3.4s2.1-1.6 3.4-2.1 2.7-0.8 4.2-0.8 2.8 0.2 4 0.7 2.3 1.2 3.2 2.1 1.6 2.1 2.1 3.4c0.3 1.3 0.6 2.9 0.6 4.6zm-6.1-2.6c0-1-0.3-1.9-1-2.7-0.7-0.7-1.6-1.1-2.9-1.1-0.6 0-1.2 0.1-1.8 0.3-0.5 0.2-1 0.5-1.4 0.8s-0.7 0.8-1 1.2c-0.2 0.5-0.4 1-0.4 1.5z"/>
	<path class="st0" d="m942.2 432.7c-0.3-0.1-0.6-0.1-0.9-0.2h-0.8c-0.9 0-1.6 0.2-2.2 0.5s-1.1 0.7-1.4 1.2c-0.4 0.5-0.6 0.9-0.8 1.5-0.2 0.5-0.2 1-0.2 1.4v10.2h-6.6v-19.9h6.3v2.9h0.1c0.5-1 1.2-1.9 2.2-2.5 0.9-0.6 2-1 3.2-1h0.8c0.3 0 0.5 0.1 0.6 0.1z"/>
	<path class="st0" d="m958.2 447.2v-10.9c0-0.6 0-1.1-0.1-1.6s-0.2-1-0.5-1.3c-0.2-0.4-0.5-0.7-0.9-0.9s-0.9-0.3-1.5-0.3-1.1 0.1-1.5 0.3-0.8 0.5-1.1 0.9-0.5 0.9-0.7 1.4c-0.1 0.5-0.2 1.1-0.2 1.6v10.8h-6.6v-19.9h6.4v2.8h0.1c0.2-0.4 0.6-0.8 0.9-1.3 0.4-0.4 0.8-0.8 1.4-1.1 0.5-0.3 1.1-0.5 1.7-0.7s1.3-0.3 2-0.3c1.3 0 2.5 0.2 3.4 0.7s1.7 1.1 2.3 1.9 1 1.6 1.2 2.6c0.3 1 0.4 2 0.4 3v12.3z"/>
	<path class="st0" d="m969.4 430c1.2-1.1 2.5-2 4.1-2.5 1.6-0.6 3.2-0.8 4.8-0.8 1.7 0 3.1 0.2 4.3 0.6s2.1 1.1 2.8 1.9c0.7 0.9 1.2 2 1.6 3.3 0.3 1.3 0.5 2.9 0.5 4.7v10h-6v-2.1h-0.1c-0.5 0.8-1.3 1.5-2.3 1.9-1 0.5-2.1 0.7-3.3 0.7-0.8 0-1.6-0.1-2.5-0.3s-1.6-0.6-2.3-1c-0.7-0.5-1.3-1.1-1.7-1.9-0.5-0.8-0.7-1.8-0.7-3 0-1.4 0.4-2.6 1.2-3.5s1.8-1.6 3-2 2.6-0.8 4.1-1 3-0.2 4.4-0.2v-0.3c0-1-0.3-1.7-1-2.2s-1.5-0.7-2.6-0.7c-0.9 0-1.8 0.2-2.7 0.6s-1.6 0.9-2.2 1.4zm12.1 8.5h-0.8c-0.7 0-1.4 0-2.2 0.1-0.7 0.1-1.4 0.2-2 0.4s-1 0.5-1.4 0.8c-0.4 0.4-0.6 0.8-0.6 1.4 0 0.4 0.1 0.7 0.3 1s0.4 0.5 0.7 0.6c0.3 0.2 0.6 0.3 0.9 0.3 0.3 0.1 0.7 0.1 1 0.1 1.3 0 2.4-0.4 3.1-1.1s1.1-1.7 1.1-3v-0.6z"/>
	<path class="st0" d="m1017.8 447.2v-10.9c0-0.6 0-1.1-0.1-1.6s-0.2-1-0.4-1.3c-0.2-0.4-0.5-0.7-0.9-0.9s-0.8-0.3-1.4-0.3-1 0.1-1.5 0.4c-0.4 0.2-0.8 0.6-1 1-0.3 0.4-0.5 0.9-0.6 1.4s-0.2 1.1-0.2 1.6v10.8h-6.6v-11.4c0-1.1-0.2-2.1-0.7-2.7-0.5-0.7-1.2-1-2.2-1s-1.8 0.4-2.4 1.2-0.9 1.8-0.9 3v10.8h-6.6v-19.9h6.4v2.8h0.1c0.2-0.4 0.5-0.8 0.9-1.2s0.8-0.8 1.3-1.1 1.1-0.6 1.7-0.7c0.6-0.2 1.3-0.3 2.1-0.3 1.4 0 2.7 0.3 3.7 0.9s1.8 1.4 2.3 2.5c0.7-1 1.5-1.9 2.6-2.5 1-0.6 2.3-0.9 3.8-0.9 1.4 0 2.5 0.2 3.4 0.7s1.7 1.1 2.2 1.9c0.6 0.8 1 1.7 1.2 2.6 0.3 1 0.4 1.9 0.4 2.9v12.3h-6.6z"/>
	<path class="st0" d="m1049.1 437.5v0.8 0.8h-14.4c0.1 0.6 0.2 1.1 0.5 1.5 0.3 0.5 0.6 0.8 1.1 1.2 0.4 0.3 0.9 0.6 1.5 0.8 0.5 0.2 1.1 0.3 1.7 0.3 1 0 1.9-0.2 2.6-0.6s1.3-0.9 1.8-1.5l4.6 2.9c-0.9 1.4-2.2 2.4-3.7 3.1s-3.3 1.1-5.3 1.1c-1.5 0-2.9-0.2-4.2-0.7s-2.5-1.1-3.5-2-1.8-2-2.4-3.3-0.9-2.8-0.9-4.5c0-1.6 0.3-3.1 0.8-4.4 0.6-1.3 1.3-2.4 2.3-3.4s2.1-1.6 3.4-2.1 2.7-0.8 4.2-0.8 2.8 0.2 4 0.7 2.3 1.2 3.2 2.1 1.6 2.1 2.1 3.4c0.3 1.3 0.6 2.9 0.6 4.6zm-6.1-2.6c0-1-0.3-1.9-1-2.7-0.7-0.7-1.6-1.1-2.9-1.1-0.6 0-1.2 0.1-1.8 0.3-0.5 0.2-1 0.5-1.4 0.8s-0.7 0.8-1 1.2c-0.2 0.5-0.4 1-0.4 1.5z"/>
</g>
<g transform="translate(-696.4,-650.9)">
	<path class="st0" d="m1168.6 475.9h-417.2c-23.1 0-41.9-18.8-41.9-41.9s18.8-41.9 41.9-41.9h417.2c23.1 0 41.9 18.8 41.9 41.9s-18.8 41.9-41.9 41.9zm-417.2-77.8c-19.8 0-35.9 16.1-35.9 35.9s16.1 35.9 35.9 35.9h417.2c19.8 0 35.9-16.1 35.9-35.9s-16.1-35.9-35.9-35.9z"/>
</g>
<g transform="translate(-696.4,-650.9)">
	<path class="st1" d="m753.5 774.9v6.3h-3.6v-6.3l-5.6-8.6h4.3l3.2 5.5 3.2-5.5h4.2z"/>
	<path class="st1" d="m778 773.7c0 1.2-0.2 2.3-0.6 3.2-0.4 1-1 1.8-1.7 2.5s-1.6 1.2-2.6 1.6-2.1 0.6-3.2 0.6-2.2-0.2-3.2-0.6-1.8-0.9-2.6-1.6c-0.7-0.7-1.3-1.5-1.7-2.5s-0.6-2-0.6-3.2 0.2-2.3 0.6-3.2c0.4-1 1-1.8 1.7-2.4 0.7-0.7 1.6-1.2 2.6-1.6s2.1-0.5 3.2-0.5 2.2 0.2 3.2 0.5c1 0.4 1.9 0.9 2.6 1.6s1.3 1.5 1.7 2.4 0.6 2 0.6 3.2zm-3.8 0c0-0.6-0.1-1.2-0.3-1.8s-0.5-1-0.9-1.4-0.8-0.7-1.3-0.9-1.1-0.3-1.7-0.3-1.2 0.1-1.7 0.3-1 0.5-1.3 0.9c-0.4 0.4-0.7 0.9-0.9 1.4s-0.3 1.2-0.3 1.8c0 0.7 0.1 1.3 0.3 1.9s0.5 1.1 0.9 1.5 0.8 0.7 1.3 1c0.5 0.2 1.1 0.3 1.7 0.3s1.2-0.1 1.7-0.3 1-0.5 1.3-1c0.4-0.4 0.7-0.9 0.9-1.5s0.3-1.2 0.3-1.9z"/>
	<path class="st1" d="m795.5 778.1c-0.3 0.7-0.7 1.4-1.3 1.9s-1.2 0.9-2 1.2-1.7 0.4-2.6 0.4c-1 0-1.9-0.1-2.6-0.4-0.8-0.3-1.4-0.7-2-1.2s-1-1.2-1.3-1.9-0.4-1.6-0.4-2.4v-9.3h3.6v9c0 0.4 0.1 0.8 0.2 1.2s0.3 0.7 0.5 1 0.5 0.5 0.9 0.7 0.8 0.3 1.3 0.3 0.9-0.1 1.3-0.3 0.6-0.4 0.9-0.7c0.2-0.3 0.4-0.6 0.5-1s0.1-0.7 0.1-1.2v-9h3.6v9.3c-0.2 0.8-0.4 1.6-0.7 2.4z"/>
	<path class="st1" d="m819.7 781.2-1.2-2.9h-5.8l-1.1 2.9h-3.9l6.2-14.9h3.5l6.2 14.9zm-4-10.9-1.9 5.1h3.7z"/>
	<path class="st1" d="m835.8 781.2-3.2-5.9h-1.2v5.9h-3.5v-14.9h5.7c0.7 0 1.4 0.1 2.1 0.2s1.3 0.4 1.8 0.7c0.5 0.4 1 0.8 1.3 1.4s0.5 1.3 0.5 2.1c0 1-0.3 1.9-0.8 2.5-0.5 0.7-1.3 1.2-2.3 1.5l3.9 6.4h-4.3zm-0.1-10.3c0-0.4-0.1-0.6-0.2-0.9-0.1-0.2-0.3-0.4-0.6-0.5-0.2-0.1-0.5-0.2-0.8-0.2s-0.6-0.1-0.8-0.1h-1.9v3.5h1.7c0.3 0 0.6 0 0.9-0.1s0.6-0.1 0.8-0.3c0.3-0.1 0.5-0.3 0.6-0.5 0.2-0.2 0.3-0.5 0.3-0.9z"/>
	<path class="st1" d="m844.7 781.2v-14.9h10v3h-6.5v2.8h6.2v2.9h-6.2v3.1h6.9v3.1z"/>
	<path class="st1" d="m878 781.2-6-9.7 0.1 9.7h-3.5v-14.9h4.1l6 9.7h0.1l-0.1-9.7h3.5v14.9z"/>
	<path class="st1" d="m903.6 773.7c0 1.2-0.2 2.3-0.6 3.2-0.4 1-1 1.8-1.7 2.5s-1.6 1.2-2.6 1.6-2.1 0.6-3.2 0.6-2.2-0.2-3.2-0.6-1.8-0.9-2.6-1.6c-0.7-0.7-1.3-1.5-1.7-2.5s-0.6-2-0.6-3.2 0.2-2.3 0.6-3.2c0.4-1 1-1.8 1.7-2.4 0.7-0.7 1.6-1.2 2.6-1.6s2.1-0.5 3.2-0.5 2.2 0.2 3.2 0.5c1 0.4 1.9 0.9 2.6 1.6s1.3 1.5 1.7 2.4 0.6 2 0.6 3.2zm-3.8 0c0-0.6-0.1-1.2-0.3-1.8s-0.5-1-0.9-1.4-0.8-0.7-1.3-0.9-1.1-0.3-1.7-0.3-1.2 0.1-1.7 0.3-1 0.5-1.3 0.9c-0.4 0.4-0.7 0.9-0.9 1.4s-0.3 1.2-0.3 1.8c0 0.7 0.1 1.3 0.3 1.9s0.5 1.1 0.9 1.5 0.8 0.7 1.3 1c0.5 0.2 1.1 0.3 1.7 0.3s1.2-0.1 1.7-0.3 1-0.5 1.3-1c0.4-0.4 0.7-0.9 0.9-1.5s0.3-1.2 0.3-1.9z"/>
	<path class="st1" d="m914.7 769.4v11.8h-3.6v-11.8h-4.2v-3.1h12v3.1z"/>
	<path class="st1" d="m939.1 781.2-3.2-5.9h-1.2v5.9h-3.5v-14.9h5.7c0.7 0 1.4 0.1 2.1 0.2s1.3 0.4 1.8 0.7c0.5 0.4 1 0.8 1.3 1.4s0.5 1.3 0.5 2.1c0 1-0.3 1.9-0.8 2.5-0.5 0.7-1.3 1.2-2.3 1.5l3.9 6.4h-4.3zm-0.2-10.3c0-0.4-0.1-0.6-0.2-0.9-0.1-0.2-0.3-0.4-0.6-0.5-0.2-0.1-0.5-0.2-0.8-0.2s-0.6-0.1-0.8-0.1h-1.9v3.5h1.7c0.3 0 0.6 0 0.9-0.1s0.6-0.1 0.8-0.3c0.3-0.1 0.5-0.3 0.6-0.5 0.3-0.2 0.3-0.5 0.3-0.9z"/>
	<path class="st1" d="m948 781.2v-14.9h10v3h-6.5v2.8h6.2v2.9h-6.2v3.1h6.9v3.1z"/>
	<path class="st1" d="m974.3 781.2c-1 0.2-2 0.4-3.2 0.4s-2.3-0.2-3.3-0.6-1.9-0.9-2.6-1.6-1.3-1.5-1.7-2.5-0.6-2-0.6-3.2 0.2-2.3 0.6-3.2c0.4-1 1-1.8 1.7-2.5s1.6-1.2 2.6-1.6 2-0.5 3.2-0.5 2.3 0.2 3.3 0.5 1.8 0.8 2.5 1.4l-2.3 2.6c-0.4-0.4-0.8-0.7-1.4-1s-1.2-0.4-2-0.4c-0.6 0-1.2 0.1-1.7 0.3s-1 0.6-1.4 1-0.7 0.9-0.9 1.5-0.3 1.2-0.3 1.9 0.1 1.3 0.3 1.9 0.5 1.1 0.9 1.5 0.9 0.7 1.4 1c0.6 0.2 1.2 0.3 1.9 0.3 0.4 0 0.8 0 1.2-0.1s0.7-0.2 1-0.3v-2.7h-2.8v-2.9h6.1v7.9c-0.6 0.4-1.5 0.7-2.5 0.9z"/>
	<path class="st1" d="m982.8 781.2v-14.9h3.6v14.9z"/>
	<path class="st1" d="m1000.2 770.2c-0.3-0.4-0.7-0.7-1.2-0.9s-1-0.3-1.4-0.3c-0.2 0-0.5 0-0.7 0.1s-0.5 0.1-0.7 0.2-0.4 0.3-0.5 0.5-0.2 0.4-0.2 0.7 0.1 0.5 0.2 0.6c0.1 0.2 0.3 0.3 0.5 0.4s0.4 0.2 0.7 0.3 0.6 0.2 0.9 0.3c0.5 0.2 1 0.4 1.6 0.6s1 0.5 1.5 0.8c0.4 0.3 0.8 0.8 1.1 1.2s0.4 1.1 0.4 1.9c0 0.9-0.2 1.6-0.5 2.2s-0.7 1.1-1.3 1.5c-0.5 0.4-1.1 0.7-1.8 0.9s-1.4 0.3-2.1 0.3c-1.1 0-2.1-0.2-3.1-0.6s-1.8-0.9-2.5-1.6l2.4-2.4c0.4 0.4 0.8 0.8 1.4 1.1s1.2 0.5 1.8 0.5c0.3 0 0.5 0 0.8-0.1s0.5-0.1 0.7-0.3c0.2-0.1 0.3-0.3 0.5-0.5 0.1-0.2 0.2-0.5 0.2-0.8s-0.1-0.5-0.2-0.7-0.3-0.4-0.6-0.5c-0.3-0.2-0.6-0.3-1-0.4s-0.8-0.3-1.3-0.4c-0.5-0.2-0.9-0.3-1.4-0.5s-0.9-0.5-1.2-0.8c-0.4-0.3-0.6-0.7-0.9-1.2-0.2-0.5-0.3-1-0.3-1.7 0-0.8 0.2-1.5 0.5-2.1s0.8-1.1 1.3-1.4 1.2-0.7 1.8-0.8c0.7-0.2 1.4-0.3 2.1-0.3 0.8 0 1.7 0.2 2.6 0.5s1.6 0.8 2.3 1.4z"/>
	<path class="st1" d="m1013.8 769.4v11.8h-3.6v-11.8h-4.2v-3.1h12v3.1z"/>
	<path class="st1" d="m1022.6 781.2v-14.9h10v3h-6.5v2.8h6.2v2.9h-6.2v3.1h6.9v3.1z"/>
	<path class="st1" d="m1046.3 781.2-3.2-5.9h-1.2v5.9h-3.5v-14.9h5.7c0.7 0 1.4 0.1 2.1 0.2s1.3 0.4 1.8 0.7c0.5 0.4 1 0.8 1.3 1.4s0.5 1.3 0.5 2.1c0 1-0.3 1.9-0.8 2.5-0.5 0.7-1.3 1.2-2.3 1.5l3.9 6.4h-4.3zm-0.2-10.3c0-0.4-0.1-0.6-0.2-0.9s-0.3-0.4-0.6-0.5c-0.2-0.1-0.5-0.2-0.8-0.2s-0.6-0.1-0.8-0.1h-1.9v3.5h1.7c0.3 0 0.6 0 0.9-0.1s0.6-0.1 0.8-0.3 0.5-0.3 0.6-0.5c0.2-0.2 0.3-0.5 0.3-0.9z"/>
	<path class="st1" d="m1064.7 770.1c0 0.5-0.1 0.9-0.2 1.2s-0.3 0.7-0.5 1-0.5 0.6-0.7 0.8c-0.3 0.3-0.6 0.5-1 0.8-0.2 0.2-0.4 0.3-0.6 0.5s-0.3 0.3-0.3 0.4c-0.1 0.1-0.1 0.3-0.2 0.5s-0.1 0.4-0.1 0.6v0.5h-3.3v-0.8c0-0.4 0-0.7 0.1-1s0.2-0.5 0.3-0.8c0.1-0.2 0.3-0.5 0.5-0.7s0.4-0.5 0.7-0.7l0.7-0.7c0.2-0.2 0.4-0.4 0.6-0.7 0.2-0.2 0.3-0.5 0.3-0.8 0-0.4-0.1-0.8-0.4-1.1s-0.6-0.4-1.1-0.4c-0.6 0-1 0.2-1.3 0.6s-0.5 0.8-0.5 1.4l-3.3-0.4c0.1-0.8 0.3-1.4 0.6-2s0.7-1 1.2-1.4 1-0.7 1.6-0.9 1.2-0.3 1.9-0.3c0.6 0 1.2 0.1 1.8 0.2s1.1 0.4 1.6 0.8c0.5 0.3 0.8 0.8 1.1 1.3s0.5 1.4 0.5 2.1zm-3.1 9.3c0 0.6-0.2 1-0.6 1.4s-0.9 0.6-1.4 0.6c-0.3 0-0.5 0-0.8-0.1-0.2-0.1-0.5-0.2-0.7-0.4s-0.3-0.4-0.5-0.6c-0.1-0.2-0.2-0.5-0.2-0.8s0.1-0.5 0.2-0.8c0.1-0.2 0.3-0.5 0.4-0.6 0.2-0.2 0.4-0.3 0.7-0.4s0.5-0.2 0.8-0.2 0.5 0.1 0.8 0.2c0.2 0.1 0.5 0.2 0.7 0.4s0.3 0.4 0.4 0.6c0.2 0.2 0.2 0.5 0.2 0.7z"/>
	<path class="st1" d="m1085.6 770.2c-0.3-0.4-0.7-0.7-1.2-0.9s-1-0.3-1.4-0.3c-0.2 0-0.5 0-0.7 0.1-0.2 0-0.5 0.1-0.7 0.2s-0.4 0.3-0.5 0.5-0.2 0.4-0.2 0.7 0.1 0.5 0.2 0.6c0.1 0.2 0.3 0.3 0.5 0.4s0.4 0.2 0.7 0.3 0.6 0.2 0.9 0.3c0.5 0.2 1 0.4 1.6 0.6s1 0.5 1.5 0.8c0.4 0.3 0.8 0.8 1.1 1.2s0.4 1.1 0.4 1.9c0 0.9-0.2 1.6-0.5 2.2s-0.7 1.1-1.3 1.5c-0.5 0.4-1.1 0.7-1.8 0.9s-1.4 0.3-2.1 0.3c-1.1 0-2.1-0.2-3.1-0.6s-1.8-0.9-2.5-1.6l2.4-2.4c0.4 0.4 0.8 0.8 1.4 1.1s1.2 0.5 1.8 0.5c0.3 0 0.5 0 0.8-0.1s0.5-0.1 0.7-0.3c0.2-0.1 0.3-0.3 0.5-0.5s0.2-0.5 0.2-0.8-0.1-0.5-0.2-0.7-0.3-0.4-0.6-0.5-0.6-0.3-1-0.4-0.8-0.3-1.3-0.4c-0.5-0.2-0.9-0.3-1.4-0.5s-0.9-0.5-1.2-0.8c-0.4-0.3-0.6-0.7-0.9-1.2-0.2-0.5-0.3-1-0.3-1.7 0-0.8 0.2-1.5 0.5-2.1s0.8-1.1 1.3-1.4 1.2-0.7 1.8-0.8 1.4-0.3 2.1-0.3c0.8 0 1.7 0.2 2.6 0.5s1.6 0.8 2.3 1.4z"/>
	<path class="st1" d="m1093.1 781.2v-14.9h3.6v14.9z"/>
	<path class="st1" d="m1113.4 781.2c-1 0.2-2 0.4-3.2 0.4s-2.3-0.2-3.3-0.6-1.9-0.9-2.6-1.6-1.3-1.5-1.7-2.5-0.6-2-0.6-3.2 0.2-2.3 0.6-3.2c0.4-1 1-1.8 1.7-2.5s1.6-1.2 2.6-1.6 2-0.5 3.2-0.5 2.3 0.2 3.3 0.5 1.8 0.8 2.5 1.4l-2.3 2.6c-0.4-0.4-0.8-0.7-1.4-1s-1.2-0.4-2-0.4c-0.6 0-1.2 0.1-1.7 0.3s-1 0.6-1.4 1-0.7 0.9-0.9 1.5-0.3 1.2-0.3 1.9 0.1 1.3 0.3 1.9 0.5 1.1 0.9 1.5 0.9 0.7 1.4 1c0.6 0.2 1.2 0.3 1.9 0.3 0.4 0 0.8 0 1.2-0.1s0.7-0.2 1.1-0.3v-2.7h-2.8v-2.9h6.1v7.9c-0.8 0.4-1.6 0.7-2.6 0.9z"/>
	<path class="st1" d="m1131.3 781.2-6-9.7h-0.1l0.1 9.7h-3.5v-14.9h4.1l6 9.7h0.1l-0.1-9.7h3.5v14.9z"/>
	<path class="st1" d="m1161.7 778.1c-0.3 0.7-0.7 1.4-1.3 1.9s-1.2 0.9-2 1.2-1.7 0.4-2.6 0.4c-1 0-1.9-0.1-2.6-0.4s-1.4-0.7-2-1.2-1-1.2-1.3-1.9-0.4-1.6-0.4-2.4v-9.3h3.6v9c0 0.4 0.1 0.8 0.2 1.2s0.3 0.7 0.5 1 0.5 0.5 0.9 0.7 0.8 0.3 1.3 0.3 0.9-0.1 1.3-0.3 0.6-0.4 0.9-0.7c0.2-0.3 0.4-0.6 0.5-1s0.1-0.7 0.1-1.2v-9h3.6v9.3c-0.3 0.8-0.4 1.6-0.7 2.4z"/>
	<path class="st1" d="m1179.2 770.9c0 0.9-0.2 1.6-0.5 2.2s-0.8 1.1-1.3 1.4c-0.5 0.4-1.2 0.6-1.9 0.8s-1.5 0.3-2.2 0.3h-1.8v5.6h-3.6v-14.9h5.5c0.8 0 1.6 0.1 2.3 0.2 0.7 0.2 1.3 0.4 1.8 0.8s0.9 0.8 1.2 1.4 0.5 1.4 0.5 2.2zm-3.5 0c0-0.4-0.1-0.6-0.2-0.9s-0.3-0.4-0.6-0.5c-0.2-0.1-0.5-0.2-0.8-0.3-0.3 0-0.6-0.1-0.9-0.1h-1.6v3.5h1.5c0.3 0 0.7 0 1-0.1s0.6-0.2 0.8-0.3 0.4-0.3 0.6-0.6 0.2-0.3 0.2-0.7z"/>
</g>
<g transform="translate(-696.4,-650.9)">
	
		<rect class="st1" transform="matrix(.0023842 -1 1 .0023842 337.07 1913.7)" x="1126.7" y="736.9" width="2" height="102"/>
</g>
<g transform="translate(-696.4,-650.9)">
	<path class="st1" d="m675.1 211.8h23.5c4.4 0 8.8 0.7 13.2 2.2s8.4 3.7 12 6.6c3.6 3 6.5 6.7 8.6 11.1 2.2 4.4 3.3 9.6 3.3 15.5s-1.1 11.1-3.3 15.5-5.1 8.1-8.6 11c-3.6 3-7.6 5.2-12 6.6-4.4 1.5-8.9 2.2-13.2 2.2h-23.5zm7.2 64.4h14.3c5.3 0 10-0.8 14-2.5s7.2-3.9 9.9-6.6c2.6-2.7 4.5-5.8 5.8-9.2 1.3-3.5 2-7 2-10.7s-0.6-7.2-2-10.7c-1.3-3.5-3.2-6.5-5.8-9.2s-5.9-4.9-9.9-6.5c-4-1.7-8.6-2.5-14-2.5h-14.3z"/>
	<path class="st1" d="m747.9 282.6h-7.9l30.6-70.8h7l30.4 70.8h-8l-7.8-18.6h-36.6zm10.4-25.2h31.2l-15.6-37.6z"/>
	<path class="st1" d="m825.6 282.6h-7.2v-70.8h7.2z"/>
	<path class="st1" d="m851.6 276.2h33v6.4h-40.2v-70.8h7.2z"/>
	<path class="st1" d="m910.7 282.6h-7.2v-30.5l-26.5-40.3h9l21.3 34.3 21.5-34.3h8.4l-26.5 40.3z"/>
	<path class="st1" d="m1010.6 247c0 6.2-1.1 11.6-3.4 16.1s-5.3 8.2-9.1 11.1-8 5-12.8 6.4c-4.7 1.4-9.5 2-14.4 2h-26.4v-70.8h25.6c5 0 9.9 0.6 14.8 1.8s9.2 3.1 13 5.8 6.9 6.3 9.2 10.9c2.3 4.5 3.5 10.1 3.5 16.7zm-17.8 0c0-4-0.6-7.3-2-9.9-1.3-2.6-3-4.7-5.2-6.3s-4.6-2.7-7.4-3.4-5.6-1-8.5-1h-8.5v41.4h8.1c3.1 0 6-0.4 8.9-1.1 2.8-0.7 5.3-1.9 7.5-3.4 2.2-1.6 3.9-3.7 5.2-6.4 1.3-2.6 1.9-5.9 1.9-9.9z"/>
	<path class="st1" d="m1021.9 282.6v-70.8h17.2v70.8z"/>
	<path class="st1" d="m1101.7 282.6-5.5-13.9h-27.4l-5.2 13.9h-18.6l29.7-70.8h16.6l29.4 70.8zm-19-51.9-9 24.3h17.8z"/>
	<path class="st1" d="m1164.5 282.6-15.4-28.1h-5.8v28.1h-16.7v-70.8h27c3.4 0 6.7 0.3 10 1 3.2 0.7 6.1 1.9 8.7 3.5 2.6 1.7 4.6 3.9 6.1 6.6s2.3 6.1 2.3 10.2c0 4.8-1.3 8.8-3.9 12.1s-6.2 5.6-10.8 7l18.5 30.3h-20zm-0.7-49.1c0-1.7-0.4-3-1.1-4s-1.6-1.8-2.7-2.4-2.3-1-3.7-1.2-2.7-0.3-4-0.3h-9.1v16.5h8.1c1.4 0 2.8-0.1 4.3-0.4 1.5-0.2 2.8-0.6 4-1.2s2.2-1.5 3-2.6 1.2-2.6 1.2-4.4z"/>
	<path class="st1" d="m1226.3 252.6v30h-17.1v-30l-26.6-40.8h20.7l15.1 26.2 15.1-26.2h20z"/>
</g>


































































</svg>
