<?xml version="1.0" encoding="UTF-8" standalone="no"?>
<svg
   xmlns:dc="http://purl.org/dc/elements/1.1/"
   xmlns:cc="http://creativecommons.org/ns#"
   xmlns:rdf="http://www.w3.org/1999/02/22-rdf-syntax-ns#"
   xmlns:svg="http://www.w3.org/2000/svg"
   xmlns="http://www.w3.org/2000/svg"
   xmlns:sodipodi="http://sodipodi.sourceforge.net/DTD/sodipodi-0.dtd"
   xmlns:inkscape="http://www.inkscape.org/namespaces/inkscape"
   inkscape:version="1.0beta2 (unknown)"
   height="319.29999"
   width="252.60001"
   sodipodi:docname="DIARIOMERDA.svg"
   xml:space="preserve"
   viewBox="0 0 252.6 319.29999"
   y="0px"
   x="0px"
   id="Livello_1"
   version="1.1"><metadata
   id="metadata609"><rdf:RDF><cc:Work
       rdf:about=""><dc:format>image/svg+xml</dc:format><dc:type
         rdf:resource="http://purl.org/dc/dcmitype/StillImage" /><dc:title></dc:title></cc:Work></rdf:RDF></metadata><defs
   id="defs607" /><sodipodi:namedview
   inkscape:current-layer="Livello_1"
   inkscape:window-maximized="1"
   inkscape:window-y="0"
   inkscape:window-x="0"
   inkscape:cy="450.08084"
   inkscape:cx="-878.57404"
   inkscape:zoom="0.54115914"
   fit-margin-bottom="0"
   fit-margin-right="0"
   fit-margin-left="0"
   fit-margin-top="0"
   showgrid="false"
   id="namedview605"
   inkscape:window-height="995"
   inkscape:window-width="1920"
   inkscape:pageshadow="2"
   inkscape:pageopacity="0"
   guidetolerance="10"
   gridtolerance="10"
   objecttolerance="10"
   borderopacity="1"
   inkscape:document-rotation="0"
   bordercolor="#666666"
   pagecolor="#ffffff" />
<style
   id="style2"
   type="text/css">
	.st0{fill:#94C7C1;}
	.st1{fill:#FFFFFF;}
	.st2{fill:#E30613;}
	.st3{opacity:0.19;}
</style>
<g
   transform="translate(-5912.2,-175.2)"
   id="g6">
	<rect
   y="0"
   x="0"
   id="rect4"
   height="1080"
   width="1920"
   class="st0" />
</g>
<g
   transform="translate(-5912.2,-175.2)"
   id="g10">
	<path
   inkscape:connector-curvature="0"
   id="path8"
   d="M 1171.9,611.7 H 748.1 c -28.6,0 -51.7,-23.2 -51.7,-51.7 v 0 c 0,-28.6 23.2,-51.7 51.7,-51.7 h 423.8 c 28.6,0 51.7,23.2 51.7,51.7 v 0 c 0.1,28.6 -23.1,51.7 -51.7,51.7 z"
   class="st1" />
</g>
<g
   transform="translate(-5912.2,-175.2)"
   id="g14">
	<path
   inkscape:connector-curvature="0"
   id="path12"
   d="M 1171.9,754.3 H 748.1 c -28.6,0 -51.7,-23.2 -51.7,-51.7 v 0 c 0,-28.6 23.2,-51.7 51.7,-51.7 h 423.8 c 28.6,0 51.7,23.2 51.7,51.7 v 0 c 0.1,28.6 -23.1,51.7 -51.7,51.7 z"
   class="st1" />
</g>
<g
   transform="translate(-5912.2,-175.2)"
   id="g18">
	<path
   inkscape:connector-curvature="0"
   id="path16"
   d="M 1168.6,745.5 H 751.4 c -23.1,0 -41.9,-18.8 -41.9,-41.9 0,-23.1 18.8,-41.9 41.9,-41.9 h 417.2 c 23.1,0 41.9,18.8 41.9,41.9 0,23.1 -18.8,41.9 -41.9,41.9 z M 751.4,667.8 c -19.8,0 -35.9,16.1 -35.9,35.9 0,19.8 16.1,35.9 35.9,35.9 h 417.2 c 19.8,0 35.9,-16.1 35.9,-35.9 0,-19.8 -16.1,-35.9 -35.9,-35.9 z"
   class="st0" />
</g>
<g
   transform="translate(-5912.2,-175.2)"
   id="g22">
	<path
   inkscape:connector-curvature="0"
   id="path20"
   d="M 1168.6,601.9 H 751.4 c -23.1,0 -41.9,-18.8 -41.9,-41.9 0,-23.1 18.8,-41.9 41.9,-41.9 h 417.2 c 23.1,0 41.9,18.8 41.9,41.9 0,23.1 -18.8,41.9 -41.9,41.9 z M 751.4,524.1 c -19.8,0 -35.9,16.1 -35.9,35.9 0,19.8 16.1,35.9 35.9,35.9 h 417.2 c 19.8,0 35.9,-16.1 35.9,-35.9 0,-19.8 -16.1,-35.9 -35.9,-35.9 z"
   class="st0" />
</g>
<g
   transform="translate(-5912.2,-175.2)"
   id="g26">
	<path
   inkscape:connector-curvature="0"
   id="path24"
   d="M 1171.9,485.8 H 748.1 c -28.6,0 -51.7,-23.2 -51.7,-51.7 v 0 c 0,-28.6 23.2,-51.7 51.7,-51.7 h 423.8 c 28.6,0 51.7,23.2 51.7,51.7 v 0 c 0.1,28.5 -23.1,51.7 -51.7,51.7 z"
   class="st1" />
</g>
<g
   transform="translate(-5912.2,-175.2)"
   id="g38">
	<path
   inkscape:connector-curvature="0"
   id="path28"
   d="m 878.1,719.7 v -35.4 h 8.6 v 27.9 h 13.7 v 7.5 z"
   class="st0" />
	<path
   inkscape:connector-curvature="0"
   id="path30"
   d="m 939.7,701.9 c 0,2.8 -0.5,5.4 -1.4,7.7 -1,2.3 -2.3,4.3 -4,6 -1.7,1.6 -3.8,2.9 -6.1,3.8 -2.4,0.9 -4.9,1.3 -7.7,1.3 -2.8,0 -5.3,-0.5 -7.7,-1.3 -2.4,-0.9 -4.4,-2.2 -6.1,-3.8 -1.7,-1.7 -3.1,-3.6 -4,-6 -1,-2.3 -1.5,-4.9 -1.5,-7.7 0,-2.8 0.5,-5.4 1.5,-7.7 1,-2.3 2.3,-4.2 4,-5.8 1.7,-1.6 3.8,-2.8 6.1,-3.7 2.3,-0.9 4.9,-1.3 7.7,-1.3 2.8,0 5.3,0.4 7.7,1.3 2.4,0.9 4.4,2.1 6.1,3.7 1.7,1.6 3.1,3.5 4,5.8 1,2.3 1.4,4.9 1.4,7.7 z m -9.1,0 c 0,-1.5 -0.2,-3 -0.8,-4.3 -0.6,-1.3 -1.2,-2.5 -2.1,-3.4 -0.9,-0.9 -2,-1.7 -3.2,-2.2 -1.2,-0.5 -2.6,-0.8 -4.1,-0.8 -1.5,0 -2.9,0.3 -4.1,0.8 -1.2,0.6 -2.3,1.3 -3.2,2.2 -0.9,1 -1.6,2.1 -2.1,3.4 -0.5,1.3 -0.7,2.8 -0.7,4.3 0,1.6 0.2,3.1 0.8,4.4 0.6,1.3 1.2,2.5 2.1,3.5 0.9,1 1.9,1.7 3.2,2.3 1.2,0.5 2.6,0.8 4.1,0.8 1.5,0 2.9,-0.3 4.1,-0.8 1.2,-0.5 2.3,-1.3 3.2,-2.3 0.9,-1 1.6,-2.1 2.1,-3.5 0.5,-1.4 0.7,-2.8 0.7,-4.4 z"
   class="st0" />
	<path
   inkscape:connector-curvature="0"
   id="path32"
   d="m 970.8,719.8 c -2.3,0.6 -4.8,0.9 -7.6,0.9 -2.8,0 -5.4,-0.5 -7.8,-1.4 -2.4,-0.9 -4.4,-2.2 -6.1,-3.8 -1.7,-1.6 -3.1,-3.6 -4,-5.9 -1,-2.3 -1.5,-4.8 -1.5,-7.6 0,-2.8 0.5,-5.4 1.5,-7.7 1,-2.3 2.3,-4.3 4.1,-5.9 1.7,-1.6 3.8,-2.9 6.1,-3.7 2.3,-0.9 4.9,-1.3 7.6,-1.3 2.8,0 5.4,0.4 7.8,1.3 2.4,0.9 4.3,2 5.8,3.4 l -5.4,6.1 c -0.8,-1 -1.9,-1.8 -3.3,-2.4 -1.4,-0.6 -2.9,-0.9 -4.6,-0.9 -1.5,0 -2.9,0.3 -4.2,0.8 -1.3,0.5 -2.4,1.3 -3.3,2.3 -0.9,1 -1.7,2.2 -2.2,3.5 -0.5,1.3 -0.8,2.8 -0.8,4.4 0,1.6 0.2,3.1 0.7,4.5 0.5,1.4 1.2,2.5 2.1,3.5 0.9,1 2,1.8 3.4,2.3 1.4,0.5 2.9,0.8 4.6,0.8 1,0 2,-0.1 2.9,-0.2 0.9,-0.1 1.7,-0.4 2.5,-0.7 v -6.5 h -6.8 v -6.9 h 14.6 v 18.8 c -1.8,1 -3.8,1.7 -6.1,2.3 z"
   class="st0" />
	<path
   inkscape:connector-curvature="0"
   id="path34"
   d="m 983.8,719.7 v -35.4 h 8.6 v 35.4 z"
   class="st0" />
	<path
   inkscape:connector-curvature="0"
   id="path36"
   d="M 1022.2,719.7 1008,696.6 h -0.2 l 0.2,23.1 h -8.3 v -35.4 h 9.8 l 14.2,23.1 h 0.1 l -0.2,-23.1 h 8.3 v 35.4 z"
   class="st0" />
</g>
<g
   transform="translate(-5912.2,-175.2)"
   id="g56">
	<path
   inkscape:connector-curvature="0"
   id="path40"
   d="m 885.6,561.1 c 0,1.4 -0.2,2.7 -0.6,4 -0.4,1.3 -1,2.4 -1.9,3.4 -0.8,1 -1.8,1.8 -3,2.3 -1.2,0.6 -2.5,0.9 -4,0.9 -1.2,0 -2.4,-0.2 -3.5,-0.7 -1.1,-0.5 -1.9,-1.2 -2.6,-2 v 0 11.8 h -6.6 v -29.5 h 6.2 v 2.4 h 0.1 c 0.6,-0.8 1.5,-1.5 2.5,-2.1 1.1,-0.6 2.4,-0.9 3.8,-0.9 1.4,0 2.7,0.3 3.9,0.8 1.2,0.6 2.2,1.3 3,2.3 0.8,1 1.4,2.1 1.9,3.3 0.6,1.3 0.8,2.7 0.8,4 z m -6.4,0 c 0,-0.6 -0.1,-1.3 -0.3,-1.9 -0.2,-0.6 -0.5,-1.2 -0.9,-1.6 -0.4,-0.5 -0.9,-0.8 -1.5,-1.1 -0.6,-0.3 -1.3,-0.4 -2,-0.4 -0.7,0 -1.4,0.1 -2,0.4 -0.6,0.3 -1.1,0.7 -1.5,1.2 -0.4,0.5 -0.7,1 -1,1.6 -0.2,0.6 -0.3,1.2 -0.3,1.9 0,0.6 0.1,1.3 0.3,1.9 0.2,0.6 0.5,1.2 1,1.6 0.4,0.5 0.9,0.9 1.5,1.2 0.6,0.3 1.3,0.4 2,0.4 0.8,0 1.5,-0.1 2,-0.4 0.6,-0.3 1.1,-0.7 1.5,-1.2 0.4,-0.5 0.7,-1 0.9,-1.7 0.2,-0.6 0.3,-1.2 0.3,-1.9 z"
   class="st0" />
	<path
   inkscape:connector-curvature="0"
   id="path42"
   d="m 889.4,554 c 1.2,-1.1 2.5,-2 4.1,-2.5 1.6,-0.6 3.2,-0.8 4.8,-0.8 1.7,0 3.1,0.2 4.3,0.6 1.2,0.4 2.1,1.1 2.8,1.9 0.7,0.9 1.2,2 1.6,3.3 0.4,1.3 0.5,2.9 0.5,4.7 v 10 h -6 v -2.1 h -0.1 c -0.5,0.8 -1.3,1.5 -2.3,1.9 -1,0.5 -2.1,0.7 -3.3,0.7 -0.8,0 -1.6,-0.1 -2.5,-0.3 -0.9,-0.2 -1.6,-0.6 -2.3,-1 -0.7,-0.5 -1.3,-1.1 -1.7,-1.9 -0.5,-0.8 -0.7,-1.8 -0.7,-3 0,-1.4 0.4,-2.6 1.2,-3.5 0.8,-0.9 1.8,-1.6 3,-2 1.2,-0.5 2.6,-0.8 4.1,-1 1.5,-0.2 3,-0.2 4.4,-0.2 v -0.3 c 0,-1 -0.3,-1.7 -1,-2.2 -0.7,-0.5 -1.5,-0.7 -2.6,-0.7 -0.9,0 -1.8,0.2 -2.7,0.6 -0.9,0.4 -1.6,0.9 -2.2,1.4 z m 12.1,8.5 h -0.8 c -0.7,0 -1.4,0 -2.2,0.1 -0.8,0.1 -1.4,0.2 -2,0.4 -0.6,0.2 -1,0.5 -1.4,0.8 -0.4,0.4 -0.6,0.8 -0.6,1.4 0,0.4 0.1,0.7 0.3,1 0.2,0.3 0.4,0.5 0.7,0.6 0.3,0.1 0.6,0.3 0.9,0.3 0.3,0.1 0.7,0.1 1,0.1 1.3,0 2.4,-0.4 3.1,-1.1 0.7,-0.7 1.1,-1.7 1.1,-3 v -0.6 z"
   class="st0" />
	<path
   inkscape:connector-curvature="0"
   id="path44"
   d="m 924.1,557.1 c -0.5,-0.5 -1.2,-0.9 -1.9,-1.3 -0.7,-0.3 -1.5,-0.5 -2.3,-0.5 -0.6,0 -1.2,0.1 -1.7,0.4 -0.5,0.3 -0.8,0.7 -0.8,1.2 0,0.6 0.3,1 0.9,1.2 0.6,0.2 1.5,0.5 2.8,0.8 0.7,0.2 1.5,0.4 2.3,0.7 0.8,0.3 1.4,0.7 2.1,1.2 0.6,0.5 1.1,1.1 1.5,1.8 0.4,0.7 0.6,1.5 0.6,2.5 0,1.3 -0.3,2.3 -0.8,3.2 -0.5,0.9 -1.2,1.6 -2,2.1 -0.8,0.5 -1.7,0.9 -2.7,1.2 -1,0.2 -2,0.4 -3,0.4 -1.6,0 -3.2,-0.3 -4.8,-0.8 -1.6,-0.5 -2.9,-1.3 -3.9,-2.3 l 3.7,-3.9 c 0.6,0.6 1.3,1.2 2.2,1.6 0.9,0.4 1.8,0.6 2.7,0.6 0.5,0 1.1,-0.1 1.6,-0.4 0.5,-0.3 0.8,-0.7 0.8,-1.3 0,-0.6 -0.3,-1.1 -1,-1.4 -0.6,-0.3 -1.6,-0.6 -3,-0.9 -0.7,-0.2 -1.4,-0.4 -2.1,-0.6 -0.7,-0.3 -1.3,-0.6 -1.9,-1.1 -0.5,-0.5 -1,-1 -1.3,-1.7 -0.3,-0.7 -0.5,-1.5 -0.5,-2.4 0,-1.2 0.3,-2.2 0.8,-3.1 0.5,-0.8 1.2,-1.5 2,-2.1 0.8,-0.5 1.7,-0.9 2.7,-1.2 1,-0.3 1.9,-0.4 2.9,-0.4 1.5,0 3,0.2 4.4,0.7 1.4,0.5 2.6,1.2 3.6,2.1 z"
   class="st0" />
	<path
   inkscape:connector-curvature="0"
   id="path46"
   d="m 943,557.1 c -0.5,-0.5 -1.2,-0.9 -1.9,-1.3 -0.7,-0.3 -1.5,-0.5 -2.3,-0.5 -0.6,0 -1.2,0.1 -1.7,0.4 -0.5,0.3 -0.8,0.7 -0.8,1.2 0,0.6 0.3,1 0.9,1.2 0.6,0.2 1.5,0.5 2.8,0.8 0.7,0.2 1.5,0.4 2.3,0.7 0.8,0.3 1.4,0.7 2.1,1.2 0.6,0.5 1.1,1.1 1.5,1.8 0.4,0.7 0.6,1.5 0.6,2.5 0,1.3 -0.3,2.3 -0.8,3.2 -0.5,0.9 -1.2,1.6 -2,2.1 -0.8,0.5 -1.7,0.9 -2.7,1.2 -1,0.2 -2,0.4 -3,0.4 -1.6,0 -3.2,-0.3 -4.8,-0.8 -1.6,-0.5 -2.9,-1.3 -3.9,-2.3 L 933,565 c 0.6,0.6 1.3,1.2 2.2,1.6 0.9,0.4 1.8,0.6 2.7,0.6 0.5,0 1.1,-0.1 1.6,-0.4 0.5,-0.3 0.8,-0.7 0.8,-1.3 0,-0.6 -0.3,-1.1 -1,-1.4 -0.6,-0.3 -1.6,-0.6 -3,-0.9 -0.7,-0.2 -1.4,-0.4 -2.1,-0.6 -0.7,-0.3 -1.3,-0.6 -1.9,-1.1 -0.5,-0.5 -1,-1 -1.3,-1.7 -0.3,-0.7 -0.5,-1.5 -0.5,-2.4 0,-1.2 0.3,-2.2 0.8,-3.1 0.5,-0.8 1.2,-1.5 2,-2.1 0.8,-0.5 1.7,-0.9 2.7,-1.2 1,-0.3 1.9,-0.4 2.9,-0.4 1.5,0 3,0.2 4.4,0.7 1.4,0.5 2.6,1.2 3.6,2.1 z"
   class="st0" />
	<path
   inkscape:connector-curvature="0"
   id="path48"
   d="m 975.5,571.2 h -6.6 L 965,558.8 h -0.1 l -3.8,12.4 h -6.6 l -6.9,-19.9 h 7.1 l 3.4,12.6 h 0.1 l 3.6,-12.6 h 6.6 l 3.7,12.6 h 0.1 l 3.5,-12.6 h 6.8 z"
   class="st0" />
	<path
   inkscape:connector-curvature="0"
   id="path50"
   d="m 1006.1,561.1 c 0,1.6 -0.3,3.1 -0.9,4.4 -0.6,1.3 -1.4,2.4 -2.4,3.4 -1,0.9 -2.2,1.6 -3.5,2.1 -1.3,0.5 -2.8,0.8 -4.3,0.8 -1.5,0 -2.9,-0.3 -4.3,-0.8 -1.3,-0.5 -2.5,-1.2 -3.5,-2.1 -1,-0.9 -1.8,-2 -2.4,-3.4 -0.6,-1.3 -0.9,-2.8 -0.9,-4.4 0,-1.6 0.3,-3.1 0.9,-4.4 0.6,-1.3 1.4,-2.4 2.4,-3.3 1,-0.9 2.2,-1.6 3.5,-2.1 1.3,-0.5 2.8,-0.7 4.3,-0.7 1.5,0 2.9,0.2 4.3,0.7 1.3,0.5 2.5,1.2 3.5,2.1 1,0.9 1.8,2 2.4,3.3 0.6,1.4 0.9,2.8 0.9,4.4 z m -6.3,0 c 0,-0.6 -0.1,-1.3 -0.3,-1.9 -0.2,-0.6 -0.5,-1.2 -0.9,-1.6 -0.4,-0.5 -0.9,-0.8 -1.5,-1.1 -0.6,-0.3 -1.3,-0.4 -2,-0.4 -0.8,0 -1.5,0.1 -2,0.4 -0.6,0.3 -1.1,0.7 -1.5,1.1 -0.4,0.5 -0.7,1 -0.9,1.6 -0.2,0.6 -0.3,1.2 -0.3,1.9 0,0.6 0.1,1.3 0.3,1.9 0.2,0.6 0.5,1.2 0.9,1.7 0.4,0.5 0.9,0.9 1.5,1.2 0.6,0.3 1.3,0.4 2,0.4 0.8,0 1.5,-0.1 2,-0.4 0.6,-0.3 1.1,-0.7 1.5,-1.2 0.4,-0.5 0.7,-1 0.9,-1.7 0.2,-0.6 0.3,-1.2 0.3,-1.9 z"
   class="st0" />
	<path
   inkscape:connector-curvature="0"
   id="path52"
   d="m 1023.2,556.7 c -0.3,-0.1 -0.6,-0.1 -0.9,-0.2 -0.3,0 -0.6,0 -0.8,0 -0.9,0 -1.6,0.2 -2.2,0.5 -0.6,0.3 -1.1,0.7 -1.4,1.2 -0.4,0.5 -0.6,0.9 -0.8,1.5 -0.2,0.6 -0.2,1 -0.2,1.4 v 10.2 h -6.6 v -19.9 h 6.3 v 2.9 h 0.1 c 0.5,-1 1.2,-1.9 2.2,-2.5 1,-0.6 2,-1 3.2,-1 0.3,0 0.5,0 0.8,0 0.3,0 0.5,0.1 0.6,0.1 z"
   class="st0" />
	<path
   inkscape:connector-curvature="0"
   id="path54"
   d="m 1040.4,571.2 v -2.6 h -0.1 c -0.6,1 -1.6,1.8 -2.7,2.3 -1.2,0.5 -2.4,0.8 -3.8,0.8 -1.5,0 -2.8,-0.3 -4,-0.9 -1.2,-0.6 -2.2,-1.4 -3,-2.3 -0.8,-1 -1.4,-2.1 -1.9,-3.4 -0.5,-1.3 -0.6,-2.6 -0.6,-4 0,-1.4 0.2,-2.7 0.7,-4 0.4,-1.3 1.1,-2.4 1.9,-3.3 0.8,-1 1.8,-1.7 3,-2.3 1.2,-0.6 2.5,-0.8 3.9,-0.8 1.5,0 2.7,0.3 3.7,0.8 1,0.6 1.8,1.2 2.4,1.8 h 0.1 v -12.4 h 6.6 v 30.2 h -6.2 z m -0.2,-10 c 0,-0.6 -0.1,-1.3 -0.3,-1.9 -0.2,-0.6 -0.5,-1.2 -1,-1.6 -0.4,-0.5 -0.9,-0.9 -1.5,-1.2 -0.6,-0.3 -1.3,-0.4 -2,-0.4 -0.8,0 -1.5,0.1 -2,0.4 -0.6,0.3 -1.1,0.7 -1.5,1.1 -0.4,0.5 -0.7,1 -0.9,1.6 -0.2,0.6 -0.3,1.2 -0.3,1.9 0,0.6 0.1,1.3 0.3,1.9 0.2,0.6 0.5,1.2 0.9,1.7 0.4,0.5 0.9,0.9 1.5,1.2 0.6,0.3 1.3,0.4 2,0.4 0.7,0 1.4,-0.1 2,-0.4 0.6,-0.3 1.1,-0.7 1.5,-1.2 0.4,-0.5 0.7,-1 1,-1.6 0.3,-0.6 0.3,-1.3 0.3,-1.9 z"
   class="st0" />
</g>
<g
   transform="translate(-5912.2,-175.2)"
   id="g74">
	<path
   inkscape:connector-curvature="0"
   id="path58"
   d="m 875.1,447.2 v -2.8 H 875 c -0.2,0.5 -0.6,0.9 -0.9,1.3 -0.4,0.4 -0.8,0.7 -1.4,1 -0.5,0.3 -1.1,0.5 -1.7,0.7 -0.6,0.2 -1.3,0.3 -2,0.3 -1.3,0 -2.5,-0.2 -3.4,-0.7 -0.9,-0.5 -1.7,-1.1 -2.2,-1.9 -0.6,-0.8 -1,-1.6 -1.2,-2.6 -0.3,-1 -0.4,-2 -0.4,-3 v -12.3 h 6.6 V 438 c 0,0.6 0,1.1 0.1,1.6 0.1,0.5 0.2,1 0.5,1.4 0.2,0.4 0.5,0.7 0.9,0.9 0.4,0.2 0.9,0.3 1.5,0.3 1.1,0 2,-0.4 2.6,-1.3 0.6,-0.9 0.9,-1.9 0.9,-3 v -10.8 h 6.6 V 447 h -6.4 z"
   class="st0" />
	<path
   inkscape:connector-curvature="0"
   id="path60"
   d="m 898.2,433.1 c -0.5,-0.5 -1.2,-0.9 -1.9,-1.3 -0.7,-0.3 -1.5,-0.5 -2.3,-0.5 -0.6,0 -1.2,0.1 -1.7,0.4 -0.5,0.2 -0.8,0.7 -0.8,1.2 0,0.6 0.3,1 0.9,1.2 0.6,0.2 1.5,0.5 2.8,0.8 0.7,0.2 1.5,0.4 2.3,0.7 0.8,0.3 1.4,0.7 2.1,1.2 0.6,0.5 1.1,1.1 1.5,1.8 0.4,0.7 0.6,1.5 0.6,2.5 0,1.3 -0.3,2.3 -0.8,3.2 -0.5,0.9 -1.2,1.6 -2,2.1 -0.8,0.5 -1.7,0.9 -2.7,1.2 -1,0.2 -2,0.4 -3,0.4 -1.6,0 -3.2,-0.3 -4.8,-0.8 -1.6,-0.5 -2.9,-1.3 -3.9,-2.3 l 3.7,-3.9 c 0.6,0.6 1.3,1.2 2.2,1.6 0.9,0.4 1.8,0.6 2.7,0.6 0.5,0 1.1,-0.1 1.6,-0.4 0.5,-0.3 0.8,-0.7 0.8,-1.3 0,-0.6 -0.3,-1.1 -1,-1.4 -0.6,-0.3 -1.6,-0.6 -3,-0.9 -0.7,-0.2 -1.4,-0.4 -2.1,-0.6 -0.7,-0.3 -1.3,-0.6 -1.9,-1.1 -0.5,-0.5 -1,-1 -1.3,-1.7 -0.3,-0.7 -0.5,-1.5 -0.5,-2.4 0,-1.2 0.3,-2.2 0.8,-3.1 0.5,-0.8 1.2,-1.5 2,-2.1 0.8,-0.5 1.7,-0.9 2.7,-1.2 1,-0.3 1.9,-0.4 2.9,-0.4 1.5,0 3,0.2 4.4,0.7 1.4,0.5 2.6,1.2 3.6,2.1 z"
   class="st0" />
	<path
   inkscape:connector-curvature="0"
   id="path62"
   d="m 925.2,437.5 c 0,0.3 0,0.5 0,0.8 0,0.3 0,0.5 0,0.8 h -14.4 c 0.1,0.6 0.2,1.1 0.5,1.5 0.3,0.5 0.6,0.8 1.1,1.2 0.4,0.3 0.9,0.6 1.5,0.8 0.5,0.2 1.1,0.3 1.7,0.3 1,0 1.9,-0.2 2.6,-0.6 0.7,-0.4 1.3,-0.9 1.8,-1.5 l 4.6,2.9 c -0.9,1.4 -2.2,2.4 -3.7,3.1 -1.5,0.7 -3.3,1.1 -5.3,1.1 -1.5,0 -2.9,-0.2 -4.2,-0.7 -1.3,-0.5 -2.5,-1.1 -3.5,-2 -1,-0.9 -1.8,-2 -2.4,-3.3 -0.6,-1.3 -0.9,-2.8 -0.9,-4.5 0,-1.6 0.3,-3.1 0.8,-4.4 0.6,-1.3 1.3,-2.4 2.3,-3.4 1,-1 2.1,-1.6 3.4,-2.1 1.3,-0.5 2.7,-0.8 4.2,-0.8 1.5,0 2.8,0.2 4,0.7 1.2,0.5 2.3,1.2 3.2,2.1 0.9,0.9 1.6,2.1 2.1,3.4 0.3,1.3 0.6,2.9 0.6,4.6 z m -6.1,-2.6 c 0,-1 -0.3,-1.9 -1,-2.7 -0.7,-0.7 -1.6,-1.1 -2.9,-1.1 -0.6,0 -1.2,0.1 -1.8,0.3 -0.5,0.2 -1,0.5 -1.4,0.8 -0.4,0.3 -0.7,0.8 -1,1.2 -0.2,0.5 -0.4,1 -0.4,1.5 z"
   class="st0" />
	<path
   inkscape:connector-curvature="0"
   id="path64"
   d="m 942.2,432.7 c -0.3,-0.1 -0.6,-0.1 -0.9,-0.2 -0.3,0 -0.6,0 -0.8,0 -0.9,0 -1.6,0.2 -2.2,0.5 -0.6,0.3 -1.1,0.7 -1.4,1.2 -0.4,0.5 -0.6,0.9 -0.8,1.5 -0.2,0.5 -0.2,1 -0.2,1.4 v 10.2 h -6.6 v -19.9 h 6.3 v 2.9 h 0.1 c 0.5,-1 1.2,-1.9 2.2,-2.5 0.9,-0.6 2,-1 3.2,-1 0.3,0 0.5,0 0.8,0 0.3,0 0.5,0.1 0.6,0.1 z"
   class="st0" />
	<path
   inkscape:connector-curvature="0"
   id="path66"
   d="m 958.2,447.2 v -10.9 c 0,-0.6 0,-1.1 -0.1,-1.6 -0.1,-0.5 -0.2,-1 -0.5,-1.3 -0.2,-0.4 -0.5,-0.7 -0.9,-0.9 -0.4,-0.2 -0.9,-0.3 -1.5,-0.3 -0.6,0 -1.1,0.1 -1.5,0.3 -0.4,0.2 -0.8,0.5 -1.1,0.9 -0.3,0.4 -0.5,0.9 -0.7,1.4 -0.1,0.5 -0.2,1.1 -0.2,1.6 v 10.8 h -6.6 v -19.9 h 6.4 v 2.8 h 0.1 c 0.2,-0.4 0.6,-0.8 0.9,-1.3 0.4,-0.4 0.8,-0.8 1.4,-1.1 0.5,-0.3 1.1,-0.5 1.7,-0.7 0.6,-0.2 1.3,-0.3 2,-0.3 1.3,0 2.5,0.2 3.4,0.7 0.9,0.5 1.7,1.1 2.3,1.9 0.6,0.8 1,1.6 1.2,2.6 0.3,1 0.4,2 0.4,3 v 12.3 z"
   class="st0" />
	<path
   inkscape:connector-curvature="0"
   id="path68"
   d="m 969.4,430 c 1.2,-1.1 2.5,-2 4.1,-2.5 1.6,-0.6 3.2,-0.8 4.8,-0.8 1.7,0 3.1,0.2 4.3,0.6 1.2,0.4 2.1,1.1 2.8,1.9 0.7,0.9 1.2,2 1.6,3.3 0.3,1.3 0.5,2.9 0.5,4.7 v 10 h -6 v -2.1 h -0.1 c -0.5,0.8 -1.3,1.5 -2.3,1.9 -1,0.5 -2.1,0.7 -3.3,0.7 -0.8,0 -1.6,-0.1 -2.5,-0.3 -0.9,-0.2 -1.6,-0.6 -2.3,-1 -0.7,-0.5 -1.3,-1.1 -1.7,-1.9 -0.5,-0.8 -0.7,-1.8 -0.7,-3 0,-1.4 0.4,-2.6 1.2,-3.5 0.8,-0.9 1.8,-1.6 3,-2 1.2,-0.4 2.6,-0.8 4.1,-1 1.5,-0.2 3,-0.2 4.4,-0.2 v -0.3 c 0,-1 -0.3,-1.7 -1,-2.2 -0.7,-0.5 -1.5,-0.7 -2.6,-0.7 -0.9,0 -1.8,0.2 -2.7,0.6 -0.9,0.4 -1.6,0.9 -2.2,1.4 z m 12.1,8.5 h -0.8 c -0.7,0 -1.4,0 -2.2,0.1 -0.7,0.1 -1.4,0.2 -2,0.4 -0.6,0.2 -1,0.5 -1.4,0.8 -0.4,0.4 -0.6,0.8 -0.6,1.4 0,0.4 0.1,0.7 0.3,1 0.2,0.3 0.4,0.5 0.7,0.6 0.3,0.2 0.6,0.3 0.9,0.3 0.3,0.1 0.7,0.1 1,0.1 1.3,0 2.4,-0.4 3.1,-1.1 0.7,-0.7 1.1,-1.7 1.1,-3 v -0.6 z"
   class="st0" />
	<path
   inkscape:connector-curvature="0"
   id="path70"
   d="m 1017.8,447.2 v -10.9 c 0,-0.6 0,-1.1 -0.1,-1.6 -0.1,-0.5 -0.2,-1 -0.4,-1.3 -0.2,-0.4 -0.5,-0.7 -0.9,-0.9 -0.4,-0.2 -0.8,-0.3 -1.4,-0.3 -0.6,0 -1,0.1 -1.5,0.4 -0.4,0.2 -0.8,0.6 -1,1 -0.3,0.4 -0.5,0.9 -0.6,1.4 -0.1,0.5 -0.2,1.1 -0.2,1.6 v 10.8 h -6.6 V 436 c 0,-1.1 -0.2,-2.1 -0.7,-2.7 -0.5,-0.7 -1.2,-1 -2.2,-1 -1,0 -1.8,0.4 -2.4,1.2 -0.6,0.8 -0.9,1.8 -0.9,3 v 10.8 h -6.6 v -19.9 h 6.4 v 2.8 h 0.1 c 0.2,-0.4 0.5,-0.8 0.9,-1.2 0.4,-0.4 0.8,-0.8 1.3,-1.1 0.5,-0.3 1.1,-0.6 1.7,-0.7 0.6,-0.2 1.3,-0.3 2.1,-0.3 1.4,0 2.7,0.3 3.7,0.9 1,0.6 1.8,1.4 2.3,2.5 0.7,-1 1.5,-1.9 2.6,-2.5 1,-0.6 2.3,-0.9 3.8,-0.9 1.4,0 2.5,0.2 3.4,0.7 0.9,0.5 1.7,1.1 2.2,1.9 0.6,0.8 1,1.7 1.2,2.6 0.3,1 0.4,1.9 0.4,2.9 v 12.3 h -6.6 z"
   class="st0" />
	<path
   inkscape:connector-curvature="0"
   id="path72"
   d="m 1049.1,437.5 c 0,0.3 0,0.5 0,0.8 0,0.3 0,0.5 0,0.8 h -14.4 c 0.1,0.6 0.2,1.1 0.5,1.5 0.3,0.5 0.6,0.8 1.1,1.2 0.4,0.3 0.9,0.6 1.5,0.8 0.5,0.2 1.1,0.3 1.7,0.3 1,0 1.9,-0.2 2.6,-0.6 0.7,-0.4 1.3,-0.9 1.8,-1.5 l 4.6,2.9 c -0.9,1.4 -2.2,2.4 -3.7,3.1 -1.5,0.7 -3.3,1.1 -5.3,1.1 -1.5,0 -2.9,-0.2 -4.2,-0.7 -1.3,-0.5 -2.5,-1.1 -3.5,-2 -1,-0.9 -1.8,-2 -2.4,-3.3 -0.6,-1.3 -0.9,-2.8 -0.9,-4.5 0,-1.6 0.3,-3.1 0.8,-4.4 0.6,-1.3 1.3,-2.4 2.3,-3.4 1,-1 2.1,-1.6 3.4,-2.1 1.3,-0.5 2.7,-0.8 4.2,-0.8 1.5,0 2.8,0.2 4,0.7 1.2,0.5 2.3,1.2 3.2,2.1 0.9,0.9 1.6,2.1 2.1,3.4 0.3,1.3 0.6,2.9 0.6,4.6 z m -6.1,-2.6 c 0,-1 -0.3,-1.9 -1,-2.7 -0.7,-0.7 -1.6,-1.1 -2.9,-1.1 -0.6,0 -1.2,0.1 -1.8,0.3 -0.5,0.2 -1,0.5 -1.4,0.8 -0.4,0.3 -0.7,0.8 -1,1.2 -0.2,0.5 -0.4,1 -0.4,1.5 z"
   class="st0" />
</g>
<g
   transform="translate(-5912.2,-175.2)"
   id="g78">
	<path
   inkscape:connector-curvature="0"
   id="path76"
   d="M 1168.6,475.9 H 751.4 c -23.1,0 -41.9,-18.8 -41.9,-41.9 0,-23.1 18.8,-41.9 41.9,-41.9 h 417.2 c 23.1,0 41.9,18.8 41.9,41.9 0,23.1 -18.8,41.9 -41.9,41.9 z M 751.4,398.1 c -19.8,0 -35.9,16.1 -35.9,35.9 0,19.8 16.1,35.9 35.9,35.9 h 417.2 c 19.8,0 35.9,-16.1 35.9,-35.9 0,-19.8 -16.1,-35.9 -35.9,-35.9 z"
   class="st0" />
</g>
<g
   transform="translate(-5912.2,-175.2)"
   id="g128">
	<path
   inkscape:connector-curvature="0"
   id="path80"
   d="m 753.5,774.9 v 6.3 h -3.6 v -6.3 l -5.6,-8.6 h 4.3 l 3.2,5.5 3.2,-5.5 h 4.2 z"
   class="st1" />
	<path
   inkscape:connector-curvature="0"
   id="path82"
   d="m 778,773.7 c 0,1.2 -0.2,2.3 -0.6,3.2 -0.4,1 -1,1.8 -1.7,2.5 -0.7,0.7 -1.6,1.2 -2.6,1.6 -1,0.4 -2.1,0.6 -3.2,0.6 -1.1,0 -2.2,-0.2 -3.2,-0.6 -1,-0.4 -1.8,-0.9 -2.6,-1.6 -0.7,-0.7 -1.3,-1.5 -1.7,-2.5 -0.4,-1 -0.6,-2 -0.6,-3.2 0,-1.2 0.2,-2.3 0.6,-3.2 0.4,-1 1,-1.8 1.7,-2.4 0.7,-0.7 1.6,-1.2 2.6,-1.6 1,-0.4 2.1,-0.5 3.2,-0.5 1.1,0 2.2,0.2 3.2,0.5 1,0.4 1.9,0.9 2.6,1.6 0.7,0.7 1.3,1.5 1.7,2.4 0.4,0.9 0.6,2 0.6,3.2 z m -3.8,0 c 0,-0.6 -0.1,-1.2 -0.3,-1.8 -0.2,-0.6 -0.5,-1 -0.9,-1.4 -0.4,-0.4 -0.8,-0.7 -1.3,-0.9 -0.5,-0.2 -1.1,-0.3 -1.7,-0.3 -0.6,0 -1.2,0.1 -1.7,0.3 -0.5,0.2 -1,0.5 -1.3,0.9 -0.4,0.4 -0.7,0.9 -0.9,1.4 -0.2,0.5 -0.3,1.2 -0.3,1.8 0,0.7 0.1,1.3 0.3,1.9 0.2,0.6 0.5,1.1 0.9,1.5 0.4,0.4 0.8,0.7 1.3,1 0.5,0.2 1.1,0.3 1.7,0.3 0.6,0 1.2,-0.1 1.7,-0.3 0.5,-0.2 1,-0.5 1.3,-1 0.4,-0.4 0.7,-0.9 0.9,-1.5 0.2,-0.6 0.3,-1.2 0.3,-1.9 z"
   class="st1" />
	<path
   inkscape:connector-curvature="0"
   id="path84"
   d="m 795.5,778.1 c -0.3,0.7 -0.7,1.4 -1.3,1.9 -0.6,0.5 -1.2,0.9 -2,1.2 -0.8,0.3 -1.7,0.4 -2.6,0.4 -1,0 -1.9,-0.1 -2.6,-0.4 -0.8,-0.3 -1.4,-0.7 -2,-1.2 -0.6,-0.5 -1,-1.2 -1.3,-1.9 -0.3,-0.7 -0.4,-1.6 -0.4,-2.4 v -9.3 h 3.6 v 9 c 0,0.4 0.1,0.8 0.2,1.2 0.1,0.4 0.3,0.7 0.5,1 0.2,0.3 0.5,0.5 0.9,0.7 0.4,0.2 0.8,0.3 1.3,0.3 0.5,0 0.9,-0.1 1.3,-0.3 0.4,-0.2 0.6,-0.4 0.9,-0.7 0.2,-0.3 0.4,-0.6 0.5,-1 0.1,-0.4 0.1,-0.7 0.1,-1.2 v -9 h 3.6 v 9.3 c -0.2,0.8 -0.4,1.6 -0.7,2.4 z"
   class="st1" />
	<path
   inkscape:connector-curvature="0"
   id="path86"
   d="m 819.7,781.2 -1.2,-2.9 h -5.8 l -1.1,2.9 h -3.9 l 6.2,-14.9 h 3.5 l 6.2,14.9 z m -4,-10.9 -1.9,5.1 h 3.7 z"
   class="st1" />
	<path
   inkscape:connector-curvature="0"
   id="path88"
   d="m 835.8,781.2 -3.2,-5.9 h -1.2 v 5.9 h -3.5 v -14.9 h 5.7 c 0.7,0 1.4,0.1 2.1,0.2 0.7,0.1 1.3,0.4 1.8,0.7 0.5,0.4 1,0.8 1.3,1.4 0.3,0.6 0.5,1.3 0.5,2.1 0,1 -0.3,1.9 -0.8,2.5 -0.5,0.7 -1.3,1.2 -2.3,1.5 l 3.9,6.4 h -4.3 z m -0.1,-10.3 c 0,-0.4 -0.1,-0.6 -0.2,-0.9 -0.1,-0.2 -0.3,-0.4 -0.6,-0.5 -0.2,-0.1 -0.5,-0.2 -0.8,-0.2 -0.3,0 -0.6,-0.1 -0.8,-0.1 h -1.9 v 3.5 h 1.7 c 0.3,0 0.6,0 0.9,-0.1 0.3,-0.1 0.6,-0.1 0.8,-0.3 0.3,-0.1 0.5,-0.3 0.6,-0.5 0.2,-0.2 0.3,-0.5 0.3,-0.9 z"
   class="st1" />
	<path
   inkscape:connector-curvature="0"
   id="path90"
   d="m 844.7,781.2 v -14.9 h 10 v 3 h -6.5 v 2.8 h 6.2 v 2.9 h -6.2 v 3.1 h 6.9 v 3.1 z"
   class="st1" />
	<path
   inkscape:connector-curvature="0"
   id="path92"
   d="m 878,781.2 -6,-9.7 v 0 l 0.1,9.7 h -3.5 v -14.9 h 4.1 l 6,9.7 h 0.1 l -0.1,-9.7 h 3.5 v 14.9 z"
   class="st1" />
	<path
   inkscape:connector-curvature="0"
   id="path94"
   d="m 903.6,773.7 c 0,1.2 -0.2,2.3 -0.6,3.2 -0.4,1 -1,1.8 -1.7,2.5 -0.7,0.7 -1.6,1.2 -2.6,1.6 -1,0.4 -2.1,0.6 -3.2,0.6 -1.1,0 -2.2,-0.2 -3.2,-0.6 -1,-0.4 -1.8,-0.9 -2.6,-1.6 -0.7,-0.7 -1.3,-1.5 -1.7,-2.5 -0.4,-1 -0.6,-2 -0.6,-3.2 0,-1.2 0.2,-2.3 0.6,-3.2 0.4,-1 1,-1.8 1.7,-2.4 0.7,-0.7 1.6,-1.2 2.6,-1.6 1,-0.4 2.1,-0.5 3.2,-0.5 1.1,0 2.2,0.2 3.2,0.5 1,0.4 1.9,0.9 2.6,1.6 0.7,0.7 1.3,1.5 1.7,2.4 0.4,0.9 0.6,2 0.6,3.2 z m -3.8,0 c 0,-0.6 -0.1,-1.2 -0.3,-1.8 -0.2,-0.6 -0.5,-1 -0.9,-1.4 -0.4,-0.4 -0.8,-0.7 -1.3,-0.9 -0.5,-0.2 -1.1,-0.3 -1.7,-0.3 -0.6,0 -1.2,0.1 -1.7,0.3 -0.5,0.2 -1,0.5 -1.3,0.9 -0.4,0.4 -0.7,0.9 -0.9,1.4 -0.2,0.5 -0.3,1.2 -0.3,1.8 0,0.7 0.1,1.3 0.3,1.9 0.2,0.6 0.5,1.1 0.9,1.5 0.4,0.4 0.8,0.7 1.3,1 0.5,0.2 1.1,0.3 1.7,0.3 0.6,0 1.2,-0.1 1.7,-0.3 0.5,-0.2 1,-0.5 1.3,-1 0.4,-0.4 0.7,-0.9 0.9,-1.5 0.2,-0.6 0.3,-1.2 0.3,-1.9 z"
   class="st1" />
	<path
   inkscape:connector-curvature="0"
   id="path96"
   d="m 914.7,769.4 v 11.8 h -3.6 v -11.8 h -4.2 v -3.1 h 12 v 3.1 z"
   class="st1" />
	<path
   inkscape:connector-curvature="0"
   id="path98"
   d="m 939.1,781.2 -3.2,-5.9 h -1.2 v 5.9 h -3.5 v -14.9 h 5.7 c 0.7,0 1.4,0.1 2.1,0.2 0.7,0.1 1.3,0.4 1.8,0.7 0.5,0.4 1,0.8 1.3,1.4 0.3,0.6 0.5,1.3 0.5,2.1 0,1 -0.3,1.9 -0.8,2.5 -0.5,0.7 -1.3,1.2 -2.3,1.5 l 3.9,6.4 h -4.3 z m -0.2,-10.3 c 0,-0.4 -0.1,-0.6 -0.2,-0.9 -0.1,-0.2 -0.3,-0.4 -0.6,-0.5 -0.2,-0.1 -0.5,-0.2 -0.8,-0.2 -0.3,0 -0.6,-0.1 -0.8,-0.1 h -1.9 v 3.5 h 1.7 c 0.3,0 0.6,0 0.9,-0.1 0.3,-0.1 0.6,-0.1 0.8,-0.3 0.3,-0.1 0.5,-0.3 0.6,-0.5 0.3,-0.2 0.3,-0.5 0.3,-0.9 z"
   class="st1" />
	<path
   inkscape:connector-curvature="0"
   id="path100"
   d="m 948,781.2 v -14.9 h 10 v 3 h -6.5 v 2.8 h 6.2 v 2.9 h -6.2 v 3.1 h 6.9 v 3.1 z"
   class="st1" />
	<path
   inkscape:connector-curvature="0"
   id="path102"
   d="m 974.3,781.2 c -1,0.2 -2,0.4 -3.2,0.4 -1.2,0 -2.3,-0.2 -3.3,-0.6 -1,-0.4 -1.9,-0.9 -2.6,-1.6 -0.7,-0.7 -1.3,-1.5 -1.7,-2.5 -0.4,-1 -0.6,-2 -0.6,-3.2 0,-1.2 0.2,-2.3 0.6,-3.2 0.4,-1 1,-1.8 1.7,-2.5 0.7,-0.7 1.6,-1.2 2.6,-1.6 1,-0.4 2,-0.5 3.2,-0.5 1.2,0 2.3,0.2 3.3,0.5 1,0.3 1.8,0.8 2.5,1.4 l -2.3,2.6 c -0.4,-0.4 -0.8,-0.7 -1.4,-1 -0.6,-0.3 -1.2,-0.4 -2,-0.4 -0.6,0 -1.2,0.1 -1.7,0.3 -0.5,0.2 -1,0.6 -1.4,1 -0.4,0.4 -0.7,0.9 -0.9,1.5 -0.2,0.6 -0.3,1.2 -0.3,1.9 0,0.7 0.1,1.3 0.3,1.9 0.2,0.6 0.5,1.1 0.9,1.5 0.4,0.4 0.9,0.7 1.4,1 0.6,0.2 1.2,0.3 1.9,0.3 0.4,0 0.8,0 1.2,-0.1 0.4,-0.1 0.7,-0.2 1,-0.3 v -2.7 h -2.8 v -2.9 h 6.1 v 7.9 c -0.6,0.4 -1.5,0.7 -2.5,0.9 z"
   class="st1" />
	<path
   inkscape:connector-curvature="0"
   id="path104"
   d="m 982.8,781.2 v -14.9 h 3.6 v 14.9 z"
   class="st1" />
	<path
   inkscape:connector-curvature="0"
   id="path106"
   d="m 1000.2,770.2 c -0.3,-0.4 -0.7,-0.7 -1.2,-0.9 -0.5,-0.2 -1,-0.3 -1.4,-0.3 -0.2,0 -0.5,0 -0.7,0.1 -0.2,0.1 -0.5,0.1 -0.7,0.2 -0.2,0.1 -0.4,0.3 -0.5,0.5 -0.1,0.2 -0.2,0.4 -0.2,0.7 0,0.3 0.1,0.5 0.2,0.6 0.1,0.2 0.3,0.3 0.5,0.4 0.2,0.1 0.4,0.2 0.7,0.3 0.3,0.1 0.6,0.2 0.9,0.3 0.5,0.2 1,0.4 1.6,0.6 0.6,0.2 1,0.5 1.5,0.8 0.4,0.3 0.8,0.8 1.1,1.2 0.3,0.4 0.4,1.1 0.4,1.9 0,0.9 -0.2,1.6 -0.5,2.2 -0.3,0.6 -0.7,1.1 -1.3,1.5 -0.5,0.4 -1.1,0.7 -1.8,0.9 -0.7,0.2 -1.4,0.3 -2.1,0.3 -1.1,0 -2.1,-0.2 -3.1,-0.6 -1,-0.4 -1.8,-0.9 -2.5,-1.6 l 2.4,-2.4 c 0.4,0.4 0.8,0.8 1.4,1.1 0.6,0.3 1.2,0.5 1.8,0.5 0.3,0 0.5,0 0.8,-0.1 0.3,-0.1 0.5,-0.1 0.7,-0.3 0.2,-0.1 0.3,-0.3 0.5,-0.5 0.1,-0.2 0.2,-0.5 0.2,-0.8 0,-0.3 -0.1,-0.5 -0.2,-0.7 -0.1,-0.2 -0.3,-0.4 -0.6,-0.5 -0.3,-0.2 -0.6,-0.3 -1,-0.4 -0.4,-0.1 -0.8,-0.3 -1.3,-0.4 -0.5,-0.2 -0.9,-0.3 -1.4,-0.5 -0.5,-0.2 -0.9,-0.5 -1.2,-0.8 -0.4,-0.3 -0.6,-0.7 -0.9,-1.2 -0.2,-0.5 -0.3,-1 -0.3,-1.7 0,-0.8 0.2,-1.5 0.5,-2.1 0.3,-0.6 0.8,-1.1 1.3,-1.4 0.5,-0.3 1.2,-0.7 1.8,-0.8 0.7,-0.2 1.4,-0.3 2.1,-0.3 0.8,0 1.7,0.2 2.6,0.5 0.9,0.3 1.6,0.8 2.3,1.4 z"
   class="st1" />
	<path
   inkscape:connector-curvature="0"
   id="path108"
   d="m 1013.8,769.4 v 11.8 h -3.6 v -11.8 h -4.2 v -3.1 h 12 v 3.1 z"
   class="st1" />
	<path
   inkscape:connector-curvature="0"
   id="path110"
   d="m 1022.6,781.2 v -14.9 h 10 v 3 h -6.5 v 2.8 h 6.2 v 2.9 h -6.2 v 3.1 h 6.9 v 3.1 z"
   class="st1" />
	<path
   inkscape:connector-curvature="0"
   id="path112"
   d="m 1046.3,781.2 -3.2,-5.9 h -1.2 v 5.9 h -3.5 v -14.9 h 5.7 c 0.7,0 1.4,0.1 2.1,0.2 0.7,0.1 1.3,0.4 1.8,0.7 0.5,0.4 1,0.8 1.3,1.4 0.3,0.6 0.5,1.3 0.5,2.1 0,1 -0.3,1.9 -0.8,2.5 -0.5,0.7 -1.3,1.2 -2.3,1.5 l 3.9,6.4 h -4.3 z m -0.2,-10.3 c 0,-0.4 -0.1,-0.6 -0.2,-0.9 -0.1,-0.3 -0.3,-0.4 -0.6,-0.5 -0.2,-0.1 -0.5,-0.2 -0.8,-0.2 -0.3,0 -0.6,-0.1 -0.8,-0.1 h -1.9 v 3.5 h 1.7 c 0.3,0 0.6,0 0.9,-0.1 0.3,-0.1 0.6,-0.1 0.8,-0.3 0.2,-0.2 0.5,-0.3 0.6,-0.5 0.2,-0.2 0.3,-0.5 0.3,-0.9 z"
   class="st1" />
	<path
   inkscape:connector-curvature="0"
   id="path114"
   d="m 1064.7,770.1 c 0,0.5 -0.1,0.9 -0.2,1.2 -0.1,0.3 -0.3,0.7 -0.5,1 -0.2,0.3 -0.5,0.6 -0.7,0.8 -0.3,0.3 -0.6,0.5 -1,0.8 -0.2,0.2 -0.4,0.3 -0.6,0.5 -0.2,0.2 -0.3,0.3 -0.3,0.4 -0.1,0.1 -0.1,0.3 -0.2,0.5 -0.1,0.2 -0.1,0.4 -0.1,0.6 v 0.5 h -3.3 v -0.8 c 0,-0.4 0,-0.7 0.1,-1 0.1,-0.3 0.2,-0.5 0.3,-0.8 0.1,-0.2 0.3,-0.5 0.5,-0.7 0.2,-0.2 0.4,-0.5 0.7,-0.7 l 0.7,-0.7 c 0.2,-0.2 0.4,-0.4 0.6,-0.7 0.2,-0.2 0.3,-0.5 0.3,-0.8 0,-0.4 -0.1,-0.8 -0.4,-1.1 -0.3,-0.3 -0.6,-0.4 -1.1,-0.4 -0.6,0 -1,0.2 -1.3,0.6 -0.3,0.4 -0.5,0.8 -0.5,1.4 l -3.3,-0.4 c 0.1,-0.8 0.3,-1.4 0.6,-2 0.3,-0.6 0.7,-1 1.2,-1.4 0.5,-0.4 1,-0.7 1.6,-0.9 0.6,-0.2 1.2,-0.3 1.9,-0.3 0.6,0 1.2,0.1 1.8,0.2 0.6,0.1 1.1,0.4 1.6,0.8 0.5,0.3 0.8,0.8 1.1,1.3 0.3,0.5 0.5,1.4 0.5,2.1 z m -3.1,9.3 c 0,0.6 -0.2,1 -0.6,1.4 -0.4,0.4 -0.9,0.6 -1.4,0.6 -0.3,0 -0.5,0 -0.8,-0.1 -0.2,-0.1 -0.5,-0.2 -0.7,-0.4 -0.2,-0.2 -0.3,-0.4 -0.5,-0.6 -0.1,-0.2 -0.2,-0.5 -0.2,-0.8 0,-0.3 0.1,-0.5 0.2,-0.8 0.1,-0.2 0.3,-0.5 0.4,-0.6 0.2,-0.2 0.4,-0.3 0.7,-0.4 0.3,-0.1 0.5,-0.2 0.8,-0.2 0.3,0 0.5,0.1 0.8,0.2 0.2,0.1 0.5,0.2 0.7,0.4 0.2,0.2 0.3,0.4 0.4,0.6 0.2,0.2 0.2,0.5 0.2,0.7 z"
   class="st1" />
	<path
   inkscape:connector-curvature="0"
   id="path116"
   d="m 1085.6,770.2 c -0.3,-0.4 -0.7,-0.7 -1.2,-0.9 -0.5,-0.2 -1,-0.3 -1.4,-0.3 -0.2,0 -0.5,0 -0.7,0.1 -0.2,0 -0.5,0.1 -0.7,0.2 -0.2,0.1 -0.4,0.3 -0.5,0.5 -0.1,0.2 -0.2,0.4 -0.2,0.7 0,0.3 0.1,0.5 0.2,0.6 0.1,0.2 0.3,0.3 0.5,0.4 0.2,0.1 0.4,0.2 0.7,0.3 0.3,0.1 0.6,0.2 0.9,0.3 0.5,0.2 1,0.4 1.6,0.6 0.6,0.2 1,0.5 1.5,0.8 0.4,0.3 0.8,0.8 1.1,1.2 0.3,0.4 0.4,1.1 0.4,1.9 0,0.9 -0.2,1.6 -0.5,2.2 -0.3,0.6 -0.7,1.1 -1.3,1.5 -0.5,0.4 -1.1,0.7 -1.8,0.9 -0.7,0.2 -1.4,0.3 -2.1,0.3 -1.1,0 -2.1,-0.2 -3.1,-0.6 -1,-0.4 -1.8,-0.9 -2.5,-1.6 l 2.4,-2.4 c 0.4,0.4 0.8,0.8 1.4,1.1 0.6,0.3 1.2,0.5 1.8,0.5 0.3,0 0.5,0 0.8,-0.1 0.3,-0.1 0.5,-0.1 0.7,-0.3 0.2,-0.1 0.3,-0.3 0.5,-0.5 0.2,-0.2 0.2,-0.5 0.2,-0.8 0,-0.3 -0.1,-0.5 -0.2,-0.7 -0.1,-0.2 -0.3,-0.4 -0.6,-0.5 -0.3,-0.1 -0.6,-0.3 -1,-0.4 -0.4,-0.1 -0.8,-0.3 -1.3,-0.4 -0.5,-0.2 -0.9,-0.3 -1.4,-0.5 -0.5,-0.2 -0.9,-0.5 -1.2,-0.8 -0.4,-0.3 -0.6,-0.7 -0.9,-1.2 -0.2,-0.5 -0.3,-1 -0.3,-1.7 0,-0.8 0.2,-1.5 0.5,-2.1 0.3,-0.6 0.8,-1.1 1.3,-1.4 0.5,-0.3 1.2,-0.7 1.8,-0.8 0.6,-0.1 1.4,-0.3 2.1,-0.3 0.8,0 1.7,0.2 2.6,0.5 0.9,0.3 1.6,0.8 2.3,1.4 z"
   class="st1" />
	<path
   inkscape:connector-curvature="0"
   id="path118"
   d="m 1093.1,781.2 v -14.9 h 3.6 v 14.9 z"
   class="st1" />
	<path
   inkscape:connector-curvature="0"
   id="path120"
   d="m 1113.4,781.2 c -1,0.2 -2,0.4 -3.2,0.4 -1.2,0 -2.3,-0.2 -3.3,-0.6 -1,-0.4 -1.9,-0.9 -2.6,-1.6 -0.7,-0.7 -1.3,-1.5 -1.7,-2.5 -0.4,-1 -0.6,-2 -0.6,-3.2 0,-1.2 0.2,-2.3 0.6,-3.2 0.4,-1 1,-1.8 1.7,-2.5 0.7,-0.7 1.6,-1.2 2.6,-1.6 1,-0.4 2,-0.5 3.2,-0.5 1.2,0 2.3,0.2 3.3,0.5 1,0.3 1.8,0.8 2.5,1.4 l -2.3,2.6 c -0.4,-0.4 -0.8,-0.7 -1.4,-1 -0.6,-0.3 -1.2,-0.4 -2,-0.4 -0.6,0 -1.2,0.1 -1.7,0.3 -0.5,0.2 -1,0.6 -1.4,1 -0.4,0.4 -0.7,0.9 -0.9,1.5 -0.2,0.6 -0.3,1.2 -0.3,1.9 0,0.7 0.1,1.3 0.3,1.9 0.2,0.6 0.5,1.1 0.9,1.5 0.4,0.4 0.9,0.7 1.4,1 0.6,0.2 1.2,0.3 1.9,0.3 0.4,0 0.8,0 1.2,-0.1 0.4,-0.1 0.7,-0.2 1.1,-0.3 v -2.7 h -2.8 v -2.9 h 6.1 v 7.9 c -0.8,0.4 -1.6,0.7 -2.6,0.9 z"
   class="st1" />
	<path
   inkscape:connector-curvature="0"
   id="path122"
   d="m 1131.3,781.2 -6,-9.7 h -0.1 l 0.1,9.7 h -3.5 v -14.9 h 4.1 l 6,9.7 h 0.1 l -0.1,-9.7 h 3.5 v 14.9 z"
   class="st1" />
	<path
   inkscape:connector-curvature="0"
   id="path124"
   d="m 1161.7,778.1 c -0.3,0.7 -0.7,1.4 -1.3,1.9 -0.6,0.5 -1.2,0.9 -2,1.2 -0.8,0.3 -1.7,0.4 -2.6,0.4 -1,0 -1.9,-0.1 -2.6,-0.4 -0.7,-0.3 -1.4,-0.7 -2,-1.2 -0.6,-0.5 -1,-1.2 -1.3,-1.9 -0.3,-0.7 -0.4,-1.6 -0.4,-2.4 v -9.3 h 3.6 v 9 c 0,0.4 0.1,0.8 0.2,1.2 0.1,0.4 0.3,0.7 0.5,1 0.2,0.3 0.5,0.5 0.9,0.7 0.4,0.2 0.8,0.3 1.3,0.3 0.5,0 0.9,-0.1 1.3,-0.3 0.4,-0.2 0.6,-0.4 0.9,-0.7 0.2,-0.3 0.4,-0.6 0.5,-1 0.1,-0.4 0.1,-0.7 0.1,-1.2 v -9 h 3.6 v 9.3 c -0.3,0.8 -0.4,1.6 -0.7,2.4 z"
   class="st1" />
	<path
   inkscape:connector-curvature="0"
   id="path126"
   d="m 1179.2,770.9 c 0,0.9 -0.2,1.6 -0.5,2.2 -0.3,0.6 -0.8,1.1 -1.3,1.4 -0.5,0.4 -1.2,0.6 -1.9,0.8 -0.7,0.2 -1.5,0.3 -2.2,0.3 h -1.8 v 5.6 h -3.6 v -14.9 h 5.5 c 0.8,0 1.6,0.1 2.3,0.2 0.7,0.2 1.3,0.4 1.8,0.8 0.5,0.4 0.9,0.8 1.2,1.4 0.3,0.6 0.5,1.4 0.5,2.2 z m -3.5,0 c 0,-0.4 -0.1,-0.6 -0.2,-0.9 -0.1,-0.3 -0.3,-0.4 -0.6,-0.5 -0.2,-0.1 -0.5,-0.2 -0.8,-0.3 -0.3,0 -0.6,-0.1 -0.9,-0.1 h -1.6 v 3.5 h 1.5 c 0.3,0 0.7,0 1,-0.1 0.3,-0.1 0.6,-0.2 0.8,-0.3 0.2,-0.1 0.4,-0.3 0.6,-0.6 0.2,-0.3 0.2,-0.3 0.2,-0.7 z"
   class="st1" />
</g>
<g
   transform="translate(-5912.2,-175.2)"
   id="g132">
	
		<rect
   id="rect130"
   height="102"
   width="2"
   class="st1"
   transform="matrix(0.00238423,-1,1,0.00238423,337.069,1913.6989)"
   y="736.90002"
   x="1126.7" />
</g>
<g
   transform="translate(-5912.2,-175.2)"
   id="g154">
	<path
   inkscape:connector-curvature="0"
   id="path134"
   d="m 675.1,211.8 h 23.5 c 4.4,0 8.8,0.7 13.2,2.2 4.4,1.5 8.4,3.7 12,6.6 3.6,3 6.5,6.7 8.6,11.1 2.2,4.4 3.3,9.6 3.3,15.5 0,5.9 -1.1,11.1 -3.3,15.5 -2.2,4.4 -5.1,8.1 -8.6,11 -3.6,3 -7.6,5.2 -12,6.6 -4.4,1.5 -8.9,2.2 -13.2,2.2 h -23.5 z m 7.2,64.4 h 14.3 c 5.3,0 10,-0.8 14,-2.5 4,-1.7 7.2,-3.9 9.9,-6.6 2.6,-2.7 4.5,-5.8 5.8,-9.2 1.3,-3.5 2,-7 2,-10.7 0,-3.7 -0.6,-7.2 -2,-10.7 -1.3,-3.5 -3.2,-6.5 -5.8,-9.2 -2.6,-2.7 -5.9,-4.9 -9.9,-6.5 -4,-1.7 -8.6,-2.5 -14,-2.5 h -14.3 z"
   class="st1" />
	<path
   inkscape:connector-curvature="0"
   id="path136"
   d="M 747.9,282.6 H 740 l 30.6,-70.8 h 7 l 30.4,70.8 h -8 L 792.2,264 h -36.6 z m 10.4,-25.2 h 31.2 l -15.6,-37.6 z"
   class="st1" />
	<path
   inkscape:connector-curvature="0"
   id="path138"
   d="m 825.6,282.6 h -7.2 v -70.8 h 7.2 z"
   class="st1" />
	<path
   inkscape:connector-curvature="0"
   id="path140"
   d="m 851.6,276.2 h 33 v 6.4 h -40.2 v -70.8 h 7.2 z"
   class="st1" />
	<path
   inkscape:connector-curvature="0"
   id="path142"
   d="m 910.7,282.6 h -7.2 V 252.1 L 877,211.8 h 9 l 21.3,34.3 21.5,-34.3 h 8.4 l -26.5,40.3 z"
   class="st1" />
	<path
   inkscape:connector-curvature="0"
   id="path144"
   d="m 1010.6,247 c 0,6.2 -1.1,11.6 -3.4,16.1 -2.3,4.5 -5.3,8.2 -9.1,11.1 -3.8,2.9 -8,5 -12.8,6.4 -4.7,1.4 -9.5,2 -14.4,2 h -26.4 v -70.8 h 25.6 c 5,0 9.9,0.6 14.8,1.8 4.9,1.2 9.2,3.1 13,5.8 3.8,2.7 6.9,6.3 9.2,10.9 2.3,4.5 3.5,10.1 3.5,16.7 z m -17.8,0 c 0,-4 -0.6,-7.3 -2,-9.9 -1.3,-2.6 -3,-4.7 -5.2,-6.3 -2.2,-1.6 -4.6,-2.7 -7.4,-3.4 -2.8,-0.7 -5.6,-1 -8.5,-1 h -8.5 v 41.4 h 8.1 c 3.1,0 6,-0.4 8.9,-1.1 2.8,-0.7 5.3,-1.9 7.5,-3.4 2.2,-1.6 3.9,-3.7 5.2,-6.4 1.3,-2.6 1.9,-5.9 1.9,-9.9 z"
   class="st1" />
	<path
   inkscape:connector-curvature="0"
   id="path146"
   d="m 1021.9,282.6 v -70.8 h 17.2 v 70.8 z"
   class="st1" />
	<path
   inkscape:connector-curvature="0"
   id="path148"
   d="m 1101.7,282.6 -5.5,-13.9 h -27.4 l -5.2,13.9 H 1045 l 29.7,-70.8 h 16.6 l 29.4,70.8 z m -19,-51.9 -9,24.3 h 17.8 z"
   class="st1" />
	<path
   inkscape:connector-curvature="0"
   id="path150"
   d="m 1164.5,282.6 -15.4,-28.1 h -5.8 v 28.1 h -16.7 v -70.8 h 27 c 3.4,0 6.7,0.3 10,1 3.2,0.7 6.1,1.9 8.7,3.5 2.6,1.7 4.6,3.9 6.1,6.6 1.5,2.7 2.3,6.1 2.3,10.2 0,4.8 -1.3,8.8 -3.9,12.1 -2.6,3.3 -6.2,5.6 -10.8,7 l 18.5,30.3 h -20 z m -0.7,-49.1 c 0,-1.7 -0.4,-3 -1.1,-4 -0.7,-1 -1.6,-1.8 -2.7,-2.4 -1.1,-0.6 -2.3,-1 -3.7,-1.2 -1.4,-0.2 -2.7,-0.3 -4,-0.3 h -9.1 v 16.5 h 8.1 c 1.4,0 2.8,-0.1 4.3,-0.4 1.5,-0.2 2.8,-0.6 4,-1.2 1.2,-0.6 2.2,-1.5 3,-2.6 0.8,-1.1 1.2,-2.6 1.2,-4.4 z"
   class="st1" />
	<path
   inkscape:connector-curvature="0"
   id="path152"
   d="m 1226.3,252.6 v 30 h -17.1 v -30 l -26.6,-40.8 h 20.7 l 15.1,26.2 15.1,-26.2 h 20 z"
   class="st1" />
</g>
<g
   transform="translate(-5912.2,-175.2)"
   id="g158">
	<rect
   y="0"
   id="rect156"
   height="1080"
   width="1920"
   class="st0"
   x="1940" />
</g>
<g
   transform="translate(-5912.2,-175.2)"
   id="g162">
	<path
   inkscape:connector-curvature="0"
   id="path160"
   d="m 3111.9,551.7 h -423.8 c -28.6,0 -51.7,-23.2 -51.7,-51.7 v 0 c 0,-28.6 23.2,-51.7 51.7,-51.7 h 423.8 c 28.6,0 51.7,23.2 51.7,51.7 v 0 c 0.1,28.6 -23.1,51.7 -51.7,51.7 z"
   class="st1" />
</g>
<g
   transform="translate(-5912.2,-175.2)"
   id="g166">
	<path
   inkscape:connector-curvature="0"
   id="path164"
   d="m 3111.9,852.3 h -423.8 c -28.6,0 -51.7,-23.2 -51.7,-51.7 v 0 c 0,-28.6 23.2,-51.7 51.7,-51.7 h 423.8 c 28.6,0 51.7,23.2 51.7,51.7 v 0 c 0.1,28.6 -23.1,51.7 -51.7,51.7 z"
   class="st1" />
</g>
<g
   transform="translate(-5912.2,-175.2)"
   id="g170">
	<path
   inkscape:connector-curvature="0"
   id="path168"
   d="m 3108.6,843.5 h -417.2 c -23.1,0 -41.9,-18.8 -41.9,-41.9 0,-23.1 18.8,-41.9 41.9,-41.9 h 417.2 c 23.1,0 41.9,18.8 41.9,41.9 0,23.1 -18.8,41.9 -41.9,41.9 z m -417.2,-77.7 c -19.8,0 -35.9,16.1 -35.9,35.9 0,19.8 16.1,35.9 35.9,35.9 h 417.2 c 19.8,0 35.9,-16.1 35.9,-35.9 0,-19.8 -16.1,-35.9 -35.9,-35.9 z"
   class="st0" />
</g>
<g
   transform="translate(-5912.2,-175.2)"
   id="g174">
	<path
   inkscape:connector-curvature="0"
   id="path172"
   d="m 3108.6,541.9 h -417.2 c -23.1,0 -41.9,-18.8 -41.9,-41.9 0,-23.1 18.8,-41.9 41.9,-41.9 h 417.2 c 23.1,0 41.9,18.8 41.9,41.9 0,23.1 -18.8,41.9 -41.9,41.9 z m -417.2,-77.8 c -19.8,0 -35.9,16.1 -35.9,35.9 0,19.8 16.1,35.9 35.9,35.9 h 417.2 c 19.8,0 35.9,-16.1 35.9,-35.9 0,-19.8 -16.1,-35.9 -35.9,-35.9 z"
   class="st0" />
</g>
<g
   transform="translate(-5912.2,-175.2)"
   id="g178">
	<path
   inkscape:connector-curvature="0"
   id="path176"
   d="m 3111.9,425.8 h -423.8 c -28.6,0 -51.7,-23.2 -51.7,-51.7 v 0 c 0,-28.6 23.2,-51.7 51.7,-51.7 h 423.8 c 28.6,0 51.7,23.2 51.7,51.7 v 0 c 0.1,28.5 -23.1,51.7 -51.7,51.7 z"
   class="st1" />
</g>
<g
   transform="translate(-5912.2,-175.2)"
   id="g196">
	<path
   inkscape:connector-curvature="0"
   id="path180"
   d="m 2798,817.8 -7.7,-14 h -2.9 v 14 h -8.3 v -35.4 h 13.5 c 1.7,0 3.4,0.2 5,0.5 1.6,0.3 3.1,0.9 4.4,1.8 1.3,0.8 2.3,1.9 3.1,3.3 0.8,1.4 1.2,3.1 1.2,5.1 0,2.4 -0.7,4.4 -2,6 -1.3,1.6 -3.1,2.8 -5.4,3.5 l 9.2,15.2 z m -0.4,-24.6 c 0,-0.8 -0.2,-1.5 -0.5,-2 -0.4,-0.5 -0.8,-0.9 -1.4,-1.2 -0.6,-0.3 -1.2,-0.5 -1.9,-0.6 -0.7,-0.1 -1.3,-0.1 -2,-0.1 h -4.6 v 8.2 h 4.1 c 0.7,0 1.4,-0.1 2.2,-0.2 0.7,-0.1 1.4,-0.3 2,-0.6 0.6,-0.3 1.1,-0.7 1.5,-1.3 0.4,-0.6 0.6,-1.3 0.6,-2.2 z"
   class="st0" />
	<path
   inkscape:connector-curvature="0"
   id="path182"
   d="m 2812.2,817.8 v -35.4 h 23.8 v 7.2 h -15.6 v 6.7 h 14.7 v 6.8 h -14.7 v 7.4 h 16.5 v 7.3 z"
   class="st0" />
	<path
   inkscape:connector-curvature="0"
   id="path184"
   d="m 2867.9,817.8 c -2.3,0.6 -4.8,0.8 -7.6,0.8 -2.8,0 -5.4,-0.4 -7.8,-1.3 -2.4,-0.9 -4.4,-2.2 -6.2,-3.8 -1.7,-1.6 -3.1,-3.6 -4,-5.9 -1,-2.3 -1.5,-4.8 -1.5,-7.6 0,-2.8 0.5,-5.4 1.5,-7.7 1,-2.3 2.3,-4.3 4.1,-5.9 1.7,-1.6 3.8,-2.9 6.1,-3.7 2.3,-0.8 4.9,-1.3 7.6,-1.3 2.8,0 5.4,0.4 7.8,1.3 2.4,0.8 4.3,2 5.8,3.4 l -5.4,6.2 c -0.8,-1 -1.9,-1.8 -3.3,-2.4 -1.4,-0.6 -2.9,-0.9 -4.6,-0.9 -1.5,0 -2.9,0.3 -4.2,0.8 -1.3,0.6 -2.4,1.3 -3.3,2.3 -0.9,1 -1.7,2.1 -2.2,3.5 -0.5,1.3 -0.8,2.8 -0.8,4.4 0,1.6 0.2,3.1 0.7,4.5 0.5,1.4 1.2,2.5 2.1,3.5 0.9,1 2,1.8 3.4,2.3 1.4,0.5 2.9,0.8 4.6,0.8 1,0 2,-0.1 2.9,-0.2 0.9,-0.2 1.7,-0.4 2.5,-0.7 v -6.5 h -6.8 v -6.9 h 14.6 v 18.8 c -1.7,0.9 -3.7,1.6 -6,2.2 z"
   class="st0" />
	<path
   inkscape:connector-curvature="0"
   id="path186"
   d="m 2881,817.8 v -35.4 h 8.6 v 35.4 z"
   class="st0" />
	<path
   inkscape:connector-curvature="0"
   id="path188"
   d="m 2915.5,791.5 c -0.7,-0.9 -1.7,-1.7 -2.9,-2.2 -1.2,-0.6 -2.3,-0.8 -3.4,-0.8 -0.6,0 -1.1,0 -1.7,0.1 -0.6,0.1 -1.1,0.3 -1.6,0.6 -0.5,0.3 -0.9,0.7 -1.2,1.1 -0.3,0.4 -0.5,1 -0.5,1.7 0,0.6 0.1,1.1 0.4,1.5 0.3,0.4 0.6,0.8 1.1,1 0.5,0.3 1.1,0.6 1.7,0.8 0.6,0.2 1.4,0.5 2.2,0.8 1.2,0.4 2.5,0.8 3.8,1.3 1.3,0.5 2.5,1.1 3.6,1.9 1.1,0.8 1.9,1.8 2.6,3 0.7,1.2 1,2.7 1,4.4 0,2 -0.4,3.8 -1.1,5.3 -0.7,1.5 -1.8,2.7 -3,3.7 -1.3,1 -2.7,1.7 -4.4,2.2 -1.6,0.5 -3.3,0.7 -5,0.7 -2.5,0 -5,-0.4 -7.3,-1.3 -2.4,-0.9 -4.3,-2.1 -5.9,-3.8 l 5.6,-5.7 c 0.9,1.1 2,2 3.4,2.7 1.4,0.7 2.8,1.1 4.2,1.1 0.6,0 1.2,-0.1 1.9,-0.2 0.6,-0.1 1.1,-0.3 1.6,-0.6 0.5,-0.3 0.8,-0.7 1.1,-1.2 0.3,-0.5 0.4,-1.1 0.4,-1.8 0,-0.7 -0.2,-1.2 -0.5,-1.7 -0.3,-0.5 -0.8,-0.9 -1.4,-1.3 -0.6,-0.4 -1.4,-0.7 -2.3,-1 -0.9,-0.3 -2,-0.7 -3.1,-1 -1.1,-0.4 -2.2,-0.8 -3.3,-1.3 -1.1,-0.5 -2.1,-1.1 -2.9,-1.9 -0.8,-0.8 -1.5,-1.7 -2,-2.8 -0.5,-1.1 -0.8,-2.5 -0.8,-4.1 0,-2 0.4,-3.7 1.2,-5 0.8,-1.4 1.8,-2.5 3.2,-3.5 1.3,-0.9 2.8,-1.6 4.4,-2 1.6,-0.4 3.3,-0.6 5,-0.6 2,0 4,0.4 6.1,1.1 2.1,0.7 3.9,1.8 5.5,3.2 z"
   class="st0" />
	<path
   inkscape:connector-curvature="0"
   id="path190"
   d="m 2940.9,789.6 v 28.1 h -8.5 v -28.1 h -10 v -7.3 h 28.5 v 7.3 z"
   class="st0" />
	<path
   inkscape:connector-curvature="0"
   id="path192"
   d="m 2954.8,817.8 v -35.4 h 23.8 v 7.2 H 2963 v 6.7 h 14.7 v 6.8 H 2963 v 7.4 h 16.4 v 7.3 z"
   class="st0" />
	<path
   inkscape:connector-curvature="0"
   id="path194"
   d="m 3004.1,817.8 -7.7,-14 h -2.9 v 14 h -8.3 v -35.4 h 13.5 c 1.7,0 3.4,0.2 5,0.5 1.6,0.3 3.1,0.9 4.3,1.8 1.3,0.8 2.3,1.9 3.1,3.3 0.8,1.4 1.2,3.1 1.2,5.1 0,2.4 -0.7,4.4 -2,6 -1.3,1.6 -3.1,2.8 -5.4,3.5 l 9.2,15.2 z m -0.4,-24.6 c 0,-0.8 -0.2,-1.5 -0.5,-2 -0.4,-0.5 -0.8,-0.9 -1.4,-1.2 -0.6,-0.3 -1.2,-0.5 -1.9,-0.6 -0.7,-0.1 -1.3,-0.1 -2,-0.1 h -4.6 v 8.2 h 4.1 c 0.7,0 1.4,-0.1 2.2,-0.2 0.7,-0.1 1.4,-0.3 2,-0.6 0.6,-0.3 1.1,-0.7 1.5,-1.3 0.5,-0.6 0.6,-1.3 0.6,-2.2 z"
   class="st0" />
</g>
<g
   transform="translate(-5912.2,-175.2)"
   id="g214">
	<path
   inkscape:connector-curvature="0"
   id="path198"
   d="m 2825.6,501.1 c 0,1.4 -0.2,2.7 -0.6,4 -0.4,1.3 -1,2.4 -1.9,3.4 -0.8,1 -1.8,1.8 -3,2.3 -1.2,0.6 -2.5,0.9 -4,0.9 -1.2,0 -2.4,-0.2 -3.5,-0.7 -1.1,-0.5 -1.9,-1.2 -2.6,-2 h -0.1 v 11.8 h -6.6 v -29.5 h 6.2 v 2.4 h 0.1 c 0.6,-0.8 1.5,-1.5 2.5,-2.1 1,-0.6 2.4,-0.9 3.8,-0.9 1.4,0 2.7,0.3 3.9,0.8 1.2,0.6 2.2,1.3 3,2.3 0.8,1 1.4,2.1 1.9,3.3 0.7,1.3 0.9,2.7 0.9,4 z m -6.4,0 c 0,-0.6 -0.1,-1.3 -0.3,-1.9 -0.2,-0.6 -0.5,-1.2 -0.9,-1.6 -0.4,-0.5 -0.9,-0.8 -1.5,-1.1 -0.6,-0.3 -1.3,-0.4 -2,-0.4 -0.7,0 -1.4,0.1 -2,0.4 -0.6,0.3 -1.1,0.7 -1.5,1.2 -0.4,0.5 -0.7,1 -1,1.6 -0.2,0.6 -0.3,1.2 -0.3,1.9 0,0.7 0.1,1.3 0.3,1.9 0.2,0.6 0.5,1.2 1,1.6 0.4,0.5 0.9,0.9 1.5,1.2 0.6,0.3 1.3,0.4 2,0.4 0.8,0 1.5,-0.1 2,-0.4 0.6,-0.3 1.1,-0.7 1.5,-1.2 0.4,-0.5 0.7,-1 0.9,-1.7 0.2,-0.6 0.3,-1.2 0.3,-1.9 z"
   class="st0" />
	<path
   inkscape:connector-curvature="0"
   id="path200"
   d="m 2829.4,494 c 1.2,-1.1 2.5,-2 4.1,-2.5 1.6,-0.6 3.2,-0.8 4.8,-0.8 1.7,0 3.1,0.2 4.3,0.6 1.2,0.4 2.1,1.1 2.8,1.9 0.7,0.9 1.2,2 1.6,3.3 0.3,1.3 0.5,2.9 0.5,4.7 v 10 h -6 v -2.1 h -0.1 c -0.5,0.8 -1.3,1.5 -2.3,1.9 -1,0.4 -2.1,0.7 -3.3,0.7 -0.8,0 -1.6,-0.1 -2.5,-0.3 -0.9,-0.2 -1.6,-0.6 -2.3,-1 -0.7,-0.5 -1.3,-1.1 -1.7,-1.9 -0.5,-0.8 -0.7,-1.8 -0.7,-3 0,-1.4 0.4,-2.6 1.2,-3.5 0.8,-0.9 1.8,-1.6 3,-2 1.2,-0.5 2.6,-0.8 4.1,-1 1.5,-0.2 3,-0.2 4.4,-0.2 v -0.3 c 0,-1 -0.3,-1.7 -1,-2.2 -0.7,-0.5 -1.5,-0.7 -2.6,-0.7 -0.9,0 -1.8,0.2 -2.7,0.6 -0.9,0.4 -1.6,0.9 -2.2,1.4 z m 12.1,8.5 h -0.8 c -0.7,0 -1.4,0 -2.2,0.1 -0.7,0.1 -1.4,0.2 -2,0.4 -0.6,0.2 -1,0.5 -1.4,0.8 -0.4,0.4 -0.6,0.8 -0.6,1.4 0,0.4 0.1,0.7 0.3,1 0.2,0.3 0.4,0.5 0.7,0.6 0.3,0.2 0.6,0.3 0.9,0.3 0.3,0.1 0.7,0.1 1,0.1 1.3,0 2.4,-0.4 3.1,-1.1 0.7,-0.7 1.1,-1.7 1.1,-3 v -0.6 z"
   class="st0" />
	<path
   inkscape:connector-curvature="0"
   id="path202"
   d="m 2864.1,497.1 c -0.5,-0.5 -1.2,-0.9 -1.9,-1.3 -0.7,-0.3 -1.5,-0.5 -2.3,-0.5 -0.6,0 -1.2,0.1 -1.7,0.4 -0.5,0.2 -0.8,0.7 -0.8,1.2 0,0.6 0.3,1 0.9,1.2 0.6,0.2 1.5,0.5 2.8,0.8 0.7,0.2 1.5,0.4 2.3,0.7 0.8,0.3 1.4,0.7 2.1,1.2 0.7,0.5 1.1,1.1 1.5,1.8 0.4,0.7 0.6,1.5 0.6,2.5 0,1.3 -0.3,2.3 -0.8,3.2 -0.5,0.9 -1.2,1.6 -2,2.1 -0.8,0.5 -1.7,0.9 -2.7,1.2 -1,0.2 -2,0.4 -3,0.4 -1.6,0 -3.2,-0.3 -4.8,-0.8 -1.6,-0.5 -2.9,-1.3 -3.9,-2.3 l 3.7,-3.9 c 0.6,0.6 1.3,1.2 2.2,1.6 0.9,0.4 1.8,0.6 2.7,0.6 0.5,0 1.1,-0.1 1.6,-0.4 0.5,-0.3 0.8,-0.7 0.8,-1.3 0,-0.6 -0.3,-1.1 -1,-1.4 -0.6,-0.3 -1.6,-0.6 -3,-0.9 -0.7,-0.2 -1.4,-0.4 -2.1,-0.6 -0.7,-0.3 -1.3,-0.6 -1.9,-1.1 -0.5,-0.5 -1,-1 -1.3,-1.7 -0.3,-0.7 -0.5,-1.5 -0.5,-2.4 0,-1.2 0.3,-2.2 0.8,-3.1 0.5,-0.9 1.2,-1.5 2,-2.1 0.8,-0.5 1.7,-0.9 2.7,-1.2 1,-0.3 1.9,-0.4 2.9,-0.4 1.5,0 3,0.2 4.4,0.7 1.4,0.5 2.6,1.2 3.6,2.1 z"
   class="st0" />
	<path
   inkscape:connector-curvature="0"
   id="path204"
   d="m 2883,497.1 c -0.5,-0.5 -1.2,-0.9 -1.9,-1.3 -0.7,-0.3 -1.5,-0.5 -2.3,-0.5 -0.6,0 -1.2,0.1 -1.7,0.4 -0.5,0.2 -0.8,0.7 -0.8,1.2 0,0.6 0.3,1 0.9,1.2 0.6,0.2 1.5,0.5 2.8,0.8 0.7,0.2 1.5,0.4 2.3,0.7 0.8,0.3 1.4,0.7 2.1,1.2 0.6,0.5 1.1,1.1 1.5,1.8 0.4,0.7 0.6,1.5 0.6,2.5 0,1.3 -0.3,2.3 -0.8,3.2 -0.5,0.9 -1.2,1.6 -2,2.1 -0.8,0.5 -1.7,0.9 -2.7,1.2 -1,0.2 -2,0.4 -3,0.4 -1.6,0 -3.2,-0.3 -4.8,-0.8 -1.6,-0.5 -2.9,-1.3 -3.9,-2.3 l 3.7,-3.9 c 0.6,0.6 1.3,1.2 2.2,1.6 0.9,0.4 1.8,0.6 2.7,0.6 0.5,0 1.1,-0.1 1.6,-0.4 0.5,-0.3 0.8,-0.7 0.8,-1.3 0,-0.6 -0.3,-1.1 -1,-1.4 -0.6,-0.3 -1.6,-0.6 -3,-0.9 -0.7,-0.2 -1.4,-0.4 -2.1,-0.6 -0.7,-0.3 -1.3,-0.6 -1.9,-1.1 -0.5,-0.5 -1,-1 -1.3,-1.7 -0.3,-0.7 -0.5,-1.5 -0.5,-2.4 0,-1.2 0.3,-2.2 0.8,-3.1 0.5,-0.8 1.2,-1.5 2,-2.1 0.8,-0.5 1.7,-0.9 2.7,-1.2 1,-0.3 1.9,-0.4 2.9,-0.4 1.5,0 3,0.2 4.4,0.7 1.4,0.5 2.6,1.2 3.6,2.1 z"
   class="st0" />
	<path
   inkscape:connector-curvature="0"
   id="path206"
   d="m 2915.5,511.2 h -6.6 l -3.9,-12.4 h -0.1 l -3.8,12.4 h -6.6 l -6.9,-19.9 h 7.1 l 3.4,12.6 h 0.1 l 3.6,-12.6 h 6.6 l 3.7,12.6 h 0.1 l 3.5,-12.6 h 6.8 z"
   class="st0" />
	<path
   inkscape:connector-curvature="0"
   id="path208"
   d="m 2946.1,501.1 c 0,1.6 -0.3,3.1 -0.9,4.4 -0.6,1.3 -1.4,2.4 -2.4,3.4 -1,0.9 -2.2,1.6 -3.5,2.1 -1.3,0.5 -2.8,0.8 -4.3,0.8 -1.5,0 -2.9,-0.3 -4.3,-0.8 -1.4,-0.5 -2.5,-1.2 -3.5,-2.1 -1,-0.9 -1.8,-2 -2.4,-3.4 -0.6,-1.3 -0.9,-2.8 -0.9,-4.4 0,-1.6 0.3,-3.1 0.9,-4.4 0.6,-1.3 1.4,-2.4 2.4,-3.3 1,-0.9 2.2,-1.6 3.5,-2.1 1.3,-0.5 2.8,-0.7 4.3,-0.7 1.5,0 2.9,0.2 4.3,0.7 1.4,0.5 2.5,1.2 3.5,2.1 1,0.9 1.8,2 2.4,3.3 0.6,1.4 0.9,2.8 0.9,4.4 z m -6.3,0 c 0,-0.6 -0.1,-1.3 -0.3,-1.9 -0.2,-0.6 -0.5,-1.2 -0.9,-1.6 -0.4,-0.5 -0.9,-0.8 -1.5,-1.1 -0.6,-0.3 -1.3,-0.4 -2,-0.4 -0.8,0 -1.5,0.1 -2,0.4 -0.6,0.3 -1.1,0.7 -1.5,1.1 -0.4,0.5 -0.7,1 -0.9,1.6 -0.2,0.6 -0.3,1.2 -0.3,1.9 0,0.7 0.1,1.3 0.3,1.9 0.2,0.6 0.5,1.2 0.9,1.7 0.4,0.5 0.9,0.9 1.5,1.2 0.6,0.3 1.3,0.4 2,0.4 0.8,0 1.5,-0.1 2,-0.4 0.6,-0.3 1.1,-0.7 1.5,-1.2 0.4,-0.5 0.7,-1 0.9,-1.7 0.2,-0.6 0.3,-1.2 0.3,-1.9 z"
   class="st0" />
	<path
   inkscape:connector-curvature="0"
   id="path210"
   d="m 2963.2,496.7 c -0.3,-0.1 -0.6,-0.1 -0.9,-0.2 -0.3,0 -0.6,0 -0.8,0 -0.9,0 -1.6,0.2 -2.2,0.5 -0.6,0.3 -1.1,0.7 -1.4,1.2 -0.4,0.5 -0.6,0.9 -0.8,1.5 -0.2,0.5 -0.2,1 -0.2,1.4 v 10.2 h -6.6 v -19.9 h 6.3 v 2.9 h 0.1 c 0.5,-1 1.2,-1.9 2.2,-2.5 1,-0.6 2,-1 3.2,-1 0.3,0 0.5,0 0.8,0 0.3,0 0.5,0.1 0.6,0.1 z"
   class="st0" />
	<path
   inkscape:connector-curvature="0"
   id="path212"
   d="m 2980.4,511.2 v -2.6 h -0.1 c -0.6,1 -1.6,1.8 -2.7,2.3 -1.2,0.5 -2.4,0.8 -3.8,0.8 -1.5,0 -2.8,-0.3 -4,-0.9 -1.2,-0.6 -2.2,-1.4 -3,-2.3 -0.8,-1 -1.4,-2.1 -1.9,-3.4 -0.4,-1.3 -0.6,-2.6 -0.6,-4 0,-1.4 0.2,-2.7 0.7,-4 0.4,-1.3 1.1,-2.4 1.9,-3.3 0.8,-1 1.8,-1.7 3,-2.3 1.2,-0.6 2.5,-0.8 3.9,-0.8 1.5,0 2.7,0.3 3.7,0.8 1,0.5 1.8,1.2 2.4,1.8 h 0.1 v -12.4 h 6.6 v 30.2 h -6.2 z m -0.2,-10 c 0,-0.6 -0.1,-1.3 -0.3,-1.9 -0.2,-0.6 -0.5,-1.2 -1,-1.6 -0.5,-0.4 -0.9,-0.9 -1.5,-1.2 -0.6,-0.3 -1.3,-0.4 -2,-0.4 -0.8,0 -1.5,0.1 -2,0.4 -0.6,0.3 -1.1,0.7 -1.5,1.1 -0.4,0.5 -0.7,1 -0.9,1.6 -0.2,0.6 -0.3,1.2 -0.3,1.9 0,0.7 0.1,1.3 0.3,1.9 0.2,0.6 0.5,1.2 0.9,1.7 0.4,0.5 0.9,0.9 1.5,1.2 0.6,0.3 1.3,0.4 2,0.4 0.7,0 1.4,-0.1 2,-0.4 0.6,-0.3 1.1,-0.7 1.5,-1.2 0.4,-0.5 0.7,-1 1,-1.6 0.2,-0.6 0.3,-1.3 0.3,-1.9 z"
   class="st0" />
</g>
<g
   transform="translate(-5912.2,-175.2)"
   id="g218">
	<path
   inkscape:connector-curvature="0"
   id="path216"
   d="m 3111.9,677.7 h -423.8 c -28.6,0 -51.7,-23.2 -51.7,-51.7 v 0 c 0,-28.6 23.2,-51.7 51.7,-51.7 h 423.8 c 28.6,0 51.7,23.2 51.7,51.7 v 0 c 0.1,28.6 -23.1,51.7 -51.7,51.7 z"
   class="st1" />
</g>
<g
   transform="translate(-5912.2,-175.2)"
   id="g222">
	<path
   inkscape:connector-curvature="0"
   id="path220"
   d="m 3108.6,667.9 h -417.2 c -23.1,0 -41.9,-18.8 -41.9,-41.9 0,-23.1 18.8,-41.9 41.9,-41.9 h 417.2 c 23.1,0 41.9,18.8 41.9,41.9 0,23.1 -18.8,41.9 -41.9,41.9 z m -417.2,-77.8 c -19.8,0 -35.9,16.1 -35.9,35.9 0,19.8 16.1,35.9 35.9,35.9 h 417.2 c 19.8,0 35.9,-16.1 35.9,-35.9 0,-19.8 -16.1,-35.9 -35.9,-35.9 z"
   class="st0" />
</g>
<g
   transform="translate(-5912.2,-175.2)"
   id="g254">
	<path
   inkscape:connector-curvature="0"
   id="path224"
   d="m 2731.6,623.7 c -0.4,-0.5 -0.9,-0.9 -1.5,-1.2 -0.6,-0.3 -1.3,-0.4 -2,-0.4 -0.7,0 -1.3,0.1 -1.9,0.4 -0.6,0.3 -1,0.7 -1.4,1.1 -0.4,0.5 -0.7,1 -0.9,1.6 -0.2,0.6 -0.3,1.3 -0.3,2 0,0.7 0.1,1.3 0.3,2 0.2,0.6 0.5,1.2 0.9,1.6 0.4,0.5 0.9,0.8 1.5,1.1 0.6,0.3 1.2,0.4 1.9,0.4 0.7,0 1.3,-0.1 2,-0.4 0.7,-0.3 1.2,-0.6 1.6,-1.1 l 3.6,4.4 c -0.8,0.8 -1.9,1.4 -3.2,1.9 -1.3,0.5 -2.7,0.7 -4.2,0.7 -1.6,0 -3,-0.2 -4.4,-0.7 -1.4,-0.5 -2.5,-1.2 -3.6,-2.1 -1,-0.9 -1.8,-2 -2.4,-3.3 -0.6,-1.3 -0.9,-2.8 -0.9,-4.4 0,-1.6 0.3,-3.1 0.9,-4.4 0.6,-1.3 1.4,-2.4 2.4,-3.3 1,-0.9 2.2,-1.6 3.6,-2.1 1.4,-0.5 2.8,-0.7 4.4,-0.7 0.7,0 1.4,0.1 2.1,0.2 0.7,0.1 1.4,0.3 2,0.5 0.7,0.2 1.3,0.5 1.8,0.8 0.5,0.3 1,0.7 1.4,1.1 z"
   class="st0" />
	<path
   inkscape:connector-curvature="0"
   id="path226"
   d="m 2759.1,627.1 c 0,1.6 -0.3,3.1 -0.9,4.4 -0.6,1.3 -1.4,2.4 -2.4,3.4 -1,1 -2.2,1.6 -3.5,2.1 -1.3,0.5 -2.8,0.8 -4.3,0.8 -1.5,0 -2.9,-0.3 -4.3,-0.8 -1.3,-0.5 -2.5,-1.2 -3.5,-2.1 -1,-0.9 -1.8,-2 -2.4,-3.4 -0.6,-1.3 -0.9,-2.8 -0.9,-4.4 0,-1.6 0.3,-3.1 0.9,-4.4 0.6,-1.3 1.4,-2.4 2.4,-3.3 1,-0.9 2.2,-1.6 3.5,-2.1 1.3,-0.5 2.8,-0.7 4.3,-0.7 1.5,0 2.9,0.2 4.3,0.7 1.3,0.5 2.5,1.2 3.5,2.1 1,0.9 1.8,2 2.4,3.3 0.6,1.4 0.9,2.8 0.9,4.4 z m -6.4,0 c 0,-0.6 -0.1,-1.3 -0.3,-1.9 -0.2,-0.6 -0.5,-1.2 -0.9,-1.6 -0.4,-0.5 -0.9,-0.8 -1.5,-1.1 -0.6,-0.3 -1.3,-0.4 -2,-0.4 -0.7,0 -1.5,0.1 -2,0.4 -0.6,0.3 -1.1,0.7 -1.5,1.1 -0.4,0.5 -0.7,1 -0.9,1.6 -0.2,0.6 -0.3,1.2 -0.3,1.9 0,0.6 0.1,1.3 0.3,1.9 0.2,0.6 0.5,1.2 0.9,1.7 0.4,0.5 0.9,0.9 1.5,1.2 0.6,0.3 1.3,0.4 2,0.4 0.7,0 1.5,-0.1 2,-0.4 0.6,-0.3 1.1,-0.7 1.5,-1.2 0.4,-0.5 0.7,-1 0.9,-1.7 0.2,-0.6 0.3,-1.2 0.3,-1.9 z"
   class="st0" />
	<path
   inkscape:connector-curvature="0"
   id="path228"
   d="m 2776.3,637.2 v -10.9 c 0,-0.6 0,-1.1 -0.1,-1.6 -0.1,-0.5 -0.2,-1 -0.5,-1.3 -0.2,-0.4 -0.5,-0.7 -0.9,-0.9 -0.4,-0.2 -0.9,-0.3 -1.5,-0.3 -0.6,0 -1.1,0.1 -1.5,0.3 -0.4,0.2 -0.8,0.5 -1.1,0.9 -0.3,0.4 -0.5,0.9 -0.7,1.4 -0.1,0.5 -0.2,1.1 -0.2,1.6 v 10.8 h -6.6 v -19.9 h 6.4 v 2.8 h 0.1 c 0.2,-0.4 0.6,-0.8 0.9,-1.3 0.4,-0.4 0.8,-0.8 1.4,-1.1 0.5,-0.3 1.1,-0.5 1.7,-0.7 0.6,-0.2 1.3,-0.3 2,-0.3 1.3,0 2.5,0.2 3.4,0.7 0.9,0.5 1.7,1.1 2.3,1.9 0.6,0.8 1,1.6 1.2,2.6 0.3,1 0.4,2 0.4,3 v 12.3 z"
   class="st0" />
	<path
   inkscape:connector-curvature="0"
   id="path230"
   d="m 2800.2,611.8 c -0.2,-0.1 -0.5,-0.1 -0.8,-0.2 -0.3,-0.1 -0.6,-0.1 -1,-0.1 -0.6,0 -1.1,0.1 -1.5,0.3 -0.4,0.2 -0.7,0.5 -0.9,0.9 -0.2,0.4 -0.4,0.8 -0.4,1.2 0,0.4 -0.1,0.9 -0.1,1.4 v 2 h 4.4 v 4.9 h -4.4 v 15 h -6.6 v -15 h -3.6 v -4.9 h 3.6 v -1.9 c 0,-1.2 0.1,-2.4 0.4,-3.5 0.3,-1.1 0.7,-2.1 1.4,-2.9 0.7,-0.8 1.5,-1.5 2.6,-2 1.1,-0.5 2.5,-0.7 4.1,-0.7 0.6,0 1.1,0 1.7,0.1 0.5,0.1 1,0.2 1.5,0.3 z"
   class="st0" />
	<path
   inkscape:connector-curvature="0"
   id="path232"
   d="m 2822.2,627.5 c 0,0.3 0,0.5 0,0.8 0,0.3 0,0.5 0,0.8 h -14.4 c 0.1,0.6 0.2,1.1 0.5,1.5 0.3,0.5 0.6,0.8 1.1,1.2 0.4,0.3 0.9,0.6 1.5,0.8 0.6,0.2 1.1,0.3 1.7,0.3 1,0 1.9,-0.2 2.6,-0.6 0.7,-0.4 1.3,-0.9 1.8,-1.5 l 4.6,2.9 c -0.9,1.4 -2.2,2.4 -3.7,3.1 -1.5,0.7 -3.3,1.1 -5.3,1.1 -1.5,0 -2.9,-0.2 -4.2,-0.7 -1.3,-0.5 -2.5,-1.1 -3.5,-2 -1,-0.9 -1.8,-2 -2.4,-3.3 -0.6,-1.3 -0.9,-2.8 -0.9,-4.5 0,-1.6 0.3,-3.1 0.8,-4.4 0.6,-1.3 1.3,-2.4 2.3,-3.4 1,-1 2.1,-1.6 3.4,-2.1 1.3,-0.5 2.7,-0.8 4.2,-0.8 1.5,0 2.8,0.2 4,0.7 1.2,0.5 2.3,1.2 3.2,2.1 0.9,0.9 1.6,2.1 2.1,3.4 0.3,1.3 0.6,2.9 0.6,4.6 z m -6.1,-2.6 c 0,-1 -0.3,-1.9 -1,-2.7 -0.7,-0.7 -1.6,-1.1 -2.9,-1.1 -0.6,0 -1.2,0.1 -1.8,0.3 -0.5,0.2 -1,0.5 -1.4,0.8 -0.4,0.3 -0.7,0.8 -1,1.2 -0.2,0.5 -0.4,1 -0.4,1.5 z"
   class="st0" />
	<path
   inkscape:connector-curvature="0"
   id="path234"
   d="m 2839.2,622.7 c -0.3,-0.1 -0.6,-0.1 -0.9,-0.2 -0.3,0 -0.6,0 -0.8,0 -0.9,0 -1.6,0.2 -2.2,0.5 -0.6,0.3 -1.1,0.7 -1.4,1.2 -0.3,0.5 -0.6,0.9 -0.8,1.5 -0.2,0.5 -0.2,1 -0.2,1.4 v 10.2 h -6.6 v -19.9 h 6.3 v 2.9 h 0.1 c 0.5,-1 1.2,-1.9 2.2,-2.5 0.9,-0.6 2,-1 3.2,-1 0.3,0 0.5,0 0.8,0 0.3,0 0.5,0.1 0.6,0.1 z"
   class="st0" />
	<path
   inkscape:connector-curvature="0"
   id="path236"
   d="m 2867.5,637.2 v -10.9 c 0,-0.6 0,-1.1 -0.1,-1.6 -0.1,-0.5 -0.2,-1 -0.4,-1.3 -0.2,-0.4 -0.5,-0.7 -0.9,-0.9 -0.4,-0.2 -0.8,-0.3 -1.4,-0.3 -0.6,0 -1,0.1 -1.5,0.4 -0.4,0.2 -0.8,0.6 -1,1 -0.3,0.4 -0.5,0.9 -0.6,1.4 -0.1,0.5 -0.2,1.1 -0.2,1.6 v 10.8 h -6.6 V 626 c 0,-1.1 -0.2,-2.1 -0.7,-2.7 -0.5,-0.7 -1.2,-1 -2.2,-1 -1,0 -1.8,0.4 -2.4,1.2 -0.6,0.8 -0.9,1.8 -0.9,3 v 10.8 h -6.6 v -19.9 h 6.4 v 2.8 h 0.1 c 0.2,-0.4 0.5,-0.8 0.9,-1.2 0.4,-0.4 0.8,-0.8 1.3,-1.1 0.5,-0.3 1.1,-0.6 1.7,-0.7 0.6,-0.2 1.3,-0.3 2.1,-0.3 1.4,0 2.7,0.3 3.7,0.9 1,0.6 1.8,1.4 2.3,2.5 0.7,-1 1.5,-1.9 2.6,-2.5 1.1,-0.6 2.3,-0.9 3.8,-0.9 1.4,0 2.5,0.2 3.4,0.7 0.9,0.5 1.7,1.1 2.2,1.9 0.6,0.8 1,1.7 1.2,2.6 0.3,1 0.4,1.9 0.4,2.9 v 12.3 h -6.6 z"
   class="st0" />
	<path
   inkscape:connector-curvature="0"
   id="path238"
   d="m 2911.2,627.1 c 0,1.4 -0.2,2.7 -0.6,4 -0.4,1.3 -1,2.4 -1.9,3.4 -0.8,1 -1.8,1.8 -3,2.3 -1.2,0.6 -2.5,0.9 -4,0.9 -1.2,0 -2.4,-0.2 -3.5,-0.7 -1.1,-0.5 -1.9,-1.2 -2.6,-2 h -0.1 v 11.8 h -6.6 v -29.5 h 6.2 v 2.4 h 0.1 c 0.6,-0.8 1.5,-1.5 2.5,-2.1 1.1,-0.6 2.4,-0.9 3.8,-0.9 1.4,0 2.7,0.3 3.9,0.8 1.2,0.6 2.2,1.3 3,2.3 0.8,1 1.4,2.1 1.9,3.3 0.7,1.3 0.9,2.7 0.9,4 z m -6.3,0 c 0,-0.6 -0.1,-1.3 -0.3,-1.9 -0.2,-0.6 -0.5,-1.2 -0.9,-1.6 -0.4,-0.5 -0.9,-0.8 -1.5,-1.1 -0.6,-0.3 -1.3,-0.4 -2,-0.4 -0.7,0 -1.4,0.1 -2,0.4 -0.6,0.3 -1.1,0.7 -1.5,1.2 -0.4,0.5 -0.7,1 -1,1.6 -0.2,0.6 -0.3,1.2 -0.3,1.9 0,0.6 0.1,1.3 0.3,1.9 0.2,0.6 0.5,1.2 1,1.6 0.4,0.5 0.9,0.9 1.5,1.2 0.6,0.3 1.3,0.4 2,0.4 0.8,0 1.5,-0.1 2,-0.4 0.6,-0.3 1.1,-0.7 1.5,-1.2 0.4,-0.5 0.7,-1 0.9,-1.7 0.2,-0.6 0.3,-1.2 0.3,-1.9 z"
   class="st0" />
	<path
   inkscape:connector-curvature="0"
   id="path240"
   d="m 2915.1,620 c 1.2,-1.1 2.5,-2 4.1,-2.5 1.6,-0.6 3.2,-0.8 4.8,-0.8 1.7,0 3.1,0.2 4.3,0.6 1.2,0.4 2.1,1.1 2.8,1.9 0.7,0.8 1.2,2 1.6,3.3 0.3,1.3 0.5,2.9 0.5,4.7 v 10 h -6 v -2.1 h -0.1 c -0.5,0.8 -1.3,1.5 -2.3,1.9 -1,0.5 -2.1,0.7 -3.3,0.7 -0.8,0 -1.6,-0.1 -2.5,-0.3 -0.9,-0.2 -1.6,-0.6 -2.3,-1 -0.7,-0.5 -1.3,-1.1 -1.7,-1.9 -0.4,-0.8 -0.7,-1.8 -0.7,-3 0,-1.4 0.4,-2.6 1.2,-3.5 0.8,-0.9 1.8,-1.6 3,-2 1.2,-0.5 2.6,-0.8 4.1,-1 1.5,-0.2 3,-0.2 4.4,-0.2 v -0.3 c 0,-1 -0.3,-1.7 -1,-2.2 -0.7,-0.5 -1.5,-0.7 -2.6,-0.7 -0.9,0 -1.8,0.2 -2.7,0.6 -0.9,0.4 -1.6,0.9 -2.2,1.4 z m 12,8.5 h -0.8 c -0.7,0 -1.4,0 -2.2,0.1 -0.7,0.1 -1.4,0.2 -2,0.4 -0.6,0.2 -1,0.5 -1.4,0.8 -0.4,0.3 -0.6,0.8 -0.6,1.4 0,0.4 0.1,0.7 0.3,1 0.2,0.3 0.4,0.5 0.7,0.6 0.3,0.2 0.6,0.3 0.9,0.3 0.3,0 0.7,0.1 1,0.1 1.3,0 2.4,-0.4 3.1,-1.1 0.7,-0.7 1.1,-1.7 1.1,-3 v -0.6 z"
   class="st0" />
	<path
   inkscape:connector-curvature="0"
   id="path242"
   d="m 2949.7,623.1 c -0.5,-0.5 -1.2,-0.9 -1.9,-1.3 -0.7,-0.4 -1.5,-0.5 -2.3,-0.5 -0.6,0 -1.2,0.1 -1.7,0.4 -0.5,0.2 -0.8,0.7 -0.8,1.2 0,0.6 0.3,1 0.9,1.2 0.6,0.2 1.5,0.5 2.8,0.8 0.7,0.2 1.5,0.4 2.3,0.7 0.8,0.3 1.4,0.7 2.1,1.2 0.6,0.5 1.1,1.1 1.5,1.8 0.4,0.7 0.6,1.5 0.6,2.5 0,1.3 -0.3,2.3 -0.8,3.2 -0.5,0.9 -1.2,1.6 -2,2.1 -0.8,0.5 -1.7,0.9 -2.7,1.2 -1,0.3 -2,0.4 -3,0.4 -1.6,0 -3.2,-0.3 -4.8,-0.8 -1.6,-0.5 -2.9,-1.3 -3.9,-2.3 l 3.7,-3.9 c 0.6,0.6 1.3,1.2 2.2,1.6 0.9,0.4 1.8,0.6 2.7,0.6 0.5,0 1.1,-0.1 1.6,-0.4 0.5,-0.3 0.8,-0.7 0.8,-1.3 0,-0.6 -0.3,-1.1 -1,-1.4 -0.6,-0.3 -1.6,-0.6 -3,-0.9 -0.7,-0.2 -1.4,-0.4 -2.1,-0.6 -0.7,-0.2 -1.3,-0.6 -1.9,-1.1 -0.5,-0.5 -1,-1 -1.3,-1.7 -0.3,-0.7 -0.5,-1.5 -0.5,-2.4 0,-1.2 0.3,-2.2 0.8,-3.1 0.5,-0.8 1.2,-1.5 2,-2.1 0.8,-0.5 1.7,-0.9 2.7,-1.2 1,-0.3 1.9,-0.4 2.9,-0.4 1.5,0 3,0.2 4.4,0.7 1.4,0.5 2.6,1.2 3.6,2.1 z"
   class="st0" />
	<path
   inkscape:connector-curvature="0"
   id="path244"
   d="m 2968.6,623.1 c -0.5,-0.5 -1.2,-0.9 -1.9,-1.3 -0.7,-0.3 -1.5,-0.5 -2.3,-0.5 -0.6,0 -1.2,0.1 -1.7,0.4 -0.5,0.2 -0.8,0.7 -0.8,1.2 0,0.6 0.3,1 0.9,1.2 0.6,0.2 1.5,0.5 2.8,0.8 0.7,0.2 1.5,0.4 2.3,0.7 0.8,0.3 1.4,0.7 2.1,1.2 0.6,0.5 1.1,1.1 1.5,1.8 0.4,0.7 0.6,1.5 0.6,2.5 0,1.3 -0.3,2.3 -0.8,3.2 -0.5,0.9 -1.2,1.6 -2,2.1 -0.8,0.5 -1.7,0.9 -2.7,1.2 -1,0.2 -2,0.4 -3,0.4 -1.6,0 -3.2,-0.3 -4.8,-0.8 -1.6,-0.5 -2.9,-1.3 -3.9,-2.3 l 3.7,-3.9 c 0.6,0.6 1.3,1.2 2.2,1.6 0.9,0.4 1.8,0.6 2.7,0.6 0.5,0 1.1,-0.1 1.6,-0.4 0.5,-0.3 0.8,-0.7 0.8,-1.3 0,-0.6 -0.3,-1.1 -1,-1.4 -0.6,-0.3 -1.6,-0.6 -3,-0.9 -0.7,-0.2 -1.4,-0.4 -2.1,-0.6 -0.7,-0.2 -1.3,-0.6 -1.9,-1.1 -0.5,-0.5 -1,-1 -1.3,-1.7 -0.3,-0.7 -0.5,-1.5 -0.5,-2.4 0,-1.2 0.3,-2.2 0.8,-3.1 0.5,-0.9 1.2,-1.5 2,-2.1 0.8,-0.5 1.7,-0.9 2.7,-1.2 1,-0.3 1.9,-0.4 2.9,-0.4 1.5,0 3,0.2 4.4,0.7 1.4,0.5 2.6,1.2 3.6,2.1 z"
   class="st0" />
	<path
   inkscape:connector-curvature="0"
   id="path246"
   d="m 3001.1,637.2 h -6.6 l -3.9,-12.4 h -0.1 l -3.8,12.4 h -6.6 l -6.9,-19.9 h 7.1 l 3.4,12.6 h 0.1 l 3.6,-12.6 h 6.6 l 3.7,12.6 h 0.1 l 3.5,-12.6 h 6.8 z"
   class="st0" />
	<path
   inkscape:connector-curvature="0"
   id="path248"
   d="m 3031.7,627.1 c 0,1.6 -0.3,3.1 -0.9,4.4 -0.6,1.3 -1.4,2.4 -2.4,3.4 -1,0.9 -2.2,1.6 -3.5,2.1 -1.3,0.5 -2.8,0.8 -4.3,0.8 -1.5,0 -2.9,-0.3 -4.3,-0.8 -1.3,-0.5 -2.5,-1.2 -3.5,-2.1 -1,-0.9 -1.8,-2 -2.4,-3.4 -0.6,-1.3 -0.9,-2.8 -0.9,-4.4 0,-1.6 0.3,-3.1 0.9,-4.4 0.6,-1.3 1.4,-2.4 2.4,-3.3 1,-0.9 2.2,-1.6 3.5,-2.1 1.3,-0.5 2.8,-0.7 4.3,-0.7 1.5,0 2.9,0.2 4.3,0.7 1.3,0.5 2.5,1.2 3.5,2.1 1,0.9 1.8,2 2.4,3.3 0.6,1.3 0.9,2.8 0.9,4.4 z m -6.3,0 c 0,-0.6 -0.1,-1.3 -0.3,-1.9 -0.2,-0.6 -0.5,-1.2 -0.9,-1.6 -0.4,-0.5 -0.9,-0.8 -1.5,-1.1 -0.6,-0.3 -1.3,-0.4 -2,-0.4 -0.7,0 -1.5,0.1 -2,0.4 -0.6,0.3 -1.1,0.7 -1.5,1.1 -0.4,0.5 -0.7,1 -0.9,1.6 -0.2,0.6 -0.3,1.2 -0.3,1.9 0,0.6 0.1,1.3 0.3,1.9 0.2,0.6 0.5,1.2 0.9,1.7 0.4,0.5 0.9,0.9 1.5,1.2 0.6,0.3 1.3,0.4 2,0.4 0.7,0 1.5,-0.1 2,-0.4 0.6,-0.3 1.1,-0.7 1.5,-1.2 0.4,-0.5 0.7,-1 0.9,-1.7 0.2,-0.6 0.3,-1.2 0.3,-1.9 z"
   class="st0" />
	<path
   inkscape:connector-curvature="0"
   id="path250"
   d="m 3048.8,622.7 c -0.3,-0.1 -0.6,-0.1 -0.9,-0.2 -0.3,-0.1 -0.6,0 -0.8,0 -0.9,0 -1.6,0.2 -2.2,0.5 -0.6,0.3 -1.1,0.7 -1.4,1.2 -0.4,0.5 -0.6,0.9 -0.8,1.5 -0.2,0.5 -0.2,1 -0.2,1.4 v 10.2 h -6.6 v -19.9 h 6.3 v 2.9 h 0.1 c 0.5,-1 1.2,-1.9 2.2,-2.5 0.9,-0.6 2,-1 3.2,-1 0.3,0 0.5,0 0.8,0 0.3,0 0.5,0.1 0.6,0.1 z"
   class="st0" />
	<path
   inkscape:connector-curvature="0"
   id="path252"
   d="m 3066.1,637.2 v -2.6 h -0.1 c -0.6,1 -1.6,1.8 -2.7,2.3 -1.2,0.5 -2.4,0.8 -3.8,0.8 -1.5,0 -2.8,-0.3 -4,-0.9 -1.2,-0.6 -2.2,-1.4 -3,-2.3 -0.8,-1 -1.4,-2.1 -1.9,-3.4 -0.4,-1.3 -0.6,-2.6 -0.6,-4 0,-1.4 0.2,-2.7 0.7,-4 0.4,-1.3 1.1,-2.4 1.9,-3.3 0.8,-0.9 1.8,-1.7 3,-2.3 1.2,-0.6 2.5,-0.8 3.9,-0.8 1.5,0 2.7,0.3 3.7,0.8 1,0.6 1.8,1.2 2.4,1.8 h 0.1 v -12.4 h 6.6 v 30.2 h -6.2 z m -0.3,-10 c 0,-0.6 -0.1,-1.3 -0.3,-1.9 -0.2,-0.6 -0.5,-1.2 -1,-1.6 -0.4,-0.5 -0.9,-0.9 -1.5,-1.2 -0.6,-0.3 -1.3,-0.4 -2,-0.4 -0.8,0 -1.5,0.1 -2,0.4 -0.6,0.3 -1.1,0.7 -1.5,1.1 -0.4,0.5 -0.7,1 -0.9,1.6 -0.2,0.6 -0.3,1.2 -0.3,1.9 0,0.6 0.1,1.3 0.3,1.9 0.2,0.6 0.5,1.2 0.9,1.7 0.4,0.5 0.9,0.9 1.5,1.2 0.6,0.3 1.3,0.4 2,0.4 0.7,0 1.4,-0.1 2,-0.4 0.6,-0.3 1.1,-0.7 1.5,-1.2 0.4,-0.5 0.7,-1 1,-1.6 0.2,-0.6 0.3,-1.3 0.3,-1.9 z"
   class="st0" />
</g>
<g
   transform="translate(-5912.2,-175.2)"
   id="g272">
	<path
   inkscape:connector-curvature="0"
   id="path256"
   d="m 2815.1,387.2 v -2.8 h -0.1 c -0.2,0.5 -0.6,0.9 -0.9,1.3 -0.4,0.4 -0.8,0.7 -1.4,1 -0.5,0.3 -1.1,0.5 -1.7,0.7 -0.6,0.2 -1.3,0.3 -2,0.3 -1.3,0 -2.5,-0.2 -3.4,-0.7 -0.9,-0.5 -1.7,-1.1 -2.2,-1.9 -0.6,-0.8 -1,-1.6 -1.2,-2.6 -0.3,-1 -0.4,-2 -0.4,-3 v -12.3 h 6.6 V 378 c 0,0.6 0,1.1 0.1,1.6 0.1,0.5 0.2,1 0.5,1.4 0.2,0.4 0.5,0.7 0.9,0.9 0.4,0.2 0.9,0.3 1.5,0.3 1.1,0 2,-0.4 2.6,-1.3 0.6,-0.9 0.9,-1.9 0.9,-3 v -10.8 h 6.6 V 387 h -6.4 z"
   class="st0" />
	<path
   inkscape:connector-curvature="0"
   id="path258"
   d="m 2838.2,373.1 c -0.5,-0.5 -1.2,-0.9 -1.9,-1.3 -0.7,-0.3 -1.5,-0.5 -2.3,-0.5 -0.6,0 -1.2,0.1 -1.7,0.4 -0.5,0.2 -0.8,0.7 -0.8,1.2 0,0.6 0.3,1 0.9,1.2 0.6,0.2 1.5,0.5 2.8,0.8 0.7,0.2 1.5,0.4 2.3,0.7 0.8,0.3 1.4,0.7 2.1,1.2 0.6,0.5 1.1,1.1 1.5,1.8 0.4,0.7 0.6,1.5 0.6,2.5 0,1.3 -0.3,2.3 -0.8,3.2 -0.5,0.9 -1.2,1.6 -2,2.1 -0.8,0.5 -1.7,0.9 -2.7,1.2 -1,0.2 -2,0.4 -3,0.4 -1.6,0 -3.2,-0.3 -4.8,-0.8 -1.6,-0.5 -2.9,-1.3 -3.9,-2.3 l 3.7,-3.9 c 0.6,0.6 1.3,1.2 2.2,1.6 0.9,0.4 1.8,0.6 2.7,0.6 0.5,0 1.1,-0.1 1.6,-0.4 0.5,-0.3 0.8,-0.7 0.8,-1.3 0,-0.6 -0.3,-1.1 -1,-1.4 -0.6,-0.3 -1.6,-0.6 -3,-0.9 -0.7,-0.2 -1.4,-0.4 -2.1,-0.6 -0.7,-0.3 -1.3,-0.6 -1.9,-1.1 -0.5,-0.5 -1,-1 -1.3,-1.7 -0.3,-0.7 -0.5,-1.5 -0.5,-2.4 0,-1.2 0.3,-2.2 0.8,-3.1 0.5,-0.8 1.2,-1.5 2,-2.1 0.8,-0.5 1.7,-0.9 2.7,-1.2 1,-0.3 1.9,-0.4 2.9,-0.4 1.5,0 3,0.2 4.4,0.7 1.4,0.5 2.6,1.2 3.6,2.1 z"
   class="st0" />
	<path
   inkscape:connector-curvature="0"
   id="path260"
   d="m 2865.2,377.5 c 0,0.3 0,0.5 0,0.8 0,0.3 0,0.5 0,0.8 h -14.4 c 0.1,0.6 0.2,1.1 0.5,1.5 0.3,0.5 0.6,0.8 1.1,1.2 0.4,0.3 0.9,0.6 1.5,0.8 0.5,0.2 1.1,0.3 1.7,0.3 1,0 1.9,-0.2 2.6,-0.6 0.7,-0.4 1.3,-0.9 1.8,-1.5 l 4.6,2.9 c -0.9,1.4 -2.2,2.4 -3.7,3.1 -1.5,0.7 -3.3,1.1 -5.3,1.1 -1.5,0 -2.9,-0.2 -4.2,-0.7 -1.3,-0.5 -2.5,-1.1 -3.5,-2 -1,-0.9 -1.8,-2 -2.4,-3.3 -0.6,-1.3 -0.9,-2.8 -0.9,-4.5 0,-1.6 0.3,-3.1 0.8,-4.4 0.6,-1.3 1.3,-2.4 2.3,-3.4 1,-1 2.1,-1.6 3.4,-2.1 1.3,-0.5 2.7,-0.8 4.2,-0.8 1.5,0 2.8,0.2 4,0.7 1.2,0.5 2.3,1.2 3.2,2.1 0.9,0.9 1.6,2.1 2.1,3.4 0.3,1.3 0.6,2.9 0.6,4.6 z m -6.1,-2.6 c 0,-1 -0.3,-1.9 -1,-2.7 -0.7,-0.7 -1.6,-1.1 -2.9,-1.1 -0.6,0 -1.2,0.1 -1.8,0.3 -0.5,0.2 -1,0.5 -1.4,0.8 -0.4,0.3 -0.7,0.8 -1,1.2 -0.2,0.5 -0.4,1 -0.4,1.5 z"
   class="st0" />
	<path
   inkscape:connector-curvature="0"
   id="path262"
   d="m 2882.2,372.7 c -0.3,-0.1 -0.6,-0.1 -0.9,-0.2 -0.3,0 -0.6,0 -0.8,0 -0.9,0 -1.6,0.2 -2.2,0.5 -0.6,0.3 -1.1,0.7 -1.4,1.2 -0.4,0.5 -0.6,0.9 -0.8,1.5 -0.2,0.5 -0.2,1 -0.2,1.4 v 10.2 h -6.6 v -19.9 h 6.3 v 2.9 h 0.1 c 0.5,-1 1.2,-1.9 2.2,-2.5 0.9,-0.6 2,-1 3.2,-1 0.3,0 0.5,0 0.8,0 0.3,0 0.5,0.1 0.6,0.1 z"
   class="st0" />
	<path
   inkscape:connector-curvature="0"
   id="path264"
   d="m 2898.2,387.2 v -10.9 c 0,-0.6 0,-1.1 -0.1,-1.6 -0.1,-0.5 -0.2,-1 -0.5,-1.3 -0.2,-0.4 -0.5,-0.7 -0.9,-0.9 -0.4,-0.2 -0.9,-0.3 -1.5,-0.3 -0.6,0 -1.1,0.1 -1.5,0.3 -0.4,0.2 -0.8,0.5 -1.1,0.9 -0.3,0.4 -0.5,0.9 -0.7,1.4 -0.1,0.5 -0.2,1.1 -0.2,1.6 v 10.8 h -6.6 v -19.9 h 6.4 v 2.8 h 0.1 c 0.2,-0.4 0.6,-0.8 0.9,-1.3 0.4,-0.4 0.8,-0.8 1.4,-1.1 0.5,-0.3 1.1,-0.5 1.7,-0.7 0.6,-0.2 1.3,-0.3 2,-0.3 1.3,0 2.5,0.2 3.4,0.7 0.9,0.5 1.7,1.1 2.3,1.9 0.6,0.8 1,1.6 1.2,2.6 0.3,1 0.4,2 0.4,3 v 12.3 z"
   class="st0" />
	<path
   inkscape:connector-curvature="0"
   id="path266"
   d="m 2909.4,370 c 1.2,-1.1 2.5,-2 4.1,-2.5 1.6,-0.6 3.2,-0.8 4.8,-0.8 1.7,0 3.1,0.2 4.3,0.6 1.2,0.4 2.1,1.1 2.8,1.9 0.7,0.9 1.2,2 1.6,3.3 0.3,1.3 0.5,2.9 0.5,4.7 v 10 h -6 v -2.1 h -0.1 c -0.5,0.8 -1.3,1.5 -2.3,1.9 -1,0.5 -2.1,0.7 -3.3,0.7 -0.8,0 -1.6,-0.1 -2.5,-0.3 -0.9,-0.2 -1.6,-0.6 -2.3,-1 -0.7,-0.5 -1.3,-1.1 -1.7,-1.9 -0.5,-0.8 -0.7,-1.8 -0.7,-3 0,-1.4 0.4,-2.6 1.2,-3.5 0.8,-0.9 1.8,-1.6 3,-2 1.2,-0.4 2.6,-0.8 4.1,-1 1.5,-0.2 3,-0.2 4.4,-0.2 v -0.3 c 0,-1 -0.3,-1.7 -1,-2.2 -0.7,-0.5 -1.5,-0.7 -2.6,-0.7 -0.9,0 -1.8,0.2 -2.7,0.6 -0.9,0.4 -1.6,0.9 -2.2,1.4 z m 12.1,8.5 h -0.8 c -0.7,0 -1.4,0 -2.2,0.1 -0.7,0.1 -1.4,0.2 -2,0.4 -0.6,0.2 -1,0.5 -1.4,0.8 -0.4,0.4 -0.6,0.8 -0.6,1.4 0,0.4 0.1,0.7 0.3,1 0.2,0.3 0.4,0.5 0.7,0.6 0.3,0.2 0.6,0.3 0.9,0.3 0.3,0.1 0.7,0.1 1,0.1 1.3,0 2.4,-0.4 3.1,-1.1 0.7,-0.7 1.1,-1.7 1.1,-3 v -0.6 z"
   class="st0" />
	<path
   inkscape:connector-curvature="0"
   id="path268"
   d="m 2957.8,387.2 v -10.9 c 0,-0.6 0,-1.1 -0.1,-1.6 -0.1,-0.5 -0.2,-1 -0.4,-1.3 -0.2,-0.4 -0.5,-0.7 -0.9,-0.9 -0.4,-0.2 -0.8,-0.3 -1.4,-0.3 -0.6,0 -1,0.1 -1.5,0.4 -0.4,0.2 -0.8,0.6 -1,1 -0.3,0.4 -0.5,0.9 -0.6,1.4 -0.1,0.5 -0.2,1.1 -0.2,1.6 v 10.8 h -6.6 V 376 c 0,-1.1 -0.2,-2.1 -0.7,-2.7 -0.5,-0.7 -1.2,-1 -2.2,-1 -1,0 -1.8,0.4 -2.4,1.2 -0.6,0.8 -0.9,1.8 -0.9,3 v 10.8 h -6.6 v -19.9 h 6.4 v 2.8 h 0.1 c 0.2,-0.4 0.5,-0.8 0.9,-1.2 0.4,-0.4 0.8,-0.8 1.3,-1.1 0.5,-0.3 1.1,-0.6 1.7,-0.7 0.6,-0.2 1.3,-0.3 2.1,-0.3 1.4,0 2.7,0.3 3.7,0.9 1,0.6 1.8,1.4 2.3,2.5 0.7,-1 1.5,-1.9 2.6,-2.5 1,-0.6 2.3,-0.9 3.8,-0.9 1.4,0 2.5,0.2 3.4,0.7 0.9,0.5 1.7,1.1 2.2,1.9 0.6,0.8 1,1.7 1.2,2.6 0.3,1 0.4,1.9 0.4,2.9 v 12.3 h -6.6 z"
   class="st0" />
	<path
   inkscape:connector-curvature="0"
   id="path270"
   d="m 2989.1,377.5 c 0,0.3 0,0.5 0,0.8 0,0.3 0,0.5 0,0.8 h -14.4 c 0.1,0.6 0.2,1.1 0.5,1.5 0.3,0.5 0.6,0.8 1.1,1.2 0.4,0.3 0.9,0.6 1.5,0.8 0.5,0.2 1.1,0.3 1.7,0.3 1,0 1.9,-0.2 2.6,-0.6 0.7,-0.4 1.3,-0.9 1.8,-1.5 l 4.6,2.9 c -0.9,1.4 -2.2,2.4 -3.7,3.1 -1.5,0.7 -3.3,1.1 -5.3,1.1 -1.5,0 -2.9,-0.2 -4.2,-0.7 -1.3,-0.5 -2.5,-1.1 -3.5,-2 -1,-0.9 -1.8,-2 -2.4,-3.3 -0.6,-1.3 -0.9,-2.8 -0.9,-4.5 0,-1.6 0.3,-3.1 0.8,-4.4 0.6,-1.3 1.3,-2.4 2.3,-3.4 1,-1 2.1,-1.6 3.4,-2.1 1.3,-0.5 2.7,-0.8 4.2,-0.8 1.5,0 2.8,0.2 4,0.7 1.2,0.5 2.3,1.2 3.2,2.1 0.9,0.9 1.6,2.1 2.1,3.4 0.3,1.3 0.6,2.9 0.6,4.6 z m -6.1,-2.6 c 0,-1 -0.3,-1.9 -1,-2.7 -0.7,-0.7 -1.6,-1.1 -2.9,-1.1 -0.6,0 -1.2,0.1 -1.8,0.3 -0.5,0.2 -1,0.5 -1.4,0.8 -0.4,0.3 -0.7,0.8 -1,1.2 -0.2,0.5 -0.4,1 -0.4,1.5 z"
   class="st0" />
</g>
<g
   transform="translate(-5912.2,-175.2)"
   id="g276">
	<path
   inkscape:connector-curvature="0"
   id="path274"
   d="m 3108.6,415.9 h -417.2 c -23.1,0 -41.9,-18.8 -41.9,-41.9 0,-23.1 18.8,-41.9 41.9,-41.9 h 417.2 c 23.1,0 41.9,18.8 41.9,41.9 0,23.1 -18.8,41.9 -41.9,41.9 z m -417.2,-77.8 c -19.8,0 -35.9,16.1 -35.9,35.9 0,19.8 16.1,35.9 35.9,35.9 h 417.2 c 19.8,0 35.9,-16.1 35.9,-35.9 0,-19.8 -16.1,-35.9 -35.9,-35.9 z"
   class="st0" />
</g>
<g
   transform="translate(-5912.2,-175.2)"
   id="g298">
	<path
   inkscape:connector-curvature="0"
   id="path278"
   d="m 2615.1,171.8 h 23.5 c 4.4,0 8.8,0.7 13.2,2.2 4.4,1.5 8.4,3.7 12,6.6 3.6,3 6.5,6.7 8.7,11.1 2.2,4.4 3.3,9.6 3.3,15.5 0,5.9 -1.1,11.1 -3.3,15.5 -2.2,4.4 -5.1,8.1 -8.7,11 -3.6,3 -7.6,5.2 -12,6.6 -4.4,1.5 -8.8,2.2 -13.2,2.2 h -23.5 z m 7.2,64.4 h 14.3 c 5.3,0 10,-0.8 14,-2.5 4,-1.7 7.2,-3.9 9.8,-6.6 2.6,-2.7 4.5,-5.8 5.8,-9.2 1.3,-3.5 2,-7 2,-10.7 0,-3.7 -0.6,-7.2 -2,-10.7 -1.3,-3.5 -3.2,-6.5 -5.8,-9.2 -2.6,-2.7 -5.9,-4.9 -9.8,-6.5 -4,-1.7 -8.6,-2.5 -14,-2.5 h -14.3 z"
   class="st1" />
	<path
   inkscape:connector-curvature="0"
   id="path280"
   d="m 2687.9,242.6 h -7.9 l 30.6,-70.8 h 7 l 30.4,70.8 h -8 l -7.8,-18.6 h -36.6 z m 10.4,-25.2 h 31.2 l -15.6,-37.6 z"
   class="st1" />
	<path
   inkscape:connector-curvature="0"
   id="path282"
   d="m 2765.6,242.6 h -7.2 v -70.8 h 7.2 z"
   class="st1" />
	<path
   inkscape:connector-curvature="0"
   id="path284"
   d="m 2791.6,236.2 h 33 v 6.4 h -40.2 v -70.8 h 7.2 z"
   class="st1" />
	<path
   inkscape:connector-curvature="0"
   id="path286"
   d="m 2850.7,242.6 h -7.2 V 212.1 L 2817,171.8 h 9 l 21.3,34.3 21.5,-34.3 h 8.4 l -26.5,40.3 z"
   class="st1" />
	<path
   inkscape:connector-curvature="0"
   id="path288"
   d="m 2950.6,207 c 0,6.2 -1.1,11.6 -3.4,16.1 -2.3,4.5 -5.3,8.2 -9.1,11.1 -3.8,2.9 -8,5 -12.8,6.4 -4.7,1.4 -9.5,2 -14.4,2 h -26.4 v -70.8 h 25.6 c 5,0 9.9,0.6 14.8,1.8 4.9,1.2 9.2,3.1 13,5.8 3.8,2.7 6.9,6.3 9.2,10.9 2.3,4.5 3.5,10.1 3.5,16.7 z m -17.8,0 c 0,-4 -0.7,-7.3 -2,-9.9 -1.3,-2.6 -3,-4.7 -5.2,-6.3 -2.2,-1.6 -4.6,-2.7 -7.4,-3.4 -2.8,-0.7 -5.6,-1 -8.5,-1 h -8.5 v 41.4 h 8.1 c 3.1,0 6,-0.4 8.8,-1.1 2.8,-0.7 5.3,-1.9 7.5,-3.4 2.2,-1.6 3.9,-3.7 5.2,-6.4 1.4,-2.6 2,-5.9 2,-9.9 z"
   class="st1" />
	<path
   inkscape:connector-curvature="0"
   id="path290"
   d="m 2961.9,242.6 v -70.8 h 17.2 v 70.8 z"
   class="st1" />
	<path
   inkscape:connector-curvature="0"
   id="path292"
   d="m 3041.7,242.6 -5.5,-13.9 h -27.4 l -5.2,13.9 H 2985 l 29.7,-70.8 h 16.6 l 29.4,70.8 z m -19,-51.9 -9,24.3 h 17.8 z"
   class="st1" />
	<path
   inkscape:connector-curvature="0"
   id="path294"
   d="m 3104.5,242.6 -15.4,-28.1 h -5.8 v 28.1 h -16.7 v -70.8 h 27 c 3.4,0 6.7,0.3 10,1 3.2,0.7 6.1,1.9 8.7,3.5 2.6,1.7 4.6,3.9 6.1,6.6 1.5,2.7 2.3,6.1 2.3,10.2 0,4.8 -1.3,8.8 -3.9,12.1 -2.6,3.3 -6.2,5.6 -10.8,7 l 18.5,30.3 h -20 z m -0.7,-49.1 c 0,-1.7 -0.4,-3 -1.1,-4 -0.7,-1 -1.6,-1.8 -2.7,-2.4 -1.1,-0.6 -2.3,-1 -3.7,-1.2 -1.4,-0.2 -2.7,-0.3 -4,-0.3 h -9.1 v 16.5 h 8.1 c 1.4,0 2.8,-0.1 4.3,-0.4 1.5,-0.2 2.8,-0.6 4,-1.2 1.2,-0.6 2.2,-1.5 3,-2.6 0.8,-1.1 1.2,-2.6 1.2,-4.4 z"
   class="st1" />
	<path
   inkscape:connector-curvature="0"
   id="path296"
   d="m 3166.3,212.6 v 30 h -17.1 v -30 l -26.6,-40.8 h 20.7 l 15.1,26.2 15.1,-26.2 h 20 z"
   class="st1" />
</g>
<g
   transform="translate(-5912.2,-175.2)"
   id="g302">
	<rect
   id="rect300"
   height="104.5"
   width="1920"
   class="st0"
   y="0"
   x="3880" />
</g>
<g
   transform="translate(-5912.2,-175.2)"
   id="g306">
	<rect
   id="rect304"
   height="7"
   width="62.599998"
   class="st1"
   y="29.9"
   x="3915.6001" />
</g>
<g
   transform="translate(-5912.2,-175.2)"
   id="g310">
	<rect
   id="rect308"
   height="7"
   width="62.599998"
   class="st1"
   y="45.900002"
   x="3915.6001" />
</g>
<g
   transform="translate(-5912.2,-175.2)"
   id="g314">
	<rect
   id="rect312"
   height="7"
   width="62.599998"
   class="st1"
   y="61.900002"
   x="3915.6001" />
</g>
<g
   transform="translate(-5912.2,-175.2)"
   id="g318">
	<rect
   id="rect316"
   height="6.8000002"
   width="1619"
   class="st0"
   y="953.09998"
   x="4026.3" />
</g>
<g
   transform="translate(-5912.2,-175.2)"
   id="g322">
	<rect
   id="rect320"
   height="6.8000002"
   width="1619"
   class="st0"
   y="294.70001"
   x="4026.3" />
</g>
<g
   transform="translate(-5912.2,-175.2)"
   id="g346">
	<path
   inkscape:connector-curvature="0"
   id="path324"
   d="m 4034,227.9 v -49.6 h 12 v 49.6 z"
   class="st2" />
	<path
   inkscape:connector-curvature="0"
   id="path326"
   d="m 4087.8,227.9 -20,-32.4 h -0.2 l 0.3,32.4 h -11.6 v -49.6 h 13.6 l 19.9,32.3 h 0.2 l -0.3,-32.3 h 11.6 v 49.6 z"
   class="st2" />
	<path
   inkscape:connector-curvature="0"
   id="path328"
   d="m 4137.7,191.3 c -1,-1.3 -2.4,-2.3 -4,-3.1 -1.6,-0.8 -3.3,-1.2 -4.8,-1.2 -0.8,0 -1.6,0.1 -2.4,0.2 -0.8,0.1 -1.6,0.4 -2.2,0.8 -0.7,0.4 -1.2,0.9 -1.6,1.5 -0.4,0.6 -0.7,1.4 -0.7,2.4 0,0.8 0.2,1.5 0.5,2.1 0.3,0.6 0.9,1 1.5,1.5 0.7,0.4 1.5,0.8 2.4,1.2 0.9,0.4 2,0.7 3.2,1.1 1.7,0.6 3.4,1.2 5.2,1.9 1.8,0.7 3.5,1.6 5,2.7 1.5,1.1 2.7,2.5 3.7,4.2 1,1.7 1.5,3.7 1.5,6.2 0,2.8 -0.5,5.3 -1.6,7.4 -1,2.1 -2.5,3.8 -4.2,5.1 -1.8,1.4 -3.8,2.4 -6.1,3 -2.3,0.7 -4.6,1 -7.1,1 -3.5,0 -7,-0.6 -10.3,-1.9 -3.3,-1.2 -6.1,-3 -8.3,-5.3 l 7.8,-8 c 1.2,1.5 2.8,2.7 4.8,3.7 2,1 4,1.5 5.9,1.5 0.9,0 1.8,-0.1 2.6,-0.3 0.8,-0.2 1.6,-0.5 2.2,-0.9 0.6,-0.4 1.1,-1 1.5,-1.7 0.4,-0.7 0.6,-1.5 0.6,-2.5 0,-0.9 -0.2,-1.7 -0.7,-2.4 -0.5,-0.7 -1.1,-1.2 -2,-1.8 -0.9,-0.5 -1.9,-1 -3.2,-1.5 -1.3,-0.4 -2.7,-0.9 -4.4,-1.4 -1.6,-0.5 -3.1,-1.1 -4.7,-1.8 -1.5,-0.7 -2.9,-1.6 -4.1,-2.7 -1.2,-1.1 -2.1,-2.4 -2.9,-4 -0.7,-1.6 -1.1,-3.5 -1.1,-5.7 0,-2.8 0.6,-5.1 1.7,-7.1 1.1,-2 2.6,-3.6 4.4,-4.8 1.8,-1.3 3.9,-2.2 6.2,-2.8 2.3,-0.6 4.6,-0.9 6.9,-0.9 2.8,0 5.7,0.5 8.6,1.5 2.9,1 5.5,2.5 7.7,4.5 z"
   class="st2" />
	<path
   inkscape:connector-curvature="0"
   id="path330"
   d="m 4152.9,227.9 v -49.6 h 33.3 v 10.1 h -21.8 v 9.4 h 20.6 v 9.6 h -20.6 v 10.3 h 23 v 10.2 z"
   class="st2" />
	<path
   inkscape:connector-curvature="0"
   id="path332"
   d="m 4221.9,227.9 -10.8,-19.7 h -4.1 v 19.7 h -11.7 v -49.6 h 18.9 c 2.4,0 4.7,0.2 7,0.7 2.3,0.5 4.3,1.3 6.1,2.5 1.8,1.2 3.2,2.7 4.3,4.6 1.1,1.9 1.6,4.3 1.6,7.1 0,3.4 -0.9,6.2 -2.7,8.5 -1.8,2.3 -4.3,3.9 -7.6,4.9 l 12.9,21.2 h -13.9 z m -0.5,-34.3 c 0,-1.2 -0.2,-2.1 -0.7,-2.8 -0.5,-0.7 -1.1,-1.3 -1.9,-1.7 -0.8,-0.4 -1.6,-0.7 -2.6,-0.8 -1,-0.1 -1.9,-0.2 -2.8,-0.2 h -6.4 v 11.5 h 5.7 c 1,0 2,-0.1 3,-0.2 1,-0.2 2,-0.5 2.8,-0.9 0.8,-0.4 1.5,-1 2.1,-1.8 0.6,-0.8 0.8,-1.9 0.8,-3.1 z"
   class="st2" />
	<path
   inkscape:connector-curvature="0"
   id="path334"
   d="m 4262.2,188.6 v 39.3 h -12 v -39.3 h -14 v -10.2 h 40 v 10.2 z"
   class="st2" />
	<path
   inkscape:connector-curvature="0"
   id="path336"
   d="m 4317,188.6 v 39.3 h -12 v -39.3 h -14 v -10.2 h 40 v 10.2 z"
   class="st2" />
	<path
   inkscape:connector-curvature="0"
   id="path338"
   d="m 4336.5,227.9 v -49.6 h 12 v 49.6 z"
   class="st2" />
	<path
   inkscape:connector-curvature="0"
   id="path340"
   d="m 4379.9,188.6 v 39.3 h -12 v -39.3 h -14 v -10.2 h 40 v 10.2 z"
   class="st2" />
	<path
   inkscape:connector-curvature="0"
   id="path342"
   d="m 4399.4,227.9 v -49.6 h 12 v 39.1 h 19.2 v 10.4 h -31.2 z"
   class="st2" />
	<path
   inkscape:connector-curvature="0"
   id="path344"
   d="m 4436.2,227.9 v -49.6 h 33.3 v 10.1 h -21.8 v 9.4 h 20.6 v 9.6 h -20.6 v 10.3 h 23 v 10.2 z"
   class="st2" />
</g>
<g
   transform="translate(-5912.2,-175.2)"
   id="g350">
	<rect
   id="rect348"
   height="6.5999999"
   width="1619"
   class="st0"
   y="366.60001"
   x="4026.3" />
</g>
<g
   transform="translate(-5912.2,-175.2)"
   id="g354">
	<rect
   id="rect352"
   height="6.5999999"
   width="1619"
   class="st0"
   y="439.39999"
   x="4026.3" />
</g>
<g
   transform="translate(-5912.2,-175.2)"
   id="g358">
	<rect
   id="rect356"
   height="6.5999999"
   width="1619"
   class="st0"
   y="511.39999"
   x="4026.3" />
</g>
<g
   transform="translate(-5912.2,-175.2)"
   id="g362">
	<rect
   id="rect360"
   height="6.5999999"
   width="1619"
   class="st0"
   y="586.09998"
   x="4026.3" />
</g>
<g
   transform="translate(-5912.2,-175.2)"
   id="g366">
	<rect
   id="rect364"
   height="6.5999999"
   width="1619"
   class="st0"
   y="658.09998"
   x="4026.3" />
</g>
<g
   transform="translate(-5912.2,-175.2)"
   id="g370">
	<rect
   id="rect368"
   height="6.5999999"
   width="1619"
   class="st0"
   y="730.90002"
   x="4026.3" />
</g>
<g
   transform="translate(-5912.2,-175.2)"
   id="g374">
	<rect
   id="rect372"
   height="6.5999999"
   width="1619"
   class="st0"
   y="875.20001"
   x="4026.3" />
</g>
<g
   transform="translate(-5912.2,-175.2)"
   id="g378">
	<rect
   id="rect376"
   height="6.5999999"
   width="1619"
   class="st0"
   y="802.90002"
   x="4026.3" />
</g>
<g
   transform="translate(-5912.2,-175.2)"
   id="g382">
	<rect
   id="rect380"
   height="104.5"
   width="1468.9"
   class="st0"
   y="0"
   x="6271.1001" />
</g>
<g
   transform="translate(-5912.2,-175.2)"
   id="g386">
	<rect
   id="rect384"
   height="6.5999999"
   width="1170.2"
   class="st0"
   y="953.20001"
   x="6421.7002" />
</g>
<g
   transform="translate(-5912.2,-175.2)"
   id="g390">
	<rect
   id="rect388"
   height="6.5999999"
   width="1170.2"
   class="st0"
   y="294.79999"
   x="6421.7002" />
</g>
<g
   transform="translate(-5912.2,-175.2)"
   id="g414">
	<path
   inkscape:connector-curvature="0"
   id="path392"
   d="m 6426,229.9 v -49.6 h 12 v 49.6 z"
   class="st2" />
	<path
   inkscape:connector-curvature="0"
   id="path394"
   d="m 6479.8,229.9 -20,-32.4 h -0.2 l 0.3,32.4 h -11.6 v -49.6 h 13.6 l 19.9,32.3 h 0.2 l -0.3,-32.3 h 11.6 v 49.6 z"
   class="st2" />
	<path
   inkscape:connector-curvature="0"
   id="path396"
   d="m 6529.7,193.3 c -1,-1.3 -2.4,-2.3 -4,-3.1 -1.6,-0.8 -3.3,-1.2 -4.8,-1.2 -0.8,0 -1.6,0.1 -2.4,0.2 -0.8,0.1 -1.6,0.4 -2.2,0.8 -0.7,0.4 -1.2,0.9 -1.6,1.5 -0.4,0.6 -0.7,1.4 -0.7,2.4 0,0.8 0.2,1.5 0.5,2.1 0.3,0.6 0.9,1 1.5,1.5 0.7,0.4 1.5,0.8 2.4,1.2 0.9,0.4 2,0.7 3.2,1.1 1.7,0.6 3.4,1.2 5.2,1.9 1.8,0.7 3.5,1.6 5,2.7 1.5,1.1 2.7,2.5 3.7,4.2 1,1.7 1.5,3.7 1.5,6.2 0,2.8 -0.5,5.3 -1.6,7.4 -1,2.1 -2.5,3.8 -4.2,5.1 -1.8,1.4 -3.8,2.4 -6.1,3 -2.3,0.7 -4.6,1 -7.1,1 -3.5,0 -7,-0.6 -10.3,-1.9 -3.3,-1.2 -6.1,-3 -8.3,-5.3 l 7.8,-8 c 1.2,1.5 2.8,2.7 4.8,3.7 2,1 4,1.5 5.9,1.5 0.9,0 1.8,-0.1 2.6,-0.3 0.8,-0.2 1.6,-0.5 2.2,-0.9 0.6,-0.4 1.1,-1 1.5,-1.7 0.4,-0.7 0.6,-1.5 0.6,-2.5 0,-0.9 -0.2,-1.7 -0.7,-2.4 -0.5,-0.7 -1.1,-1.2 -2,-1.8 -0.9,-0.5 -1.9,-1 -3.2,-1.5 -1.3,-0.4 -2.7,-0.9 -4.4,-1.4 -1.6,-0.5 -3.1,-1.1 -4.7,-1.8 -1.5,-0.7 -2.9,-1.6 -4.1,-2.7 -1.2,-1.1 -2.1,-2.4 -2.9,-4 -0.7,-1.6 -1.1,-3.5 -1.1,-5.7 0,-2.8 0.6,-5.1 1.7,-7.1 1.1,-2 2.6,-3.6 4.4,-4.8 1.8,-1.3 3.9,-2.2 6.2,-2.8 2.3,-0.6 4.6,-0.9 6.9,-0.9 2.8,0 5.7,0.5 8.6,1.5 2.9,1 5.5,2.5 7.7,4.5 z"
   class="st2" />
	<path
   inkscape:connector-curvature="0"
   id="path398"
   d="m 6544.9,229.9 v -49.6 h 33.3 v 10.1 h -21.8 v 9.4 h 20.6 v 9.6 h -20.6 v 10.3 h 23 v 10.2 z"
   class="st2" />
	<path
   inkscape:connector-curvature="0"
   id="path400"
   d="m 6613.9,229.9 -10.8,-19.7 h -4.1 v 19.7 h -11.7 v -49.6 h 18.9 c 2.4,0 4.7,0.2 7,0.7 2.3,0.5 4.3,1.3 6.1,2.5 1.8,1.2 3.2,2.7 4.3,4.6 1.1,1.9 1.6,4.3 1.6,7.1 0,3.4 -0.9,6.2 -2.7,8.5 -1.8,2.3 -4.3,3.9 -7.6,4.9 l 12.9,21.2 h -13.9 z m -0.4,-34.3 c 0,-1.2 -0.2,-2.1 -0.7,-2.8 -0.5,-0.7 -1.1,-1.3 -1.9,-1.7 -0.8,-0.4 -1.6,-0.7 -2.6,-0.8 -1,-0.1 -1.9,-0.2 -2.8,-0.2 h -6.4 v 11.5 h 5.7 c 1,0 2,-0.1 3,-0.2 1,-0.2 2,-0.5 2.8,-0.9 0.8,-0.4 1.5,-1 2.1,-1.8 0.5,-0.8 0.8,-1.9 0.8,-3.1 z"
   class="st2" />
	<path
   inkscape:connector-curvature="0"
   id="path402"
   d="m 6654.2,190.6 v 39.3 h -12 v -39.3 h -14 v -10.2 h 40 v 10.2 z"
   class="st2" />
	<path
   inkscape:connector-curvature="0"
   id="path404"
   d="m 6709,190.6 v 39.3 h -12 v -39.3 h -14 v -10.2 h 40 v 10.2 z"
   class="st2" />
	<path
   inkscape:connector-curvature="0"
   id="path406"
   d="m 6728.5,229.9 v -49.6 h 12 v 49.6 z"
   class="st2" />
	<path
   inkscape:connector-curvature="0"
   id="path408"
   d="m 6771.9,190.6 v 39.3 h -12 v -39.3 h -14 v -10.2 h 40 v 10.2 z"
   class="st2" />
	<path
   inkscape:connector-curvature="0"
   id="path410"
   d="m 6791.4,229.9 v -49.6 h 12 v 39.1 h 19.2 v 10.4 h -31.2 z"
   class="st2" />
	<path
   inkscape:connector-curvature="0"
   id="path412"
   d="m 6828.2,229.9 v -49.6 h 33.3 v 10.1 h -21.8 v 9.4 h 20.6 v 9.6 h -20.6 v 10.3 h 23 v 10.2 z"
   class="st2" />
</g>
<g
   transform="translate(-5912.2,-175.2)"
   id="g418">
	<rect
   id="rect416"
   height="6.5999999"
   width="1170.2"
   class="st0"
   y="366.5"
   x="6421.7002" />
</g>
<g
   transform="translate(-5912.2,-175.2)"
   id="g422">
	<rect
   id="rect420"
   height="6.5999999"
   width="1170.2"
   class="st0"
   y="439.39999"
   x="6421.7002" />
</g>
<g
   transform="translate(-5912.2,-175.2)"
   id="g426">
	<rect
   id="rect424"
   height="6.5999999"
   width="1170.2"
   class="st0"
   y="511.29999"
   x="6421.7002" />
</g>
<g
   transform="translate(-5912.2,-175.2)"
   id="g430">
	<rect
   id="rect428"
   height="6.5999999"
   width="1170.2"
   class="st0"
   y="586.09998"
   x="6421.7002" />
</g>
<g
   transform="translate(-5912.2,-175.2)"
   id="g434">
	<rect
   id="rect432"
   height="6.5999999"
   width="1170.2"
   class="st0"
   y="658"
   x="6421.7002" />
</g>
<g
   transform="translate(-5912.2,-175.2)"
   id="g438">
	<rect
   id="rect436"
   height="6.5999999"
   width="1170.2"
   class="st0"
   y="730.90002"
   x="6421.7002" />
</g>
<g
   transform="translate(-5912.2,-175.2)"
   id="g442">
	<rect
   id="rect440"
   height="6.5999999"
   width="1170.2"
   class="st0"
   y="875.20001"
   x="6421.7002" />
</g>
<g
   transform="translate(-5912.2,-175.2)"
   id="g446">
	<rect
   id="rect444"
   height="6.5999999"
   width="1170.2"
   class="st0"
   y="802.79999"
   x="6421.7002" />
</g>
<g
   transform="translate(-5912.2,-175.2)"
   id="g452"
   class="st3">
	<rect
   y="0"
   id="rect448"
   height="1080"
   width="451.10001"
   class="st0"
   x="5820" />
	<path
   inkscape:connector-curvature="0"
   id="path450"
   d="M 6273.6,1082.5 H 5817.5 V -2.5 h 456.1 z m -451.1,-5 h 446.1 V 2.5 h -446.1 z"
   class="st0" />
</g>
<g
   transform="translate(-5912.2,-175.2)"
   id="g458">
	<rect
   id="rect454"
   height="311.29999"
   width="244.60001"
   class="st1"
   y="179.2"
   x="5916.2002" />
	<path
   inkscape:connector-curvature="0"
   id="path456"
   d="M 6164.8,494.5 H 5912.2 V 175.2 h 252.6 z m -244.6,-8 h 236.6 V 183.2 h -236.6 z"
   class="st0" />
</g>
<g
   transform="translate(-5912.2,-175.2)"
   id="g464">
	<rect
   id="rect460"
   height="311.29999"
   width="244.60001"
   class="st1"
   y="659.20001"
   x="5919.2002" />
	<path
   inkscape:connector-curvature="0"
   id="path462"
   d="M 6167.8,974.5 H 5915.2 V 655.2 h 252.6 z m -244.6,-8 h 236.6 V 663.2 h -236.6 z"
   class="st0" />
</g>
<g
   transform="translate(-5912.2,-175.2)"
   id="g492">
	<path
   inkscape:connector-curvature="0"
   id="path466"
   d="m 5924.1,584.1 v 5.1 h 9.6 v 4.9 h -9.6 v 9.6 h -5.9 V 579 h 16.3 v 5.1 z"
   class="st0" />
	<path
   inkscape:connector-curvature="0"
   id="path468"
   d="M 5938.4,603.8 V 579 h 16.7 v 5 h -10.9 v 4.7 h 10.3 v 4.8 h -10.3 v 5.1 h 11.5 v 5.1 h -17.3 z"
   class="st0" />
	<path
   inkscape:connector-curvature="0"
   id="path470"
   d="m 5972.7,585.5 c -0.5,-0.7 -1.2,-1.2 -2,-1.6 -0.8,-0.4 -1.6,-0.6 -2.4,-0.6 -0.4,0 -0.8,0 -1.2,0.1 -0.4,0.1 -0.8,0.2 -1.1,0.4 -0.3,0.2 -0.6,0.5 -0.8,0.8 -0.2,0.3 -0.3,0.7 -0.3,1.2 0,0.4 0.1,0.8 0.3,1 0.2,0.3 0.4,0.5 0.8,0.7 0.3,0.2 0.7,0.4 1.2,0.6 0.5,0.2 1,0.4 1.6,0.5 0.8,0.3 1.7,0.6 2.6,0.9 0.9,0.3 1.7,0.8 2.5,1.3 0.7,0.6 1.4,1.3 1.9,2.1 0.5,0.8 0.7,1.9 0.7,3.1 0,1.4 -0.3,2.7 -0.8,3.7 -0.5,1 -1.2,1.9 -2.1,2.6 -0.9,0.7 -1.9,1.2 -3,1.5 -1.1,0.3 -2.3,0.5 -3.5,0.5 -1.8,0 -3.5,-0.3 -5.1,-0.9 -1.7,-0.6 -3,-1.5 -4.1,-2.6 l 3.9,-4 c 0.6,0.7 1.4,1.4 2.4,1.9 1,0.5 2,0.8 3,0.8 0.4,0 0.9,0 1.3,-0.1 0.4,-0.1 0.8,-0.2 1.1,-0.5 0.3,-0.2 0.6,-0.5 0.8,-0.8 0.2,-0.3 0.3,-0.8 0.3,-1.3 0,-0.5 -0.1,-0.9 -0.4,-1.2 -0.2,-0.3 -0.6,-0.6 -1,-0.9 -0.4,-0.3 -1,-0.5 -1.6,-0.7 -0.6,-0.2 -1.4,-0.5 -2.2,-0.7 -0.8,-0.3 -1.6,-0.6 -2.3,-0.9 -0.8,-0.3 -1.4,-0.8 -2,-1.3 -0.6,-0.5 -1.1,-1.2 -1.4,-2 -0.4,-0.8 -0.5,-1.7 -0.5,-2.9 0,-1.4 0.3,-2.6 0.8,-3.5 0.6,-1 1.3,-1.8 2.2,-2.4 0.9,-0.6 1.9,-1.1 3.1,-1.4 1.1,-0.3 2.3,-0.4 3.5,-0.4 1.4,0 2.8,0.3 4.3,0.8 1.5,0.5 2.7,1.3 3.8,2.3 z"
   class="st0" />
	<path
   inkscape:connector-curvature="0"
   id="path472"
   d="m 5990.5,584.1 v 19.7 h -6 v -19.7 h -7 V 579 h 20 v 5.1 z"
   class="st0" />
	<path
   inkscape:connector-curvature="0"
   id="path474"
   d="m 6014.9,603.8 -1.9,-4.9 h -9.6 l -1.8,4.9 h -6.5 l 10.4,-24.8 h 5.8 l 10.3,24.8 z m -6.7,-18.1 -3.2,8.5 h 6.2 z"
   class="st0" />
	<path
   inkscape:connector-curvature="0"
   id="path476"
   d="m 5918,638.8 v -4.9 l 9.7,-8.7 c 0.6,-0.6 1.1,-1.2 1.5,-1.8 0.4,-0.6 0.6,-1.3 0.6,-2 0,-0.9 -0.3,-1.6 -0.8,-2.1 -0.6,-0.5 -1.3,-0.8 -2.2,-0.8 -1,0 -1.8,0.3 -2.4,1 -0.6,0.7 -1,1.6 -1.1,2.7 l -5.6,-0.8 c 0.1,-1.3 0.5,-2.4 1,-3.4 0.5,-1 1.2,-1.8 2.1,-2.5 0.9,-0.7 1.8,-1.2 2.9,-1.6 1.1,-0.4 2.2,-0.5 3.4,-0.5 1.1,0 2.3,0.2 3.3,0.5 1.1,0.3 2,0.8 2.9,1.4 0.9,0.6 1.5,1.4 2,2.4 0.5,1 0.8,2.1 0.8,3.4 0,0.9 -0.1,1.7 -0.3,2.4 -0.2,0.7 -0.6,1.4 -1,2 -0.4,0.6 -0.9,1.2 -1.4,1.7 -0.5,0.5 -1.1,1 -1.6,1.6 l -5.7,5.1 h 10.1 V 639 H 5918 Z"
   class="st2" />
	<path
   inkscape:connector-curvature="0"
   id="path478"
   d="m 5940.6,638.8 v -4.9 l 9.7,-8.7 c 0.6,-0.6 1.1,-1.2 1.5,-1.8 0.4,-0.6 0.6,-1.3 0.6,-2 0,-0.9 -0.3,-1.6 -0.8,-2.1 -0.6,-0.5 -1.3,-0.8 -2.2,-0.8 -1,0 -1.8,0.3 -2.4,1 -0.6,0.7 -1,1.6 -1.1,2.7 l -5.6,-0.8 c 0.1,-1.3 0.5,-2.4 1,-3.4 0.5,-1 1.2,-1.8 2.1,-2.5 0.9,-0.7 1.8,-1.2 2.9,-1.6 1.1,-0.4 2.2,-0.5 3.4,-0.5 1.1,0 2.3,0.2 3.3,0.5 1.1,0.3 2,0.8 2.9,1.4 0.9,0.6 1.5,1.4 2,2.4 0.5,1 0.8,2.1 0.8,3.4 0,0.9 -0.1,1.7 -0.3,2.4 -0.2,0.7 -0.6,1.4 -1,2 -0.4,0.6 -0.9,1.2 -1.4,1.7 -0.5,0.5 -1.1,1 -1.6,1.6 l -5.7,5.1 h 10.1 v 5.1 h -18.2 z"
   class="st2" />
	<path
   inkscape:connector-curvature="0"
   id="path480"
   d="m 5964.6,640.6 -4,-1.3 10.8,-27.2 4,1.4 z"
   class="st2" />
	<path
   inkscape:connector-curvature="0"
   id="path482"
   d="m 5985.3,638.8 v -18.2 l -4.6,3.6 -3,-4.2 8.2,-6 h 5.4 v 24.8 z"
   class="st2" />
	<path
   inkscape:connector-curvature="0"
   id="path484"
   d="m 6007.9,638.8 v -18.2 l -4.6,3.6 -3,-4.2 8.2,-6 h 5.4 v 24.8 z"
   class="st2" />
	<path
   inkscape:connector-curvature="0"
   id="path486"
   d="m 6024.3,640.6 -4,-1.3 10.8,-27.2 4,1.4 z"
   class="st2" />
	<path
   inkscape:connector-curvature="0"
   id="path488"
   d="m 6045,638.8 v -18.2 l -4.6,3.6 -3,-4.2 8.2,-6 h 5.4 v 24.8 z"
   class="st2" />
	<path
   inkscape:connector-curvature="0"
   id="path490"
   d="m 6078.8,622.2 c 0,1.5 -0.3,2.8 -0.8,4 -0.5,1.2 -1.2,2.4 -2,3.7 l -6,8.9 h -7.1 l 6.2,-8.5 0.1,-0.1 c -0.3,0.1 -0.5,0.2 -0.9,0.2 -0.4,0 -0.6,0.1 -0.9,0.1 -1.1,0 -2.1,-0.2 -3.1,-0.6 -1,-0.4 -1.8,-0.9 -2.6,-1.6 -0.7,-0.7 -1.3,-1.6 -1.8,-2.6 -0.4,-1 -0.7,-2.1 -0.7,-3.3 0,-1.4 0.3,-2.7 0.8,-3.8 0.5,-1.1 1.2,-2.1 2.1,-2.8 0.9,-0.8 1.9,-1.4 3.1,-1.8 1.2,-0.4 2.4,-0.6 3.8,-0.6 1.4,0 2.6,0.2 3.8,0.6 1.2,0.4 2.2,1 3.1,1.8 0.9,0.8 1.6,1.7 2.1,2.8 0.5,1 0.8,2.3 0.8,3.6 z m -5.9,0 c 0,-1.1 -0.3,-2 -1,-2.8 -0.7,-0.8 -1.6,-1.2 -2.8,-1.2 -1.2,0 -2.2,0.4 -2.9,1.1 -0.7,0.7 -1.1,1.7 -1.1,2.9 0,1.1 0.4,2 1.1,2.8 0.7,0.7 1.6,1.1 2.8,1.1 1.2,0 2.1,-0.4 2.8,-1.1 0.8,-0.7 1.1,-1.7 1.1,-2.8 z"
   class="st2" />
</g>
<g
   transform="translate(-5912.2,-175.2)"
   id="g522">
	<path
   inkscape:connector-curvature="0"
   id="path494"
   d="m 5936,122.4 c -1.6,0.7 -3.5,1.1 -5.6,1.1 -1.9,0 -3.7,-0.3 -5.3,-0.9 -1.6,-0.6 -3,-1.5 -4.2,-2.7 -1.2,-1.2 -2.1,-2.5 -2.8,-4.1 -0.7,-1.6 -1,-3.4 -1,-5.3 0,-2 0.3,-3.8 1,-5.4 0.7,-1.6 1.6,-3 2.9,-4.1 1.2,-1.1 2.6,-2 4.3,-2.6 1.6,-0.6 3.4,-0.9 5.3,-0.9 1.8,0 3.5,0.3 5.2,0.9 1.7,0.6 3.1,1.5 4.1,2.7 l -4.1,4.1 c -0.6,-0.8 -1.3,-1.3 -2.2,-1.7 -0.9,-0.4 -1.8,-0.6 -2.8,-0.6 -1,0 -2,0.2 -2.9,0.6 -0.9,0.4 -1.6,0.9 -2.3,1.6 -0.7,0.7 -1.1,1.5 -1.5,2.4 -0.3,0.9 -0.5,1.9 -0.5,3 0,1.1 0.2,2.1 0.5,3.1 0.4,0.9 0.8,1.7 1.5,2.4 0.6,0.7 1.4,1.2 2.2,1.6 0.9,0.4 1.8,0.6 2.8,0.6 1.2,0 2.2,-0.2 3.1,-0.7 0.9,-0.5 1.6,-1.1 2.1,-1.8 l 4.2,3.9 c -1.1,1 -2.4,2 -4,2.8 z"
   class="st0" />
	<path
   inkscape:connector-curvature="0"
   id="path496"
   d="m 5968,110.3 c 0,2 -0.3,3.8 -1,5.4 -0.7,1.6 -1.6,3 -2.8,4.2 -1.2,1.2 -2.6,2 -4.3,2.7 -1.7,0.6 -3.5,0.9 -5.4,0.9 -1.9,0 -3.7,-0.3 -5.4,-0.9 -1.6,-0.6 -3.1,-1.5 -4.3,-2.7 -1.2,-1.2 -2.1,-2.5 -2.8,-4.2 -0.7,-1.7 -1,-3.4 -1,-5.4 0,-2 0.3,-3.8 1,-5.4 0.7,-1.6 1.6,-3 2.8,-4.1 1.2,-1.1 2.6,-2 4.3,-2.6 1.6,-0.6 3.4,-0.9 5.4,-0.9 1.9,0 3.7,0.3 5.4,0.9 1.7,0.6 3.1,1.5 4.3,2.6 1.2,1.1 2.1,2.5 2.8,4.1 0.7,1.6 1,3.4 1,5.4 z m -6.4,0 c 0,-1.1 -0.2,-2.1 -0.5,-3 -0.3,-0.9 -0.8,-1.7 -1.5,-2.4 -0.6,-0.7 -1.4,-1.2 -2.2,-1.6 -0.8,-0.4 -1.8,-0.6 -2.9,-0.6 -1.1,0 -2,0.2 -2.9,0.6 -0.9,0.4 -1.6,0.9 -2.2,1.6 -0.6,0.7 -1.1,1.5 -1.5,2.4 -0.3,0.9 -0.5,1.9 -0.5,3 0,1.1 0.2,2.2 0.5,3.1 0.3,0.9 0.8,1.8 1.5,2.4 0.7,0.6 1.4,1.2 2.2,1.6 0.9,0.4 1.8,0.6 2.9,0.6 1.1,0 2,-0.2 2.9,-0.6 0.9,-0.4 1.6,-0.9 2.2,-1.6 0.6,-0.7 1.1,-1.5 1.5,-2.4 0.4,-0.9 0.5,-2 0.5,-3.1 z"
   class="st0" />
	<path
   inkscape:connector-curvature="0"
   id="path498"
   d="m 5985.2,122.8 -5.4,-9.8 h -2 v 9.8 H 5972 V 98 h 9.5 c 1.2,0 2.4,0.1 3.5,0.4 1.1,0.2 2.1,0.7 3,1.2 0.9,0.5 1.6,1.4 2.2,2.3 0.5,1 0.8,2.1 0.8,3.6 0,1.7 -0.5,3.1 -1.4,4.2 -0.9,1.1 -2.2,2 -3.8,2.4 l 6.5,10.6 h -7.1 z m -0.2,-17.2 c 0,-0.6 -0.1,-1.1 -0.4,-1.4 -0.2,-0.4 -0.6,-0.6 -0.9,-0.8 -0.3,-0.2 -0.8,-0.3 -1.3,-0.4 -0.5,-0.1 -0.9,-0.1 -1.4,-0.1 h -3.2 v 5.8 h 2.8 c 0.5,0 1,0 1.5,-0.1 0.5,-0.1 1,-0.2 1.4,-0.4 0.4,-0.2 0.8,-0.5 1,-0.9 0.2,-0.4 0.5,-1 0.5,-1.7 z"
   class="st0" />
	<path
   inkscape:connector-curvature="0"
   id="path500"
   d="m 6021,110.3 c 0,2 -0.3,3.8 -1,5.4 -0.7,1.6 -1.6,3 -2.8,4.2 -1.2,1.2 -2.6,2 -4.3,2.7 -1.7,0.6 -3.5,0.9 -5.4,0.9 -1.9,0 -3.7,-0.3 -5.4,-0.9 -1.6,-0.6 -3.1,-1.5 -4.3,-2.7 -1.2,-1.2 -2.1,-2.5 -2.8,-4.2 -0.7,-1.7 -1,-3.4 -1,-5.4 0,-2 0.3,-3.8 1,-5.4 0.7,-1.6 1.6,-3 2.8,-4.1 1.2,-1.1 2.6,-2 4.3,-2.6 1.6,-0.6 3.4,-0.9 5.4,-0.9 1.9,0 3.7,0.3 5.4,0.9 1.7,0.6 3.1,1.5 4.3,2.6 1.2,1.1 2.1,2.5 2.8,4.1 0.7,1.6 1,3.4 1,5.4 z m -6.4,0 c 0,-1.1 -0.2,-2.1 -0.5,-3 -0.3,-0.9 -0.8,-1.7 -1.5,-2.4 -0.6,-0.7 -1.4,-1.2 -2.2,-1.6 -0.8,-0.4 -1.8,-0.6 -2.9,-0.6 -1.1,0 -2,0.2 -2.9,0.6 -0.9,0.4 -1.6,0.9 -2.2,1.6 -0.6,0.7 -1.1,1.5 -1.5,2.4 -0.3,0.9 -0.5,1.9 -0.5,3 0,1.1 0.2,2.2 0.5,3.1 0.3,0.9 0.8,1.8 1.5,2.4 0.7,0.6 1.4,1.2 2.2,1.6 0.9,0.4 1.8,0.6 2.9,0.6 1.1,0 2,-0.2 2.9,-0.6 0.9,-0.4 1.6,-0.9 2.2,-1.6 0.6,-0.7 1.1,-1.5 1.5,-2.4 0.4,-0.9 0.5,-2 0.5,-3.1 z"
   class="st0" />
	<path
   inkscape:connector-curvature="0"
   id="path502"
   d="m 6040.7,122.8 -10,-16.2 h -0.1 l 0.1,16.2 h -5.8 V 98 h 6.8 l 9.9,16.2 h 0.1 L 6041.6,98 h 5.8 v 24.8 z"
   class="st0" />
	<path
   inkscape:connector-curvature="0"
   id="path504"
   d="m 6069.4,122.8 -1.9,-4.9 h -9.6 l -1.8,4.9 h -6.5 L 6060,98 h 5.8 l 10.3,24.8 z m -6.7,-18.2 -3.2,8.5 h 6.2 z"
   class="st0" />
	<path
   inkscape:connector-curvature="0"
   id="path506"
   d="m 5936.7,145.4 c 0,1.8 -0.2,3.4 -0.5,5 -0.3,1.6 -0.9,3 -1.7,4.2 -0.8,1.2 -1.8,2.2 -3,2.9 -1.2,0.7 -2.7,1.1 -4.5,1.1 -1.8,0 -3.2,-0.4 -4.5,-1.1 -1.2,-0.7 -2.2,-1.7 -3,-2.9 -0.8,-1.2 -1.3,-2.6 -1.7,-4.2 -0.3,-1.6 -0.5,-3.3 -0.5,-5 0,-1.7 0.2,-3.4 0.5,-5 0.4,-1.6 0.9,-3 1.7,-4.1 0.8,-1.2 1.8,-2.1 3,-2.8 1.2,-0.7 2.7,-1.1 4.5,-1.1 1.8,0 3.2,0.4 4.5,1.1 1.2,0.7 2.2,1.6 3,2.8 0.8,1.2 1.3,2.6 1.7,4.1 0.3,1.5 0.5,3.2 0.5,5 z m -6.1,0 c 0,-0.8 0,-1.6 -0.1,-2.6 -0.1,-0.9 -0.3,-1.8 -0.5,-2.6 -0.3,-0.8 -0.6,-1.5 -1.1,-2 -0.5,-0.5 -1.1,-0.8 -1.9,-0.8 -0.8,0 -1.4,0.3 -1.9,0.8 -0.5,0.5 -0.9,1.2 -1.1,2 -0.3,0.8 -0.4,1.7 -0.5,2.6 -0.1,0.9 -0.1,1.8 -0.1,2.6 0,0.8 0,1.7 0.1,2.6 0.1,0.9 0.3,1.8 0.5,2.6 0.3,0.8 0.6,1.5 1.1,2 0.5,0.5 1.1,0.8 1.9,0.8 0.8,0 1.4,-0.3 1.9,-0.8 0.5,-0.5 0.8,-1.2 1.1,-2 0.3,-0.8 0.4,-1.7 0.5,-2.6 0.1,-1 0.1,-1.9 0.1,-2.6 z"
   class="st2" />
	<path
   inkscape:connector-curvature="0"
   id="path508"
   d="m 5940.6,157.8 v -4.9 l 9.7,-8.7 c 0.6,-0.6 1.1,-1.2 1.5,-1.8 0.4,-0.6 0.6,-1.3 0.6,-2 0,-0.9 -0.3,-1.6 -0.8,-2.1 -0.6,-0.5 -1.3,-0.8 -2.2,-0.8 -1,0 -1.8,0.3 -2.4,1 -0.6,0.7 -1,1.6 -1.1,2.7 l -5.6,-0.8 c 0.1,-1.3 0.5,-2.4 1,-3.4 0.5,-1 1.2,-1.8 2.1,-2.5 0.9,-0.7 1.8,-1.2 2.9,-1.6 1.1,-0.4 2.2,-0.5 3.4,-0.5 1.1,0 2.3,0.2 3.3,0.5 1.1,0.3 2,0.8 2.9,1.4 0.9,0.6 1.5,1.4 2,2.4 0.5,1 0.8,2.1 0.8,3.4 0,0.9 -0.1,1.7 -0.3,2.4 -0.2,0.7 -0.6,1.4 -1,2 -0.4,0.6 -0.9,1.2 -1.4,1.7 -0.5,0.5 -1.1,1 -1.6,1.6 l -5.7,5.1 h 10.1 v 5.1 h -18.2 z"
   class="st2" />
	<path
   inkscape:connector-curvature="0"
   id="path510"
   d="m 5964.6,159.6 -4,-1.3 10.8,-27.2 4,1.4 z"
   class="st2" />
	<path
   inkscape:connector-curvature="0"
   id="path512"
   d="m 5996.4,145.4 c 0,1.8 -0.2,3.4 -0.5,5 -0.3,1.6 -0.9,3 -1.7,4.2 -0.8,1.2 -1.8,2.2 -3,2.9 -1.2,0.7 -2.7,1.1 -4.5,1.1 -1.8,0 -3.2,-0.4 -4.5,-1.1 -1.2,-0.7 -2.2,-1.7 -3,-2.9 -0.8,-1.2 -1.3,-2.6 -1.7,-4.2 -0.3,-1.6 -0.5,-3.3 -0.5,-5 0,-1.7 0.2,-3.4 0.5,-5 0.4,-1.6 0.9,-3 1.7,-4.1 0.8,-1.2 1.8,-2.1 3,-2.8 1.2,-0.7 2.7,-1.1 4.5,-1.1 1.8,0 3.2,0.4 4.5,1.1 1.2,0.7 2.2,1.6 3,2.8 0.8,1.2 1.3,2.6 1.7,4.1 0.3,1.5 0.5,3.2 0.5,5 z m -6,0 c 0,-0.8 0,-1.6 -0.1,-2.6 -0.1,-0.9 -0.3,-1.8 -0.5,-2.6 -0.3,-0.8 -0.6,-1.5 -1.1,-2 -0.5,-0.5 -1.1,-0.8 -1.9,-0.8 -0.8,0 -1.4,0.3 -1.9,0.8 -0.5,0.5 -0.9,1.2 -1.1,2 -0.3,0.8 -0.4,1.7 -0.5,2.6 -0.1,0.9 -0.1,1.8 -0.1,2.6 0,0.8 0,1.7 0.1,2.6 0.1,0.9 0.3,1.8 0.5,2.6 0.3,0.8 0.6,1.5 1.1,2 0.5,0.5 1.1,0.8 1.9,0.8 0.8,0 1.4,-0.3 1.9,-0.8 0.5,-0.5 0.8,-1.2 1.1,-2 0.3,-0.8 0.4,-1.7 0.5,-2.6 0,-1 0.1,-1.9 0.1,-2.6 z"
   class="st2" />
	<path
   inkscape:connector-curvature="0"
   id="path514"
   d="m 6018.4,150.6 c 0,1.4 -0.3,2.5 -0.8,3.5 -0.5,1 -1.3,1.8 -2.2,2.4 -0.9,0.6 -1.9,1.1 -3,1.4 -1.1,0.3 -2.2,0.5 -3.4,0.5 -1.1,0 -2.2,-0.1 -3.3,-0.4 -1.1,-0.3 -2,-0.6 -2.9,-1.2 -0.9,-0.6 -1.6,-1.2 -2.3,-2 -0.7,-0.8 -1.1,-1.8 -1.5,-3 l 5.5,-1.4 c 0.2,0.8 0.7,1.5 1.4,2.2 0.7,0.7 1.6,0.9 2.8,0.9 0.4,0 0.8,-0.1 1.3,-0.2 0.4,-0.1 0.8,-0.3 1.2,-0.5 0.3,-0.2 0.6,-0.6 0.8,-1 0.2,-0.4 0.3,-0.9 0.3,-1.5 0,-0.6 -0.1,-1.2 -0.4,-1.6 -0.3,-0.4 -0.7,-0.8 -1.2,-1 -0.5,-0.2 -1,-0.4 -1.6,-0.5 -0.6,-0.1 -1.2,-0.2 -1.8,-0.2 h -1.6 v -4.3 h 1.7 c 0.6,0 1.1,0 1.6,-0.1 0.5,-0.1 1,-0.2 1.4,-0.5 0.4,-0.2 0.7,-0.5 1,-0.9 0.2,-0.4 0.4,-0.9 0.4,-1.5 0,-0.9 -0.3,-1.6 -0.9,-2 -0.6,-0.4 -1.4,-0.7 -2.2,-0.7 -0.8,0 -1.6,0.3 -2.2,0.8 -0.6,0.5 -1,1.2 -1.2,2 l -5.5,-1.3 c 0.3,-1.1 0.8,-2 1.4,-2.7 0.6,-0.8 1.3,-1.4 2.2,-2 0.9,-0.6 1.7,-0.9 2.7,-1.2 1,-0.3 2,-0.4 3,-0.4 1.1,0 2.2,0.1 3.2,0.4 1,0.3 2,0.7 2.8,1.3 0.8,0.6 1.5,1.3 2,2.2 0.5,0.9 0.8,1.9 0.8,3.1 0,1.4 -0.4,2.5 -1.2,3.5 -0.8,0.9 -1.8,1.6 -3,1.9 v 0.1 c 0.7,0.2 1.3,0.4 1.9,0.8 0.6,0.4 1.1,0.8 1.5,1.3 0.4,0.5 0.7,1.1 1,1.7 0.3,0.6 0.3,1.4 0.3,2.1 z"
   class="st2" />
	<path
   inkscape:connector-curvature="0"
   id="path516"
   d="m 6024.3,159.6 -4,-1.3 10.8,-27.2 4,1.4 z"
   class="st2" />
	<path
   inkscape:connector-curvature="0"
   id="path518"
   d="m 6037.5,157.8 v -4.9 l 9.7,-8.7 c 0.6,-0.6 1.1,-1.2 1.5,-1.8 0.4,-0.6 0.6,-1.3 0.6,-2 0,-0.9 -0.3,-1.6 -0.8,-2.1 -0.6,-0.5 -1.3,-0.8 -2.2,-0.8 -1,0 -1.8,0.3 -2.4,1 -0.6,0.7 -1,1.6 -1.1,2.7 l -5.6,-0.8 c 0.1,-1.3 0.5,-2.4 1,-3.4 0.5,-1 1.2,-1.8 2.1,-2.5 0.9,-0.7 1.8,-1.2 2.9,-1.6 1.1,-0.4 2.2,-0.5 3.4,-0.5 1.1,0 2.3,0.2 3.3,0.5 1.1,0.3 2,0.8 2.9,1.4 0.9,0.6 1.5,1.4 2,2.4 0.5,1 0.8,2.1 0.8,3.4 0,0.9 -0.1,1.7 -0.3,2.4 -0.2,0.7 -0.6,1.4 -1,2 -0.4,0.6 -0.9,1.2 -1.4,1.7 -0.5,0.5 -1.1,1 -1.6,1.6 l -5.7,5.1 h 10.1 v 5.1 h -18.2 z"
   class="st2" />
	<path
   inkscape:connector-curvature="0"
   id="path520"
   d="m 6078.8,145.4 c 0,1.8 -0.2,3.4 -0.5,5 -0.3,1.6 -0.9,3 -1.7,4.2 -0.8,1.2 -1.8,2.2 -3,2.9 -1.2,0.7 -2.7,1.1 -4.5,1.1 -1.8,0 -3.2,-0.4 -4.5,-1.1 -1.2,-0.7 -2.2,-1.7 -3,-2.9 -0.8,-1.2 -1.3,-2.6 -1.7,-4.2 -0.3,-1.6 -0.5,-3.3 -0.5,-5 0,-1.7 0.2,-3.4 0.5,-5 0.4,-1.6 0.9,-3 1.7,-4.1 0.8,-1.2 1.8,-2.1 3,-2.8 1.2,-0.7 2.7,-1.1 4.5,-1.1 1.8,0 3.2,0.4 4.5,1.1 1.2,0.7 2.2,1.6 3,2.8 0.8,1.2 1.3,2.6 1.7,4.1 0.3,1.5 0.5,3.2 0.5,5 z m -6.1,0 c 0,-0.8 0,-1.6 -0.1,-2.6 -0.1,-0.9 -0.3,-1.8 -0.5,-2.6 -0.3,-0.8 -0.6,-1.5 -1.1,-2 -0.5,-0.5 -1.1,-0.8 -1.9,-0.8 -0.8,0 -1.4,0.3 -1.9,0.8 -0.5,0.5 -0.9,1.2 -1.1,2 -0.3,0.8 -0.4,1.7 -0.5,2.6 -0.1,0.9 -0.1,1.8 -0.1,2.6 0,0.8 0,1.7 0.1,2.6 0.1,0.9 0.3,1.8 0.5,2.6 0.3,0.8 0.6,1.5 1.1,2 0.5,0.5 1.1,0.8 1.9,0.8 0.8,0 1.4,-0.3 1.9,-0.8 0.5,-0.5 0.8,-1.2 1.1,-2 0.3,-0.8 0.4,-1.7 0.5,-2.6 0.1,-1 0.1,-1.9 0.1,-2.6 z"
   class="st2" />
</g>
<g
   transform="translate(-5912.2,-175.2)"
   id="g526">
	<rect
   id="rect524"
   height="7"
   width="62.599998"
   class="st1"
   y="29.9"
   x="7633.1001" />
</g>
<g
   transform="translate(-5912.2,-175.2)"
   id="g530">
	<rect
   id="rect528"
   height="7"
   width="62.599998"
   class="st1"
   y="45.900002"
   x="7633.1001" />
</g>
<g
   transform="translate(-5912.2,-175.2)"
   id="g534">
	<rect
   id="rect532"
   height="7"
   width="62.599998"
   class="st1"
   y="61.900002"
   x="7633.1001" />
</g>
<g
   transform="translate(-5912.2,-175.2)"
   id="g538">
	<rect
   id="rect536"
   height="5"
   width="168.7"
   class="st0"
   y="245.60001"
   x="5954.8999" />
</g>
<g
   transform="translate(-5912.2,-175.2)"
   id="g542">
	<rect
   id="rect540"
   height="5"
   width="168.7"
   class="st0"
   y="275.60001"
   x="5954.8999" />
</g>
<g
   transform="translate(-5912.2,-175.2)"
   id="g546">
	<rect
   id="rect544"
   height="5"
   width="168.7"
   class="st0"
   y="305.60001"
   x="5954.8999" />
</g>
<g
   transform="translate(-5912.2,-175.2)"
   id="g550">
	<rect
   id="rect548"
   height="5"
   width="168.7"
   class="st0"
   y="335.60001"
   x="5954.8999" />
</g>
<g
   transform="translate(-5912.2,-175.2)"
   id="g554">
	<rect
   id="rect552"
   height="5"
   width="168.7"
   class="st0"
   y="365.60001"
   x="5954.8999" />
</g>
<g
   transform="translate(-5912.2,-175.2)"
   id="g558">
	<rect
   id="rect556"
   height="5"
   width="168.7"
   class="st0"
   y="395.60001"
   x="5954.8999" />
</g>
<g
   transform="translate(-5912.2,-175.2)"
   id="g562">
	<rect
   id="rect560"
   height="5"
   width="168.7"
   class="st0"
   y="425.60001"
   x="5954.8999" />
</g>
<g
   transform="translate(-5912.2,-175.2)"
   id="g566">
	<rect
   id="rect564"
   height="5"
   width="168.7"
   class="st0"
   y="725.59998"
   x="5957.8999" />
</g>
<g
   transform="translate(-5912.2,-175.2)"
   id="g570">
	<rect
   id="rect568"
   height="5"
   width="168.7"
   class="st0"
   y="755.59998"
   x="5957.8999" />
</g>
<g
   transform="translate(-5912.2,-175.2)"
   id="g574">
	<rect
   id="rect572"
   height="5"
   width="168.7"
   class="st0"
   y="785.59998"
   x="5957.8999" />
</g>
<g
   transform="translate(-5912.2,-175.2)"
   id="g578">
	<rect
   id="rect576"
   height="5"
   width="168.7"
   class="st0"
   y="815.59998"
   x="5957.8999" />
</g>
<g
   transform="translate(-5912.2,-175.2)"
   id="g582">
	<rect
   id="rect580"
   height="5"
   width="168.7"
   class="st0"
   y="845.59998"
   x="5957.8999" />
</g>
<g
   transform="translate(-5912.2,-175.2)"
   id="g586">
	<rect
   id="rect584"
   height="5"
   width="168.7"
   class="st0"
   y="875.59998"
   x="5957.8999" />
</g>
<g
   transform="translate(-5912.2,-175.2)"
   id="g590">
	<rect
   id="rect588"
   height="5"
   width="168.7"
   class="st0"
   y="905.59998"
   x="5957.8999" />
</g>
<g
   transform="translate(-5912.2,-175.2)"
   id="g594">
	<path
   inkscape:connector-curvature="0"
   id="path592"
   d="m 7558,234.7 c -16,0 -29.1,-13 -29.1,-29.1 0,-16 13,-29.1 29.1,-29.1 16.1,0 29.1,13 29.1,29.1 0,16 -13.1,29.1 -29.1,29.1 z m 0,-53.1 c -13.2,0 -24,10.8 -24,24 0,13.2 10.8,24 24,24 13.2,0 24,-10.8 24,-24 0,-13.2 -10.8,-24 -24,-24 z"
   class="st2" />
</g>
<g
   transform="translate(-5912.2,-175.2)"
   id="g598">
	<rect
   id="rect596"
   height="5"
   width="29.9"
   class="st2"
   y="203.10001"
   x="7543.1001" />
</g>
<g
   transform="translate(-5912.2,-175.2)"
   id="g602">
	<rect
   id="rect600"
   height="29.9"
   width="5"
   class="st2"
   y="190.7"
   x="7555.5" />
</g>
</svg>
