<?xml version="1.0" encoding="UTF-8" standalone="no"?>
<svg
   xmlns:dc="http://purl.org/dc/elements/1.1/"
   xmlns:cc="http://creativecommons.org/ns#"
   xmlns:rdf="http://www.w3.org/1999/02/22-rdf-syntax-ns#"
   xmlns:svg="http://www.w3.org/2000/svg"
   xmlns="http://www.w3.org/2000/svg"
   xmlns:sodipodi="http://sodipodi.sourceforge.net/DTD/sodipodi-0.dtd"
   xmlns:inkscape="http://www.inkscape.org/namespaces/inkscape"
   inkscape:version="1.0beta2 (unknown)"
   height="103.4"
   width="527.20032"
   sodipodi:docname="DIARIOMERDA.svg"
   xml:space="preserve"
   viewBox="0 0 527.20032 103.4"
   y="0px"
   x="0px"
   id="Livello_1"
   version="1.1"><metadata
   id="metadata2410"><rdf:RDF><cc:Work
       rdf:about=""><dc:format>image/svg+xml</dc:format><dc:type
         rdf:resource="http://purl.org/dc/dcmitype/StillImage" /><dc:title></dc:title></cc:Work></rdf:RDF></metadata><defs
   id="defs2408" /><sodipodi:namedview
   inkscape:current-layer="Livello_1"
   inkscape:window-maximized="1"
   inkscape:window-y="0"
   inkscape:window-x="0"
   inkscape:cy="-208.9"
   inkscape:cx="377.2282"
   inkscape:zoom="0.33589188"
   fit-margin-bottom="0"
   fit-margin-right="0"
   fit-margin-left="0"
   fit-margin-top="0"
   showgrid="false"
   id="namedview2406"
   inkscape:window-height="995"
   inkscape:window-width="1920"
   inkscape:pageshadow="2"
   inkscape:pageopacity="0"
   guidetolerance="10"
   gridtolerance="10"
   objecttolerance="10"
   borderopacity="1"
   inkscape:document-rotation="0"
   bordercolor="#666666"
   pagecolor="#ffffff" />
<style
   id="style1803"
   type="text/css">
	.st0{fill:#94C7C1;}
	.st1{fill:#FFFFFF;}
	.st2{fill:#E30613;}
	.st3{opacity:0.19;}
</style>















<g
   transform="translate(-2636.4,-748.9)"
   id="g1967">
	<path
   inkscape:connector-curvature="0"
   id="path1965"
   d="m 3111.9,852.3 h -423.8 c -28.6,0 -51.7,-23.2 -51.7,-51.7 v 0 c 0,-28.6 23.2,-51.7 51.7,-51.7 h 423.8 c 28.6,0 51.7,23.2 51.7,51.7 v 0 c 0.1,28.6 -23.1,51.7 -51.7,51.7 z"
   class="st1" />
</g>
<g
   transform="translate(-2636.4,-748.9)"
   id="g1971">
	<path
   inkscape:connector-curvature="0"
   id="path1969"
   d="m 3108.6,843.5 h -417.2 c -23.1,0 -41.9,-18.8 -41.9,-41.9 0,-23.1 18.8,-41.9 41.9,-41.9 h 417.2 c 23.1,0 41.9,18.8 41.9,41.9 0,23.1 -18.8,41.9 -41.9,41.9 z m -417.2,-77.7 c -19.8,0 -35.9,16.1 -35.9,35.9 0,19.8 16.1,35.9 35.9,35.9 h 417.2 c 19.8,0 35.9,-16.1 35.9,-35.9 0,-19.8 -16.1,-35.9 -35.9,-35.9 z"
   class="st0" />
</g>


<g
   transform="translate(-2636.4,-748.9)"
   id="g1997">
	<path
   inkscape:connector-curvature="0"
   id="path1981"
   d="m 2798,817.8 -7.7,-14 h -2.9 v 14 h -8.3 v -35.4 h 13.5 c 1.7,0 3.4,0.2 5,0.5 1.6,0.3 3.1,0.9 4.4,1.8 1.3,0.8 2.3,1.9 3.1,3.3 0.8,1.4 1.2,3.1 1.2,5.1 0,2.4 -0.7,4.4 -2,6 -1.3,1.6 -3.1,2.8 -5.4,3.5 l 9.2,15.2 z m -0.4,-24.6 c 0,-0.8 -0.2,-1.5 -0.5,-2 -0.4,-0.5 -0.8,-0.9 -1.4,-1.2 -0.6,-0.3 -1.2,-0.5 -1.9,-0.6 -0.7,-0.1 -1.3,-0.1 -2,-0.1 h -4.6 v 8.2 h 4.1 c 0.7,0 1.4,-0.1 2.2,-0.2 0.7,-0.1 1.4,-0.3 2,-0.6 0.6,-0.3 1.1,-0.7 1.5,-1.3 0.4,-0.6 0.6,-1.3 0.6,-2.2 z"
   class="st0" />
	<path
   inkscape:connector-curvature="0"
   id="path1983"
   d="m 2812.2,817.8 v -35.4 h 23.8 v 7.2 h -15.6 v 6.7 h 14.7 v 6.8 h -14.7 v 7.4 h 16.5 v 7.3 z"
   class="st0" />
	<path
   inkscape:connector-curvature="0"
   id="path1985"
   d="m 2867.9,817.8 c -2.3,0.6 -4.8,0.8 -7.6,0.8 -2.8,0 -5.4,-0.4 -7.8,-1.3 -2.4,-0.9 -4.4,-2.2 -6.2,-3.8 -1.7,-1.6 -3.1,-3.6 -4,-5.9 -1,-2.3 -1.5,-4.8 -1.5,-7.6 0,-2.8 0.5,-5.4 1.5,-7.7 1,-2.3 2.3,-4.3 4.1,-5.9 1.7,-1.6 3.8,-2.9 6.1,-3.7 2.3,-0.8 4.9,-1.3 7.6,-1.3 2.8,0 5.4,0.4 7.8,1.3 2.4,0.8 4.3,2 5.8,3.4 l -5.4,6.2 c -0.8,-1 -1.9,-1.8 -3.3,-2.4 -1.4,-0.6 -2.9,-0.9 -4.6,-0.9 -1.5,0 -2.9,0.3 -4.2,0.8 -1.3,0.6 -2.4,1.3 -3.3,2.3 -0.9,1 -1.7,2.1 -2.2,3.5 -0.5,1.3 -0.8,2.8 -0.8,4.4 0,1.6 0.2,3.1 0.7,4.5 0.5,1.4 1.2,2.5 2.1,3.5 0.9,1 2,1.8 3.4,2.3 1.4,0.5 2.9,0.8 4.6,0.8 1,0 2,-0.1 2.9,-0.2 0.9,-0.2 1.7,-0.4 2.5,-0.7 v -6.5 h -6.8 v -6.9 h 14.6 v 18.8 c -1.7,0.9 -3.7,1.6 -6,2.2 z"
   class="st0" />
	<path
   inkscape:connector-curvature="0"
   id="path1987"
   d="m 2881,817.8 v -35.4 h 8.6 v 35.4 z"
   class="st0" />
	<path
   inkscape:connector-curvature="0"
   id="path1989"
   d="m 2915.5,791.5 c -0.7,-0.9 -1.7,-1.7 -2.9,-2.2 -1.2,-0.6 -2.3,-0.8 -3.4,-0.8 -0.6,0 -1.1,0 -1.7,0.1 -0.6,0.1 -1.1,0.3 -1.6,0.6 -0.5,0.3 -0.9,0.7 -1.2,1.1 -0.3,0.4 -0.5,1 -0.5,1.7 0,0.6 0.1,1.1 0.4,1.5 0.3,0.4 0.6,0.8 1.1,1 0.5,0.3 1.1,0.6 1.7,0.8 0.6,0.2 1.4,0.5 2.2,0.8 1.2,0.4 2.5,0.8 3.8,1.3 1.3,0.5 2.5,1.1 3.6,1.9 1.1,0.8 1.9,1.8 2.6,3 0.7,1.2 1,2.7 1,4.4 0,2 -0.4,3.8 -1.1,5.3 -0.7,1.5 -1.8,2.7 -3,3.7 -1.3,1 -2.7,1.7 -4.4,2.2 -1.6,0.5 -3.3,0.7 -5,0.7 -2.5,0 -5,-0.4 -7.3,-1.3 -2.4,-0.9 -4.3,-2.1 -5.9,-3.8 l 5.6,-5.7 c 0.9,1.1 2,2 3.4,2.7 1.4,0.7 2.8,1.1 4.2,1.1 0.6,0 1.2,-0.1 1.9,-0.2 0.6,-0.1 1.1,-0.3 1.6,-0.6 0.5,-0.3 0.8,-0.7 1.1,-1.2 0.3,-0.5 0.4,-1.1 0.4,-1.8 0,-0.7 -0.2,-1.2 -0.5,-1.7 -0.3,-0.5 -0.8,-0.9 -1.4,-1.3 -0.6,-0.4 -1.4,-0.7 -2.3,-1 -0.9,-0.3 -2,-0.7 -3.1,-1 -1.1,-0.4 -2.2,-0.8 -3.3,-1.3 -1.1,-0.5 -2.1,-1.1 -2.9,-1.9 -0.8,-0.8 -1.5,-1.7 -2,-2.8 -0.5,-1.1 -0.8,-2.5 -0.8,-4.1 0,-2 0.4,-3.7 1.2,-5 0.8,-1.4 1.8,-2.5 3.2,-3.5 1.3,-0.9 2.8,-1.6 4.4,-2 1.6,-0.4 3.3,-0.6 5,-0.6 2,0 4,0.4 6.1,1.1 2.1,0.7 3.9,1.8 5.5,3.2 z"
   class="st0" />
	<path
   inkscape:connector-curvature="0"
   id="path1991"
   d="m 2940.9,789.6 v 28.1 h -8.5 v -28.1 h -10 v -7.3 h 28.5 v 7.3 z"
   class="st0" />
	<path
   inkscape:connector-curvature="0"
   id="path1993"
   d="m 2954.8,817.8 v -35.4 h 23.8 v 7.2 H 2963 v 6.7 h 14.7 v 6.8 H 2963 v 7.4 h 16.4 v 7.3 z"
   class="st0" />
	<path
   inkscape:connector-curvature="0"
   id="path1995"
   d="m 3004.1,817.8 -7.7,-14 h -2.9 v 14 h -8.3 v -35.4 h 13.5 c 1.7,0 3.4,0.2 5,0.5 1.6,0.3 3.1,0.9 4.3,1.8 1.3,0.8 2.3,1.9 3.1,3.3 0.8,1.4 1.2,3.1 1.2,5.1 0,2.4 -0.7,4.4 -2,6 -1.3,1.6 -3.1,2.8 -5.4,3.5 l 9.2,15.2 z m -0.4,-24.6 c 0,-0.8 -0.2,-1.5 -0.5,-2 -0.4,-0.5 -0.8,-0.9 -1.4,-1.2 -0.6,-0.3 -1.2,-0.5 -1.9,-0.6 -0.7,-0.1 -1.3,-0.1 -2,-0.1 h -4.6 v 8.2 h 4.1 c 0.7,0 1.4,-0.1 2.2,-0.2 0.7,-0.1 1.4,-0.3 2,-0.6 0.6,-0.3 1.1,-0.7 1.5,-1.3 0.5,-0.6 0.6,-1.3 0.6,-2.2 z"
   class="st0" />
</g>



























































</svg>
