<?xml version="1.0" encoding="UTF-8"?>
<svg version="1.1" viewBox="0 0 527.2 103.4" xml:space="preserve" xmlns="http://www.w3.org/2000/svg" xmlns:cc="http://creativecommons.org/ns#" xmlns:dc="http://purl.org/dc/elements/1.1/" xmlns:rdf="http://www.w3.org/1999/02/22-rdf-syntax-ns#"><metadata><rdf:RDF><cc:Work rdf:about=""><dc:format>image/svg+xml</dc:format><dc:type rdf:resource="http://purl.org/dc/dcmitype/StillImage"/><dc:title/></cc:Work></rdf:RDF></metadata>
<style type="text/css">
	.st0{fill:#94C7C1;}
	.st1{fill:#FFFFFF;}
	.st2{fill:#E30613;}
	.st3{opacity:0.19;}
</style>













<g transform="translate(-2636.4,-748.9)">
	<rect class="st0" x="1940" width="1920" height="1080"/>
</g>
<g transform="translate(-2636.4,-748.9)">
	<path class="st1" d="m3111.9 551.7h-423.8c-28.6 0-51.7-23.2-51.7-51.7 0-28.6 23.2-51.7 51.7-51.7h423.8c28.6 0 51.7 23.2 51.7 51.7 0.1 28.6-23.1 51.7-51.7 51.7z"/>
</g>
<g transform="translate(-2636.4,-748.9)">
	<path class="st1" d="m3111.9 852.3h-423.8c-28.6 0-51.7-23.2-51.7-51.7 0-28.6 23.2-51.7 51.7-51.7h423.8c28.6 0 51.7 23.2 51.7 51.7 0.1 28.6-23.1 51.7-51.7 51.7z"/>
</g>
<g transform="translate(-2636.4,-748.9)">
	<path class="st0" d="m3108.6 843.5h-417.2c-23.1 0-41.9-18.8-41.9-41.9s18.8-41.9 41.9-41.9h417.2c23.1 0 41.9 18.8 41.9 41.9s-18.8 41.9-41.9 41.9zm-417.2-77.7c-19.8 0-35.9 16.1-35.9 35.9s16.1 35.9 35.9 35.9h417.2c19.8 0 35.9-16.1 35.9-35.9s-16.1-35.9-35.9-35.9z"/>
</g>
<g transform="translate(-2636.4,-748.9)">
	<path class="st0" d="m3108.6 541.9h-417.2c-23.1 0-41.9-18.8-41.9-41.9s18.8-41.9 41.9-41.9h417.2c23.1 0 41.9 18.8 41.9 41.9s-18.8 41.9-41.9 41.9zm-417.2-77.8c-19.8 0-35.9 16.1-35.9 35.9s16.1 35.9 35.9 35.9h417.2c19.8 0 35.9-16.1 35.9-35.9s-16.1-35.9-35.9-35.9z"/>
</g>
<g transform="translate(-2636.4,-748.9)">
	<path class="st1" d="m3111.9 425.8h-423.8c-28.6 0-51.7-23.2-51.7-51.7 0-28.6 23.2-51.7 51.7-51.7h423.8c28.6 0 51.7 23.2 51.7 51.7 0.1 28.5-23.1 51.7-51.7 51.7z"/>
</g>
<g transform="translate(-2636.4,-748.9)">
	<path class="st0" d="m2798 817.8-7.7-14h-2.9v14h-8.3v-35.4h13.5c1.7 0 3.4 0.2 5 0.5s3.1 0.9 4.4 1.8c1.3 0.8 2.3 1.9 3.1 3.3s1.2 3.1 1.2 5.1c0 2.4-0.7 4.4-2 6s-3.1 2.8-5.4 3.5l9.2 15.2zm-0.4-24.6c0-0.8-0.2-1.5-0.5-2-0.4-0.5-0.8-0.9-1.4-1.2s-1.2-0.5-1.9-0.6-1.3-0.1-2-0.1h-4.6v8.2h4.1c0.7 0 1.4-0.1 2.2-0.2 0.7-0.1 1.4-0.3 2-0.6s1.1-0.7 1.5-1.3 0.6-1.3 0.6-2.2z"/>
	<path class="st0" d="m2812.2 817.8v-35.4h23.8v7.2h-15.6v6.7h14.7v6.8h-14.7v7.4h16.5v7.3z"/>
	<path class="st0" d="m2867.9 817.8c-2.3 0.6-4.8 0.8-7.6 0.8s-5.4-0.4-7.8-1.3-4.4-2.2-6.2-3.8c-1.7-1.6-3.1-3.6-4-5.9-1-2.3-1.5-4.8-1.5-7.6s0.5-5.4 1.5-7.7 2.3-4.3 4.1-5.9c1.7-1.6 3.8-2.9 6.1-3.7s4.9-1.3 7.6-1.3c2.8 0 5.4 0.4 7.8 1.3 2.4 0.8 4.3 2 5.8 3.4l-5.4 6.2c-0.8-1-1.9-1.8-3.3-2.4s-2.9-0.9-4.6-0.9c-1.5 0-2.9 0.3-4.2 0.8-1.3 0.6-2.4 1.3-3.3 2.3s-1.7 2.1-2.2 3.5c-0.5 1.3-0.8 2.8-0.8 4.4s0.2 3.1 0.7 4.5 1.2 2.5 2.1 3.5 2 1.8 3.4 2.3 2.9 0.8 4.6 0.8c1 0 2-0.1 2.9-0.2 0.9-0.2 1.7-0.4 2.5-0.7v-6.5h-6.8v-6.9h14.6v18.8c-1.7 0.9-3.7 1.6-6 2.2z"/>
	<path class="st0" d="m2881 817.8v-35.4h8.6v35.4z"/>
	<path class="st0" d="m2915.5 791.5c-0.7-0.9-1.7-1.7-2.9-2.2-1.2-0.6-2.3-0.8-3.4-0.8-0.6 0-1.1 0-1.7 0.1s-1.1 0.3-1.6 0.6-0.9 0.7-1.2 1.1-0.5 1-0.5 1.7c0 0.6 0.1 1.1 0.4 1.5s0.6 0.8 1.1 1c0.5 0.3 1.1 0.6 1.7 0.8s1.4 0.5 2.2 0.8c1.2 0.4 2.5 0.8 3.8 1.3s2.5 1.1 3.6 1.9 1.9 1.8 2.6 3 1 2.7 1 4.4c0 2-0.4 3.8-1.1 5.3s-1.8 2.7-3 3.7c-1.3 1-2.7 1.7-4.4 2.2-1.6 0.5-3.3 0.7-5 0.7-2.5 0-5-0.4-7.3-1.3-2.4-0.9-4.3-2.1-5.9-3.8l5.6-5.7c0.9 1.1 2 2 3.4 2.7s2.8 1.1 4.2 1.1c0.6 0 1.2-0.1 1.9-0.2 0.6-0.1 1.1-0.3 1.6-0.6s0.8-0.7 1.1-1.2 0.4-1.1 0.4-1.8-0.2-1.2-0.5-1.7-0.8-0.9-1.4-1.3-1.4-0.7-2.3-1-2-0.7-3.1-1c-1.1-0.4-2.2-0.8-3.3-1.3s-2.1-1.1-2.9-1.9-1.5-1.7-2-2.8-0.8-2.5-0.8-4.1c0-2 0.4-3.7 1.2-5 0.8-1.4 1.8-2.5 3.2-3.5 1.3-0.9 2.8-1.6 4.4-2s3.3-0.6 5-0.6c2 0 4 0.4 6.1 1.1s3.9 1.8 5.5 3.2z"/>
	<path class="st0" d="m2940.9 789.6v28.1h-8.5v-28.1h-10v-7.3h28.5v7.3z"/>
	<path class="st0" d="m2954.8 817.8v-35.4h23.8v7.2h-15.6v6.7h14.7v6.8h-14.7v7.4h16.4v7.3z"/>
	<path class="st0" d="m3004.1 817.8-7.7-14h-2.9v14h-8.3v-35.4h13.5c1.7 0 3.4 0.2 5 0.5s3.1 0.9 4.3 1.8c1.3 0.8 2.3 1.9 3.1 3.3s1.2 3.1 1.2 5.1c0 2.4-0.7 4.4-2 6s-3.1 2.8-5.4 3.5l9.2 15.2zm-0.4-24.6c0-0.8-0.2-1.5-0.5-2-0.4-0.5-0.8-0.9-1.4-1.2s-1.2-0.5-1.9-0.6-1.3-0.1-2-0.1h-4.6v8.2h4.1c0.7 0 1.4-0.1 2.2-0.2 0.7-0.1 1.4-0.3 2-0.6s1.1-0.7 1.5-1.3c0.5-0.6 0.6-1.3 0.6-2.2z"/>
</g>
<g transform="translate(-2636.4,-748.9)">
	<path class="st0" d="m2825.6 501.1c0 1.4-0.2 2.7-0.6 4s-1 2.4-1.9 3.4c-0.8 1-1.8 1.8-3 2.3-1.2 0.6-2.5 0.9-4 0.9-1.2 0-2.4-0.2-3.5-0.7s-1.9-1.2-2.6-2h-0.1v11.8h-6.6v-29.5h6.2v2.4h0.1c0.6-0.8 1.5-1.5 2.5-2.1s2.4-0.9 3.8-0.9 2.7 0.3 3.9 0.8c1.2 0.6 2.2 1.3 3 2.3s1.4 2.1 1.9 3.3c0.7 1.3 0.9 2.7 0.9 4zm-6.4 0c0-0.6-0.1-1.3-0.3-1.9s-0.5-1.2-0.9-1.6c-0.4-0.5-0.9-0.8-1.5-1.1s-1.3-0.4-2-0.4-1.4 0.1-2 0.4-1.1 0.7-1.5 1.2-0.7 1-1 1.6c-0.2 0.6-0.3 1.2-0.3 1.9s0.1 1.3 0.3 1.9 0.5 1.2 1 1.6c0.4 0.5 0.9 0.9 1.5 1.2s1.3 0.4 2 0.4c0.8 0 1.5-0.1 2-0.4 0.6-0.3 1.1-0.7 1.5-1.2s0.7-1 0.9-1.7c0.2-0.6 0.3-1.2 0.3-1.9z"/>
	<path class="st0" d="m2829.4 494c1.2-1.1 2.5-2 4.1-2.5 1.6-0.6 3.2-0.8 4.8-0.8 1.7 0 3.1 0.2 4.3 0.6s2.1 1.1 2.8 1.9c0.7 0.9 1.2 2 1.6 3.3 0.3 1.3 0.5 2.9 0.5 4.7v10h-6v-2.1h-0.1c-0.5 0.8-1.3 1.5-2.3 1.9s-2.1 0.7-3.3 0.7c-0.8 0-1.6-0.1-2.5-0.3s-1.6-0.6-2.3-1c-0.7-0.5-1.3-1.1-1.7-1.9-0.5-0.8-0.7-1.8-0.7-3 0-1.4 0.4-2.6 1.2-3.5s1.8-1.6 3-2c1.2-0.5 2.6-0.8 4.1-1s3-0.2 4.4-0.2v-0.3c0-1-0.3-1.7-1-2.2s-1.5-0.7-2.6-0.7c-0.9 0-1.8 0.2-2.7 0.6s-1.6 0.9-2.2 1.4zm12.1 8.5h-0.8c-0.7 0-1.4 0-2.2 0.1-0.7 0.1-1.4 0.2-2 0.4s-1 0.5-1.4 0.8c-0.4 0.4-0.6 0.8-0.6 1.4 0 0.4 0.1 0.7 0.3 1s0.4 0.5 0.7 0.6c0.3 0.2 0.6 0.3 0.9 0.3 0.3 0.1 0.7 0.1 1 0.1 1.3 0 2.4-0.4 3.1-1.1s1.1-1.7 1.1-3v-0.6z"/>
	<path class="st0" d="m2864.1 497.1c-0.5-0.5-1.2-0.9-1.9-1.3-0.7-0.3-1.5-0.5-2.3-0.5-0.6 0-1.2 0.1-1.7 0.4-0.5 0.2-0.8 0.7-0.8 1.2 0 0.6 0.3 1 0.9 1.2s1.5 0.5 2.8 0.8c0.7 0.2 1.5 0.4 2.3 0.7s1.4 0.7 2.1 1.2 1.1 1.1 1.5 1.8 0.6 1.5 0.6 2.5c0 1.3-0.3 2.3-0.8 3.2s-1.2 1.6-2 2.1-1.7 0.9-2.7 1.2c-1 0.2-2 0.4-3 0.4-1.6 0-3.2-0.3-4.8-0.8s-2.9-1.3-3.9-2.3l3.7-3.9c0.6 0.6 1.3 1.2 2.2 1.6s1.8 0.6 2.7 0.6c0.5 0 1.1-0.1 1.6-0.4s0.8-0.7 0.8-1.3-0.3-1.1-1-1.4c-0.6-0.3-1.6-0.6-3-0.9l-2.1-0.6c-0.7-0.3-1.3-0.6-1.9-1.1-0.5-0.5-1-1-1.3-1.7s-0.5-1.5-0.5-2.4c0-1.2 0.3-2.2 0.8-3.1s1.2-1.5 2-2.1c0.8-0.5 1.7-0.9 2.7-1.2s1.9-0.4 2.9-0.4c1.5 0 3 0.2 4.4 0.7s2.6 1.2 3.6 2.1z"/>
	<path class="st0" d="m2883 497.1c-0.5-0.5-1.2-0.9-1.9-1.3-0.7-0.3-1.5-0.5-2.3-0.5-0.6 0-1.2 0.1-1.7 0.4-0.5 0.2-0.8 0.7-0.8 1.2 0 0.6 0.3 1 0.9 1.2s1.5 0.5 2.8 0.8c0.7 0.2 1.5 0.4 2.3 0.7s1.4 0.7 2.1 1.2c0.6 0.5 1.1 1.1 1.5 1.8s0.6 1.5 0.6 2.5c0 1.3-0.3 2.3-0.8 3.2s-1.2 1.6-2 2.1-1.7 0.9-2.7 1.2c-1 0.2-2 0.4-3 0.4-1.6 0-3.2-0.3-4.8-0.8s-2.9-1.3-3.9-2.3l3.7-3.9c0.6 0.6 1.3 1.2 2.2 1.6s1.8 0.6 2.7 0.6c0.5 0 1.1-0.1 1.6-0.4s0.8-0.7 0.8-1.3-0.3-1.1-1-1.4c-0.6-0.3-1.6-0.6-3-0.9l-2.1-0.6c-0.7-0.3-1.3-0.6-1.9-1.1-0.5-0.5-1-1-1.3-1.7s-0.5-1.5-0.5-2.4c0-1.2 0.3-2.2 0.8-3.1 0.5-0.8 1.2-1.5 2-2.1 0.8-0.5 1.7-0.9 2.7-1.2s1.9-0.4 2.9-0.4c1.5 0 3 0.2 4.4 0.7s2.6 1.2 3.6 2.1z"/>
	<path class="st0" d="m2915.5 511.2h-6.6l-3.9-12.4h-0.1l-3.8 12.4h-6.6l-6.9-19.9h7.1l3.4 12.6h0.1l3.6-12.6h6.6l3.7 12.6h0.1l3.5-12.6h6.8z"/>
	<path class="st0" d="m2946.1 501.1c0 1.6-0.3 3.1-0.9 4.4s-1.4 2.4-2.4 3.4c-1 0.9-2.2 1.6-3.5 2.1s-2.8 0.8-4.3 0.8-2.9-0.3-4.3-0.8-2.5-1.2-3.5-2.1-1.8-2-2.4-3.4c-0.6-1.3-0.9-2.8-0.9-4.4s0.3-3.1 0.9-4.4 1.4-2.4 2.4-3.3 2.2-1.6 3.5-2.1 2.8-0.7 4.3-0.7 2.9 0.2 4.3 0.7 2.5 1.2 3.5 2.1 1.8 2 2.4 3.3c0.6 1.4 0.9 2.8 0.9 4.4zm-6.3 0c0-0.6-0.1-1.3-0.3-1.9s-0.5-1.2-0.9-1.6c-0.4-0.5-0.9-0.8-1.5-1.1s-1.3-0.4-2-0.4c-0.8 0-1.5 0.1-2 0.4-0.6 0.3-1.1 0.7-1.5 1.1-0.4 0.5-0.7 1-0.9 1.6s-0.3 1.2-0.3 1.9 0.1 1.3 0.3 1.9 0.5 1.2 0.9 1.7 0.9 0.9 1.5 1.2 1.3 0.4 2 0.4c0.8 0 1.5-0.1 2-0.4 0.6-0.3 1.1-0.7 1.5-1.2s0.7-1 0.9-1.7c0.2-0.6 0.3-1.2 0.3-1.9z"/>
	<path class="st0" d="m2963.2 496.7c-0.3-0.1-0.6-0.1-0.9-0.2h-0.8c-0.9 0-1.6 0.2-2.2 0.5s-1.1 0.7-1.4 1.2c-0.4 0.5-0.6 0.9-0.8 1.5-0.2 0.5-0.2 1-0.2 1.4v10.2h-6.6v-19.9h6.3v2.9h0.1c0.5-1 1.2-1.9 2.2-2.5s2-1 3.2-1h0.8c0.3 0 0.5 0.1 0.6 0.1z"/>
	<path class="st0" d="m2980.4 511.2v-2.6h-0.1c-0.6 1-1.6 1.8-2.7 2.3-1.2 0.5-2.4 0.8-3.8 0.8-1.5 0-2.8-0.3-4-0.9s-2.2-1.4-3-2.3c-0.8-1-1.4-2.1-1.9-3.4-0.4-1.3-0.6-2.6-0.6-4s0.2-2.7 0.7-4c0.4-1.3 1.1-2.4 1.9-3.3 0.8-1 1.8-1.7 3-2.3s2.5-0.8 3.9-0.8c1.5 0 2.7 0.3 3.7 0.8s1.8 1.2 2.4 1.8h0.1v-12.4h6.6v30.2h-6.2zm-0.2-10c0-0.6-0.1-1.3-0.3-1.9s-0.5-1.2-1-1.6-0.9-0.9-1.5-1.2-1.3-0.4-2-0.4c-0.8 0-1.5 0.1-2 0.4-0.6 0.3-1.1 0.7-1.5 1.1-0.4 0.5-0.7 1-0.9 1.6s-0.3 1.2-0.3 1.9 0.1 1.3 0.3 1.9 0.5 1.2 0.9 1.7 0.9 0.9 1.5 1.2 1.3 0.4 2 0.4 1.4-0.1 2-0.4 1.1-0.7 1.5-1.2 0.7-1 1-1.6c0.2-0.6 0.3-1.3 0.3-1.9z"/>
</g>
<g transform="translate(-2636.4,-748.9)">
	<path class="st1" d="m3111.9 677.7h-423.8c-28.6 0-51.7-23.2-51.7-51.7 0-28.6 23.2-51.7 51.7-51.7h423.8c28.6 0 51.7 23.2 51.7 51.7 0.1 28.6-23.1 51.7-51.7 51.7z"/>
</g>
<g transform="translate(-2636.4,-748.9)">
	<path class="st0" d="m3108.6 667.9h-417.2c-23.1 0-41.9-18.8-41.9-41.9s18.8-41.9 41.9-41.9h417.2c23.1 0 41.9 18.8 41.9 41.9s-18.8 41.9-41.9 41.9zm-417.2-77.8c-19.8 0-35.9 16.1-35.9 35.9s16.1 35.9 35.9 35.9h417.2c19.8 0 35.9-16.1 35.9-35.9s-16.1-35.9-35.9-35.9z"/>
</g>
<g transform="translate(-2636.4,-748.9)">
	<path class="st0" d="m2731.6 623.7c-0.4-0.5-0.9-0.9-1.5-1.2s-1.3-0.4-2-0.4-1.3 0.1-1.9 0.4-1 0.7-1.4 1.1c-0.4 0.5-0.7 1-0.9 1.6s-0.3 1.3-0.3 2 0.1 1.3 0.3 2c0.2 0.6 0.5 1.2 0.9 1.6 0.4 0.5 0.9 0.8 1.5 1.1s1.2 0.4 1.9 0.4 1.3-0.1 2-0.4 1.2-0.6 1.6-1.1l3.6 4.4c-0.8 0.8-1.9 1.4-3.2 1.9s-2.7 0.7-4.2 0.7c-1.6 0-3-0.2-4.4-0.7s-2.5-1.2-3.6-2.1c-1-0.9-1.8-2-2.4-3.3s-0.9-2.8-0.9-4.4 0.3-3.1 0.9-4.4 1.4-2.4 2.4-3.3 2.2-1.6 3.6-2.1 2.8-0.7 4.4-0.7c0.7 0 1.4 0.1 2.1 0.2s1.4 0.3 2 0.5c0.7 0.2 1.3 0.5 1.8 0.8s1 0.7 1.4 1.1z"/>
	<path class="st0" d="m2759.1 627.1c0 1.6-0.3 3.1-0.9 4.4s-1.4 2.4-2.4 3.4-2.2 1.6-3.5 2.1-2.8 0.8-4.3 0.8-2.9-0.3-4.3-0.8c-1.3-0.5-2.5-1.2-3.5-2.1s-1.8-2-2.4-3.4c-0.6-1.3-0.9-2.8-0.9-4.4s0.3-3.1 0.9-4.4 1.4-2.4 2.4-3.3 2.2-1.6 3.5-2.1 2.8-0.7 4.3-0.7 2.9 0.2 4.3 0.7c1.3 0.5 2.5 1.2 3.5 2.1s1.8 2 2.4 3.3c0.6 1.4 0.9 2.8 0.9 4.4zm-6.4 0c0-0.6-0.1-1.3-0.3-1.9s-0.5-1.2-0.9-1.6c-0.4-0.5-0.9-0.8-1.5-1.1s-1.3-0.4-2-0.4-1.5 0.1-2 0.4c-0.6 0.3-1.1 0.7-1.5 1.1-0.4 0.5-0.7 1-0.9 1.6s-0.3 1.2-0.3 1.9c0 0.6 0.1 1.3 0.3 1.9s0.5 1.2 0.9 1.7 0.9 0.9 1.5 1.2 1.3 0.4 2 0.4 1.5-0.1 2-0.4c0.6-0.3 1.1-0.7 1.5-1.2s0.7-1 0.9-1.7c0.2-0.6 0.3-1.2 0.3-1.9z"/>
	<path class="st0" d="m2776.3 637.2v-10.9c0-0.6 0-1.1-0.1-1.6s-0.2-1-0.5-1.3c-0.2-0.4-0.5-0.7-0.9-0.9s-0.9-0.3-1.5-0.3-1.1 0.1-1.5 0.3-0.8 0.5-1.1 0.9-0.5 0.9-0.7 1.4c-0.1 0.5-0.2 1.1-0.2 1.6v10.8h-6.6v-19.9h6.4v2.8h0.1c0.2-0.4 0.6-0.8 0.9-1.3 0.4-0.4 0.8-0.8 1.4-1.1 0.5-0.3 1.1-0.5 1.7-0.7s1.3-0.3 2-0.3c1.3 0 2.5 0.2 3.4 0.7s1.7 1.1 2.3 1.9 1 1.6 1.2 2.6c0.3 1 0.4 2 0.4 3v12.3z"/>
	<path class="st0" d="m2800.2 611.8c-0.2-0.1-0.5-0.1-0.8-0.2s-0.6-0.1-1-0.1c-0.6 0-1.1 0.1-1.5 0.3s-0.7 0.5-0.9 0.9-0.4 0.8-0.4 1.2-0.1 0.9-0.1 1.4v2h4.4v4.9h-4.4v15h-6.6v-15h-3.6v-4.9h3.6v-1.9c0-1.2 0.1-2.4 0.4-3.5s0.7-2.1 1.4-2.9 1.5-1.5 2.6-2 2.5-0.7 4.1-0.7c0.6 0 1.1 0 1.7 0.1l1.5 0.3z"/>
	<path class="st0" d="m2822.2 627.5v0.8 0.8h-14.4c0.1 0.6 0.2 1.1 0.5 1.5 0.3 0.5 0.6 0.8 1.1 1.2 0.4 0.3 0.9 0.6 1.5 0.8s1.1 0.3 1.7 0.3c1 0 1.9-0.2 2.6-0.6s1.3-0.9 1.8-1.5l4.6 2.9c-0.9 1.4-2.2 2.4-3.7 3.1s-3.3 1.1-5.3 1.1c-1.5 0-2.9-0.2-4.2-0.7s-2.5-1.1-3.5-2-1.8-2-2.4-3.3-0.9-2.8-0.9-4.5c0-1.6 0.3-3.1 0.8-4.4 0.6-1.3 1.3-2.4 2.3-3.4s2.1-1.6 3.4-2.1 2.7-0.8 4.2-0.8 2.8 0.2 4 0.7 2.3 1.2 3.2 2.1 1.6 2.1 2.1 3.4c0.3 1.3 0.6 2.9 0.6 4.6zm-6.1-2.6c0-1-0.3-1.9-1-2.7-0.7-0.7-1.6-1.1-2.9-1.1-0.6 0-1.2 0.1-1.8 0.3-0.5 0.2-1 0.5-1.4 0.8s-0.7 0.8-1 1.2c-0.2 0.5-0.4 1-0.4 1.5z"/>
	<path class="st0" d="m2839.2 622.7c-0.3-0.1-0.6-0.1-0.9-0.2h-0.8c-0.9 0-1.6 0.2-2.2 0.5s-1.1 0.7-1.4 1.2-0.6 0.9-0.8 1.5c-0.2 0.5-0.2 1-0.2 1.4v10.2h-6.6v-19.9h6.3v2.9h0.1c0.5-1 1.2-1.9 2.2-2.5 0.9-0.6 2-1 3.2-1h0.8c0.3 0 0.5 0.1 0.6 0.1z"/>
	<path class="st0" d="m2867.5 637.2v-10.9c0-0.6 0-1.1-0.1-1.6s-0.2-1-0.4-1.3c-0.2-0.4-0.5-0.7-0.9-0.9s-0.8-0.3-1.4-0.3-1 0.1-1.5 0.4c-0.4 0.2-0.8 0.6-1 1-0.3 0.4-0.5 0.9-0.6 1.4s-0.2 1.1-0.2 1.6v10.8h-6.6v-11.4c0-1.1-0.2-2.1-0.7-2.7-0.5-0.7-1.2-1-2.2-1s-1.8 0.4-2.4 1.2-0.9 1.8-0.9 3v10.8h-6.6v-19.9h6.4v2.8h0.1c0.2-0.4 0.5-0.8 0.9-1.2s0.8-0.8 1.3-1.1 1.1-0.6 1.7-0.7c0.6-0.2 1.3-0.3 2.1-0.3 1.4 0 2.7 0.3 3.7 0.9s1.8 1.4 2.3 2.5c0.7-1 1.5-1.9 2.6-2.5s2.3-0.9 3.8-0.9c1.4 0 2.5 0.2 3.4 0.7s1.7 1.1 2.2 1.9c0.6 0.8 1 1.7 1.2 2.6 0.3 1 0.4 1.9 0.4 2.9v12.3h-6.6z"/>
	<path class="st0" d="m2911.2 627.1c0 1.4-0.2 2.7-0.6 4s-1 2.4-1.9 3.4c-0.8 1-1.8 1.8-3 2.3-1.2 0.6-2.5 0.9-4 0.9-1.2 0-2.4-0.2-3.5-0.7s-1.9-1.2-2.6-2h-0.1v11.8h-6.6v-29.5h6.2v2.4h0.1c0.6-0.8 1.5-1.5 2.5-2.1 1.1-0.6 2.4-0.9 3.8-0.9s2.7 0.3 3.9 0.8c1.2 0.6 2.2 1.3 3 2.3s1.4 2.1 1.9 3.3c0.7 1.3 0.9 2.7 0.9 4zm-6.3 0c0-0.6-0.1-1.3-0.3-1.9s-0.5-1.2-0.9-1.6c-0.4-0.5-0.9-0.8-1.5-1.1s-1.3-0.4-2-0.4-1.4 0.1-2 0.4-1.1 0.7-1.5 1.2-0.7 1-1 1.6c-0.2 0.6-0.3 1.2-0.3 1.9 0 0.6 0.1 1.3 0.3 1.9s0.5 1.2 1 1.6c0.4 0.5 0.9 0.9 1.5 1.2s1.3 0.4 2 0.4c0.8 0 1.5-0.1 2-0.4 0.6-0.3 1.1-0.7 1.5-1.2s0.7-1 0.9-1.7c0.2-0.6 0.3-1.2 0.3-1.9z"/>
	<path class="st0" d="m2915.1 620c1.2-1.1 2.5-2 4.1-2.5 1.6-0.6 3.2-0.8 4.8-0.8 1.7 0 3.1 0.2 4.3 0.6s2.1 1.1 2.8 1.9 1.2 2 1.6 3.3c0.3 1.3 0.5 2.9 0.5 4.7v10h-6v-2.1h-0.1c-0.5 0.8-1.3 1.5-2.3 1.9-1 0.5-2.1 0.7-3.3 0.7-0.8 0-1.6-0.1-2.5-0.3s-1.6-0.6-2.3-1c-0.7-0.5-1.3-1.1-1.7-1.9s-0.7-1.8-0.7-3c0-1.4 0.4-2.6 1.2-3.5s1.8-1.6 3-2c1.2-0.5 2.6-0.8 4.1-1s3-0.2 4.4-0.2v-0.3c0-1-0.3-1.7-1-2.2s-1.5-0.7-2.6-0.7c-0.9 0-1.8 0.2-2.7 0.6s-1.6 0.9-2.2 1.4zm12 8.5h-0.8c-0.7 0-1.4 0-2.2 0.1-0.7 0.1-1.4 0.2-2 0.4s-1 0.5-1.4 0.8-0.6 0.8-0.6 1.4c0 0.4 0.1 0.7 0.3 1s0.4 0.5 0.7 0.6c0.3 0.2 0.6 0.3 0.9 0.3s0.7 0.1 1 0.1c1.3 0 2.4-0.4 3.1-1.1s1.1-1.7 1.1-3v-0.6z"/>
	<path class="st0" d="m2949.7 623.1c-0.5-0.5-1.2-0.9-1.9-1.3s-1.5-0.5-2.3-0.5c-0.6 0-1.2 0.1-1.7 0.4-0.5 0.2-0.8 0.7-0.8 1.2 0 0.6 0.3 1 0.9 1.2s1.5 0.5 2.8 0.8c0.7 0.2 1.5 0.4 2.3 0.7s1.4 0.7 2.1 1.2c0.6 0.5 1.1 1.1 1.5 1.8s0.6 1.5 0.6 2.5c0 1.3-0.3 2.3-0.8 3.2s-1.2 1.6-2 2.1-1.7 0.9-2.7 1.2-2 0.4-3 0.4c-1.6 0-3.2-0.3-4.8-0.8s-2.9-1.3-3.9-2.3l3.7-3.9c0.6 0.6 1.3 1.2 2.2 1.6s1.8 0.6 2.7 0.6c0.5 0 1.1-0.1 1.6-0.4s0.8-0.7 0.8-1.3-0.3-1.1-1-1.4c-0.6-0.3-1.6-0.6-3-0.9l-2.1-0.6c-0.7-0.2-1.3-0.6-1.9-1.1-0.5-0.5-1-1-1.3-1.7s-0.5-1.5-0.5-2.4c0-1.2 0.3-2.2 0.8-3.1 0.5-0.8 1.2-1.5 2-2.1 0.8-0.5 1.7-0.9 2.7-1.2s1.9-0.4 2.9-0.4c1.5 0 3 0.2 4.4 0.7s2.6 1.2 3.6 2.1z"/>
	<path class="st0" d="m2968.6 623.1c-0.5-0.5-1.2-0.9-1.9-1.3-0.7-0.3-1.5-0.5-2.3-0.5-0.6 0-1.2 0.1-1.7 0.4-0.5 0.2-0.8 0.7-0.8 1.2 0 0.6 0.3 1 0.9 1.2s1.5 0.5 2.8 0.8c0.7 0.2 1.5 0.4 2.3 0.7s1.4 0.7 2.1 1.2c0.6 0.5 1.1 1.1 1.5 1.8s0.6 1.5 0.6 2.5c0 1.3-0.3 2.3-0.8 3.2s-1.2 1.6-2 2.1-1.7 0.9-2.7 1.2c-1 0.2-2 0.4-3 0.4-1.6 0-3.2-0.3-4.8-0.8s-2.9-1.3-3.9-2.3l3.7-3.9c0.6 0.6 1.3 1.2 2.2 1.6s1.8 0.6 2.7 0.6c0.5 0 1.1-0.1 1.6-0.4s0.8-0.7 0.8-1.3-0.3-1.1-1-1.4c-0.6-0.3-1.6-0.6-3-0.9l-2.1-0.6c-0.7-0.2-1.3-0.6-1.9-1.1-0.5-0.5-1-1-1.3-1.7s-0.5-1.5-0.5-2.4c0-1.2 0.3-2.2 0.8-3.1s1.2-1.5 2-2.1c0.8-0.5 1.7-0.9 2.7-1.2s1.9-0.4 2.9-0.4c1.5 0 3 0.2 4.4 0.7s2.6 1.2 3.6 2.1z"/>
	<path class="st0" d="m3001.1 637.2h-6.6l-3.9-12.4h-0.1l-3.8 12.4h-6.6l-6.9-19.9h7.1l3.4 12.6h0.1l3.6-12.6h6.6l3.7 12.6h0.1l3.5-12.6h6.8z"/>
	<path class="st0" d="m3031.7 627.1c0 1.6-0.3 3.1-0.9 4.4s-1.4 2.4-2.4 3.4c-1 0.9-2.2 1.6-3.5 2.1s-2.8 0.8-4.3 0.8-2.9-0.3-4.3-0.8c-1.3-0.5-2.5-1.2-3.5-2.1s-1.8-2-2.4-3.4c-0.6-1.3-0.9-2.8-0.9-4.4s0.3-3.1 0.9-4.4 1.4-2.4 2.4-3.3 2.2-1.6 3.5-2.1 2.8-0.7 4.3-0.7 2.9 0.2 4.3 0.7c1.3 0.5 2.5 1.2 3.5 2.1s1.8 2 2.4 3.3 0.9 2.8 0.9 4.4zm-6.3 0c0-0.6-0.1-1.3-0.3-1.9s-0.5-1.2-0.9-1.6c-0.4-0.5-0.9-0.8-1.5-1.1s-1.3-0.4-2-0.4-1.5 0.1-2 0.4c-0.6 0.3-1.1 0.7-1.5 1.1-0.4 0.5-0.7 1-0.9 1.6s-0.3 1.2-0.3 1.9c0 0.6 0.1 1.3 0.3 1.9s0.5 1.2 0.9 1.7 0.9 0.9 1.5 1.2 1.3 0.4 2 0.4 1.5-0.1 2-0.4c0.6-0.3 1.1-0.7 1.5-1.2s0.7-1 0.9-1.7c0.2-0.6 0.3-1.2 0.3-1.9z"/>
	<path class="st0" d="m3048.8 622.7c-0.3-0.1-0.6-0.1-0.9-0.2s-0.6 0-0.8 0c-0.9 0-1.6 0.2-2.2 0.5s-1.1 0.7-1.4 1.2c-0.4 0.5-0.6 0.9-0.8 1.5-0.2 0.5-0.2 1-0.2 1.4v10.2h-6.6v-19.9h6.3v2.9h0.1c0.5-1 1.2-1.9 2.2-2.5 0.9-0.6 2-1 3.2-1h0.8c0.3 0 0.5 0.1 0.6 0.1z"/>
	<path class="st0" d="m3066.1 637.2v-2.6h-0.1c-0.6 1-1.6 1.8-2.7 2.3-1.2 0.5-2.4 0.8-3.8 0.8-1.5 0-2.8-0.3-4-0.9s-2.2-1.4-3-2.3c-0.8-1-1.4-2.1-1.9-3.4-0.4-1.3-0.6-2.6-0.6-4s0.2-2.7 0.7-4c0.4-1.3 1.1-2.4 1.9-3.3s1.8-1.7 3-2.3 2.5-0.8 3.9-0.8c1.5 0 2.7 0.3 3.7 0.8 1 0.6 1.8 1.2 2.4 1.8h0.1v-12.4h6.6v30.2h-6.2zm-0.3-10c0-0.6-0.1-1.3-0.3-1.9s-0.5-1.2-1-1.6c-0.4-0.5-0.9-0.9-1.5-1.2s-1.3-0.4-2-0.4c-0.8 0-1.5 0.1-2 0.4-0.6 0.3-1.1 0.7-1.5 1.1-0.4 0.5-0.7 1-0.9 1.6s-0.3 1.2-0.3 1.9c0 0.6 0.1 1.3 0.3 1.9s0.5 1.2 0.9 1.7 0.9 0.9 1.5 1.2 1.3 0.4 2 0.4 1.4-0.1 2-0.4 1.1-0.7 1.5-1.2 0.7-1 1-1.6c0.2-0.6 0.3-1.3 0.3-1.9z"/>
</g>
<g transform="translate(-2636.4,-748.9)">
	<path class="st0" d="m2815.1 387.2v-2.8h-0.1c-0.2 0.5-0.6 0.9-0.9 1.3-0.4 0.4-0.8 0.7-1.4 1-0.5 0.3-1.1 0.5-1.7 0.7s-1.3 0.3-2 0.3c-1.3 0-2.5-0.2-3.4-0.7s-1.7-1.1-2.2-1.9c-0.6-0.8-1-1.6-1.2-2.6-0.3-1-0.4-2-0.4-3v-12.3h6.6v10.8c0 0.6 0 1.1 0.1 1.6s0.2 1 0.5 1.4c0.2 0.4 0.5 0.7 0.9 0.9s0.9 0.3 1.5 0.3c1.1 0 2-0.4 2.6-1.3s0.9-1.9 0.9-3v-10.8h6.6v19.9h-6.4z"/>
	<path class="st0" d="m2838.2 373.1c-0.5-0.5-1.2-0.9-1.9-1.3-0.7-0.3-1.5-0.5-2.3-0.5-0.6 0-1.2 0.1-1.7 0.4-0.5 0.2-0.8 0.7-0.8 1.2 0 0.6 0.3 1 0.9 1.2s1.5 0.5 2.8 0.8c0.7 0.2 1.5 0.4 2.3 0.7s1.4 0.7 2.1 1.2c0.6 0.5 1.1 1.1 1.5 1.8s0.6 1.5 0.6 2.5c0 1.3-0.3 2.3-0.8 3.2s-1.2 1.6-2 2.1-1.7 0.9-2.7 1.2c-1 0.2-2 0.4-3 0.4-1.6 0-3.2-0.3-4.8-0.8s-2.9-1.3-3.9-2.3l3.7-3.9c0.6 0.6 1.3 1.2 2.2 1.6s1.8 0.6 2.7 0.6c0.5 0 1.1-0.1 1.6-0.4s0.8-0.7 0.8-1.3-0.3-1.1-1-1.4c-0.6-0.3-1.6-0.6-3-0.9l-2.1-0.6c-0.7-0.3-1.3-0.6-1.9-1.1-0.5-0.5-1-1-1.3-1.7s-0.5-1.5-0.5-2.4c0-1.2 0.3-2.2 0.8-3.1 0.5-0.8 1.2-1.5 2-2.1 0.8-0.5 1.7-0.9 2.7-1.2s1.9-0.4 2.9-0.4c1.5 0 3 0.2 4.4 0.7s2.6 1.2 3.6 2.1z"/>
	<path class="st0" d="m2865.2 377.5v0.8 0.8h-14.4c0.1 0.6 0.2 1.1 0.5 1.5 0.3 0.5 0.6 0.8 1.1 1.2 0.4 0.3 0.9 0.6 1.5 0.8 0.5 0.2 1.1 0.3 1.7 0.3 1 0 1.9-0.2 2.6-0.6s1.3-0.9 1.8-1.5l4.6 2.9c-0.9 1.4-2.2 2.4-3.7 3.1s-3.3 1.1-5.3 1.1c-1.5 0-2.9-0.2-4.2-0.7s-2.5-1.1-3.5-2-1.8-2-2.4-3.3-0.9-2.8-0.9-4.5c0-1.6 0.3-3.1 0.8-4.4 0.6-1.3 1.3-2.4 2.3-3.4s2.1-1.6 3.4-2.1 2.7-0.8 4.2-0.8 2.8 0.2 4 0.7 2.3 1.2 3.2 2.1 1.6 2.1 2.1 3.4c0.3 1.3 0.6 2.9 0.6 4.6zm-6.1-2.6c0-1-0.3-1.9-1-2.7-0.7-0.7-1.6-1.1-2.9-1.1-0.6 0-1.2 0.1-1.8 0.3-0.5 0.2-1 0.5-1.4 0.8s-0.7 0.8-1 1.2c-0.2 0.5-0.4 1-0.4 1.5z"/>
	<path class="st0" d="m2882.2 372.7c-0.3-0.1-0.6-0.1-0.9-0.2h-0.8c-0.9 0-1.6 0.2-2.2 0.5s-1.1 0.7-1.4 1.2c-0.4 0.5-0.6 0.9-0.8 1.5-0.2 0.5-0.2 1-0.2 1.4v10.2h-6.6v-19.9h6.3v2.9h0.1c0.5-1 1.2-1.9 2.2-2.5 0.9-0.6 2-1 3.2-1h0.8c0.3 0 0.5 0.1 0.6 0.1z"/>
	<path class="st0" d="m2898.2 387.2v-10.9c0-0.6 0-1.1-0.1-1.6s-0.2-1-0.5-1.3c-0.2-0.4-0.5-0.7-0.9-0.9s-0.9-0.3-1.5-0.3-1.1 0.1-1.5 0.3-0.8 0.5-1.1 0.9-0.5 0.9-0.7 1.4c-0.1 0.5-0.2 1.1-0.2 1.6v10.8h-6.6v-19.9h6.4v2.8h0.1c0.2-0.4 0.6-0.8 0.9-1.3 0.4-0.4 0.8-0.8 1.4-1.1 0.5-0.3 1.1-0.5 1.7-0.7s1.3-0.3 2-0.3c1.3 0 2.5 0.2 3.4 0.7s1.7 1.1 2.3 1.9 1 1.6 1.2 2.6c0.3 1 0.4 2 0.4 3v12.3z"/>
	<path class="st0" d="m2909.4 370c1.2-1.1 2.5-2 4.1-2.5 1.6-0.6 3.2-0.8 4.8-0.8 1.7 0 3.1 0.2 4.3 0.6s2.1 1.1 2.8 1.9c0.7 0.9 1.2 2 1.6 3.3 0.3 1.3 0.5 2.9 0.5 4.7v10h-6v-2.1h-0.1c-0.5 0.8-1.3 1.5-2.3 1.9-1 0.5-2.1 0.7-3.3 0.7-0.8 0-1.6-0.1-2.5-0.3s-1.6-0.6-2.3-1c-0.7-0.5-1.3-1.1-1.7-1.9-0.5-0.8-0.7-1.8-0.7-3 0-1.4 0.4-2.6 1.2-3.5s1.8-1.6 3-2 2.6-0.8 4.1-1 3-0.2 4.4-0.2v-0.3c0-1-0.3-1.7-1-2.2s-1.5-0.7-2.6-0.7c-0.9 0-1.8 0.2-2.7 0.6s-1.6 0.9-2.2 1.4zm12.1 8.5h-0.8c-0.7 0-1.4 0-2.2 0.1-0.7 0.1-1.4 0.2-2 0.4s-1 0.5-1.4 0.8c-0.4 0.4-0.6 0.8-0.6 1.4 0 0.4 0.1 0.7 0.3 1s0.4 0.5 0.7 0.6c0.3 0.2 0.6 0.3 0.9 0.3 0.3 0.1 0.7 0.1 1 0.1 1.3 0 2.4-0.4 3.1-1.1s1.1-1.7 1.1-3v-0.6z"/>
	<path class="st0" d="m2957.8 387.2v-10.9c0-0.6 0-1.1-0.1-1.6s-0.2-1-0.4-1.3c-0.2-0.4-0.5-0.7-0.9-0.9s-0.8-0.3-1.4-0.3-1 0.1-1.5 0.4c-0.4 0.2-0.8 0.6-1 1-0.3 0.4-0.5 0.9-0.6 1.4s-0.2 1.1-0.2 1.6v10.8h-6.6v-11.4c0-1.1-0.2-2.1-0.7-2.7-0.5-0.7-1.2-1-2.2-1s-1.8 0.4-2.4 1.2-0.9 1.8-0.9 3v10.8h-6.6v-19.9h6.4v2.8h0.1c0.2-0.4 0.5-0.8 0.9-1.2s0.8-0.8 1.3-1.1 1.1-0.6 1.7-0.7c0.6-0.2 1.3-0.3 2.1-0.3 1.4 0 2.7 0.3 3.7 0.9s1.8 1.4 2.3 2.5c0.7-1 1.5-1.9 2.6-2.5 1-0.6 2.3-0.9 3.8-0.9 1.4 0 2.5 0.2 3.4 0.7s1.7 1.1 2.2 1.9c0.6 0.8 1 1.7 1.2 2.6 0.3 1 0.4 1.9 0.4 2.9v12.3h-6.6z"/>
	<path class="st0" d="m2989.1 377.5v0.8 0.8h-14.4c0.1 0.6 0.2 1.1 0.5 1.5 0.3 0.5 0.6 0.8 1.1 1.2 0.4 0.3 0.9 0.6 1.5 0.8 0.5 0.2 1.1 0.3 1.7 0.3 1 0 1.9-0.2 2.6-0.6s1.3-0.9 1.8-1.5l4.6 2.9c-0.9 1.4-2.2 2.4-3.7 3.1s-3.3 1.1-5.3 1.1c-1.5 0-2.9-0.2-4.2-0.7s-2.5-1.1-3.5-2-1.8-2-2.4-3.3-0.9-2.8-0.9-4.5c0-1.6 0.3-3.1 0.8-4.4 0.6-1.3 1.3-2.4 2.3-3.4s2.1-1.6 3.4-2.1 2.7-0.8 4.2-0.8 2.8 0.2 4 0.7 2.3 1.2 3.2 2.1 1.6 2.1 2.1 3.4c0.3 1.3 0.6 2.9 0.6 4.6zm-6.1-2.6c0-1-0.3-1.9-1-2.7-0.7-0.7-1.6-1.1-2.9-1.1-0.6 0-1.2 0.1-1.8 0.3-0.5 0.2-1 0.5-1.4 0.8s-0.7 0.8-1 1.2c-0.2 0.5-0.4 1-0.4 1.5z"/>
</g>
<g transform="translate(-2636.4,-748.9)">
	<path class="st0" d="m3108.6 415.9h-417.2c-23.1 0-41.9-18.8-41.9-41.9s18.8-41.9 41.9-41.9h417.2c23.1 0 41.9 18.8 41.9 41.9s-18.8 41.9-41.9 41.9zm-417.2-77.8c-19.8 0-35.9 16.1-35.9 35.9s16.1 35.9 35.9 35.9h417.2c19.8 0 35.9-16.1 35.9-35.9s-16.1-35.9-35.9-35.9z"/>
</g>
<g transform="translate(-2636.4,-748.9)">
	<path class="st1" d="m2615.1 171.8h23.5c4.4 0 8.8 0.7 13.2 2.2s8.4 3.7 12 6.6c3.6 3 6.5 6.7 8.7 11.1s3.3 9.6 3.3 15.5-1.1 11.1-3.3 15.5-5.1 8.1-8.7 11c-3.6 3-7.6 5.2-12 6.6-4.4 1.5-8.8 2.2-13.2 2.2h-23.5zm7.2 64.4h14.3c5.3 0 10-0.8 14-2.5s7.2-3.9 9.8-6.6 4.5-5.8 5.8-9.2c1.3-3.5 2-7 2-10.7s-0.6-7.2-2-10.7c-1.3-3.5-3.2-6.5-5.8-9.2s-5.9-4.9-9.8-6.5c-4-1.7-8.6-2.5-14-2.5h-14.3z"/>
	<path class="st1" d="m2687.9 242.6h-7.9l30.6-70.8h7l30.4 70.8h-8l-7.8-18.6h-36.6zm10.4-25.2h31.2l-15.6-37.6z"/>
	<path class="st1" d="m2765.6 242.6h-7.2v-70.8h7.2z"/>
	<path class="st1" d="m2791.6 236.2h33v6.4h-40.2v-70.8h7.2z"/>
	<path class="st1" d="m2850.7 242.6h-7.2v-30.5l-26.5-40.3h9l21.3 34.3 21.5-34.3h8.4l-26.5 40.3z"/>
	<path class="st1" d="m2950.6 207c0 6.2-1.1 11.6-3.4 16.1s-5.3 8.2-9.1 11.1-8 5-12.8 6.4c-4.7 1.4-9.5 2-14.4 2h-26.4v-70.8h25.6c5 0 9.9 0.6 14.8 1.8s9.2 3.1 13 5.8 6.9 6.3 9.2 10.9c2.3 4.5 3.5 10.1 3.5 16.7zm-17.8 0c0-4-0.7-7.3-2-9.9s-3-4.7-5.2-6.3-4.6-2.7-7.4-3.4-5.6-1-8.5-1h-8.5v41.4h8.1c3.1 0 6-0.4 8.8-1.1s5.3-1.9 7.5-3.4c2.2-1.6 3.9-3.7 5.2-6.4 1.4-2.6 2-5.9 2-9.9z"/>
	<path class="st1" d="m2961.9 242.6v-70.8h17.2v70.8z"/>
	<path class="st1" d="m3041.7 242.6-5.5-13.9h-27.4l-5.2 13.9h-18.6l29.7-70.8h16.6l29.4 70.8zm-19-51.9-9 24.3h17.8z"/>
	<path class="st1" d="m3104.5 242.6-15.4-28.1h-5.8v28.1h-16.7v-70.8h27c3.4 0 6.7 0.3 10 1 3.2 0.7 6.1 1.9 8.7 3.5 2.6 1.7 4.6 3.9 6.1 6.6s2.3 6.1 2.3 10.2c0 4.8-1.3 8.8-3.9 12.1s-6.2 5.6-10.8 7l18.5 30.3h-20zm-0.7-49.1c0-1.7-0.4-3-1.1-4s-1.6-1.8-2.7-2.4-2.3-1-3.7-1.2-2.7-0.3-4-0.3h-9.1v16.5h8.1c1.4 0 2.8-0.1 4.3-0.4 1.5-0.2 2.8-0.6 4-1.2s2.2-1.5 3-2.6 1.2-2.6 1.2-4.4z"/>
	<path class="st1" d="m3166.3 212.6v30h-17.1v-30l-26.6-40.8h20.7l15.1 26.2 15.1-26.2h20z"/>
</g>




















































</svg>
