<?xml version="1.0" encoding="UTF-8" standalone="no"?>
<svg
   xmlns:dc="http://purl.org/dc/elements/1.1/"
   xmlns:cc="http://creativecommons.org/ns#"
   xmlns:rdf="http://www.w3.org/1999/02/22-rdf-syntax-ns#"
   xmlns:svg="http://www.w3.org/2000/svg"
   xmlns="http://www.w3.org/2000/svg"
   xmlns:sodipodi="http://sodipodi.sourceforge.net/DTD/sodipodi-0.dtd"
   xmlns:inkscape="http://www.inkscape.org/namespaces/inkscape"
   version="1.1"
   id="Livello_1"
   x="0px"
   y="0px"
   viewBox="0 0 527.20032 103.4"
   xml:space="preserve"
   sodipodi:docname="REGISTER.svg"
   width="527.20032"
   height="103.4"
   inkscape:version="1.0beta2 (unknown)"><metadata
   id="metadata1989"><rdf:RDF><cc:Work
       rdf:about=""><dc:format>image/svg+xml</dc:format><dc:type
         rdf:resource="http://purl.org/dc/dcmitype/StillImage" /><dc:title></dc:title></cc:Work></rdf:RDF></metadata><defs
   id="defs1987" /><sodipodi:namedview
   fit-margin-bottom="0"
   fit-margin-right="0"
   fit-margin-left="0"
   fit-margin-top="0"
   pagecolor="#ffffff"
   bordercolor="#666666"
   inkscape:document-rotation="0"
   borderopacity="1"
   objecttolerance="10"
   gridtolerance="10"
   guidetolerance="10"
   inkscape:pageopacity="0"
   inkscape:pageshadow="2"
   inkscape:window-width="1920"
   inkscape:window-height="995"
   id="namedview1985"
   showgrid="false"
   inkscape:zoom="0.43852551"
   inkscape:cx="553.4571"
   inkscape:cy="-208.9"
   inkscape:window-x="0"
   inkscape:window-y="0"
   inkscape:window-maximized="1"
   inkscape:current-layer="Livello_1" />
<style
   type="text/css"
   id="style1382">
	.st0{fill:#94C7C1;}
	.st1{fill:#FFFFFF;}
	.st2{fill:#E30613;}
	.st3{opacity:0.19;}
</style>













<g
   id="g1538"
   transform="translate(-2636.4,-748.9)">
	<rect
   x="1940"
   class="st0"
   width="1920"
   height="1080"
   id="rect1536"
   y="0" />
</g>
<g
   id="g1542"
   transform="translate(-2636.4,-748.9)">
	<path
   class="st1"
   d="m 3111.9,551.7 h -423.8 c -28.6,0 -51.7,-23.2 -51.7,-51.7 v 0 c 0,-28.6 23.2,-51.7 51.7,-51.7 h 423.8 c 28.6,0 51.7,23.2 51.7,51.7 v 0 c 0.1,28.6 -23.1,51.7 -51.7,51.7 z"
   id="path1540"
   inkscape:connector-curvature="0" />
</g>
<g
   id="g1546"
   transform="translate(-2636.4,-748.9)">
	<path
   class="st1"
   d="m 3111.9,852.3 h -423.8 c -28.6,0 -51.7,-23.2 -51.7,-51.7 v 0 c 0,-28.6 23.2,-51.7 51.7,-51.7 h 423.8 c 28.6,0 51.7,23.2 51.7,51.7 v 0 c 0.1,28.6 -23.1,51.7 -51.7,51.7 z"
   id="path1544"
   inkscape:connector-curvature="0" />
</g>
<g
   id="g1550"
   transform="translate(-2636.4,-748.9)">
	<path
   class="st0"
   d="m 3108.6,843.5 h -417.2 c -23.1,0 -41.9,-18.8 -41.9,-41.9 0,-23.1 18.8,-41.9 41.9,-41.9 h 417.2 c 23.1,0 41.9,18.8 41.9,41.9 0,23.1 -18.8,41.9 -41.9,41.9 z m -417.2,-77.7 c -19.8,0 -35.9,16.1 -35.9,35.9 0,19.8 16.1,35.9 35.9,35.9 h 417.2 c 19.8,0 35.9,-16.1 35.9,-35.9 0,-19.8 -16.1,-35.9 -35.9,-35.9 z"
   id="path1548"
   inkscape:connector-curvature="0" />
</g>
<g
   id="g1554"
   transform="translate(-2636.4,-748.9)">
	<path
   class="st0"
   d="m 3108.6,541.9 h -417.2 c -23.1,0 -41.9,-18.8 -41.9,-41.9 0,-23.1 18.8,-41.9 41.9,-41.9 h 417.2 c 23.1,0 41.9,18.8 41.9,41.9 0,23.1 -18.8,41.9 -41.9,41.9 z m -417.2,-77.8 c -19.8,0 -35.9,16.1 -35.9,35.9 0,19.8 16.1,35.9 35.9,35.9 h 417.2 c 19.8,0 35.9,-16.1 35.9,-35.9 0,-19.8 -16.1,-35.9 -35.9,-35.9 z"
   id="path1552"
   inkscape:connector-curvature="0" />
</g>
<g
   id="g1558"
   transform="translate(-2636.4,-748.9)">
	<path
   class="st1"
   d="m 3111.9,425.8 h -423.8 c -28.6,0 -51.7,-23.2 -51.7,-51.7 v 0 c 0,-28.6 23.2,-51.7 51.7,-51.7 h 423.8 c 28.6,0 51.7,23.2 51.7,51.7 v 0 c 0.1,28.5 -23.1,51.7 -51.7,51.7 z"
   id="path1556"
   inkscape:connector-curvature="0" />
</g>
<g
   id="g1576"
   transform="translate(-2636.4,-748.9)">
	<path
   class="st0"
   d="m 2798,817.8 -7.7,-14 h -2.9 v 14 h -8.3 v -35.4 h 13.5 c 1.7,0 3.4,0.2 5,0.5 1.6,0.3 3.1,0.9 4.4,1.8 1.3,0.8 2.3,1.9 3.1,3.3 0.8,1.4 1.2,3.1 1.2,5.1 0,2.4 -0.7,4.4 -2,6 -1.3,1.6 -3.1,2.8 -5.4,3.5 l 9.2,15.2 z m -0.4,-24.6 c 0,-0.8 -0.2,-1.5 -0.5,-2 -0.4,-0.5 -0.8,-0.9 -1.4,-1.2 -0.6,-0.3 -1.2,-0.5 -1.9,-0.6 -0.7,-0.1 -1.3,-0.1 -2,-0.1 h -4.6 v 8.2 h 4.1 c 0.7,0 1.4,-0.1 2.2,-0.2 0.7,-0.1 1.4,-0.3 2,-0.6 0.6,-0.3 1.1,-0.7 1.5,-1.3 0.4,-0.6 0.6,-1.3 0.6,-2.2 z"
   id="path1560"
   inkscape:connector-curvature="0" />
	<path
   class="st0"
   d="m 2812.2,817.8 v -35.4 h 23.8 v 7.2 h -15.6 v 6.7 h 14.7 v 6.8 h -14.7 v 7.4 h 16.5 v 7.3 z"
   id="path1562"
   inkscape:connector-curvature="0" />
	<path
   class="st0"
   d="m 2867.9,817.8 c -2.3,0.6 -4.8,0.8 -7.6,0.8 -2.8,0 -5.4,-0.4 -7.8,-1.3 -2.4,-0.9 -4.4,-2.2 -6.2,-3.8 -1.7,-1.6 -3.1,-3.6 -4,-5.9 -1,-2.3 -1.5,-4.8 -1.5,-7.6 0,-2.8 0.5,-5.4 1.5,-7.7 1,-2.3 2.3,-4.3 4.1,-5.9 1.7,-1.6 3.8,-2.9 6.1,-3.7 2.3,-0.8 4.9,-1.3 7.6,-1.3 2.8,0 5.4,0.4 7.8,1.3 2.4,0.8 4.3,2 5.8,3.4 l -5.4,6.2 c -0.8,-1 -1.9,-1.8 -3.3,-2.4 -1.4,-0.6 -2.9,-0.9 -4.6,-0.9 -1.5,0 -2.9,0.3 -4.2,0.8 -1.3,0.6 -2.4,1.3 -3.3,2.3 -0.9,1 -1.7,2.1 -2.2,3.5 -0.5,1.3 -0.8,2.8 -0.8,4.4 0,1.6 0.2,3.1 0.7,4.5 0.5,1.4 1.2,2.5 2.1,3.5 0.9,1 2,1.8 3.4,2.3 1.4,0.5 2.9,0.8 4.6,0.8 1,0 2,-0.1 2.9,-0.2 0.9,-0.2 1.7,-0.4 2.5,-0.7 v -6.5 h -6.8 v -6.9 h 14.6 v 18.8 c -1.7,0.9 -3.7,1.6 -6,2.2 z"
   id="path1564"
   inkscape:connector-curvature="0" />
	<path
   class="st0"
   d="m 2881,817.8 v -35.4 h 8.6 v 35.4 z"
   id="path1566"
   inkscape:connector-curvature="0" />
	<path
   class="st0"
   d="m 2915.5,791.5 c -0.7,-0.9 -1.7,-1.7 -2.9,-2.2 -1.2,-0.6 -2.3,-0.8 -3.4,-0.8 -0.6,0 -1.1,0 -1.7,0.1 -0.6,0.1 -1.1,0.3 -1.6,0.6 -0.5,0.3 -0.9,0.7 -1.2,1.1 -0.3,0.4 -0.5,1 -0.5,1.7 0,0.6 0.1,1.1 0.4,1.5 0.3,0.4 0.6,0.8 1.1,1 0.5,0.3 1.1,0.6 1.7,0.8 0.6,0.2 1.4,0.5 2.2,0.8 1.2,0.4 2.5,0.8 3.8,1.3 1.3,0.5 2.5,1.1 3.6,1.9 1.1,0.8 1.9,1.8 2.6,3 0.7,1.2 1,2.7 1,4.4 0,2 -0.4,3.8 -1.1,5.3 -0.7,1.5 -1.8,2.7 -3,3.7 -1.3,1 -2.7,1.7 -4.4,2.2 -1.6,0.5 -3.3,0.7 -5,0.7 -2.5,0 -5,-0.4 -7.3,-1.3 -2.4,-0.9 -4.3,-2.1 -5.9,-3.8 l 5.6,-5.7 c 0.9,1.1 2,2 3.4,2.7 1.4,0.7 2.8,1.1 4.2,1.1 0.6,0 1.2,-0.1 1.9,-0.2 0.6,-0.1 1.1,-0.3 1.6,-0.6 0.5,-0.3 0.8,-0.7 1.1,-1.2 0.3,-0.5 0.4,-1.1 0.4,-1.8 0,-0.7 -0.2,-1.2 -0.5,-1.7 -0.3,-0.5 -0.8,-0.9 -1.4,-1.3 -0.6,-0.4 -1.4,-0.7 -2.3,-1 -0.9,-0.3 -2,-0.7 -3.1,-1 -1.1,-0.4 -2.2,-0.8 -3.3,-1.3 -1.1,-0.5 -2.1,-1.1 -2.9,-1.9 -0.8,-0.8 -1.5,-1.7 -2,-2.8 -0.5,-1.1 -0.8,-2.5 -0.8,-4.1 0,-2 0.4,-3.7 1.2,-5 0.8,-1.4 1.8,-2.5 3.2,-3.5 1.3,-0.9 2.8,-1.6 4.4,-2 1.6,-0.4 3.3,-0.6 5,-0.6 2,0 4,0.4 6.1,1.1 2.1,0.7 3.9,1.8 5.5,3.2 z"
   id="path1568"
   inkscape:connector-curvature="0" />
	<path
   class="st0"
   d="m 2940.9,789.6 v 28.1 h -8.5 v -28.1 h -10 v -7.3 h 28.5 v 7.3 z"
   id="path1570"
   inkscape:connector-curvature="0" />
	<path
   class="st0"
   d="m 2954.8,817.8 v -35.4 h 23.8 v 7.2 H 2963 v 6.7 h 14.7 v 6.8 H 2963 v 7.4 h 16.4 v 7.3 z"
   id="path1572"
   inkscape:connector-curvature="0" />
	<path
   class="st0"
   d="m 3004.1,817.8 -7.7,-14 h -2.9 v 14 h -8.3 v -35.4 h 13.5 c 1.7,0 3.4,0.2 5,0.5 1.6,0.3 3.1,0.9 4.3,1.8 1.3,0.8 2.3,1.9 3.1,3.3 0.8,1.4 1.2,3.1 1.2,5.1 0,2.4 -0.7,4.4 -2,6 -1.3,1.6 -3.1,2.8 -5.4,3.5 l 9.2,15.2 z m -0.4,-24.6 c 0,-0.8 -0.2,-1.5 -0.5,-2 -0.4,-0.5 -0.8,-0.9 -1.4,-1.2 -0.6,-0.3 -1.2,-0.5 -1.9,-0.6 -0.7,-0.1 -1.3,-0.1 -2,-0.1 h -4.6 v 8.2 h 4.1 c 0.7,0 1.4,-0.1 2.2,-0.2 0.7,-0.1 1.4,-0.3 2,-0.6 0.6,-0.3 1.1,-0.7 1.5,-1.3 0.5,-0.6 0.6,-1.3 0.6,-2.2 z"
   id="path1574"
   inkscape:connector-curvature="0" />
</g>
<g
   id="g1594"
   transform="translate(-2636.4,-748.9)">
	<path
   class="st0"
   d="m 2825.6,501.1 c 0,1.4 -0.2,2.7 -0.6,4 -0.4,1.3 -1,2.4 -1.9,3.4 -0.8,1 -1.8,1.8 -3,2.3 -1.2,0.6 -2.5,0.9 -4,0.9 -1.2,0 -2.4,-0.2 -3.5,-0.7 -1.1,-0.5 -1.9,-1.2 -2.6,-2 h -0.1 v 11.8 h -6.6 v -29.5 h 6.2 v 2.4 h 0.1 c 0.6,-0.8 1.5,-1.5 2.5,-2.1 1,-0.6 2.4,-0.9 3.8,-0.9 1.4,0 2.7,0.3 3.9,0.8 1.2,0.6 2.2,1.3 3,2.3 0.8,1 1.4,2.1 1.9,3.3 0.7,1.3 0.9,2.7 0.9,4 z m -6.4,0 c 0,-0.6 -0.1,-1.3 -0.3,-1.9 -0.2,-0.6 -0.5,-1.2 -0.9,-1.6 -0.4,-0.5 -0.9,-0.8 -1.5,-1.1 -0.6,-0.3 -1.3,-0.4 -2,-0.4 -0.7,0 -1.4,0.1 -2,0.4 -0.6,0.3 -1.1,0.7 -1.5,1.2 -0.4,0.5 -0.7,1 -1,1.6 -0.2,0.6 -0.3,1.2 -0.3,1.9 0,0.7 0.1,1.3 0.3,1.9 0.2,0.6 0.5,1.2 1,1.6 0.4,0.5 0.9,0.9 1.5,1.2 0.6,0.3 1.3,0.4 2,0.4 0.8,0 1.5,-0.1 2,-0.4 0.6,-0.3 1.1,-0.7 1.5,-1.2 0.4,-0.5 0.7,-1 0.9,-1.7 0.2,-0.6 0.3,-1.2 0.3,-1.9 z"
   id="path1578"
   inkscape:connector-curvature="0" />
	<path
   class="st0"
   d="m 2829.4,494 c 1.2,-1.1 2.5,-2 4.1,-2.5 1.6,-0.6 3.2,-0.8 4.8,-0.8 1.7,0 3.1,0.2 4.3,0.6 1.2,0.4 2.1,1.1 2.8,1.9 0.7,0.9 1.2,2 1.6,3.3 0.3,1.3 0.5,2.9 0.5,4.7 v 10 h -6 v -2.1 h -0.1 c -0.5,0.8 -1.3,1.5 -2.3,1.9 -1,0.4 -2.1,0.7 -3.3,0.7 -0.8,0 -1.6,-0.1 -2.5,-0.3 -0.9,-0.2 -1.6,-0.6 -2.3,-1 -0.7,-0.5 -1.3,-1.1 -1.7,-1.9 -0.5,-0.8 -0.7,-1.8 -0.7,-3 0,-1.4 0.4,-2.6 1.2,-3.5 0.8,-0.9 1.8,-1.6 3,-2 1.2,-0.5 2.6,-0.8 4.1,-1 1.5,-0.2 3,-0.2 4.4,-0.2 v -0.3 c 0,-1 -0.3,-1.7 -1,-2.2 -0.7,-0.5 -1.5,-0.7 -2.6,-0.7 -0.9,0 -1.8,0.2 -2.7,0.6 -0.9,0.4 -1.6,0.9 -2.2,1.4 z m 12.1,8.5 h -0.8 c -0.7,0 -1.4,0 -2.2,0.1 -0.7,0.1 -1.4,0.2 -2,0.4 -0.6,0.2 -1,0.5 -1.4,0.8 -0.4,0.4 -0.6,0.8 -0.6,1.4 0,0.4 0.1,0.7 0.3,1 0.2,0.3 0.4,0.5 0.7,0.6 0.3,0.2 0.6,0.3 0.9,0.3 0.3,0.1 0.7,0.1 1,0.1 1.3,0 2.4,-0.4 3.1,-1.1 0.7,-0.7 1.1,-1.7 1.1,-3 v -0.6 z"
   id="path1580"
   inkscape:connector-curvature="0" />
	<path
   class="st0"
   d="m 2864.1,497.1 c -0.5,-0.5 -1.2,-0.9 -1.9,-1.3 -0.7,-0.3 -1.5,-0.5 -2.3,-0.5 -0.6,0 -1.2,0.1 -1.7,0.4 -0.5,0.2 -0.8,0.7 -0.8,1.2 0,0.6 0.3,1 0.9,1.2 0.6,0.2 1.5,0.5 2.8,0.8 0.7,0.2 1.5,0.4 2.3,0.7 0.8,0.3 1.4,0.7 2.1,1.2 0.7,0.5 1.1,1.1 1.5,1.8 0.4,0.7 0.6,1.5 0.6,2.5 0,1.3 -0.3,2.3 -0.8,3.2 -0.5,0.9 -1.2,1.6 -2,2.1 -0.8,0.5 -1.7,0.9 -2.7,1.2 -1,0.2 -2,0.4 -3,0.4 -1.6,0 -3.2,-0.3 -4.8,-0.8 -1.6,-0.5 -2.9,-1.3 -3.9,-2.3 l 3.7,-3.9 c 0.6,0.6 1.3,1.2 2.2,1.6 0.9,0.4 1.8,0.6 2.7,0.6 0.5,0 1.1,-0.1 1.6,-0.4 0.5,-0.3 0.8,-0.7 0.8,-1.3 0,-0.6 -0.3,-1.1 -1,-1.4 -0.6,-0.3 -1.6,-0.6 -3,-0.9 -0.7,-0.2 -1.4,-0.4 -2.1,-0.6 -0.7,-0.3 -1.3,-0.6 -1.9,-1.1 -0.5,-0.5 -1,-1 -1.3,-1.7 -0.3,-0.7 -0.5,-1.5 -0.5,-2.4 0,-1.2 0.3,-2.2 0.8,-3.1 0.5,-0.9 1.2,-1.5 2,-2.1 0.8,-0.5 1.7,-0.9 2.7,-1.2 1,-0.3 1.9,-0.4 2.9,-0.4 1.5,0 3,0.2 4.4,0.7 1.4,0.5 2.6,1.2 3.6,2.1 z"
   id="path1582"
   inkscape:connector-curvature="0" />
	<path
   class="st0"
   d="m 2883,497.1 c -0.5,-0.5 -1.2,-0.9 -1.9,-1.3 -0.7,-0.3 -1.5,-0.5 -2.3,-0.5 -0.6,0 -1.2,0.1 -1.7,0.4 -0.5,0.2 -0.8,0.7 -0.8,1.2 0,0.6 0.3,1 0.9,1.2 0.6,0.2 1.5,0.5 2.8,0.8 0.7,0.2 1.5,0.4 2.3,0.7 0.8,0.3 1.4,0.7 2.1,1.2 0.6,0.5 1.1,1.1 1.5,1.8 0.4,0.7 0.6,1.5 0.6,2.5 0,1.3 -0.3,2.3 -0.8,3.2 -0.5,0.9 -1.2,1.6 -2,2.1 -0.8,0.5 -1.7,0.9 -2.7,1.2 -1,0.2 -2,0.4 -3,0.4 -1.6,0 -3.2,-0.3 -4.8,-0.8 -1.6,-0.5 -2.9,-1.3 -3.9,-2.3 l 3.7,-3.9 c 0.6,0.6 1.3,1.2 2.2,1.6 0.9,0.4 1.8,0.6 2.7,0.6 0.5,0 1.1,-0.1 1.6,-0.4 0.5,-0.3 0.8,-0.7 0.8,-1.3 0,-0.6 -0.3,-1.1 -1,-1.4 -0.6,-0.3 -1.6,-0.6 -3,-0.9 -0.7,-0.2 -1.4,-0.4 -2.1,-0.6 -0.7,-0.3 -1.3,-0.6 -1.9,-1.1 -0.5,-0.5 -1,-1 -1.3,-1.7 -0.3,-0.7 -0.5,-1.5 -0.5,-2.4 0,-1.2 0.3,-2.2 0.8,-3.1 0.5,-0.8 1.2,-1.5 2,-2.1 0.8,-0.5 1.7,-0.9 2.7,-1.2 1,-0.3 1.9,-0.4 2.9,-0.4 1.5,0 3,0.2 4.4,0.7 1.4,0.5 2.6,1.2 3.6,2.1 z"
   id="path1584"
   inkscape:connector-curvature="0" />
	<path
   class="st0"
   d="m 2915.5,511.2 h -6.6 l -3.9,-12.4 h -0.1 l -3.8,12.4 h -6.6 l -6.9,-19.9 h 7.1 l 3.4,12.6 h 0.1 l 3.6,-12.6 h 6.6 l 3.7,12.6 h 0.1 l 3.5,-12.6 h 6.8 z"
   id="path1586"
   inkscape:connector-curvature="0" />
	<path
   class="st0"
   d="m 2946.1,501.1 c 0,1.6 -0.3,3.1 -0.9,4.4 -0.6,1.3 -1.4,2.4 -2.4,3.4 -1,0.9 -2.2,1.6 -3.5,2.1 -1.3,0.5 -2.8,0.8 -4.3,0.8 -1.5,0 -2.9,-0.3 -4.3,-0.8 -1.4,-0.5 -2.5,-1.2 -3.5,-2.1 -1,-0.9 -1.8,-2 -2.4,-3.4 -0.6,-1.3 -0.9,-2.8 -0.9,-4.4 0,-1.6 0.3,-3.1 0.9,-4.4 0.6,-1.3 1.4,-2.4 2.4,-3.3 1,-0.9 2.2,-1.6 3.5,-2.1 1.3,-0.5 2.8,-0.7 4.3,-0.7 1.5,0 2.9,0.2 4.3,0.7 1.4,0.5 2.5,1.2 3.5,2.1 1,0.9 1.8,2 2.4,3.3 0.6,1.4 0.9,2.8 0.9,4.4 z m -6.3,0 c 0,-0.6 -0.1,-1.3 -0.3,-1.9 -0.2,-0.6 -0.5,-1.2 -0.9,-1.6 -0.4,-0.5 -0.9,-0.8 -1.5,-1.1 -0.6,-0.3 -1.3,-0.4 -2,-0.4 -0.8,0 -1.5,0.1 -2,0.4 -0.6,0.3 -1.1,0.7 -1.5,1.1 -0.4,0.5 -0.7,1 -0.9,1.6 -0.2,0.6 -0.3,1.2 -0.3,1.9 0,0.7 0.1,1.3 0.3,1.9 0.2,0.6 0.5,1.2 0.9,1.7 0.4,0.5 0.9,0.9 1.5,1.2 0.6,0.3 1.3,0.4 2,0.4 0.8,0 1.5,-0.1 2,-0.4 0.6,-0.3 1.1,-0.7 1.5,-1.2 0.4,-0.5 0.7,-1 0.9,-1.7 0.2,-0.6 0.3,-1.2 0.3,-1.9 z"
   id="path1588"
   inkscape:connector-curvature="0" />
	<path
   class="st0"
   d="m 2963.2,496.7 c -0.3,-0.1 -0.6,-0.1 -0.9,-0.2 -0.3,0 -0.6,0 -0.8,0 -0.9,0 -1.6,0.2 -2.2,0.5 -0.6,0.3 -1.1,0.7 -1.4,1.2 -0.4,0.5 -0.6,0.9 -0.8,1.5 -0.2,0.5 -0.2,1 -0.2,1.4 v 10.2 h -6.6 v -19.9 h 6.3 v 2.9 h 0.1 c 0.5,-1 1.2,-1.9 2.2,-2.5 1,-0.6 2,-1 3.2,-1 0.3,0 0.5,0 0.8,0 0.3,0 0.5,0.1 0.6,0.1 z"
   id="path1590"
   inkscape:connector-curvature="0" />
	<path
   class="st0"
   d="m 2980.4,511.2 v -2.6 h -0.1 c -0.6,1 -1.6,1.8 -2.7,2.3 -1.2,0.5 -2.4,0.8 -3.8,0.8 -1.5,0 -2.8,-0.3 -4,-0.9 -1.2,-0.6 -2.2,-1.4 -3,-2.3 -0.8,-1 -1.4,-2.1 -1.9,-3.4 -0.4,-1.3 -0.6,-2.6 -0.6,-4 0,-1.4 0.2,-2.7 0.7,-4 0.4,-1.3 1.1,-2.4 1.9,-3.3 0.8,-1 1.8,-1.7 3,-2.3 1.2,-0.6 2.5,-0.8 3.9,-0.8 1.5,0 2.7,0.3 3.7,0.8 1,0.5 1.8,1.2 2.4,1.8 h 0.1 v -12.4 h 6.6 v 30.2 h -6.2 z m -0.2,-10 c 0,-0.6 -0.1,-1.3 -0.3,-1.9 -0.2,-0.6 -0.5,-1.2 -1,-1.6 -0.5,-0.4 -0.9,-0.9 -1.5,-1.2 -0.6,-0.3 -1.3,-0.4 -2,-0.4 -0.8,0 -1.5,0.1 -2,0.4 -0.6,0.3 -1.1,0.7 -1.5,1.1 -0.4,0.5 -0.7,1 -0.9,1.6 -0.2,0.6 -0.3,1.2 -0.3,1.9 0,0.7 0.1,1.3 0.3,1.9 0.2,0.6 0.5,1.2 0.9,1.7 0.4,0.5 0.9,0.9 1.5,1.2 0.6,0.3 1.3,0.4 2,0.4 0.7,0 1.4,-0.1 2,-0.4 0.6,-0.3 1.1,-0.7 1.5,-1.2 0.4,-0.5 0.7,-1 1,-1.6 0.2,-0.6 0.3,-1.3 0.3,-1.9 z"
   id="path1592"
   inkscape:connector-curvature="0" />
</g>
<g
   id="g1598"
   transform="translate(-2636.4,-748.9)">
	<path
   class="st1"
   d="m 3111.9,677.7 h -423.8 c -28.6,0 -51.7,-23.2 -51.7,-51.7 v 0 c 0,-28.6 23.2,-51.7 51.7,-51.7 h 423.8 c 28.6,0 51.7,23.2 51.7,51.7 v 0 c 0.1,28.6 -23.1,51.7 -51.7,51.7 z"
   id="path1596"
   inkscape:connector-curvature="0" />
</g>
<g
   id="g1602"
   transform="translate(-2636.4,-748.9)">
	<path
   class="st0"
   d="m 3108.6,667.9 h -417.2 c -23.1,0 -41.9,-18.8 -41.9,-41.9 0,-23.1 18.8,-41.9 41.9,-41.9 h 417.2 c 23.1,0 41.9,18.8 41.9,41.9 0,23.1 -18.8,41.9 -41.9,41.9 z m -417.2,-77.8 c -19.8,0 -35.9,16.1 -35.9,35.9 0,19.8 16.1,35.9 35.9,35.9 h 417.2 c 19.8,0 35.9,-16.1 35.9,-35.9 0,-19.8 -16.1,-35.9 -35.9,-35.9 z"
   id="path1600"
   inkscape:connector-curvature="0" />
</g>
<g
   id="g1634"
   transform="translate(-2636.4,-748.9)">
	<path
   class="st0"
   d="m 2731.6,623.7 c -0.4,-0.5 -0.9,-0.9 -1.5,-1.2 -0.6,-0.3 -1.3,-0.4 -2,-0.4 -0.7,0 -1.3,0.1 -1.9,0.4 -0.6,0.3 -1,0.7 -1.4,1.1 -0.4,0.5 -0.7,1 -0.9,1.6 -0.2,0.6 -0.3,1.3 -0.3,2 0,0.7 0.1,1.3 0.3,2 0.2,0.6 0.5,1.2 0.9,1.6 0.4,0.5 0.9,0.8 1.5,1.1 0.6,0.3 1.2,0.4 1.9,0.4 0.7,0 1.3,-0.1 2,-0.4 0.7,-0.3 1.2,-0.6 1.6,-1.1 l 3.6,4.4 c -0.8,0.8 -1.9,1.4 -3.2,1.9 -1.3,0.5 -2.7,0.7 -4.2,0.7 -1.6,0 -3,-0.2 -4.4,-0.7 -1.4,-0.5 -2.5,-1.2 -3.6,-2.1 -1,-0.9 -1.8,-2 -2.4,-3.3 -0.6,-1.3 -0.9,-2.8 -0.9,-4.4 0,-1.6 0.3,-3.1 0.9,-4.4 0.6,-1.3 1.4,-2.4 2.4,-3.3 1,-0.9 2.2,-1.6 3.6,-2.1 1.4,-0.5 2.8,-0.7 4.4,-0.7 0.7,0 1.4,0.1 2.1,0.2 0.7,0.1 1.4,0.3 2,0.5 0.7,0.2 1.3,0.5 1.8,0.8 0.5,0.3 1,0.7 1.4,1.1 z"
   id="path1604"
   inkscape:connector-curvature="0" />
	<path
   class="st0"
   d="m 2759.1,627.1 c 0,1.6 -0.3,3.1 -0.9,4.4 -0.6,1.3 -1.4,2.4 -2.4,3.4 -1,1 -2.2,1.6 -3.5,2.1 -1.3,0.5 -2.8,0.8 -4.3,0.8 -1.5,0 -2.9,-0.3 -4.3,-0.8 -1.3,-0.5 -2.5,-1.2 -3.5,-2.1 -1,-0.9 -1.8,-2 -2.4,-3.4 -0.6,-1.3 -0.9,-2.8 -0.9,-4.4 0,-1.6 0.3,-3.1 0.9,-4.4 0.6,-1.3 1.4,-2.4 2.4,-3.3 1,-0.9 2.2,-1.6 3.5,-2.1 1.3,-0.5 2.8,-0.7 4.3,-0.7 1.5,0 2.9,0.2 4.3,0.7 1.3,0.5 2.5,1.2 3.5,2.1 1,0.9 1.8,2 2.4,3.3 0.6,1.4 0.9,2.8 0.9,4.4 z m -6.4,0 c 0,-0.6 -0.1,-1.3 -0.3,-1.9 -0.2,-0.6 -0.5,-1.2 -0.9,-1.6 -0.4,-0.5 -0.9,-0.8 -1.5,-1.1 -0.6,-0.3 -1.3,-0.4 -2,-0.4 -0.7,0 -1.5,0.1 -2,0.4 -0.6,0.3 -1.1,0.7 -1.5,1.1 -0.4,0.5 -0.7,1 -0.9,1.6 -0.2,0.6 -0.3,1.2 -0.3,1.9 0,0.6 0.1,1.3 0.3,1.9 0.2,0.6 0.5,1.2 0.9,1.7 0.4,0.5 0.9,0.9 1.5,1.2 0.6,0.3 1.3,0.4 2,0.4 0.7,0 1.5,-0.1 2,-0.4 0.6,-0.3 1.1,-0.7 1.5,-1.2 0.4,-0.5 0.7,-1 0.9,-1.7 0.2,-0.6 0.3,-1.2 0.3,-1.9 z"
   id="path1606"
   inkscape:connector-curvature="0" />
	<path
   class="st0"
   d="m 2776.3,637.2 v -10.9 c 0,-0.6 0,-1.1 -0.1,-1.6 -0.1,-0.5 -0.2,-1 -0.5,-1.3 -0.2,-0.4 -0.5,-0.7 -0.9,-0.9 -0.4,-0.2 -0.9,-0.3 -1.5,-0.3 -0.6,0 -1.1,0.1 -1.5,0.3 -0.4,0.2 -0.8,0.5 -1.1,0.9 -0.3,0.4 -0.5,0.9 -0.7,1.4 -0.1,0.5 -0.2,1.1 -0.2,1.6 v 10.8 h -6.6 v -19.9 h 6.4 v 2.8 h 0.1 c 0.2,-0.4 0.6,-0.8 0.9,-1.3 0.4,-0.4 0.8,-0.8 1.4,-1.1 0.5,-0.3 1.1,-0.5 1.7,-0.7 0.6,-0.2 1.3,-0.3 2,-0.3 1.3,0 2.5,0.2 3.4,0.7 0.9,0.5 1.7,1.1 2.3,1.9 0.6,0.8 1,1.6 1.2,2.6 0.3,1 0.4,2 0.4,3 v 12.3 z"
   id="path1608"
   inkscape:connector-curvature="0" />
	<path
   class="st0"
   d="m 2800.2,611.8 c -0.2,-0.1 -0.5,-0.1 -0.8,-0.2 -0.3,-0.1 -0.6,-0.1 -1,-0.1 -0.6,0 -1.1,0.1 -1.5,0.3 -0.4,0.2 -0.7,0.5 -0.9,0.9 -0.2,0.4 -0.4,0.8 -0.4,1.2 0,0.4 -0.1,0.9 -0.1,1.4 v 2 h 4.4 v 4.9 h -4.4 v 15 h -6.6 v -15 h -3.6 v -4.9 h 3.6 v -1.9 c 0,-1.2 0.1,-2.4 0.4,-3.5 0.3,-1.1 0.7,-2.1 1.4,-2.9 0.7,-0.8 1.5,-1.5 2.6,-2 1.1,-0.5 2.5,-0.7 4.1,-0.7 0.6,0 1.1,0 1.7,0.1 0.5,0.1 1,0.2 1.5,0.3 z"
   id="path1610"
   inkscape:connector-curvature="0" />
	<path
   class="st0"
   d="m 2822.2,627.5 c 0,0.3 0,0.5 0,0.8 0,0.3 0,0.5 0,0.8 h -14.4 c 0.1,0.6 0.2,1.1 0.5,1.5 0.3,0.5 0.6,0.8 1.1,1.2 0.4,0.3 0.9,0.6 1.5,0.8 0.6,0.2 1.1,0.3 1.7,0.3 1,0 1.9,-0.2 2.6,-0.6 0.7,-0.4 1.3,-0.9 1.8,-1.5 l 4.6,2.9 c -0.9,1.4 -2.2,2.4 -3.7,3.1 -1.5,0.7 -3.3,1.1 -5.3,1.1 -1.5,0 -2.9,-0.2 -4.2,-0.7 -1.3,-0.5 -2.5,-1.1 -3.5,-2 -1,-0.9 -1.8,-2 -2.4,-3.3 -0.6,-1.3 -0.9,-2.8 -0.9,-4.5 0,-1.6 0.3,-3.1 0.8,-4.4 0.6,-1.3 1.3,-2.4 2.3,-3.4 1,-1 2.1,-1.6 3.4,-2.1 1.3,-0.5 2.7,-0.8 4.2,-0.8 1.5,0 2.8,0.2 4,0.7 1.2,0.5 2.3,1.2 3.2,2.1 0.9,0.9 1.6,2.1 2.1,3.4 0.3,1.3 0.6,2.9 0.6,4.6 z m -6.1,-2.6 c 0,-1 -0.3,-1.9 -1,-2.7 -0.7,-0.7 -1.6,-1.1 -2.9,-1.1 -0.6,0 -1.2,0.1 -1.8,0.3 -0.5,0.2 -1,0.5 -1.4,0.8 -0.4,0.3 -0.7,0.8 -1,1.2 -0.2,0.5 -0.4,1 -0.4,1.5 z"
   id="path1612"
   inkscape:connector-curvature="0" />
	<path
   class="st0"
   d="m 2839.2,622.7 c -0.3,-0.1 -0.6,-0.1 -0.9,-0.2 -0.3,0 -0.6,0 -0.8,0 -0.9,0 -1.6,0.2 -2.2,0.5 -0.6,0.3 -1.1,0.7 -1.4,1.2 -0.3,0.5 -0.6,0.9 -0.8,1.5 -0.2,0.5 -0.2,1 -0.2,1.4 v 10.2 h -6.6 v -19.9 h 6.3 v 2.9 h 0.1 c 0.5,-1 1.2,-1.9 2.2,-2.5 0.9,-0.6 2,-1 3.2,-1 0.3,0 0.5,0 0.8,0 0.3,0 0.5,0.1 0.6,0.1 z"
   id="path1614"
   inkscape:connector-curvature="0" />
	<path
   class="st0"
   d="m 2867.5,637.2 v -10.9 c 0,-0.6 0,-1.1 -0.1,-1.6 -0.1,-0.5 -0.2,-1 -0.4,-1.3 -0.2,-0.4 -0.5,-0.7 -0.9,-0.9 -0.4,-0.2 -0.8,-0.3 -1.4,-0.3 -0.6,0 -1,0.1 -1.5,0.4 -0.4,0.2 -0.8,0.6 -1,1 -0.3,0.4 -0.5,0.9 -0.6,1.4 -0.1,0.5 -0.2,1.1 -0.2,1.6 v 10.8 h -6.6 V 626 c 0,-1.1 -0.2,-2.1 -0.7,-2.7 -0.5,-0.7 -1.2,-1 -2.2,-1 -1,0 -1.8,0.4 -2.4,1.2 -0.6,0.8 -0.9,1.8 -0.9,3 v 10.8 h -6.6 v -19.9 h 6.4 v 2.8 h 0.1 c 0.2,-0.4 0.5,-0.8 0.9,-1.2 0.4,-0.4 0.8,-0.8 1.3,-1.1 0.5,-0.3 1.1,-0.6 1.7,-0.7 0.6,-0.2 1.3,-0.3 2.1,-0.3 1.4,0 2.7,0.3 3.7,0.9 1,0.6 1.8,1.4 2.3,2.5 0.7,-1 1.5,-1.9 2.6,-2.5 1.1,-0.6 2.3,-0.9 3.8,-0.9 1.4,0 2.5,0.2 3.4,0.7 0.9,0.5 1.7,1.1 2.2,1.9 0.6,0.8 1,1.7 1.2,2.6 0.3,1 0.4,1.9 0.4,2.9 v 12.3 h -6.6 z"
   id="path1616"
   inkscape:connector-curvature="0" />
	<path
   class="st0"
   d="m 2911.2,627.1 c 0,1.4 -0.2,2.7 -0.6,4 -0.4,1.3 -1,2.4 -1.9,3.4 -0.8,1 -1.8,1.8 -3,2.3 -1.2,0.6 -2.5,0.9 -4,0.9 -1.2,0 -2.4,-0.2 -3.5,-0.7 -1.1,-0.5 -1.9,-1.2 -2.6,-2 h -0.1 v 11.8 h -6.6 v -29.5 h 6.2 v 2.4 h 0.1 c 0.6,-0.8 1.5,-1.5 2.5,-2.1 1.1,-0.6 2.4,-0.9 3.8,-0.9 1.4,0 2.7,0.3 3.9,0.8 1.2,0.6 2.2,1.3 3,2.3 0.8,1 1.4,2.1 1.9,3.3 0.7,1.3 0.9,2.7 0.9,4 z m -6.3,0 c 0,-0.6 -0.1,-1.3 -0.3,-1.9 -0.2,-0.6 -0.5,-1.2 -0.9,-1.6 -0.4,-0.5 -0.9,-0.8 -1.5,-1.1 -0.6,-0.3 -1.3,-0.4 -2,-0.4 -0.7,0 -1.4,0.1 -2,0.4 -0.6,0.3 -1.1,0.7 -1.5,1.2 -0.4,0.5 -0.7,1 -1,1.6 -0.2,0.6 -0.3,1.2 -0.3,1.9 0,0.6 0.1,1.3 0.3,1.9 0.2,0.6 0.5,1.2 1,1.6 0.4,0.5 0.9,0.9 1.5,1.2 0.6,0.3 1.3,0.4 2,0.4 0.8,0 1.5,-0.1 2,-0.4 0.6,-0.3 1.1,-0.7 1.5,-1.2 0.4,-0.5 0.7,-1 0.9,-1.7 0.2,-0.6 0.3,-1.2 0.3,-1.9 z"
   id="path1618"
   inkscape:connector-curvature="0" />
	<path
   class="st0"
   d="m 2915.1,620 c 1.2,-1.1 2.5,-2 4.1,-2.5 1.6,-0.6 3.2,-0.8 4.8,-0.8 1.7,0 3.1,0.2 4.3,0.6 1.2,0.4 2.1,1.1 2.8,1.9 0.7,0.8 1.2,2 1.6,3.3 0.3,1.3 0.5,2.9 0.5,4.7 v 10 h -6 v -2.1 h -0.1 c -0.5,0.8 -1.3,1.5 -2.3,1.9 -1,0.5 -2.1,0.7 -3.3,0.7 -0.8,0 -1.6,-0.1 -2.5,-0.3 -0.9,-0.2 -1.6,-0.6 -2.3,-1 -0.7,-0.5 -1.3,-1.1 -1.7,-1.9 -0.4,-0.8 -0.7,-1.8 -0.7,-3 0,-1.4 0.4,-2.6 1.2,-3.5 0.8,-0.9 1.8,-1.6 3,-2 1.2,-0.5 2.6,-0.8 4.1,-1 1.5,-0.2 3,-0.2 4.4,-0.2 v -0.3 c 0,-1 -0.3,-1.7 -1,-2.2 -0.7,-0.5 -1.5,-0.7 -2.6,-0.7 -0.9,0 -1.8,0.2 -2.7,0.6 -0.9,0.4 -1.6,0.9 -2.2,1.4 z m 12,8.5 h -0.8 c -0.7,0 -1.4,0 -2.2,0.1 -0.7,0.1 -1.4,0.2 -2,0.4 -0.6,0.2 -1,0.5 -1.4,0.8 -0.4,0.3 -0.6,0.8 -0.6,1.4 0,0.4 0.1,0.7 0.3,1 0.2,0.3 0.4,0.5 0.7,0.6 0.3,0.2 0.6,0.3 0.9,0.3 0.3,0 0.7,0.1 1,0.1 1.3,0 2.4,-0.4 3.1,-1.1 0.7,-0.7 1.1,-1.7 1.1,-3 v -0.6 z"
   id="path1620"
   inkscape:connector-curvature="0" />
	<path
   class="st0"
   d="m 2949.7,623.1 c -0.5,-0.5 -1.2,-0.9 -1.9,-1.3 -0.7,-0.4 -1.5,-0.5 -2.3,-0.5 -0.6,0 -1.2,0.1 -1.7,0.4 -0.5,0.2 -0.8,0.7 -0.8,1.2 0,0.6 0.3,1 0.9,1.2 0.6,0.2 1.5,0.5 2.8,0.8 0.7,0.2 1.5,0.4 2.3,0.7 0.8,0.3 1.4,0.7 2.1,1.2 0.6,0.5 1.1,1.1 1.5,1.8 0.4,0.7 0.6,1.5 0.6,2.5 0,1.3 -0.3,2.3 -0.8,3.2 -0.5,0.9 -1.2,1.6 -2,2.1 -0.8,0.5 -1.7,0.9 -2.7,1.2 -1,0.3 -2,0.4 -3,0.4 -1.6,0 -3.2,-0.3 -4.8,-0.8 -1.6,-0.5 -2.9,-1.3 -3.9,-2.3 l 3.7,-3.9 c 0.6,0.6 1.3,1.2 2.2,1.6 0.9,0.4 1.8,0.6 2.7,0.6 0.5,0 1.1,-0.1 1.6,-0.4 0.5,-0.3 0.8,-0.7 0.8,-1.3 0,-0.6 -0.3,-1.1 -1,-1.4 -0.6,-0.3 -1.6,-0.6 -3,-0.9 -0.7,-0.2 -1.4,-0.4 -2.1,-0.6 -0.7,-0.2 -1.3,-0.6 -1.9,-1.1 -0.5,-0.5 -1,-1 -1.3,-1.7 -0.3,-0.7 -0.5,-1.5 -0.5,-2.4 0,-1.2 0.3,-2.2 0.8,-3.1 0.5,-0.8 1.2,-1.5 2,-2.1 0.8,-0.5 1.7,-0.9 2.7,-1.2 1,-0.3 1.9,-0.4 2.9,-0.4 1.5,0 3,0.2 4.4,0.7 1.4,0.5 2.6,1.2 3.6,2.1 z"
   id="path1622"
   inkscape:connector-curvature="0" />
	<path
   class="st0"
   d="m 2968.6,623.1 c -0.5,-0.5 -1.2,-0.9 -1.9,-1.3 -0.7,-0.3 -1.5,-0.5 -2.3,-0.5 -0.6,0 -1.2,0.1 -1.7,0.4 -0.5,0.2 -0.8,0.7 -0.8,1.2 0,0.6 0.3,1 0.9,1.2 0.6,0.2 1.5,0.5 2.8,0.8 0.7,0.2 1.5,0.4 2.3,0.7 0.8,0.3 1.4,0.7 2.1,1.2 0.6,0.5 1.1,1.1 1.5,1.8 0.4,0.7 0.6,1.5 0.6,2.5 0,1.3 -0.3,2.3 -0.8,3.2 -0.5,0.9 -1.2,1.6 -2,2.1 -0.8,0.5 -1.7,0.9 -2.7,1.2 -1,0.2 -2,0.4 -3,0.4 -1.6,0 -3.2,-0.3 -4.8,-0.8 -1.6,-0.5 -2.9,-1.3 -3.9,-2.3 l 3.7,-3.9 c 0.6,0.6 1.3,1.2 2.2,1.6 0.9,0.4 1.8,0.6 2.7,0.6 0.5,0 1.1,-0.1 1.6,-0.4 0.5,-0.3 0.8,-0.7 0.8,-1.3 0,-0.6 -0.3,-1.1 -1,-1.4 -0.6,-0.3 -1.6,-0.6 -3,-0.9 -0.7,-0.2 -1.4,-0.4 -2.1,-0.6 -0.7,-0.2 -1.3,-0.6 -1.9,-1.1 -0.5,-0.5 -1,-1 -1.3,-1.7 -0.3,-0.7 -0.5,-1.5 -0.5,-2.4 0,-1.2 0.3,-2.2 0.8,-3.1 0.5,-0.9 1.2,-1.5 2,-2.1 0.8,-0.5 1.7,-0.9 2.7,-1.2 1,-0.3 1.9,-0.4 2.9,-0.4 1.5,0 3,0.2 4.4,0.7 1.4,0.5 2.6,1.2 3.6,2.1 z"
   id="path1624"
   inkscape:connector-curvature="0" />
	<path
   class="st0"
   d="m 3001.1,637.2 h -6.6 l -3.9,-12.4 h -0.1 l -3.8,12.4 h -6.6 l -6.9,-19.9 h 7.1 l 3.4,12.6 h 0.1 l 3.6,-12.6 h 6.6 l 3.7,12.6 h 0.1 l 3.5,-12.6 h 6.8 z"
   id="path1626"
   inkscape:connector-curvature="0" />
	<path
   class="st0"
   d="m 3031.7,627.1 c 0,1.6 -0.3,3.1 -0.9,4.4 -0.6,1.3 -1.4,2.4 -2.4,3.4 -1,0.9 -2.2,1.6 -3.5,2.1 -1.3,0.5 -2.8,0.8 -4.3,0.8 -1.5,0 -2.9,-0.3 -4.3,-0.8 -1.3,-0.5 -2.5,-1.2 -3.5,-2.1 -1,-0.9 -1.8,-2 -2.4,-3.4 -0.6,-1.3 -0.9,-2.8 -0.9,-4.4 0,-1.6 0.3,-3.1 0.9,-4.4 0.6,-1.3 1.4,-2.4 2.4,-3.3 1,-0.9 2.2,-1.6 3.5,-2.1 1.3,-0.5 2.8,-0.7 4.3,-0.7 1.5,0 2.9,0.2 4.3,0.7 1.3,0.5 2.5,1.2 3.5,2.1 1,0.9 1.8,2 2.4,3.3 0.6,1.3 0.9,2.8 0.9,4.4 z m -6.3,0 c 0,-0.6 -0.1,-1.3 -0.3,-1.9 -0.2,-0.6 -0.5,-1.2 -0.9,-1.6 -0.4,-0.5 -0.9,-0.8 -1.5,-1.1 -0.6,-0.3 -1.3,-0.4 -2,-0.4 -0.7,0 -1.5,0.1 -2,0.4 -0.6,0.3 -1.1,0.7 -1.5,1.1 -0.4,0.5 -0.7,1 -0.9,1.6 -0.2,0.6 -0.3,1.2 -0.3,1.9 0,0.6 0.1,1.3 0.3,1.9 0.2,0.6 0.5,1.2 0.9,1.7 0.4,0.5 0.9,0.9 1.5,1.2 0.6,0.3 1.3,0.4 2,0.4 0.7,0 1.5,-0.1 2,-0.4 0.6,-0.3 1.1,-0.7 1.5,-1.2 0.4,-0.5 0.7,-1 0.9,-1.7 0.2,-0.6 0.3,-1.2 0.3,-1.9 z"
   id="path1628"
   inkscape:connector-curvature="0" />
	<path
   class="st0"
   d="m 3048.8,622.7 c -0.3,-0.1 -0.6,-0.1 -0.9,-0.2 -0.3,-0.1 -0.6,0 -0.8,0 -0.9,0 -1.6,0.2 -2.2,0.5 -0.6,0.3 -1.1,0.7 -1.4,1.2 -0.4,0.5 -0.6,0.9 -0.8,1.5 -0.2,0.5 -0.2,1 -0.2,1.4 v 10.2 h -6.6 v -19.9 h 6.3 v 2.9 h 0.1 c 0.5,-1 1.2,-1.9 2.2,-2.5 0.9,-0.6 2,-1 3.2,-1 0.3,0 0.5,0 0.8,0 0.3,0 0.5,0.1 0.6,0.1 z"
   id="path1630"
   inkscape:connector-curvature="0" />
	<path
   class="st0"
   d="m 3066.1,637.2 v -2.6 h -0.1 c -0.6,1 -1.6,1.8 -2.7,2.3 -1.2,0.5 -2.4,0.8 -3.8,0.8 -1.5,0 -2.8,-0.3 -4,-0.9 -1.2,-0.6 -2.2,-1.4 -3,-2.3 -0.8,-1 -1.4,-2.1 -1.9,-3.4 -0.4,-1.3 -0.6,-2.6 -0.6,-4 0,-1.4 0.2,-2.7 0.7,-4 0.4,-1.3 1.1,-2.4 1.9,-3.3 0.8,-0.9 1.8,-1.7 3,-2.3 1.2,-0.6 2.5,-0.8 3.9,-0.8 1.5,0 2.7,0.3 3.7,0.8 1,0.6 1.8,1.2 2.4,1.8 h 0.1 v -12.4 h 6.6 v 30.2 h -6.2 z m -0.3,-10 c 0,-0.6 -0.1,-1.3 -0.3,-1.9 -0.2,-0.6 -0.5,-1.2 -1,-1.6 -0.4,-0.5 -0.9,-0.9 -1.5,-1.2 -0.6,-0.3 -1.3,-0.4 -2,-0.4 -0.8,0 -1.5,0.1 -2,0.4 -0.6,0.3 -1.1,0.7 -1.5,1.1 -0.4,0.5 -0.7,1 -0.9,1.6 -0.2,0.6 -0.3,1.2 -0.3,1.9 0,0.6 0.1,1.3 0.3,1.9 0.2,0.6 0.5,1.2 0.9,1.7 0.4,0.5 0.9,0.9 1.5,1.2 0.6,0.3 1.3,0.4 2,0.4 0.7,0 1.4,-0.1 2,-0.4 0.6,-0.3 1.1,-0.7 1.5,-1.2 0.4,-0.5 0.7,-1 1,-1.6 0.2,-0.6 0.3,-1.3 0.3,-1.9 z"
   id="path1632"
   inkscape:connector-curvature="0" />
</g>
<g
   id="g1652"
   transform="translate(-2636.4,-748.9)">
	<path
   class="st0"
   d="m 2815.1,387.2 v -2.8 h -0.1 c -0.2,0.5 -0.6,0.9 -0.9,1.3 -0.4,0.4 -0.8,0.7 -1.4,1 -0.5,0.3 -1.1,0.5 -1.7,0.7 -0.6,0.2 -1.3,0.3 -2,0.3 -1.3,0 -2.5,-0.2 -3.4,-0.7 -0.9,-0.5 -1.7,-1.1 -2.2,-1.9 -0.6,-0.8 -1,-1.6 -1.2,-2.6 -0.3,-1 -0.4,-2 -0.4,-3 v -12.3 h 6.6 V 378 c 0,0.6 0,1.1 0.1,1.6 0.1,0.5 0.2,1 0.5,1.4 0.2,0.4 0.5,0.7 0.9,0.9 0.4,0.2 0.9,0.3 1.5,0.3 1.1,0 2,-0.4 2.6,-1.3 0.6,-0.9 0.9,-1.9 0.9,-3 v -10.8 h 6.6 V 387 h -6.4 z"
   id="path1636"
   inkscape:connector-curvature="0" />
	<path
   class="st0"
   d="m 2838.2,373.1 c -0.5,-0.5 -1.2,-0.9 -1.9,-1.3 -0.7,-0.3 -1.5,-0.5 -2.3,-0.5 -0.6,0 -1.2,0.1 -1.7,0.4 -0.5,0.2 -0.8,0.7 -0.8,1.2 0,0.6 0.3,1 0.9,1.2 0.6,0.2 1.5,0.5 2.8,0.8 0.7,0.2 1.5,0.4 2.3,0.7 0.8,0.3 1.4,0.7 2.1,1.2 0.6,0.5 1.1,1.1 1.5,1.8 0.4,0.7 0.6,1.5 0.6,2.5 0,1.3 -0.3,2.3 -0.8,3.2 -0.5,0.9 -1.2,1.6 -2,2.1 -0.8,0.5 -1.7,0.9 -2.7,1.2 -1,0.2 -2,0.4 -3,0.4 -1.6,0 -3.2,-0.3 -4.8,-0.8 -1.6,-0.5 -2.9,-1.3 -3.9,-2.3 l 3.7,-3.9 c 0.6,0.6 1.3,1.2 2.2,1.6 0.9,0.4 1.8,0.6 2.7,0.6 0.5,0 1.1,-0.1 1.6,-0.4 0.5,-0.3 0.8,-0.7 0.8,-1.3 0,-0.6 -0.3,-1.1 -1,-1.4 -0.6,-0.3 -1.6,-0.6 -3,-0.9 -0.7,-0.2 -1.4,-0.4 -2.1,-0.6 -0.7,-0.3 -1.3,-0.6 -1.9,-1.1 -0.5,-0.5 -1,-1 -1.3,-1.7 -0.3,-0.7 -0.5,-1.5 -0.5,-2.4 0,-1.2 0.3,-2.2 0.8,-3.1 0.5,-0.8 1.2,-1.5 2,-2.1 0.8,-0.5 1.7,-0.9 2.7,-1.2 1,-0.3 1.9,-0.4 2.9,-0.4 1.5,0 3,0.2 4.4,0.7 1.4,0.5 2.6,1.2 3.6,2.1 z"
   id="path1638"
   inkscape:connector-curvature="0" />
	<path
   class="st0"
   d="m 2865.2,377.5 c 0,0.3 0,0.5 0,0.8 0,0.3 0,0.5 0,0.8 h -14.4 c 0.1,0.6 0.2,1.1 0.5,1.5 0.3,0.5 0.6,0.8 1.1,1.2 0.4,0.3 0.9,0.6 1.5,0.8 0.5,0.2 1.1,0.3 1.7,0.3 1,0 1.9,-0.2 2.6,-0.6 0.7,-0.4 1.3,-0.9 1.8,-1.5 l 4.6,2.9 c -0.9,1.4 -2.2,2.4 -3.7,3.1 -1.5,0.7 -3.3,1.1 -5.3,1.1 -1.5,0 -2.9,-0.2 -4.2,-0.7 -1.3,-0.5 -2.5,-1.1 -3.5,-2 -1,-0.9 -1.8,-2 -2.4,-3.3 -0.6,-1.3 -0.9,-2.8 -0.9,-4.5 0,-1.6 0.3,-3.1 0.8,-4.4 0.6,-1.3 1.3,-2.4 2.3,-3.4 1,-1 2.1,-1.6 3.4,-2.1 1.3,-0.5 2.7,-0.8 4.2,-0.8 1.5,0 2.8,0.2 4,0.7 1.2,0.5 2.3,1.2 3.2,2.1 0.9,0.9 1.6,2.1 2.1,3.4 0.3,1.3 0.6,2.9 0.6,4.6 z m -6.1,-2.6 c 0,-1 -0.3,-1.9 -1,-2.7 -0.7,-0.7 -1.6,-1.1 -2.9,-1.1 -0.6,0 -1.2,0.1 -1.8,0.3 -0.5,0.2 -1,0.5 -1.4,0.8 -0.4,0.3 -0.7,0.8 -1,1.2 -0.2,0.5 -0.4,1 -0.4,1.5 z"
   id="path1640"
   inkscape:connector-curvature="0" />
	<path
   class="st0"
   d="m 2882.2,372.7 c -0.3,-0.1 -0.6,-0.1 -0.9,-0.2 -0.3,0 -0.6,0 -0.8,0 -0.9,0 -1.6,0.2 -2.2,0.5 -0.6,0.3 -1.1,0.7 -1.4,1.2 -0.4,0.5 -0.6,0.9 -0.8,1.5 -0.2,0.5 -0.2,1 -0.2,1.4 v 10.2 h -6.6 v -19.9 h 6.3 v 2.9 h 0.1 c 0.5,-1 1.2,-1.9 2.2,-2.5 0.9,-0.6 2,-1 3.2,-1 0.3,0 0.5,0 0.8,0 0.3,0 0.5,0.1 0.6,0.1 z"
   id="path1642"
   inkscape:connector-curvature="0" />
	<path
   class="st0"
   d="m 2898.2,387.2 v -10.9 c 0,-0.6 0,-1.1 -0.1,-1.6 -0.1,-0.5 -0.2,-1 -0.5,-1.3 -0.2,-0.4 -0.5,-0.7 -0.9,-0.9 -0.4,-0.2 -0.9,-0.3 -1.5,-0.3 -0.6,0 -1.1,0.1 -1.5,0.3 -0.4,0.2 -0.8,0.5 -1.1,0.9 -0.3,0.4 -0.5,0.9 -0.7,1.4 -0.1,0.5 -0.2,1.1 -0.2,1.6 v 10.8 h -6.6 v -19.9 h 6.4 v 2.8 h 0.1 c 0.2,-0.4 0.6,-0.8 0.9,-1.3 0.4,-0.4 0.8,-0.8 1.4,-1.1 0.5,-0.3 1.1,-0.5 1.7,-0.7 0.6,-0.2 1.3,-0.3 2,-0.3 1.3,0 2.5,0.2 3.4,0.7 0.9,0.5 1.7,1.1 2.3,1.9 0.6,0.8 1,1.6 1.2,2.6 0.3,1 0.4,2 0.4,3 v 12.3 z"
   id="path1644"
   inkscape:connector-curvature="0" />
	<path
   class="st0"
   d="m 2909.4,370 c 1.2,-1.1 2.5,-2 4.1,-2.5 1.6,-0.6 3.2,-0.8 4.8,-0.8 1.7,0 3.1,0.2 4.3,0.6 1.2,0.4 2.1,1.1 2.8,1.9 0.7,0.9 1.2,2 1.6,3.3 0.3,1.3 0.5,2.9 0.5,4.7 v 10 h -6 v -2.1 h -0.1 c -0.5,0.8 -1.3,1.5 -2.3,1.9 -1,0.5 -2.1,0.7 -3.3,0.7 -0.8,0 -1.6,-0.1 -2.5,-0.3 -0.9,-0.2 -1.6,-0.6 -2.3,-1 -0.7,-0.5 -1.3,-1.1 -1.7,-1.9 -0.5,-0.8 -0.7,-1.8 -0.7,-3 0,-1.4 0.4,-2.6 1.2,-3.5 0.8,-0.9 1.8,-1.6 3,-2 1.2,-0.4 2.6,-0.8 4.1,-1 1.5,-0.2 3,-0.2 4.4,-0.2 v -0.3 c 0,-1 -0.3,-1.7 -1,-2.2 -0.7,-0.5 -1.5,-0.7 -2.6,-0.7 -0.9,0 -1.8,0.2 -2.7,0.6 -0.9,0.4 -1.6,0.9 -2.2,1.4 z m 12.1,8.5 h -0.8 c -0.7,0 -1.4,0 -2.2,0.1 -0.7,0.1 -1.4,0.2 -2,0.4 -0.6,0.2 -1,0.5 -1.4,0.8 -0.4,0.4 -0.6,0.8 -0.6,1.4 0,0.4 0.1,0.7 0.3,1 0.2,0.3 0.4,0.5 0.7,0.6 0.3,0.2 0.6,0.3 0.9,0.3 0.3,0.1 0.7,0.1 1,0.1 1.3,0 2.4,-0.4 3.1,-1.1 0.7,-0.7 1.1,-1.7 1.1,-3 v -0.6 z"
   id="path1646"
   inkscape:connector-curvature="0" />
	<path
   class="st0"
   d="m 2957.8,387.2 v -10.9 c 0,-0.6 0,-1.1 -0.1,-1.6 -0.1,-0.5 -0.2,-1 -0.4,-1.3 -0.2,-0.4 -0.5,-0.7 -0.9,-0.9 -0.4,-0.2 -0.8,-0.3 -1.4,-0.3 -0.6,0 -1,0.1 -1.5,0.4 -0.4,0.2 -0.8,0.6 -1,1 -0.3,0.4 -0.5,0.9 -0.6,1.4 -0.1,0.5 -0.2,1.1 -0.2,1.6 v 10.8 h -6.6 V 376 c 0,-1.1 -0.2,-2.1 -0.7,-2.7 -0.5,-0.7 -1.2,-1 -2.2,-1 -1,0 -1.8,0.4 -2.4,1.2 -0.6,0.8 -0.9,1.8 -0.9,3 v 10.8 h -6.6 v -19.9 h 6.4 v 2.8 h 0.1 c 0.2,-0.4 0.5,-0.8 0.9,-1.2 0.4,-0.4 0.8,-0.8 1.3,-1.1 0.5,-0.3 1.1,-0.6 1.7,-0.7 0.6,-0.2 1.3,-0.3 2.1,-0.3 1.4,0 2.7,0.3 3.7,0.9 1,0.6 1.8,1.4 2.3,2.5 0.7,-1 1.5,-1.9 2.6,-2.5 1,-0.6 2.3,-0.9 3.8,-0.9 1.4,0 2.5,0.2 3.4,0.7 0.9,0.5 1.7,1.1 2.2,1.9 0.6,0.8 1,1.7 1.2,2.6 0.3,1 0.4,1.9 0.4,2.9 v 12.3 h -6.6 z"
   id="path1648"
   inkscape:connector-curvature="0" />
	<path
   class="st0"
   d="m 2989.1,377.5 c 0,0.3 0,0.5 0,0.8 0,0.3 0,0.5 0,0.8 h -14.4 c 0.1,0.6 0.2,1.1 0.5,1.5 0.3,0.5 0.6,0.8 1.1,1.2 0.4,0.3 0.9,0.6 1.5,0.8 0.5,0.2 1.1,0.3 1.7,0.3 1,0 1.9,-0.2 2.6,-0.6 0.7,-0.4 1.3,-0.9 1.8,-1.5 l 4.6,2.9 c -0.9,1.4 -2.2,2.4 -3.7,3.1 -1.5,0.7 -3.3,1.1 -5.3,1.1 -1.5,0 -2.9,-0.2 -4.2,-0.7 -1.3,-0.5 -2.5,-1.1 -3.5,-2 -1,-0.9 -1.8,-2 -2.4,-3.3 -0.6,-1.3 -0.9,-2.8 -0.9,-4.5 0,-1.6 0.3,-3.1 0.8,-4.4 0.6,-1.3 1.3,-2.4 2.3,-3.4 1,-1 2.1,-1.6 3.4,-2.1 1.3,-0.5 2.7,-0.8 4.2,-0.8 1.5,0 2.8,0.2 4,0.7 1.2,0.5 2.3,1.2 3.2,2.1 0.9,0.9 1.6,2.1 2.1,3.4 0.3,1.3 0.6,2.9 0.6,4.6 z m -6.1,-2.6 c 0,-1 -0.3,-1.9 -1,-2.7 -0.7,-0.7 -1.6,-1.1 -2.9,-1.1 -0.6,0 -1.2,0.1 -1.8,0.3 -0.5,0.2 -1,0.5 -1.4,0.8 -0.4,0.3 -0.7,0.8 -1,1.2 -0.2,0.5 -0.4,1 -0.4,1.5 z"
   id="path1650"
   inkscape:connector-curvature="0" />
</g>
<g
   id="g1656"
   transform="translate(-2636.4,-748.9)">
	<path
   class="st0"
   d="m 3108.6,415.9 h -417.2 c -23.1,0 -41.9,-18.8 -41.9,-41.9 0,-23.1 18.8,-41.9 41.9,-41.9 h 417.2 c 23.1,0 41.9,18.8 41.9,41.9 0,23.1 -18.8,41.9 -41.9,41.9 z m -417.2,-77.8 c -19.8,0 -35.9,16.1 -35.9,35.9 0,19.8 16.1,35.9 35.9,35.9 h 417.2 c 19.8,0 35.9,-16.1 35.9,-35.9 0,-19.8 -16.1,-35.9 -35.9,-35.9 z"
   id="path1654"
   inkscape:connector-curvature="0" />
</g>
<g
   id="g1678"
   transform="translate(-2636.4,-748.9)">
	<path
   class="st1"
   d="m 2615.1,171.8 h 23.5 c 4.4,0 8.8,0.7 13.2,2.2 4.4,1.5 8.4,3.7 12,6.6 3.6,3 6.5,6.7 8.7,11.1 2.2,4.4 3.3,9.6 3.3,15.5 0,5.9 -1.1,11.1 -3.3,15.5 -2.2,4.4 -5.1,8.1 -8.7,11 -3.6,3 -7.6,5.2 -12,6.6 -4.4,1.5 -8.8,2.2 -13.2,2.2 h -23.5 z m 7.2,64.4 h 14.3 c 5.3,0 10,-0.8 14,-2.5 4,-1.7 7.2,-3.9 9.8,-6.6 2.6,-2.7 4.5,-5.8 5.8,-9.2 1.3,-3.5 2,-7 2,-10.7 0,-3.7 -0.6,-7.2 -2,-10.7 -1.3,-3.5 -3.2,-6.5 -5.8,-9.2 -2.6,-2.7 -5.9,-4.9 -9.8,-6.5 -4,-1.7 -8.6,-2.5 -14,-2.5 h -14.3 z"
   id="path1658"
   inkscape:connector-curvature="0" />
	<path
   class="st1"
   d="m 2687.9,242.6 h -7.9 l 30.6,-70.8 h 7 l 30.4,70.8 h -8 l -7.8,-18.6 h -36.6 z m 10.4,-25.2 h 31.2 l -15.6,-37.6 z"
   id="path1660"
   inkscape:connector-curvature="0" />
	<path
   class="st1"
   d="m 2765.6,242.6 h -7.2 v -70.8 h 7.2 z"
   id="path1662"
   inkscape:connector-curvature="0" />
	<path
   class="st1"
   d="m 2791.6,236.2 h 33 v 6.4 h -40.2 v -70.8 h 7.2 z"
   id="path1664"
   inkscape:connector-curvature="0" />
	<path
   class="st1"
   d="m 2850.7,242.6 h -7.2 V 212.1 L 2817,171.8 h 9 l 21.3,34.3 21.5,-34.3 h 8.4 l -26.5,40.3 z"
   id="path1666"
   inkscape:connector-curvature="0" />
	<path
   class="st1"
   d="m 2950.6,207 c 0,6.2 -1.1,11.6 -3.4,16.1 -2.3,4.5 -5.3,8.2 -9.1,11.1 -3.8,2.9 -8,5 -12.8,6.4 -4.7,1.4 -9.5,2 -14.4,2 h -26.4 v -70.8 h 25.6 c 5,0 9.9,0.6 14.8,1.8 4.9,1.2 9.2,3.1 13,5.8 3.8,2.7 6.9,6.3 9.2,10.9 2.3,4.5 3.5,10.1 3.5,16.7 z m -17.8,0 c 0,-4 -0.7,-7.3 -2,-9.9 -1.3,-2.6 -3,-4.7 -5.2,-6.3 -2.2,-1.6 -4.6,-2.7 -7.4,-3.4 -2.8,-0.7 -5.6,-1 -8.5,-1 h -8.5 v 41.4 h 8.1 c 3.1,0 6,-0.4 8.8,-1.1 2.8,-0.7 5.3,-1.9 7.5,-3.4 2.2,-1.6 3.9,-3.7 5.2,-6.4 1.4,-2.6 2,-5.9 2,-9.9 z"
   id="path1668"
   inkscape:connector-curvature="0" />
	<path
   class="st1"
   d="m 2961.9,242.6 v -70.8 h 17.2 v 70.8 z"
   id="path1670"
   inkscape:connector-curvature="0" />
	<path
   class="st1"
   d="m 3041.7,242.6 -5.5,-13.9 h -27.4 l -5.2,13.9 H 2985 l 29.7,-70.8 h 16.6 l 29.4,70.8 z m -19,-51.9 -9,24.3 h 17.8 z"
   id="path1672"
   inkscape:connector-curvature="0" />
	<path
   class="st1"
   d="m 3104.5,242.6 -15.4,-28.1 h -5.8 v 28.1 h -16.7 v -70.8 h 27 c 3.4,0 6.7,0.3 10,1 3.2,0.7 6.1,1.9 8.7,3.5 2.6,1.7 4.6,3.9 6.1,6.6 1.5,2.7 2.3,6.1 2.3,10.2 0,4.8 -1.3,8.8 -3.9,12.1 -2.6,3.3 -6.2,5.6 -10.8,7 l 18.5,30.3 h -20 z m -0.7,-49.1 c 0,-1.7 -0.4,-3 -1.1,-4 -0.7,-1 -1.6,-1.8 -2.7,-2.4 -1.1,-0.6 -2.3,-1 -3.7,-1.2 -1.4,-0.2 -2.7,-0.3 -4,-0.3 h -9.1 v 16.5 h 8.1 c 1.4,0 2.8,-0.1 4.3,-0.4 1.5,-0.2 2.8,-0.6 4,-1.2 1.2,-0.6 2.2,-1.5 3,-2.6 0.8,-1.1 1.2,-2.6 1.2,-4.4 z"
   id="path1674"
   inkscape:connector-curvature="0" />
	<path
   class="st1"
   d="m 3166.3,212.6 v 30 h -17.1 v -30 l -26.6,-40.8 h 20.7 l 15.1,26.2 15.1,-26.2 h 20 z"
   id="path1676"
   inkscape:connector-curvature="0" />
</g>




















































</svg>
